<?xml version="1.0" standalone="no"?>
<!DOCTYPE svg PUBLIC "-//W3C//DTD SVG 1.1//EN" "http://www.w3.org/Graphics/SVG/1.1/DTD/svg11.dtd" >
<svg xmlns="http://www.w3.org/2000/svg" xmlns:xlink="http://www.w3.org/1999/xlink" version="1.1">
<metadata>
Created by FontForge 20170731 at Mon Apr  4 20:10:48 2022
 By Aleksey,,,
Copyright (c) The Font Bureau, Inc., 2008. All rights reserved.
</metadata>
<defs>
<font id="BentonSansBBVA-Book" horiz-adv-x="1331" >
  <font-face 
    font-family="BentonSansBBVA Book"
    font-weight="350"
    font-stretch="normal"
    units-per-em="2048"
    panose-1="0 0 0 0 0 0 0 2 0 0"
    ascent="1638"
    descent="-410"
    x-height="1077"
    cap-height="1516"
    bbox="-197 -483 2697 1968"
    underline-thickness="0"
    underline-position="0"
    unicode-range="U+0020-FEFF"
  />
<missing-glyph horiz-adv-x="1024" 
d="M0 0v1434h1024v-1434h-1024zM102 1331v-1229h820v1229h-820z" />
    <glyph glyph-name="f_f" unicode="ff" horiz-adv-x="1280" 
d="M383 0h-141v958h-187v119h187v164q0 136 78 206.5t225 70.5q33 0 73 -5l11 -114q-18 2 -74 2q-172 0 -172 -156v-168h459v164q0 137 78.5 207t232.5 70q36 0 76 -5l10 -114q-18 2 -78 2q-178 0 -178 -156v-168h238v-119h-238v-958h-141v958h-459v-958z" />
    <glyph glyph-name="f_i" unicode="fi" horiz-adv-x="1175" 
d="M913 1315q-40 0 -63 24.5t-23 65.5q0 40 23 63t63 23t63 -23t23 -63q0 -41 -23 -65.5t-63 -24.5zM242 1077v164q0 136 77 206.5t226 70.5q38 0 73 -5l15 -116q-18 4 -78 4q-172 0 -172 -156v-168h229v-119h-229v-958h-141v958h-187v119h187zM985 0h-141v1077h141v-1077z
" />
    <glyph glyph-name="f_l" unicode="fl" horiz-adv-x="1175" 
d="M985 0h-141v1505l141 21v-1526zM242 1077v164q0 136 77 206.5t226 70.5q38 0 73 -5l15 -116q-18 4 -78 4q-172 0 -172 -156v-168h229v-119h-229v-958h-141v958h-187v119h187z" />
    <glyph glyph-name="f_f_i" unicode="ffi" horiz-adv-x="1759" 
d="M1513 1315q-40 0 -63 24.5t-23 65.5q0 40 23 63t63 23t63 -23t23 -63q0 -41 -23 -65.5t-63 -24.5zM1585 0h-141v1077h141v-1077zM983 1077h231v-119h-231v-958h-141v958h-459v-958h-141v958h-187v119h187v164q0 136 77 206.5t226 70.5q63 0 73 -5l15 -116q-18 4 -78 4
q-172 0 -172 -156v-168h459v164q0 137 77 207t228 70q67 0 72 -5l16 -116q-18 4 -80 4q-172 0 -172 -156v-168z" />
    <glyph glyph-name="f_f_l" unicode="ffl" horiz-adv-x="1759" 
d="M1583 0h-141v1505l141 21v-1526zM983 1077h231v-119h-231v-958h-141v958h-459v-958h-141v958h-187v119h187v164q0 136 77 206.5t226 70.5q38 0 73 -5l15 -116q-18 4 -78 4q-172 0 -172 -156v-168h459v164q0 137 77 207t228 70q37 0 72 -5l16 -116q-18 4 -80 4
q-172 0 -172 -156v-168z" />
    <glyph glyph-name="f_j" unicode="fj" horiz-adv-x="1175" 
d="M913 1315q-40 0 -63 24.5t-23 65.5q0 40 23 63t63 23t63 -23t23 -63q0 -41 -23 -65.5t-63 -24.5zM383 0h-141v958h-187v119h187v164q0 136 77 206.5t226 70.5q36 0 71 -5l17 -116q-18 4 -78 4q-172 0 -172 -156v-168h229v-119h-229v-958zM758 -412q-38 0 -80 6l-12 115
q27 -6 71 -6q107 0 107 119v1255h141v-1247q0 -119 -53.5 -180.5t-173.5 -61.5z" />
    <glyph glyph-name=".notdef" horiz-adv-x="1024" 
d="M0 0v1434h1024v-1434h-1024zM102 1331v-1229h820v1229h-820z" />
    <glyph glyph-name=".null" horiz-adv-x="0" 
 />
    <glyph glyph-name="nonmarkingreturn" horiz-adv-x="682" 
 />
    <glyph glyph-name="space" unicode=" " horiz-adv-x="462" 
 />
    <glyph glyph-name="space" unicode="&#xa0;" horiz-adv-x="462" 
 />
    <glyph glyph-name="exclam" unicode="!" horiz-adv-x="641" 
d="M365 414h-84l-48 1102h177zM322 -10q-47 0 -74 29t-27 79q0 48 27 76.5t74 28.5q46 0 73 -29t27 -76q0 -49 -27 -78.5t-73 -29.5z" />
    <glyph glyph-name="quotedbl" unicode="&#x22;" horiz-adv-x="829" 
d="M627 1001h-74l-35 402v113h144v-113zM274 1001h-71l-35 402v113h141v-113z" />
    <glyph glyph-name="numbersign" unicode="#" horiz-adv-x="1449" 
d="M567 954l-84 -393h394l81 393h-391zM367 0h-131l92 444h-238v117h262l82 393h-256v117h281l94 445h131l-94 -445h393l94 445h131l-94 -445h246v-117h-270l-82 -393h264v-117h-289l-92 -444h-131l92 444h-391z" />
    <glyph glyph-name="dollar" unicode="$" horiz-adv-x="1325" 
d="M608 870v537q-150 -9 -226.5 -78t-76.5 -172q0 -60 22.5 -106.5t67.5 -79.5t93.5 -55.5t119.5 -45.5zM713 705v-594q74 5 133 21.5t107.5 47.5t75 83t26.5 122q0 57 -19 103t-47.5 77.5t-76.5 58.5t-92 44t-107 37zM606 -190v182q-96 6 -178.5 33.5t-140.5 69t-97.5 83.5
t-68.5 90l100 78q71 -108 163.5 -167t223.5 -68v624q-57 17 -100 32t-91.5 36.5t-83 44t-68 53.5t-54 66t-33 81t-12.5 99q0 157 117.5 264.5t322.5 116.5v149h109v-151q278 -28 418 -250l-103 -80q-65 97 -134 146.5t-183 60.5v-563q62 -18 104 -31.5t97 -36t91.5 -45.5
t75.5 -56.5t62 -72t38 -90.5t15 -113q0 -173 -128.5 -282.5t-352.5 -122.5v-180h-109z" />
    <glyph glyph-name="percent" unicode="%" horiz-adv-x="1986" 
d="M467 627q-161 0 -250.5 123t-89.5 327q0 212 92.5 335.5t249.5 123.5q156 0 247 -122.5t91 -328.5q0 -204 -91 -331t-249 -127zM606 0h-131l905 1516h131zM469 737q98 0 153.5 97t55.5 247q0 157 -55.5 250.5t-155.5 93.5q-99 0 -155 -96t-56 -244q0 -158 56 -253
t157 -95zM1518 -20q-160 0 -250 123.5t-90 326.5q0 210 93.5 334.5t250.5 124.5q156 0 247 -122.5t91 -330.5q0 -203 -91.5 -329.5t-250.5 -126.5zM1520 90q99 0 154 96.5t55 247.5q0 157 -55 250.5t-156 93.5q-99 0 -154 -95.5t-55 -246.5q0 -157 55 -251.5t156 -94.5z" />
    <glyph glyph-name="ampersand" unicode="&#x26;" horiz-adv-x="1476" 
d="M563 899q70 36 119.5 68.5t95 75t69 94t23.5 110.5q0 76 -45 126t-139 50q-102 0 -157.5 -63.5t-55.5 -165.5q0 -78 20.5 -146t69.5 -149zM592 94q208 0 342 125q-120 117 -289 328q-105 132 -149 196q-269 -153 -269 -358q0 -137 93 -214t272 -77zM590 -29
q-252 0 -380 107t-128 297q0 106 50 196t124.5 151t181.5 118q-104 180 -104 348q0 149 92 252.5t260 103.5q152 0 235 -82t83 -209q0 -76 -29 -141.5t-85 -119.5t-120 -96t-152 -87q29 -43 142 -191q151 -195 262 -303q129 173 160 445l137 -6q-42 -311 -201 -516
q158 -129 301 -129l15 -129q-120 6 -214.5 41.5t-193.5 117.5q-189 -168 -436 -168z" />
    <glyph glyph-name="quotesingle" unicode="'" horiz-adv-x="477" 
d="M274 1001h-71l-35 402v113h141v-113z" />
    <glyph glyph-name="parenleft" unicode="(" horiz-adv-x="813" 
d="M705 -350l-66 -70q-256 215 -383 454t-127 525q0 285 127.5 524.5t382.5 454.5l63 -72q-197 -180 -307 -412t-110 -495q0 -264 111 -496.5t309 -412.5z" />
    <glyph glyph-name="parenright" unicode=")" horiz-adv-x="813" 
d="M174 -420l-63 70q197 181 308 413t111 496q0 262 -111 494t-308 413l63 72q256 -215 384 -454.5t128 -524.5q0 -286 -128 -524.5t-384 -454.5z" />
    <glyph glyph-name="asterisk" unicode="*" horiz-adv-x="1040" 
d="M520 1063l-162 -340l-102 59l213 310l-375 -27v113l377 -27l-215 309l102 60l162 -340l162 340l102 -60l-213 -309l375 27v-113l-375 27l213 -310l-102 -59z" />
    <glyph glyph-name="plus" unicode="+" horiz-adv-x="1302" 
d="M715 154h-125v458h-457v123h457v459h125v-459h454v-123h-454v-458z" />
    <glyph glyph-name="comma" unicode="," horiz-adv-x="548" 
d="M248 -207h-86l53 400h176z" />
    <glyph glyph-name="hyphen" unicode="-" horiz-adv-x="731" 
d="M596 582h-461v123h461v-123z" />
    <glyph glyph-name="hyphen" unicode="&#x2011;" horiz-adv-x="731" 
d="M596 582h-461v123h461v-123z" />
    <glyph glyph-name="hyphen" unicode="&#x2010;" horiz-adv-x="731" 
d="M596 582h-461v123h461v-123z" />
    <glyph glyph-name="hyphen" unicode="&#xad;" horiz-adv-x="731" 
d="M596 582h-461v123h461v-123z" />
    <glyph glyph-name="period" unicode="." horiz-adv-x="548" 
d="M274 -10q-47 0 -73.5 29t-26.5 79q0 48 26.5 76.5t73.5 28.5q46 0 73.5 -29t27.5 -76q0 -49 -27.5 -78.5t-73.5 -29.5z" />
    <glyph glyph-name="slash" unicode="/" horiz-adv-x="1124" 
d="M197 0h-150l881 1516h149z" />
    <glyph glyph-name="zero" unicode="0" horiz-adv-x="1337" 
d="M670 -29q-263 0 -410 213.5t-147 573.5t147 573t410 213q175 0 300.5 -98t189 -274.5t63.5 -413.5t-63.5 -413.5t-189 -275t-300.5 -98.5zM670 100q194 0 301.5 170t107.5 488q0 316 -110 486.5t-299 170.5q-195 0 -303.5 -169.5t-108.5 -487.5q0 -316 110.5 -487
t301.5 -171z" />
    <glyph glyph-name="one" unicode="1" horiz-adv-x="884" 
d="M590 0h-141v1380l-291 -98l-19 121l318 113h133v-1516z" />
    <glyph glyph-name="two" unicode="2" horiz-adv-x="1202" 
d="M1079 0h-981v33q0 116 42.5 217t157 218t308.5 241q175 110 247.5 200.5t72.5 210.5q0 134 -81 214.5t-231 80.5q-126 0 -218 -65.5t-158 -200.5l-109 72q77 157 202.5 240t289.5 83q204 0 325 -115.5t121 -300.5q0 -155 -86 -269.5t-305 -252.5q-201 -129 -307 -250.5
t-111 -224.5h811z" />
    <glyph glyph-name="three" unicode="3" horiz-adv-x="1210" 
d="M582 -29q-165 0 -299.5 73.5t-219.5 207.5l101 86q157 -238 418 -238q168 0 265 84.5t97 223.5q0 170 -112.5 251.5t-374.5 81.5h-54l-8 125h74q235 0 338.5 70.5t103.5 214.5q0 118 -79 191t-242 73q-211 0 -363 -190l-96 92q192 227 467 227q116 0 205 -31t142.5 -85
t80.5 -120.5t27 -142.5q0 -145 -81 -240t-222 -118q337 -67 337 -399q0 -190 -138 -313.5t-367 -123.5z" />
    <glyph glyph-name="four" unicode="4" horiz-adv-x="1241" 
d="M938 0h-141v367h-729v108l690 1041h180v-1020h252l6 -129h-258v-367zM793 1346l-562 -850h566v850h-4z" />
    <glyph glyph-name="five" unicode="5" horiz-adv-x="1191" 
d="M580 -29q-160 0 -289 73.5t-207 197.5l94 92q154 -234 400 -234q95 0 169 33t118.5 90t67.5 126t23 147q0 177 -95.5 276.5t-250.5 99.5q-215 0 -346 -190l-108 41l59 793h795l4 -134h-678l-41 -526q121 141 336 141q208 0 338.5 -135t130.5 -360q0 -232 -141.5 -381.5
t-378.5 -149.5z" />
    <glyph glyph-name="six" unicode="6" horiz-adv-x="1251" 
d="M651 -29q-113 0 -209 46.5t-170.5 137.5t-116.5 239t-42 337q0 231 76 416.5t212.5 291t307.5 105.5q218 0 356 -114l-68 -115q-66 53 -130 77.5t-160 24.5q-137 0 -241 -89t-158 -241t-54 -342q187 203 432 203q231 0 352 -129.5t121 -343.5q0 -144 -61 -258
t-177.5 -180t-269.5 -66zM657 96q164 0 262.5 100.5t98.5 276.5q0 160 -86 255t-262 95q-123 0 -229.5 -60t-180.5 -163q22 -250 130 -377t267 -127z" />
    <glyph glyph-name="seven" unicode="7" horiz-adv-x="1124" 
d="M391 -4l-145 8l637 1378h-774l-11 134h936v-125z" />
    <glyph glyph-name="eight" unicode="8" horiz-adv-x="1243" 
d="M623 -31q-249 0 -395 114t-146 284q0 78 26.5 142t81 116.5t124 94.5t169.5 85q-82 37 -139.5 72.5t-102.5 80t-67 99.5t-22 123q0 70 32.5 135.5t91 117t149 82.5t198.5 31q110 0 200.5 -31t148 -82.5t89 -116.5t31.5 -136q0 -128 -81 -210.5t-255 -160.5
q104 -46 173.5 -86.5t124.5 -93t81 -117t26 -145.5t-37 -153t-104 -126.5t-170 -86.5t-227 -32zM629 864q178 77 249.5 142.5t71.5 167.5q0 101 -84 175t-243 74q-154 0 -242 -72.5t-88 -170.5q0 -53 19 -95t63.5 -79.5t103 -69.5t150.5 -72zM623 92q174 0 284.5 77.5
t110.5 205.5q0 63 -25.5 114t-80.5 96t-124 82t-174 81q-211 -94 -300 -175t-89 -198q0 -124 112 -203.5t286 -79.5z" />
    <glyph glyph-name="nine" unicode="9" horiz-adv-x="1251" 
d="M582 692q122 0 228.5 60t180.5 163q-11 127 -46.5 224.5t-89 157.5t-119.5 90t-142 30q-165 0 -263 -99.5t-98 -275.5q0 -77 20.5 -139.5t61.5 -110.5t109 -74t158 -26zM549 -29q-238 0 -391 135l65 115q79 -65 148 -94t178 -29q135 0 237.5 89.5t156 241.5t52.5 341
q-187 -203 -430 -203q-231 0 -352 129.5t-121 343.5q0 144 61 258t177.5 180t269.5 66q113 0 209 -46.5t170 -137.5t116 -238.5t42 -337.5q0 -231 -75 -416.5t-210 -291t-303 -105.5z" />
    <glyph glyph-name="colon" unicode=":" horiz-adv-x="555" 
d="M276 874q-47 0 -73.5 28.5t-26.5 78.5t26.5 78t73.5 28q46 0 73.5 -28.5t27.5 -77.5t-27.5 -78t-73.5 -29zM276 -10q-47 0 -73.5 29t-26.5 79q0 48 26.5 76.5t73.5 28.5q46 0 73.5 -29t27.5 -76q0 -49 -27.5 -78.5t-73.5 -29.5z" />
    <glyph glyph-name="semicolon" unicode=";" horiz-adv-x="555" 
d="M276 874q-47 0 -73.5 28.5t-26.5 78.5t26.5 78t73.5 28q46 0 73.5 -28.5t27.5 -77.5t-27.5 -78t-73.5 -29zM252 -207h-86l53 400h174z" />
    <glyph glyph-name="less" unicode="&#x3c;" horiz-adv-x="1302" 
d="M1188 281v-134l-1084 465v103l1084 465v-133l-920 -383z" />
    <glyph glyph-name="equal" unicode="=" horiz-adv-x="1302" 
d="M1167 838h-1034v120h1034v-120zM1167 371h-1034v121h1034v-121z" />
    <glyph glyph-name="greater" unicode="&#x3e;" horiz-adv-x="1302" 
d="M1200 612l-1083 -465v134l919 383l-919 383v133l1083 -465v-103z" />
    <glyph glyph-name="question" unicode="?" horiz-adv-x="1103" 
d="M553 412h-117q-4 82 -4 135q0 108 42 180t142 131q70 43 108 70t71.5 64t46 78t12.5 97q0 114 -81.5 181t-223.5 67q-237 0 -389 -203l-94 95q191 237 491 237q196 0 318 -102.5t122 -265.5q0 -59 -14 -109t-36 -86.5t-58 -71t-70.5 -59t-83.5 -53.5q-44 -26 -73 -47
t-50.5 -48t-32.5 -50t-17 -63t-7.5 -76.5t-1.5 -100.5zM494 -10q-46 0 -73.5 29.5t-27.5 78.5q0 47 27.5 76t73.5 29t74 -29t28 -76q0 -49 -28 -78.5t-74 -29.5z" />
    <glyph glyph-name="at" unicode="@" horiz-adv-x="1777" 
d="M885 -29q-228 0 -406.5 98t-278.5 277.5t-100 411.5q0 230 102.5 410t282 278t404.5 98q134 0 255.5 -36t218 -104t167.5 -161t109 -212.5t38 -252.5q0 -212 -96 -335.5t-246 -123.5q-94 0 -155.5 45t-85.5 115q-173 -155 -340 -155q-140 0 -225 84t-85 245
q0 154 54 280.5t153 200.5t223 74q155 0 267 -112l14 94h117l-88 -602q-12 -80 31.5 -131t130.5 -51q108 0 176.5 94t68.5 276q0 200 -90.5 357t-250.5 243t-361 86q-151 0 -280.5 -52t-221.5 -143.5t-144.5 -223t-52.5 -285.5q0 -205 89 -366.5t248 -251t360 -89.5
q220 0 418 109l36 -70q-213 -119 -456 -119zM770 424q81 0 150 31t143 102l61 428q-52 63 -113 91t-143 28q-132 0 -216.5 -128.5t-84.5 -311.5q0 -122 53 -181t150 -59z" />
    <glyph glyph-name="A" unicode="A" horiz-adv-x="1376" 
d="M215 0h-141l536 1522h156l534 -1510l-143 -24l-166 479h-614zM682 1350l-260 -754h524l-260 754h-4z" />
    <glyph glyph-name="B" unicode="B" horiz-adv-x="1402" 
d="M766 0h-571v1516h526q253 0 383.5 -99t130.5 -282q0 -144 -81 -233.5t-206 -117.5v-4q149 -27 242.5 -119.5t93.5 -248.5q0 -187 -132 -299.5t-386 -112.5zM338 1384v-542h371q185 0 284 68.5t99 205.5q0 138 -91.5 203t-287.5 65h-375zM338 715v-586h426q191 0 284 74.5
t93 214.5q0 149 -111 223t-311 74h-381z" />
    <glyph glyph-name="C" unicode="C" horiz-adv-x="1427" 
d="M752 -29q-189 0 -332 98t-221 278t-78 417q0 227 78 404t221 276.5t328 99.5q374 0 520 -334l-125 -65q-56 132 -151.5 199t-243.5 67q-220 0 -351 -176.5t-131 -466.5q0 -311 132 -488.5t356 -177.5q152 0 258 78t164 226l124 -58q-69 -180 -208 -278.5t-340 -98.5z" />
    <glyph glyph-name="D" unicode="D" horiz-adv-x="1452" 
d="M578 0h-383v1516h383q370 0 561.5 -191t191.5 -565q0 -373 -193.5 -566.5t-559.5 -193.5zM340 1380v-1247h260q586 0 586 625q0 315 -150.5 468.5t-439.5 153.5h-256z" />
    <glyph glyph-name="E" unicode="E" horiz-adv-x="1236" 
d="M1143 0h-948v1516h905v-136h-760v-514h567l23 -131h-590v-602h803v-133z" />
    <glyph glyph-name="F" unicode="F" horiz-adv-x="1159" 
d="M340 0h-145v1516h886v-136h-741v-522h547l20 -131h-567v-727z" />
    <glyph glyph-name="G" unicode="G" horiz-adv-x="1480" 
d="M743 -29q-193 0 -335.5 104.5t-214.5 282.5t-72 406q0 175 47.5 321.5t131.5 247t200.5 156t253.5 55.5q184 0 316.5 -91t203.5 -263l-129 -62q-55 143 -149 213t-242 70q-100 0 -187.5 -41.5t-155 -120t-106.5 -202t-39 -277.5q0 -311 134.5 -489.5t355.5 -178.5
q192 0 306.5 130.5t113.5 355.5h-357l-22 125h520v-713h-131v219h-4q-58 -111 -167 -179.5t-272 -68.5z" />
    <glyph glyph-name="H" unicode="H" horiz-adv-x="1499" 
d="M340 0h-145v1516h145v-650h821v650h146v-1516h-146v733h-821v-733z" />
    <glyph glyph-name="I" unicode="I" horiz-adv-x="575" 
d="M360 0h-145v1516h145v-1516z" />
    <glyph glyph-name="J" unicode="J" horiz-adv-x="1019" 
d="M449 -29q-232 0 -359 158l80 107q99 -136 272 -136q252 0 252 310v1106h146v-1108q0 -212 -102 -324.5t-289 -112.5z" />
    <glyph glyph-name="K" unicode="K" horiz-adv-x="1368" 
d="M340 0h-145v1516h145v-818l725 818h178l-520 -574l600 -930l-152 -24l-546 841l-285 -311v-518z" />
    <glyph glyph-name="L" unicode="L" horiz-adv-x="1157" 
d="M1092 0h-897v1516h145v-1383h729z" />
    <glyph glyph-name="M" unicode="M" horiz-adv-x="1783" 
d="M330 0h-135v1516h188l508 -1328h4l506 1328h190v-1516h-145v1272h-4q-24 -85 -94 -266l-394 -1006h-133l-393 1006q-60 156 -94 268h-4v-1274z" />
    <glyph glyph-name="N" unicode="N" horiz-adv-x="1521" 
d="M332 0h-137v1516h155l836 -1250h4v1250h137v-1516h-129l-862 1288h-4v-1288z" />
    <glyph glyph-name="O" unicode="O" horiz-adv-x="1519" 
d="M760 -29q-137 0 -254.5 56.5t-202.5 158t-133.5 249.5t-48.5 323t48.5 322.5t133.5 249t202.5 158t254.5 56.5q136 0 253.5 -56.5t203 -158t134 -249t48.5 -322.5t-48.5 -323t-134 -249.5t-203 -158t-253.5 -56.5zM760 102q219 0 356 176.5t137 479.5q0 302 -137 477.5
t-356 175.5t-356.5 -175.5t-137.5 -477.5t137.5 -479t356.5 -177z" />
    <glyph glyph-name="P" unicode="P" horiz-adv-x="1316" 
d="M340 0h-145v1516h503q252 0 391.5 -104t139.5 -310q0 -112 -40 -196t-113.5 -134.5t-171 -75t-220.5 -24.5h-344v-672zM340 1382v-581h354q194 0 291.5 69.5t97.5 227.5q0 150 -97.5 217t-293.5 67h-352z" />
    <glyph glyph-name="Q" unicode="Q" horiz-adv-x="1519" 
d="M1255 -381h-125q-218 0 -333 98t-117 260q-249 28 -404 241.5t-155 539.5q0 175 48.5 322.5t133.5 249t202.5 158t254.5 56.5q136 0 253.5 -56.5t202 -158t133 -249t48.5 -322.5q0 -330 -159.5 -544t-412.5 -239q6 -65 33 -110.5t73.5 -70t102 -35.5t127.5 -11h117z
M760 102q218 0 354.5 177t136.5 479t-136.5 477.5t-354.5 175.5q-219 0 -356.5 -175.5t-137.5 -477.5t137.5 -479t356.5 -177z" />
    <glyph glyph-name="R" unicode="R" horiz-adv-x="1374" 
d="M338 0h-143v1516h507q253 0 389 -106t136 -308q0 -335 -361 -406l387 -684l-149 -24l-389 692h-377v-680zM338 1382v-573h354q196 0 293.5 67t97.5 224q0 151 -98 216.5t-295 65.5h-352z" />
    <glyph glyph-name="S" unicode="S" horiz-adv-x="1329" 
d="M678 -29q-362 0 -604 242l84 109q100 -101 233.5 -160.5t284.5 -59.5q175 0 279 73.5t104 199.5q0 82 -33 137t-119.5 104t-247.5 99q-106 33 -177 61t-135.5 65.5t-100.5 80.5t-57 101t-21 132q0 165 133 277t338 112q300 0 539 -215l-74 -115q-109 98 -221 148.5
t-244 50.5q-149 0 -238.5 -71.5t-89.5 -176.5q0 -64 19.5 -108.5t73 -82.5t126.5 -68t201 -70q125 -40 207.5 -79t145 -91.5t90.5 -121.5t28 -161q0 -185 -147 -298.5t-377 -113.5z" />
    <glyph glyph-name="T" unicode="T" horiz-adv-x="1263" 
d="M705 0h-146v1380h-489v136h1112l22 -136h-499v-1380z" />
    <glyph glyph-name="U" unicode="U" horiz-adv-x="1464" 
d="M731 -29q-135 0 -241.5 42t-173 116.5t-101.5 171.5t-35 211v1004h146v-984q0 -193 102 -310.5t305 -117.5t304.5 115t101.5 309v988h145v-1000q0 -114 -35 -212t-102 -173t-174 -117.5t-242 -42.5z" />
    <glyph glyph-name="V" unicode="V" horiz-adv-x="1349" 
d="M743 -6h-137l-528 1509l141 25l457 -1335h4l455 1323h141z" />
    <glyph glyph-name="W" unicode="W" horiz-adv-x="1894" 
d="M623 0h-138l-401 1503l141 25l240 -932q46 -172 92 -381h4q29 149 88 379l225 922h154l229 -930q77 -318 86 -371h5q18 83 88 363l237 938h139l-401 -1516h-137l-322 1315h-4z" />
    <glyph glyph-name="X" unicode="X" horiz-adv-x="1345" 
d="M215 0h-149l528 813l-453 690l150 25l387 -600l377 588h155l-456 -703l520 -801l-144 -24l-458 710z" />
    <glyph glyph-name="Y" unicode="Y" horiz-adv-x="1265" 
d="M705 0h-146v668l-500 835l142 25l434 -735l426 723h151l-507 -848v-668z" />
    <glyph glyph-name="Z" unicode="Z" horiz-adv-x="1275" 
d="M1184 0h-1098v104l909 1289h-837l-25 123h1038v-107l-905 -1286h893z" />
    <glyph glyph-name="bracketleft" unicode="[" horiz-adv-x="796" 
d="M700 -410h-520v1926h520v-109h-376v-1708h376v-109z" />
    <glyph glyph-name="backslash" unicode="\" horiz-adv-x="1112" 
d="M1071 0h-149l-881 1516h149z" />
    <glyph glyph-name="bracketright" unicode="]" horiz-adv-x="796" 
d="M616 -410h-520v109h377v1706h-377v111h520v-1926z" />
    <glyph glyph-name="asciicircum" unicode="^" horiz-adv-x="1302" 
d="M137 692l463 824h105l462 -824h-131l-385 678l-383 -678h-131z" />
    <glyph glyph-name="underscore" unicode="_" horiz-adv-x="1024" 
d="M1024 -258h-1024v115h1024v-115z" />
    <glyph glyph-name="grave" unicode="`" horiz-adv-x="1024" 
d="M586 1194l-289 319h186l195 -319h-92z" />
    <glyph glyph-name="a" unicode="a" horiz-adv-x="1120" 
d="M434 98q217 0 395 170v336q-174 -30 -292 -66.5t-182 -79.5t-90.5 -88t-26.5 -100q0 -84 51.5 -128t144.5 -44zM403 -18q-144 0 -224.5 72.5t-80.5 199.5q0 83 37.5 149.5t121.5 124t226.5 102t345.5 75.5v55q0 109 -57 165t-164 56q-118 0 -211 -43t-188 -127l-80 88
q107 98 221 149.5t268 51.5q176 0 263.5 -89.5t87.5 -254.5v-756h-125l-15 154q-194 -172 -426 -172z" />
    <glyph glyph-name="b" unicode="b" horiz-adv-x="1214" 
d="M662 -18q-195 0 -357 165l-4 -147h-137v1505l141 21v-604q156 178 361 178q94 0 174 -35t140.5 -102.5t95 -175.5t34.5 -246q0 -271 -125.5 -415t-322.5 -144zM645 100q144 0 234 110.5t90 328.5q0 213 -92.5 326.5t-235.5 113.5q-94 0 -170 -43t-166 -133v-529
q87 -89 167 -131.5t173 -42.5z" />
    <glyph glyph-name="c" unicode="c" horiz-adv-x="1087" 
d="M569 -23q-94 0 -178 38t-148.5 108t-102.5 178t-38 238q0 140 41 250t110 176.5t153.5 100.5t177.5 34q271 0 397 -256l-111 -68q-48 103 -116 154t-174 51q-63 0 -120.5 -24.5t-107 -75t-79 -138.5t-29.5 -204q0 -203 94 -323t240 -120q105 0 175 51.5t126 159.5
l104 -67q-138 -263 -414 -263z" />
    <glyph glyph-name="d" unicode="d" horiz-adv-x="1214" 
d="M573 102q94 0 170.5 43.5t165.5 133.5v526q-88 89 -167.5 132.5t-172.5 43.5q-142 0 -232.5 -112t-90.5 -330q0 -213 92 -325t235 -112zM549 -18q-95 0 -174.5 34.5t-140.5 101t-95.5 174t-34.5 245.5t35 246.5t96 177t142 104t176 35.5q105 0 198 -47t158 -123v575
l142 21v-1526h-127l-15 156q-159 -174 -360 -174z" />
    <glyph glyph-name="e" unicode="e" horiz-adv-x="1118" 
d="M596 -23q-103 0 -192 37t-156.5 106t-106.5 177.5t-39 243.5q0 111 27.5 204t73.5 157.5t107.5 110t128.5 66.5t136 21q195 0 318 -146.5t123 -414.5v-27h-772q1 -194 100 -305t254 -111q104 0 186 39.5t160 120.5l70 -92q-92 -97 -189.5 -142t-228.5 -45zM246 623h633
q-11 161 -89 259.5t-217 98.5q-125 0 -217 -92.5t-110 -265.5z" />
    <glyph glyph-name="f" unicode="f" horiz-adv-x="675" 
d="M383 0h-141v958h-187v119h187v164q0 277 311 277q34 0 74 -5l14 -116q-20 4 -80 4q-178 0 -178 -156v-168h238v-119h-238v-958z" />
    <glyph glyph-name="g" unicode="g" horiz-adv-x="1159" 
d="M543 436q132 0 210 74t78 199q0 130 -76.5 204t-213.5 74q-133 0 -211 -75.5t-78 -202.5q0 -124 79.5 -198.5t211.5 -74.5zM557 -414q-256 0 -384 71.5t-128 199.5q0 82 52 145t147 100q-97 40 -97 138q0 92 132 161q-77 50 -120.5 130.5t-43.5 179.5q0 171 121 280
t305 109q186 0 307 -111q48 35 113 63t124 35l21 -133q-121 0 -205 -36q64 -86 64 -207q0 -174 -120 -278.5t-304 -104.5q-95 0 -174 30q-86 -34 -86 -92q0 -35 35.5 -54t123.5 -28l236 -18q381 -30 381 -275q0 -145 -137 -225t-363 -80zM571 -303q164 0 259.5 49.5
t95.5 132.5q0 77 -68.5 117.5t-226.5 52.5l-215 17q-9 1 -28 3t-28 3q-88 -28 -134 -80.5t-46 -116.5q0 -178 391 -178z" />
    <glyph glyph-name="h" unicode="h" horiz-adv-x="1189" 
d="M305 0h-141v1505l141 21v-619q193 193 408 193q161 0 243 -82.5t82 -235.5v-782h-141v754q0 115 -52 170t-165 55q-98 0 -188.5 -47.5t-186.5 -140.5v-791z" />
    <glyph glyph-name="i" unicode="i" horiz-adv-x="491" 
d="M246 1315q-40 0 -63 24.5t-23 65.5q0 40 23 63t63 23t63 -23t23 -63q0 -41 -23 -65.5t-63 -24.5zM317 0h-141v1077h141v-1077z" />
    <glyph glyph-name="j" unicode="j" horiz-adv-x="491" 
d="M246 1315q-40 0 -63 24.5t-23 65.5q0 40 23 63t63 23t63 -23t23 -63q0 -41 -23 -65.5t-63 -24.5zM90 -412q-38 0 -80 6l-12 115q27 -6 72 -6q106 0 106 119v1255h141v-1247q0 -119 -53.5 -180.5t-173.5 -61.5z" />
    <glyph glyph-name="k" unicode="k" horiz-adv-x="1085" 
d="M305 0h-141v1505l141 21v-1016l514 567h166l-352 -379l391 -686l-139 -24l-346 604l-234 -252v-340z" />
    <glyph glyph-name="l" unicode="l" horiz-adv-x="491" 
d="M317 0h-141v1505l141 21v-1526z" />
    <glyph glyph-name="m" unicode="m" horiz-adv-x="1869" 
d="M305 0h-141v1077h127l14 -170q193 193 395 193q246 0 299 -195q204 195 406 195q160 0 235.5 -83.5t75.5 -236.5v-780h-141v754q0 117 -46 171t-157 54q-93 0 -177.5 -47t-182.5 -141v-791h-142v754q0 118 -46 171.5t-158 53.5q-92 0 -178 -47t-183 -141v-791z" />
    <glyph glyph-name="n" unicode="n" horiz-adv-x="1189" 
d="M305 0h-141v1077h127l14 -170q193 193 408 193q161 0 243 -82.5t82 -235.5v-782h-141v754q0 115 -52 171t-165 56q-98 0 -188.5 -47.5t-186.5 -140.5v-793z" />
    <glyph glyph-name="o" unicode="o" horiz-adv-x="1181" 
d="M592 -23q-100 0 -188.5 38t-155.5 108t-106.5 177.5t-39.5 238.5t39 238.5t106.5 177.5t156 107.5t188.5 37.5t188 -37.5t154.5 -107.5t105.5 -177.5t39 -238.5t-39 -238.5t-105.5 -177.5t-154.5 -108t-188 -38zM592 98q160 0 253 123t93 318q0 188 -91.5 314t-254.5 126
q-161 0 -254.5 -122.5t-93.5 -317.5q0 -123 38 -221t118 -159t192 -61z" />
    <glyph glyph-name="p" unicode="p" horiz-adv-x="1214" 
d="M645 100q144 0 234 109.5t90 329.5q0 213 -92.5 326.5t-235.5 113.5q-94 0 -170 -43t-166 -133v-529q87 -89 167 -131.5t173 -42.5zM305 -399l-141 -21v1497h127l14 -151q159 174 361 174q94 0 174 -35t140.5 -102.5t95 -175.5t34.5 -246q0 -271 -125.5 -415t-322.5 -144
q-195 0 -357 165v-546z" />
    <glyph glyph-name="q" unicode="q" horiz-adv-x="1214" 
d="M909 -420v578q-76 -82 -162 -129t-198 -47q-95 0 -174.5 34.5t-140.5 101t-95.5 174t-34.5 245.5t35 246.5t96 177t142 104t176 35.5q193 0 356 -166l15 143h127v-1476zM573 102q94 0 170.5 43.5t165.5 133.5v526q-88 89 -167.5 132.5t-172.5 43.5q-142 0 -232.5 -112
t-90.5 -330q0 -213 92 -325t235 -112z" />
    <glyph glyph-name="r" unicode="r" horiz-adv-x="806" 
d="M305 0h-141v1077h127l14 -211h4q146 234 424 234h15l12 -131q-4 2 -51 2q-133 0 -237.5 -70.5t-166.5 -198.5v-702z" />
    <glyph glyph-name="s" unicode="s" horiz-adv-x="1036" 
d="M512 -18q-140 0 -247 52t-175 138l78 86q142 -162 346 -162q136 0 208.5 49.5t72.5 137.5t-63.5 134t-233.5 85q-103 25 -169 50t-115 61.5t-70 85.5t-21 118q0 120 98.5 201.5t267.5 81.5q239 0 398 -152l-72 -98q-139 133 -321 133q-116 0 -175 -46t-59 -114
q0 -75 54.5 -116t203.5 -76q115 -27 187 -53t126.5 -65t77.5 -91.5t23 -128.5q0 -146 -116 -228.5t-304 -82.5z" />
    <glyph glyph-name="t" unicode="t" horiz-adv-x="745" 
d="M520 -14q-148 0 -216 62.5t-68 207.5v702h-187v119h187v379l141 21v-400h280v-119h-280v-682q0 -89 38.5 -130.5t129.5 -41.5q52 0 106 15l17 -121q-70 -12 -148 -12z" />
    <glyph glyph-name="u" unicode="u" horiz-adv-x="1189" 
d="M477 -23q-159 0 -241 82.5t-82 235.5v782h141v-753q0 -116 51 -171t164 -55q97 0 187 48t190 141v790h141v-1077h-127l-14 170q-202 -193 -410 -193z" />
    <glyph glyph-name="v" unicode="v" horiz-adv-x="1042" 
d="M592 -6h-141l-394 1071l142 27l325 -924h4l318 909h143z" />
    <glyph glyph-name="w" unicode="w" horiz-adv-x="1529" 
d="M516 0h-129l-328 1065l142 27l153 -547q51 -179 101 -367h4q52 206 98 367l148 532h129l149 -542q20 -66 96 -357h4q52 200 97 352l159 547h136l-332 -1077h-131l-244 887h-4z" />
    <glyph glyph-name="x" unicode="x" horiz-adv-x="1046" 
d="M215 0h-152l388 559l-353 506l142 27l288 -430l283 415h152l-363 -518l379 -547l-139 -24l-318 465z" />
    <glyph glyph-name="y" unicode="y" horiz-adv-x="1079" 
d="M201 -412q-85 0 -144 15l-10 123q88 -19 156 -19q87 0 137.5 39.5t85.5 128.5l45 119l-412 1071l142 27l340 -924h4l334 909h147l-465 -1202q-40 -103 -81 -162t-109.5 -92t-169.5 -33z" />
    <glyph glyph-name="z" unicode="z" horiz-adv-x="1036" 
d="M958 0h-874v90l657 871h-594l-20 116h793v-90l-658 -870h676z" />
    <glyph glyph-name="braceleft" unicode="{" horiz-adv-x="778" 
d="M692 -410h-127q-266 0 -266 279v385q0 75 -13.5 123.5t-43 75t-69.5 37t-101 10.5v106q61 0 101 10.5t69.5 37t43 75t13.5 123.5v385q0 279 266 279h127v-109h-90q-160 0 -160 -158v-403q0 -74 -11 -124.5t-35 -83t-53.5 -50.5t-74.5 -33v-4q45 -15 74.5 -33t53.5 -50.5
t35 -83t11 -124.5v-403q0 -158 160 -158h90v-109z" />
    <glyph glyph-name="bar" unicode="|" horiz-adv-x="706" 
d="M422 -410h-137v1926h137v-1926z" />
    <glyph glyph-name="braceright" unicode="}" horiz-adv-x="778" 
d="M219 -410h-133v109h90q160 0 160 158v409q0 74 11 123.5t35.5 81t53 48.5t74.5 32v4q-46 15 -74.5 32t-53 48.5t-35.5 81t-11 123.5v409q0 81 -35.5 122.5t-116.5 41.5h-90l-8 103h133q138 0 199 -68t61 -205v-391q0 -75 13.5 -123.5t43.5 -75t70 -37t101 -10.5v-106
q-61 0 -101 -10.5t-70 -37t-43.5 -75t-13.5 -123.5v-391q0 -137 -61 -205t-199 -68z" />
    <glyph glyph-name="asciitilde" unicode="~" horiz-adv-x="1302" 
d="M934 549q-70 4 -303.5 75t-274.5 74q-49 3 -77.5 -18t-34.5 -78l-97 12q9 112 68 163.5t154 45.5q69 -4 301.5 -75t273.5 -74q107 -7 115 96l98 -8q-12 -114 -70.5 -166.5t-152.5 -46.5z" />
    <glyph glyph-name="exclamdown" unicode="&#xa1;" horiz-adv-x="641" 
d="M319 1526q45 0 73 -29.5t28 -77.5q0 -49 -27.5 -77.5t-73.5 -28.5q-47 0 -73.5 28t-26.5 78q0 48 26.5 77.5t73.5 29.5zM276 1102h84l48 -1102h-177z" />
    <glyph glyph-name="cent" unicode="&#xa2;" horiz-adv-x="1089" 
d="M389 156l225 823q-10 2 -34 2q-50 0 -97 -14t-91.5 -47t-78 -82t-53.5 -125.5t-20 -171.5q0 -133 39.5 -231t109.5 -154zM268 -264l84 299q-114 65 -182 196t-68 308q0 139 41 249t110 176.5t153.5 101t177.5 34.5q41 0 59 -2l57 209h99l-64 -230q171 -61 262 -272
l-116 -53q-67 166 -185 209l-229 -846q52 -19 108 -19q110 0 182 54.5t132 177.5l110 -49q-69 -146 -171.5 -224t-258.5 -78q-67 0 -131 21l-71 -262h-99z" />
    <glyph glyph-name="sterling" unicode="&#xa3;" horiz-adv-x="1247" 
d="M438 741h-260v113h199q-32 60 -49.5 98.5t-33 96t-15.5 112.5q0 171 105 277t286 106q81 0 147 -21.5t110.5 -57.5t75.5 -86t47 -103t21 -113l-137 -16q-8 126 -72 199t-194 73q-119 0 -183.5 -68t-64.5 -188q0 -52 18.5 -111.5t34 -91t55.5 -106.5h353v-113h-295
q65 -148 65 -286q0 -131 -33 -226q52 -45 83 -68t79.5 -45t93.5 -22q94 0 138 66t53 213h129q-14 -402 -311 -402q-86 0 -159 41.5t-157 116.5q-98 -158 -282 -158q-87 0 -154.5 54t-67.5 149q0 102 63.5 165.5t170.5 63.5q99 0 215 -86q8 49 8 127q0 137 -82 297zM479 207
q-105 94 -184 94q-55 0 -88 -33.5t-33 -89.5q0 -50 33 -78t84 -28q134 0 188 135z" />
    <glyph glyph-name="currency" unicode="&#xa4;" horiz-adv-x="1302" 
d="M649 391q-113 0 -196 58l-213 -213l-84 83l211 211q-64 94 -64 205q0 114 59 199l-206 207l84 84l206 -207q89 61 203 61q119 0 205 -61l207 207l84 -84l-207 -205q61 -86 61 -201t-65 -205l211 -211l-82 -83l-213 213q-86 -58 -201 -58zM649 487q106 0 175 69t69 179
q0 111 -68.5 179.5t-175.5 68.5q-105 0 -173 -68.5t-68 -179.5q0 -110 68 -179t173 -69z" />
    <glyph glyph-name="yen" unicode="&#xa5;" horiz-adv-x="1261" 
d="M702 0h-145v258h-391v115h391v194h-391v115h387l-500 834h158l424 -717l420 717h153l-501 -834h391v-115h-396v-194h396v-115h-396v-258z" />
    <glyph glyph-name="brokenbar" unicode="&#xa6;" horiz-adv-x="706" 
d="M422 678h-137v838h137v-838zM422 -410h-137v838h137v-838z" />
    <glyph glyph-name="section" unicode="&#xa7;" horiz-adv-x="1085" 
d="M614 264q228 99 228 258q0 84 -64.5 145t-279.5 189q-4 2 -13.5 7t-13.5 7q-227 -100 -227 -258q0 -45 13 -77t55 -71t102 -78.5t174 -106.5q4 -2 13 -7.5t13 -7.5zM543 -410q-119 0 -204 41.5t-129 105.5t-65 152l121 37q29 -107 93.5 -163t179.5 -56t169 53t54 131
q0 75 -52 135.5t-200 147.5q-95 56 -152.5 92.5t-110 78t-78.5 78t-41 80t-15 95.5q0 59 23 113t63 95.5t82.5 72.5t91.5 55q-113 80 -155 146.5t-42 156.5q0 125 99.5 216t265.5 91q337 0 407 -299l-121 -37q-29 109 -94 164t-186 55q-116 0 -174 -53.5t-58 -130.5
q0 -73 55 -133.5t205 -148.5q79 -46 129.5 -78t100.5 -67.5t77.5 -64.5t50 -63.5t31.5 -70.5t9 -80q0 -114 -76 -200t-184 -138q111 -79 149.5 -144t38.5 -157q0 -126 -96.5 -217t-261.5 -91z" />
    <glyph glyph-name="dieresis" unicode="&#xa8;" horiz-adv-x="1036" 
d="M696 1182q-40 0 -64 27t-24 73q0 43 24 69.5t64 26.5q42 0 66 -26.5t24 -69.5q0 -46 -24 -73t-66 -27zM336 1182q-41 0 -64.5 27t-23.5 73q0 43 23.5 69.5t64.5 26.5t64.5 -26.5t23.5 -69.5q0 -46 -23.5 -73t-64.5 -27z" />
    <glyph glyph-name="copyright" unicode="&#xa9;" horiz-adv-x="1767" 
d="M883 -29q-161 0 -305.5 62t-249 167.5t-165.5 251t-61 306.5q0 215 104 395.5t284.5 285.5t394.5 105q160 0 304.5 -62t248.5 -167t165.5 -250.5t61.5 -306.5t-61.5 -306.5t-165.5 -251t-249 -167.5t-306 -62zM885 55q142 0 270.5 55.5t220 149.5t145.5 224t54 274
q0 143 -54 272.5t-146.5 224t-221 150t-270.5 55.5q-190 0 -349 -94t-250 -255t-91 -353q0 -191 91.5 -352.5t251 -256t349.5 -94.5zM881 319q-162 0 -260.5 124.5t-98.5 328.5q0 195 99.5 321t261.5 126q240 0 315 -261l-92 -32q-30 103 -82 151.5t-141 48.5
q-117 0 -187.5 -96.5t-70.5 -255.5q0 -170 70 -267t190 -97q175 0 231 211q84 -27 94 -29q-37 -132 -120 -202.5t-209 -70.5z" />
    <glyph glyph-name="ordfeminine" unicode="&#xaa;" horiz-adv-x="849" 
d="M348 850q146 0 268 119v219q-117 -19 -197.5 -43t-123.5 -54t-60.5 -61t-17.5 -69q0 -53 35 -82t96 -29zM326 756q-104 0 -163 50.5t-59 141.5q0 119 117.5 197.5t394.5 120.5v34q0 72 -37.5 111t-107.5 39q-84 0 -147 -28t-127 -87l-70 62q77 73 159 109t193 36
q125 0 187.5 -63.5t62.5 -180.5v-526h-98l-15 102q-137 -118 -290 -118z" />
    <glyph glyph-name="guillemotleft" unicode="&#xab;" horiz-adv-x="1069" 
d="M543 0h-148l-303 541l303 536h148l-297 -536zM948 0h-147l-303 541l303 536h147l-299 -536z" />
    <glyph glyph-name="logicalnot" unicode="&#xac;" horiz-adv-x="1292" 
d="M1157 745v-581h-121v461h-903v120h1024z" />
    <glyph glyph-name="registered" unicode="&#xae;" horiz-adv-x="1120" 
d="M559 596q-130 0 -239 63.5t-171.5 173t-62.5 240.5q0 97 37.5 185.5t101 152.5t151.5 101.5t185 37.5q130 0 239 -64t171.5 -173.5t62.5 -239.5q0 -200 -138 -338.5t-337 -138.5zM561 657q170 0 290 121.5t120 294.5q0 172 -120.5 294t-291.5 122q-170 0 -288.5 -122
t-118.5 -294q0 -174 119 -295t290 -121zM459 1106h106q59 0 89 20.5t30 69.5q0 84 -121 84h-104v-174zM385 817v529h184q89 0 138 -38.5t49 -109.5q0 -119 -115 -145l129 -236h-78l-125 227h-108v-227h-74z" />
    <glyph glyph-name="macron" unicode="&#xaf;" horiz-adv-x="1024" 
d="M252 1192v121h520v-121h-520z" />
    <glyph glyph-name="degree" unicode="&#xb0;" horiz-adv-x="825" 
d="M412 971q-124 0 -206.5 81t-82.5 205t82.5 205.5t206.5 81.5q125 0 207.5 -81.5t82.5 -205.5t-82.5 -205t-207.5 -81zM412 1063q82 0 134 54t52 140t-52 139.5t-134 53.5q-80 0 -132.5 -54t-52.5 -139q0 -86 52.5 -140t132.5 -54z" />
    <glyph glyph-name="plusminus" unicode="&#xb1;" horiz-adv-x="1302" 
d="M133 102v119h457v445h-457v120h457v461h125v-461h454v-120h-454v-445h454v-119h-1036z" />
    <glyph glyph-name="two.sups" unicode="&#xb2;" horiz-adv-x="913" 
d="M137 571v39q0 111 68.5 209.5t245.5 212.5q102 64 143 114t41 118q0 74 -43.5 117.5t-124.5 43.5q-71 0 -124 -39t-95 -126l-98 55q109 221 321 221q133 0 210 -74t77 -194q0 -97 -55.5 -171.5t-194.5 -158.5q-215 -134 -234 -254h488v-113h-625z" />
    <glyph glyph-name="three.sups" unicode="&#xb3;" horiz-adv-x="913" 
d="M453 553q-106 0 -193 50.5t-145 146.5l90 65q94 -151 246 -151q95 0 147.5 47t52.5 125q0 95 -63.5 141.5t-208.5 46.5h-53v98h59q130 0 189 39t59 119q0 66 -43.5 105.5t-130.5 39.5q-124 0 -219 -118l-84 69q131 160 307 160q146 0 220.5 -71t74.5 -175
q0 -78 -40.5 -133.5t-119.5 -81.5q94 -29 137 -88t43 -151q0 -124 -88.5 -203.5t-236.5 -79.5z" />
    <glyph glyph-name="acute" unicode="&#xb4;" horiz-adv-x="1024" 
d="M346 1194l195 319h186l-289 -319h-92z" />
    <glyph glyph-name="uni00B5" unicode="&#xb5;" horiz-adv-x="1200" 
d="M305 -410h-141v1487h141v-753q0 -116 51 -171t164 -55q98 0 188 47.5t189 139.5v792h141v-1077h-141v176q-198 -189 -387 -194q-144 -3 -205 73v-465z" />
    <glyph glyph-name="paragraph" unicode="&#xb6;" horiz-adv-x="1267" 
d="M745 -410h-120v1100q-243 5 -370.5 108.5t-127.5 301.5q0 184 124 300t345 116h483v-1926h-121v1805h-213v-1805z" />
    <glyph glyph-name="periodcentered" unicode="&#xb7;" horiz-adv-x="550" 
d="M274 547q-46 0 -72 28.5t-26 77.5q0 50 26 78.5t72 28.5q47 0 75 -29t28 -78t-28 -77.5t-75 -28.5z" />
    <glyph glyph-name="cedilla" unicode="&#xb8;" horiz-adv-x="1024" 
d="M514 -399q-139 0 -254 75l39 60q92 -62 199 -62q153 0 153 99q0 71 -86 71q-56 0 -108 -41l-58 27l54 170h86l-33 -111q50 31 110 31q62 0 104 -36.5t42 -102.5q0 -90 -69.5 -135t-178.5 -45z" />
    <glyph glyph-name="one.sups" unicode="&#xb9;" horiz-adv-x="714" 
d="M459 569h-123v826l-152 -43l-22 102l209 62h88v-947z" />
    <glyph glyph-name="ordmasculine" unicode="&#xba;" horiz-adv-x="878" 
d="M438 756q-147 0 -247.5 105.5t-100.5 287.5q0 185 100 289t248 104q150 0 250 -104t100 -289q0 -182 -100.5 -287.5t-249.5 -105.5zM438 848q111 0 174.5 84.5t63.5 216.5q0 127 -62.5 214t-175.5 87q-108 0 -171.5 -85t-63.5 -216q0 -128 61 -214.5t174 -86.5z" />
    <glyph glyph-name="guillemotright" unicode="&#xbb;" horiz-adv-x="1069" 
d="M266 0h-145l297 541l-297 536h145l305 -536zM672 0h-146l297 541l-297 536h146l305 -536z" />
    <glyph glyph-name="onequarter" unicode="&#xbc;" horiz-adv-x="1916" 
d="M420 0l911 1516h129l-905 -1516h-135zM494 571h-123v805l-142 -30l-47 116l262 51h50v-942zM1511 0v227h-440v82l426 639h137v-612h154v-109h-154v-227h-123zM1217 334h296v450z" />
    <glyph glyph-name="onehalf" unicode="&#xbd;" horiz-adv-x="1996" 
d="M420 0l911 1516h129l-905 -1516h-135zM494 571h-123v805l-142 -30l-47 116l262 51h50v-942zM1217 0v39q0 109 68 208.5t243 213.5q101 62 143.5 113t42.5 118q0 73 -45 118.5t-125 45.5q-134 0 -217 -168l-98 55q110 222 321 222q129 0 206 -74.5t77 -194.5
q0 -99 -53.5 -171t-190.5 -156q-219 -140 -235 -256h485v-113h-622z" />
    <glyph glyph-name="threequarters" unicode="&#xbe;" horiz-adv-x="1970" 
d="M520 0l905 1516h134l-908 -1516h-131zM1565 0v227h-437v82l422 639h140v-610h147l10 -111h-157v-227h-125zM453 553q-106 0 -193 50.5t-145 146.5l90 65q94 -151 246 -151q95 0 147.5 47t52.5 125q0 95 -63.5 141.5t-208.5 46.5h-53v98h59q130 0 189 39t59 119
q0 66 -43.5 105.5t-130.5 39.5q-124 0 -219 -118l-84 69q131 160 307 160q146 0 220.5 -71t74.5 -175q0 -78 -40.5 -133.5t-119.5 -81.5q94 -29 137 -88t43 -151q0 -124 -88.5 -203.5t-236.5 -79.5zM1270 334h299v450z" />
    <glyph glyph-name="questiondown" unicode="&#xbf;" horiz-adv-x="1103" 
d="M610 1526q46 0 72.5 -29.5t26.5 -79.5q0 -47 -26.5 -75.5t-72.5 -28.5q-47 0 -74.5 28.5t-27.5 75.5q0 50 27.5 79.5t74.5 29.5zM551 1104h115q4 -82 4 -135q0 -109 -41.5 -181t-141.5 -131q-56 -34 -88.5 -56.5t-65 -51t-48.5 -56t-25.5 -64t-9.5 -81.5
q0 -114 81.5 -181t223.5 -67q237 0 389 203l92 -94q-192 -238 -489 -238q-197 0 -319 103t-122 266q0 73 19 131t58.5 103t81 76.5t104.5 68.5q44 26 73 47t50 47.5t32 50.5t17.5 63.5t8 76.5t1.5 100z" />
    <glyph glyph-name="Agrave" unicode="&#xc0;" horiz-adv-x="1376" 
d="M645 1610l-289 319h187l194 -319h-92zM215 0h-141l536 1522h156l534 -1510l-143 -24l-166 479h-614zM682 1350l-260 -754h524l-260 754h-4z" />
    <glyph glyph-name="Aacute" unicode="&#xc1;" horiz-adv-x="1376" 
d="M641 1610l195 319h186l-289 -319h-92zM215 0h-141l536 1522h156l534 -1510l-143 -24l-166 479h-614zM682 1350l-260 -754h524l-260 754h-4z" />
    <glyph glyph-name="Acircumflex" unicode="&#xc2;" horiz-adv-x="1376" 
d="M371 1604l264 325h106l265 -325h-91l-229 200l-229 -200h-86zM215 0h-141l536 1522h156l534 -1510l-143 -24l-166 479h-614zM682 1350l-260 -754h524l-260 754h-4z" />
    <glyph glyph-name="Atilde" unicode="&#xc3;" horiz-adv-x="1376" 
d="M842 1604q-49 0 -107 28.5t-110 57t-86 28.5q-45 0 -64 -27.5t-18 -91.5l-90 17q0 217 172 217q39 0 84 -18t79 -39.5t73 -39.5t67 -18q45 0 64.5 27.5t19.5 91.5l88 -16q0 -217 -172 -217zM215 0h-141l536 1522h156l534 -1510l-143 -24l-166 479h-614zM682 1350
l-260 -754h524l-260 754h-4z" />
    <glyph glyph-name="Adieresis" unicode="&#xc4;" horiz-adv-x="1376" 
d="M866 1597q-40 0 -64 27.5t-24 73.5q0 43 24 69.5t64 26.5q42 0 66 -26.5t24 -69.5q0 -46 -24 -73.5t-66 -27.5zM506 1597q-41 0 -64.5 27.5t-23.5 73.5q0 43 23.5 69.5t64.5 26.5t64.5 -26.5t23.5 -69.5q0 -46 -23.5 -73.5t-64.5 -27.5zM215 0h-141l536 1522h156
l534 -1510l-143 -24l-166 479h-614zM682 1350l-260 -754h524l-260 754h-4z" />
    <glyph glyph-name="Aring" unicode="&#xc5;" horiz-adv-x="1376" 
d="M74 0l522 1481q-43 22 -68.5 64t-25.5 95q0 80 53.5 133.5t132.5 53.5t132.5 -53.5t53.5 -133.5q0 -53 -25 -94t-69 -63l520 -1471l-143 -24l-166 479h-614l-162 -467h-141zM688 1526q48 0 78.5 31.5t30.5 82.5q0 49 -31 81t-78 32t-78.5 -32t-31.5 -81q0 -51 31 -82.5
t79 -31.5zM422 596h524l-260 754h-4z" />
    <glyph glyph-name="AE" unicode="&#xc6;" horiz-adv-x="2039" 
d="M995 1399l-442 -785h444v785h-2zM203 0h-148l863 1516h985v-136h-760v-514h555l22 -131h-577v-602h803v-133h-949v485h-520z" />
    <glyph glyph-name="Ccedilla" unicode="&#xc7;" horiz-adv-x="1427" 
d="M770 -399q-139 0 -254 75l39 60q92 -62 199 -62q153 0 153 99q0 71 -86 71q-56 0 -108 -41l-58 27l45 143q-264 20 -421.5 234.5t-157.5 556.5q0 227 78 404t221 276.5t328 99.5q374 0 520 -334l-125 -65q-56 132 -151.5 199t-243.5 67q-220 0 -351 -176.5t-131 -466.5
q0 -311 132 -488.5t356 -177.5q152 0 258 78t164 226l124 -58q-66 -172 -196.5 -270t-317.5 -107l-24 -82q50 31 110 31q62 0 104 -36.5t42 -102.5q0 -90 -69.5 -135t-178.5 -45z" />
    <glyph glyph-name="Egrave" unicode="&#xc8;" horiz-adv-x="1236" 
d="M645 1610l-289 319h187l194 -319h-92zM1143 0h-948v1516h905v-136h-760v-514h567l23 -131h-590v-602h803v-133z" />
    <glyph glyph-name="Eacute" unicode="&#xc9;" horiz-adv-x="1236" 
d="M557 1610l195 319h186l-289 -319h-92zM1143 0h-948v1516h905v-136h-760v-514h567l23 -131h-590v-602h803v-133z" />
    <glyph glyph-name="Ecircumflex" unicode="&#xca;" horiz-adv-x="1236" 
d="M328 1604l264 325h106l265 -325h-91l-229 200l-229 -200h-86zM1143 0h-948v1516h905v-136h-760v-514h567l23 -131h-590v-602h803v-133z" />
    <glyph glyph-name="Edieresis" unicode="&#xcb;" horiz-adv-x="1236" 
d="M836 1597q-40 0 -64 27.5t-24 73.5q0 43 24 69.5t64 26.5q42 0 66 -26.5t24 -69.5q0 -46 -24 -73.5t-66 -27.5zM475 1597q-41 0 -64.5 27.5t-23.5 73.5q0 43 23.5 69.5t64.5 26.5t64.5 -26.5t23.5 -69.5q0 -46 -23.5 -73.5t-64.5 -27.5zM1143 0h-948v1516h905v-136h-760
v-514h567l23 -131h-590v-602h803v-133z" />
    <glyph glyph-name="Igrave" unicode="&#xcc;" horiz-adv-x="575" 
d="M260 1610l-289 319h187l194 -319h-92zM360 0h-145v1516h145v-1516z" />
    <glyph glyph-name="Iacute" unicode="&#xcd;" horiz-adv-x="575" 
d="M246 1610l194 319h187l-289 -319h-92zM360 0h-145v1516h145v-1516z" />
    <glyph glyph-name="Icircumflex" unicode="&#xce;" horiz-adv-x="575" 
d="M-29 1604l265 325h106l264 -325h-90l-229 200l-230 -200h-86zM360 0h-145v1516h145v-1516z" />
    <glyph glyph-name="Idieresis" unicode="&#xcf;" horiz-adv-x="575" 
d="M467 1597q-40 0 -64 27.5t-24 73.5q0 43 24 69.5t64 26.5q42 0 66 -26.5t24 -69.5q0 -46 -24 -73.5t-66 -27.5zM106 1597q-41 0 -64.5 27.5t-23.5 73.5q0 43 23.5 69.5t64.5 26.5t65 -26.5t24 -69.5q0 -46 -24 -73.5t-65 -27.5zM360 0h-145v1516h145v-1516z" />
    <glyph glyph-name="Eth" unicode="&#xd0;" horiz-adv-x="1452" 
d="M578 0h-383v737h-170v123h170v656h383q370 0 561.5 -191.5t191.5 -566.5q0 -371 -194 -564.5t-559 -193.5zM340 737v-606h260q586 0 586 627q0 315 -150.5 468.5t-439.5 153.5h-256v-520h326v-123h-326z" />
    <glyph glyph-name="Ntilde" unicode="&#xd1;" horiz-adv-x="1521" 
d="M932 1604q-49 0 -107 28.5t-110 57t-86 28.5q-45 0 -64 -27.5t-18 -91.5l-90 17q0 217 172 217q39 0 84 -18t79 -39.5t73 -39.5t67 -18q45 0 64.5 27.5t19.5 91.5l88 -16q0 -217 -172 -217zM332 0h-137v1516h155l836 -1250h4v1250h137v-1516h-129l-862 1288h-4v-1288z
" />
    <glyph glyph-name="Ograve" unicode="&#xd2;" horiz-adv-x="1519" 
d="M733 1610l-289 319h187l194 -319h-92zM760 -29q-137 0 -254.5 56.5t-202.5 158t-133.5 249.5t-48.5 323t48.5 322.5t133.5 249t202.5 158t254.5 56.5q136 0 253.5 -56.5t203 -158t134 -249t48.5 -322.5t-48.5 -323t-134 -249.5t-203 -158t-253.5 -56.5zM760 102
q219 0 356 176.5t137 479.5q0 302 -137 477.5t-356 175.5t-356.5 -175.5t-137.5 -477.5t137.5 -479t356.5 -177z" />
    <glyph glyph-name="Oacute" unicode="&#xd3;" horiz-adv-x="1519" 
d="M686 1610l195 319h186l-289 -319h-92zM760 -29q-137 0 -254.5 56.5t-202.5 158t-133.5 249.5t-48.5 323t48.5 322.5t133.5 249t202.5 158t254.5 56.5q136 0 253.5 -56.5t203 -158t134 -249t48.5 -322.5t-48.5 -323t-134 -249.5t-203 -158t-253.5 -56.5zM760 102
q219 0 356 176.5t137 479.5q0 302 -137 477.5t-356 175.5t-356.5 -175.5t-137.5 -477.5t137.5 -479t356.5 -177z" />
    <glyph glyph-name="Ocircumflex" unicode="&#xd4;" horiz-adv-x="1519" 
d="M440 1604l265 325h106l264 -325h-90l-229 200l-230 -200h-86zM760 -29q-137 0 -254.5 56.5t-202.5 158t-133.5 249.5t-48.5 323t48.5 322.5t133.5 249t202.5 158t254.5 56.5q136 0 253.5 -56.5t203 -158t134 -249t48.5 -322.5t-48.5 -323t-134 -249.5t-203 -158
t-253.5 -56.5zM760 102q219 0 356 176.5t137 479.5q0 302 -137 477.5t-356 175.5t-356.5 -175.5t-137.5 -477.5t137.5 -479t356.5 -177z" />
    <glyph glyph-name="Otilde" unicode="&#xd5;" horiz-adv-x="1519" 
d="M907 1604q-49 0 -107 28.5t-110 57t-86 28.5q-45 0 -64 -27.5t-18 -91.5l-90 17q0 217 172 217q39 0 84 -18t79 -39.5t73 -39.5t67 -18q45 0 64.5 27.5t19.5 91.5l88 -16q0 -217 -172 -217zM760 -29q-137 0 -254.5 56.5t-202.5 158t-133.5 249.5t-48.5 323t48.5 322.5
t133.5 249t202.5 158t254.5 56.5q136 0 253.5 -56.5t203 -158t134 -249t48.5 -322.5t-48.5 -323t-134 -249.5t-203 -158t-253.5 -56.5zM760 102q219 0 356 176.5t137 479.5q0 302 -137 477.5t-356 175.5t-356.5 -175.5t-137.5 -477.5t137.5 -479t356.5 -177z" />
    <glyph glyph-name="Odieresis" unicode="&#xd6;" horiz-adv-x="1519" 
d="M936 1597q-40 0 -64 27.5t-24 73.5q0 43 24 69.5t64 26.5q42 0 66 -26.5t24 -69.5q0 -46 -24 -73.5t-66 -27.5zM575 1597q-41 0 -64.5 27.5t-23.5 73.5q0 43 23.5 69.5t64.5 26.5t65 -26.5t24 -69.5q0 -46 -24 -73.5t-65 -27.5zM760 -29q-137 0 -254.5 56.5t-202.5 158
t-133.5 249.5t-48.5 323t48.5 322.5t133.5 249t202.5 158t254.5 56.5q136 0 253.5 -56.5t203 -158t134 -249t48.5 -322.5t-48.5 -323t-134 -249.5t-203 -158t-253.5 -56.5zM760 102q219 0 356 176.5t137 479.5q0 302 -137 477.5t-356 175.5t-356.5 -175.5t-137.5 -477.5
t137.5 -479t356.5 -177z" />
    <glyph glyph-name="multiply" unicode="&#xd7;" horiz-adv-x="1302" 
d="M649 565l-352 -354l-84 86l352 350l-352 354l84 84l352 -354l352 354l86 -84l-354 -354l354 -350l-83 -84z" />
    <glyph glyph-name="Oslash" unicode="&#xd8;" horiz-adv-x="1519" 
d="M371 326l719 944q-134 143 -330 143q-220 0 -358 -175.5t-138 -479.5q0 -260 107 -432zM1151 1188l-721 -942q130 -146 330 -146q219 0 356 176.5t137 481.5q0 262 -102 430zM1389 1491l-148 -191q158 -213 158 -542q0 -234 -82 -413.5t-227.5 -276.5t-329.5 -97
q-238 0 -410 164l-133 -172l-86 62l145 190q-155 214 -155 543q0 175 48 322.5t132.5 249t202.5 158t256 56.5q237 0 409 -164l134 172z" />
    <glyph glyph-name="Ugrave" unicode="&#xd9;" horiz-adv-x="1464" 
d="M717 1610l-289 319h186l195 -319h-92zM731 -29q-135 0 -241.5 42t-173 116.5t-101.5 171.5t-35 211v1004h146v-984q0 -193 102 -310.5t305 -117.5t304.5 115t101.5 309v988h145v-1000q0 -114 -35 -212t-102 -173t-174 -117.5t-242 -42.5z" />
    <glyph glyph-name="Uacute" unicode="&#xda;" horiz-adv-x="1464" 
d="M639 1610l195 319h186l-289 -319h-92zM731 -29q-135 0 -241.5 42t-173 116.5t-101.5 171.5t-35 211v1004h146v-984q0 -193 102 -310.5t305 -117.5t304.5 115t101.5 309v988h145v-1000q0 -114 -35 -212t-102 -173t-174 -117.5t-242 -42.5z" />
    <glyph glyph-name="Ucircumflex" unicode="&#xdb;" horiz-adv-x="1464" 
d="M414 1604l264 325h106l265 -325h-91l-229 200l-229 -200h-86zM731 -29q-135 0 -241.5 42t-173 116.5t-101.5 171.5t-35 211v1004h146v-984q0 -193 102 -310.5t305 -117.5t304.5 115t101.5 309v988h145v-1000q0 -114 -35 -212t-102 -173t-174 -117.5t-242 -42.5z" />
    <glyph glyph-name="Udieresis" unicode="&#xdc;" horiz-adv-x="1464" 
d="M909 1597q-40 0 -64 27.5t-24 73.5q0 43 24 69.5t64 26.5q42 0 66 -26.5t24 -69.5q0 -46 -24 -73.5t-66 -27.5zM549 1597q-41 0 -64.5 27.5t-23.5 73.5q0 43 23.5 69.5t64.5 26.5t64.5 -26.5t23.5 -69.5q0 -46 -23.5 -73.5t-64.5 -27.5zM731 -29q-135 0 -241.5 42
t-173 116.5t-101.5 171.5t-35 211v1004h146v-984q0 -193 102 -310.5t305 -117.5t304.5 115t101.5 309v988h145v-1000q0 -114 -35 -212t-102 -173t-174 -117.5t-242 -42.5z" />
    <glyph glyph-name="Yacute" unicode="&#xdd;" horiz-adv-x="1265" 
d="M530 1610l195 319h186l-288 -319h-93zM705 0h-146v668l-500 835l142 25l434 -735l426 723h151l-507 -848v-668z" />
    <glyph glyph-name="Thorn" unicode="&#xde;" horiz-adv-x="1325" 
d="M340 0h-145v1516h145v-289h356q254 0 393.5 -104t139.5 -310q0 -113 -39.5 -197t-113.5 -134.5t-172 -75.5t-222 -25h-342v-381zM340 1094v-582h350q196 0 293.5 69.5t97.5 227.5q0 150 -98 217.5t-295 67.5h-348z" />
    <glyph glyph-name="germandbls" unicode="&#xdf;" horiz-adv-x="1255" 
d="M760 -23q-167 0 -277 80l45 111q104 -74 230 -74q117 0 188.5 88t71.5 238q0 186 -121.5 271.5t-361.5 94.5v109q174 3 260 75.5t86 188.5q0 110 -76 173t-207 63q-142 0 -218.5 -85t-76.5 -245v-1065h-139v1057q0 218 115 338.5t319 120.5q192 0 306 -92.5t114 -258.5
q0 -116 -69 -198.5t-193 -116.5q84 -12 153 -41.5t125.5 -79t87.5 -127t31 -176.5q0 -204 -106.5 -326.5t-286.5 -122.5z" />
    <glyph glyph-name="agrave" unicode="&#xe0;" horiz-adv-x="1120" 
d="M571 1194l-288 319h186l195 -319h-93zM434 98q217 0 395 170v336q-174 -30 -292 -66.5t-182 -79.5t-90.5 -88t-26.5 -100q0 -84 51.5 -128t144.5 -44zM403 -18q-144 0 -224.5 72.5t-80.5 199.5q0 83 37.5 149.5t121.5 124t226.5 102t345.5 75.5v55q0 109 -57 165t-164 56
q-118 0 -211 -43t-188 -127l-80 88q107 98 221 149.5t268 51.5q176 0 263.5 -89.5t87.5 -254.5v-756h-125l-15 154q-194 -172 -426 -172z" />
    <glyph glyph-name="aacute" unicode="&#xe1;" horiz-adv-x="1120" 
d="M500 1194l194 319h187l-289 -319h-92zM434 98q217 0 395 170v336q-174 -30 -292 -66.5t-182 -79.5t-90.5 -88t-26.5 -100q0 -84 51.5 -128t144.5 -44zM403 -18q-144 0 -224.5 72.5t-80.5 199.5q0 83 37.5 149.5t121.5 124t226.5 102t345.5 75.5v55q0 109 -57 165t-164 56
q-118 0 -211 -43t-188 -127l-80 88q107 98 221 149.5t268 51.5q176 0 263.5 -89.5t87.5 -254.5v-756h-125l-15 154q-194 -172 -426 -172z" />
    <glyph glyph-name="acircumflex" unicode="&#xe2;" horiz-adv-x="1120" 
d="M256 1188l264 325h107l264 -325h-90l-230 201l-229 -201h-86zM434 98q217 0 395 170v336q-174 -30 -292 -66.5t-182 -79.5t-90.5 -88t-26.5 -100q0 -84 51.5 -128t144.5 -44zM403 -18q-144 0 -224.5 72.5t-80.5 199.5q0 83 37.5 149.5t121.5 124t226.5 102t345.5 75.5v55
q0 109 -57 165t-164 56q-118 0 -211 -43t-188 -127l-80 88q107 98 221 149.5t268 51.5q176 0 263.5 -89.5t87.5 -254.5v-756h-125l-15 154q-194 -172 -426 -172z" />
    <glyph glyph-name="atilde" unicode="&#xe3;" horiz-adv-x="1120" 
d="M721 1188q-49 0 -107 29t-110 57.5t-86 28.5q-45 0 -64 -27.5t-18 -91.5l-90 16q0 217 172 217q49 0 107 -28.5t110 -57t86 -28.5q45 0 64.5 27t19.5 91l88 -16q0 -217 -172 -217zM434 98q217 0 395 170v336q-174 -30 -292 -66.5t-182 -79.5t-90.5 -88t-26.5 -100
q0 -84 51.5 -128t144.5 -44zM403 -18q-144 0 -224.5 72.5t-80.5 199.5q0 83 37.5 149.5t121.5 124t226.5 102t345.5 75.5v55q0 109 -57 165t-164 56q-118 0 -211 -43t-188 -127l-80 88q107 98 221 149.5t268 51.5q176 0 263.5 -89.5t87.5 -254.5v-756h-125l-15 154
q-194 -172 -426 -172z" />
    <glyph glyph-name="adieresis" unicode="&#xe4;" horiz-adv-x="1120" 
d="M764 1182q-40 0 -64 27t-24 73q0 43 24 69.5t64 26.5q42 0 66 -26.5t24 -69.5q0 -46 -24 -73t-66 -27zM403 1182q-41 0 -64.5 27t-23.5 73q0 43 23.5 69.5t64.5 26.5t65 -26.5t24 -69.5q0 -46 -24 -73t-65 -27zM434 98q217 0 395 170v336q-174 -30 -292 -66.5t-182 -79.5
t-90.5 -88t-26.5 -100q0 -84 51.5 -128t144.5 -44zM403 -18q-144 0 -224.5 72.5t-80.5 199.5q0 83 37.5 149.5t121.5 124t226.5 102t345.5 75.5v55q0 109 -57 165t-164 56q-118 0 -211 -43t-188 -127l-80 88q107 98 221 149.5t268 51.5q176 0 263.5 -89.5t87.5 -254.5v-756
h-125l-15 154q-194 -172 -426 -172z" />
    <glyph glyph-name="aring" unicode="&#xe5;" horiz-adv-x="1120" 
d="M590 1180q-81 0 -134 53t-53 133t53 133t134 53t133.5 -53t52.5 -133t-52.5 -133t-133.5 -53zM590 1251q47 0 77.5 32t30.5 83q0 50 -30.5 82.5t-77.5 32.5t-78 -32.5t-31 -82.5q0 -51 30.5 -83t78.5 -32zM434 98q217 0 395 170v336q-174 -30 -292 -66.5t-182 -79.5
t-90.5 -88t-26.5 -100q0 -84 51.5 -128t144.5 -44zM403 -18q-144 0 -224.5 72.5t-80.5 199.5q0 83 37.5 149.5t121.5 124t226.5 102t345.5 75.5v55q0 109 -57 165t-164 56q-118 0 -211 -43t-188 -127l-80 88q107 98 221 149.5t268 51.5q176 0 263.5 -89.5t87.5 -254.5v-756
h-125l-15 154q-194 -172 -426 -172z" />
    <glyph glyph-name="ae" unicode="&#xe6;" horiz-adv-x="1830" 
d="M403 -23q-144 0 -224.5 72t-80.5 199q0 83 37 150t120 126t225.5 104.5t344.5 76.5v55q0 108 -55 164.5t-160 56.5q-119 0 -211.5 -42.5t-189.5 -127.5l-80 88q107 98 222 149.5t270 51.5q132 0 208 -59.5t99 -161.5q55 99 149.5 160t210.5 61q196 0 318.5 -146.5
t122.5 -414.5v-23h-771q1 -197 102 -308.5t255 -111.5q94 0 175 40t161 122l69 -94q-97 -97 -193 -142t-222 -45q-129 0 -238 60.5t-172 175.5q-226 -236 -492 -236zM961 625h628q-11 161 -87.5 258.5t-215.5 97.5q-123 0 -214.5 -92t-110.5 -264zM434 94q226 0 424 207
q-35 96 -35 225q-2 28 2 78q-174 -29 -292.5 -66t-181.5 -81.5t-88 -90t-25 -102.5q0 -82 51.5 -126t144.5 -44z" />
    <glyph glyph-name="ccedilla" unicode="&#xe7;" horiz-adv-x="1091" 
d="M567 -399q-139 0 -254 75l39 60q92 -62 199 -62q154 0 154 99q0 71 -87 71q-56 0 -108 -41l-57 27l47 154q-171 26 -284.5 173t-113.5 382q0 140 41 250t110 176.5t153.5 100.5t177.5 34q271 0 397 -256l-111 -68q-48 103 -116 154t-174 51q-63 0 -120.5 -24.5t-107 -75
t-79 -138.5t-29.5 -204q0 -203 94 -323t240 -120q105 0 175 51.5t126 159.5l104 -67q-67 -128 -164 -194t-233 -69l-27 -88q50 31 111 31q62 0 103.5 -36.5t41.5 -102.5q0 -90 -69.5 -135t-178.5 -45z" />
    <glyph glyph-name="egrave" unicode="&#xe8;" horiz-adv-x="1118" 
d="M541 1194l-289 319h186l195 -319h-92zM596 -23q-103 0 -192 37t-156.5 106t-106.5 177.5t-39 243.5q0 111 27.5 204t73.5 157.5t107.5 110t128.5 66.5t136 21q195 0 318 -146.5t123 -414.5v-27h-772q1 -194 100 -305t254 -111q104 0 186 39.5t160 120.5l70 -92
q-92 -97 -189.5 -142t-228.5 -45zM246 623h633q-11 161 -89 259.5t-217 98.5q-125 0 -217 -92.5t-110 -265.5z" />
    <glyph glyph-name="eacute" unicode="&#xe9;" horiz-adv-x="1118" 
d="M502 1194l194 319h187l-289 -319h-92zM596 -23q-103 0 -192 37t-156.5 106t-106.5 177.5t-39 243.5q0 111 27.5 204t73.5 157.5t107.5 110t128.5 66.5t136 21q195 0 318 -146.5t123 -414.5v-27h-772q1 -194 100 -305t254 -111q104 0 186 39.5t160 120.5l70 -92
q-92 -97 -189.5 -142t-228.5 -45zM246 623h633q-11 161 -89 259.5t-217 98.5q-125 0 -217 -92.5t-110 -265.5z" />
    <glyph glyph-name="ecircumflex" unicode="&#xea;" horiz-adv-x="1118" 
d="M256 1188l264 325h107l264 -325h-90l-230 201l-229 -201h-86zM596 -23q-103 0 -192 37t-156.5 106t-106.5 177.5t-39 243.5q0 111 27.5 204t73.5 157.5t107.5 110t128.5 66.5t136 21q195 0 318 -146.5t123 -414.5v-27h-772q1 -194 100 -305t254 -111q104 0 186 39.5
t160 120.5l70 -92q-92 -97 -189.5 -142t-228.5 -45zM246 623h633q-11 161 -89 259.5t-217 98.5q-125 0 -217 -92.5t-110 -265.5z" />
    <glyph glyph-name="edieresis" unicode="&#xeb;" horiz-adv-x="1118" 
d="M745 1182q-40 0 -64 27t-24 73q0 43 24 69.5t64 26.5q42 0 66.5 -26.5t24.5 -69.5q0 -46 -24.5 -73t-66.5 -27zM385 1182q-41 0 -64.5 27t-23.5 73q0 43 23.5 69.5t64.5 26.5t64.5 -26.5t23.5 -69.5q0 -46 -23.5 -73t-64.5 -27zM596 -23q-103 0 -192 37t-156.5 106
t-106.5 177.5t-39 243.5q0 111 27.5 204t73.5 157.5t107.5 110t128.5 66.5t136 21q195 0 318 -146.5t123 -414.5v-27h-772q1 -194 100 -305t254 -111q104 0 186 39.5t160 120.5l70 -92q-92 -97 -189.5 -142t-228.5 -45zM246 623h633q-11 161 -89 259.5t-217 98.5
q-125 0 -217 -92.5t-110 -265.5z" />
    <glyph glyph-name="igrave" unicode="&#xec;" horiz-adv-x="491" 
d="M223 1194l-289 319h187l194 -319h-92zM317 0h-141v1077h141v-1077z" />
    <glyph glyph-name="iacute" unicode="&#xed;" horiz-adv-x="491" 
d="M211 1194l195 319h186l-289 -319h-92zM317 0h-141v1077h141v-1077z" />
    <glyph glyph-name="icircumflex" unicode="&#xee;" horiz-adv-x="491" 
d="M-72 1188l265 325h106l264 -325h-90l-229 201l-230 -201h-86zM317 0h-141v1077h141v-1077z" />
    <glyph glyph-name="idieresis" unicode="&#xef;" horiz-adv-x="491" 
d="M424 1182q-40 0 -64 27t-24 73q0 43 24 69.5t64 26.5q42 0 66 -26.5t24 -69.5q0 -46 -24 -73t-66 -27zM63 1182q-41 0 -64.5 27t-23.5 73q0 43 23.5 69.5t64.5 26.5t65 -26.5t24 -69.5q0 -46 -24 -73t-65 -27zM317 0h-141v1077h141v-1077z" />
    <glyph glyph-name="eth" unicode="&#xf0;" horiz-adv-x="1181" 
d="M592 -23q-138 0 -249 66t-176 192.5t-65 292.5q0 250 134 392.5t339 142.5q101 0 193.5 -52t149.5 -137q-55 216 -189 365l-223 -86l-43 98l188 70q-64 59 -157 117l67 92q118 -65 213 -154l205 78l43 -98l-170 -66q227 -274 227 -753q0 -253 -138.5 -406.5
t-348.5 -153.5zM592 96q158 0 252 120t94 314q0 180 -93.5 298t-252.5 118q-160 0 -254 -113.5t-94 -302.5q0 -121 39 -218t119 -156.5t190 -59.5z" />
    <glyph glyph-name="ntilde" unicode="&#xf1;" horiz-adv-x="1189" 
d="M762 1188q-49 0 -107 29t-110 57.5t-86 28.5q-45 0 -64 -27.5t-18 -91.5l-90 16q0 217 172 217q49 0 107 -28.5t110 -57t86 -28.5q45 0 64.5 27t19.5 91l88 -16q0 -217 -172 -217zM305 0h-141v1077h127l14 -170q193 193 408 193q161 0 243 -82.5t82 -235.5v-782h-141v754
q0 115 -52 171t-165 56q-98 0 -188.5 -47.5t-186.5 -140.5v-793z" />
    <glyph glyph-name="ograve" unicode="&#xf2;" horiz-adv-x="1181" 
d="M563 1194l-289 319h187l194 -319h-92zM592 -23q-100 0 -188.5 38t-155.5 108t-106.5 177.5t-39.5 238.5t39 238.5t106.5 177.5t156 107.5t188.5 37.5t188 -37.5t154.5 -107.5t105.5 -177.5t39 -238.5t-39 -238.5t-105.5 -177.5t-154.5 -108t-188 -38zM592 98
q160 0 253 123t93 318q0 188 -91.5 314t-254.5 126q-161 0 -254.5 -122.5t-93.5 -317.5q0 -123 38 -221t118 -159t192 -61z" />
    <glyph glyph-name="oacute" unicode="&#xf3;" horiz-adv-x="1181" 
d="M520 1194l195 319h186l-289 -319h-92zM592 -23q-100 0 -188.5 38t-155.5 108t-106.5 177.5t-39.5 238.5t39 238.5t106.5 177.5t156 107.5t188.5 37.5t188 -37.5t154.5 -107.5t105.5 -177.5t39 -238.5t-39 -238.5t-105.5 -177.5t-154.5 -108t-188 -38zM592 98
q160 0 253 123t93 318q0 188 -91.5 314t-254.5 126q-161 0 -254.5 -122.5t-93.5 -317.5q0 -123 38 -221t118 -159t192 -61z" />
    <glyph glyph-name="ocircumflex" unicode="&#xf4;" horiz-adv-x="1181" 
d="M274 1188l265 325h106l264 -325h-90l-229 201l-230 -201h-86zM592 -23q-100 0 -188.5 38t-155.5 108t-106.5 177.5t-39.5 238.5t39 238.5t106.5 177.5t156 107.5t188.5 37.5t188 -37.5t154.5 -107.5t105.5 -177.5t39 -238.5t-39 -238.5t-105.5 -177.5t-154.5 -108
t-188 -38zM592 98q160 0 253 123t93 318q0 188 -91.5 314t-254.5 126q-161 0 -254.5 -122.5t-93.5 -317.5q0 -123 38 -221t118 -159t192 -61z" />
    <glyph glyph-name="otilde" unicode="&#xf5;" horiz-adv-x="1181" 
d="M745 1188q-49 0 -107 29t-110 57.5t-86 28.5q-45 0 -64 -27.5t-18 -91.5l-90 16q0 217 172 217q49 0 107 -28.5t110 -57t86 -28.5q45 0 64.5 27t19.5 91l89 -16q0 -217 -173 -217zM592 -23q-100 0 -188.5 38t-155.5 108t-106.5 177.5t-39.5 238.5t39 238.5t106.5 177.5
t156 107.5t188.5 37.5t188 -37.5t154.5 -107.5t105.5 -177.5t39 -238.5t-39 -238.5t-105.5 -177.5t-154.5 -108t-188 -38zM592 98q160 0 253 123t93 318q0 188 -91.5 314t-254.5 126q-161 0 -254.5 -122.5t-93.5 -317.5q0 -123 38 -221t118 -159t192 -61z" />
    <glyph glyph-name="odieresis" unicode="&#xf6;" horiz-adv-x="1181" 
d="M768 1182q-40 0 -64 27t-24 73q0 43 24 69.5t64 26.5q42 0 66 -26.5t24 -69.5q0 -46 -24 -73t-66 -27zM408 1182q-41 0 -65 27t-24 73q0 43 24 69.5t65 26.5t64.5 -26.5t23.5 -69.5q0 -46 -23.5 -73t-64.5 -27zM592 -23q-100 0 -188.5 38t-155.5 108t-106.5 177.5
t-39.5 238.5t39 238.5t106.5 177.5t156 107.5t188.5 37.5t188 -37.5t154.5 -107.5t105.5 -177.5t39 -238.5t-39 -238.5t-105.5 -177.5t-154.5 -108t-188 -38zM592 98q160 0 253 123t93 318q0 188 -91.5 314t-254.5 126q-161 0 -254.5 -122.5t-93.5 -317.5q0 -123 38 -221
t118 -159t192 -61z" />
    <glyph glyph-name="divide" unicode="&#xf7;" horiz-adv-x="1302" 
d="M645 934q-43 0 -67.5 27t-24.5 73t25 73.5t67 27.5q43 0 69.5 -27.5t26.5 -73.5q0 -45 -26.5 -72.5t-69.5 -27.5zM1169 612h-1036v123h1036v-123zM645 207q-43 0 -67.5 27.5t-24.5 74.5q0 46 25 73.5t67 27.5q43 0 69.5 -27.5t26.5 -73.5q0 -47 -26.5 -74.5t-69.5 -27.5z
" />
    <glyph glyph-name="oslash" unicode="&#xf8;" horiz-adv-x="1181" 
d="M322 244l481 661q-85 76 -211 76q-161 0 -255.5 -123t-94.5 -317q0 -179 80 -297zM862 831l-481 -659q84 -78 211 -78q160 0 254 124.5t94 322.5q0 171 -78 290zM1059 1083l-109 -143q129 -155 129 -401q0 -131 -39 -238.5t-105.5 -177.5t-154.5 -108t-188 -38
q-159 0 -285 93l-104 -138l-76 60l109 145q-134 153 -134 402q0 131 39 238.5t106.5 177.5t156 107.5t188.5 37.5q161 0 285 -92l102 139z" />
    <glyph glyph-name="ugrave" unicode="&#xf9;" horiz-adv-x="1189" 
d="M573 1194l-288 319h186l195 -319h-93zM477 -23q-159 0 -241 82.5t-82 235.5v782h141v-753q0 -116 51 -171t164 -55q97 0 187 48t190 141v790h141v-1077h-127l-14 170q-202 -193 -410 -193z" />
    <glyph glyph-name="uacute" unicode="&#xfa;" horiz-adv-x="1189" 
d="M518 1194l195 319h186l-289 -319h-92zM477 -23q-159 0 -241 82.5t-82 235.5v782h141v-753q0 -116 51 -171t164 -55q97 0 187 48t190 141v790h141v-1077h-127l-14 170q-202 -193 -410 -193z" />
    <glyph glyph-name="ucircumflex" unicode="&#xfb;" horiz-adv-x="1189" 
d="M272 1188l265 325h106l264 -325h-90l-229 201l-230 -201h-86zM477 -23q-159 0 -241 82.5t-82 235.5v782h141v-753q0 -116 51 -171t164 -55q97 0 187 48t190 141v790h141v-1077h-127l-14 170q-202 -193 -410 -193z" />
    <glyph glyph-name="udieresis" unicode="&#xfc;" horiz-adv-x="1189" 
d="M772 1182q-40 0 -64 27t-24 73q0 43 24 69.5t64 26.5q42 0 66 -26.5t24 -69.5q0 -46 -24 -73t-66 -27zM412 1182q-41 0 -64.5 27t-23.5 73q0 43 23.5 69.5t64.5 26.5t64.5 -26.5t23.5 -69.5q0 -46 -23.5 -73t-64.5 -27zM477 -23q-159 0 -241 82.5t-82 235.5v782h141v-753
q0 -116 51 -171t164 -55q97 0 187 48t190 141v790h141v-1077h-127l-14 170q-202 -193 -410 -193z" />
    <glyph glyph-name="yacute" unicode="&#xfd;" horiz-adv-x="1079" 
d="M469 1194l195 319h186l-289 -319h-92zM201 -412q-85 0 -144 15l-10 123q88 -19 156 -19q87 0 137.5 39.5t85.5 128.5l45 119l-412 1071l142 27l340 -924h4l334 909h147l-465 -1202q-40 -103 -81 -162t-109.5 -92t-169.5 -33z" />
    <glyph glyph-name="thorn" unicode="&#xfe;" horiz-adv-x="1214" 
d="M645 100q144 0 234 110.5t90 328.5q0 213 -92.5 326.5t-235.5 113.5q-94 0 -170 -43t-166 -133v-529q87 -89 167 -131.5t173 -42.5zM305 -399l-141 -21v1925l141 21v-600q159 174 361 174q94 0 174 -35t140.5 -102.5t95 -175.5t34.5 -246t-35 -246t-96.5 -175.5
t-142 -102.5t-174.5 -35q-195 0 -357 165v-546z" />
    <glyph glyph-name="ydieresis" unicode="&#xff;" horiz-adv-x="1079" 
d="M721 1182q-40 0 -64 27t-24 73q0 43 24 69.5t64 26.5q42 0 66 -26.5t24 -69.5q0 -46 -24 -73t-66 -27zM360 1182q-41 0 -64.5 27t-23.5 73q0 43 23.5 69.5t64.5 26.5t65 -26.5t24 -69.5q0 -46 -24 -73t-65 -27zM201 -412q-85 0 -144 15l-10 123q88 -19 156 -19
q87 0 137.5 39.5t85.5 128.5l45 119l-412 1071l142 27l340 -924h4l334 909h147l-465 -1202q-40 -103 -81 -162t-109.5 -92t-169.5 -33z" />
    <glyph glyph-name="Amacron" unicode="&#x100;" horiz-adv-x="1376" 
d="M428 1608v121h520v-121h-520zM215 0h-141l536 1522h156l534 -1510l-143 -24l-166 479h-614zM682 1350l-260 -754h524l-260 754h-4z" />
    <glyph glyph-name="amacron" unicode="&#x101;" horiz-adv-x="1120" 
d="M299 1192v121h520v-121h-520zM434 98q217 0 395 170v336q-174 -30 -292 -66.5t-182 -79.5t-90.5 -88t-26.5 -100q0 -84 51.5 -128t144.5 -44zM403 -18q-144 0 -224.5 72.5t-80.5 199.5q0 83 37.5 149.5t121.5 124t226.5 102t345.5 75.5v55q0 109 -57 165t-164 56
q-118 0 -211 -43t-188 -127l-80 88q107 98 221 149.5t268 51.5q176 0 263.5 -89.5t87.5 -254.5v-756h-125l-15 154q-194 -172 -426 -172z" />
    <glyph glyph-name="Abreve" unicode="&#x102;" horiz-adv-x="1376" 
d="M688 1602q-135 0 -217 90t-90 245h90q25 -223 217 -223t217 223h90q-8 -155 -90 -245t-217 -90zM215 0h-141l536 1522h156l534 -1510l-143 -24l-166 479h-614zM682 1350l-260 -754h524l-260 754h-4z" />
    <glyph glyph-name="abreve" unicode="&#x103;" horiz-adv-x="1120" 
d="M559 1186q-135 0 -217 90.5t-90 245.5h90q25 -224 217 -224t217 224h90q-8 -155 -90 -245.5t-217 -90.5zM434 98q217 0 395 170v336q-174 -30 -292 -66.5t-182 -79.5t-90.5 -88t-26.5 -100q0 -84 51.5 -128t144.5 -44zM403 -18q-144 0 -224.5 72.5t-80.5 199.5
q0 83 37.5 149.5t121.5 124t226.5 102t345.5 75.5v55q0 109 -57 165t-164 56q-118 0 -211 -43t-188 -127l-80 88q107 98 221 149.5t268 51.5q176 0 263.5 -89.5t87.5 -254.5v-756h-125l-15 154q-194 -172 -426 -172z" />
    <glyph glyph-name="Aogonek" unicode="&#x104;" horiz-adv-x="1376" 
d="M1176 -383q-89 0 -140 42t-51 116q0 57 47 117.5t121 109.5l-162 465h-614l-162 -467h-141l536 1522h156l534 -1510l-47 -8q-149 -100 -149 -207q0 -98 106 -98q88 0 195 49l31 -53q-136 -78 -260 -78zM682 1350l-260 -754h524l-260 754h-4z" />
    <glyph glyph-name="aogonek" unicode="&#x105;" horiz-adv-x="1120" 
d="M434 98q217 0 395 170v336q-174 -30 -292 -66.5t-182 -79.5t-90.5 -88t-26.5 -100q0 -84 51.5 -128t144.5 -44zM1122 -305q-136 -78 -260 -78q-89 0 -139.5 42t-50.5 116q0 60 49.5 122.5t122.5 106.5l-15 150q-194 -172 -426 -172q-144 0 -224.5 72.5t-80.5 199.5
q0 83 37.5 149.5t121.5 124t226.5 102t345.5 75.5v55q0 109 -57 165t-164 56q-118 0 -211 -43t-188 -127l-80 88q107 98 221 149.5t268 51.5q176 0 263.5 -89.5t87.5 -254.5v-756h-35q-143 -100 -143 -203q0 -98 106 -98q88 0 195 49z" />
    <glyph glyph-name="Cacute" unicode="&#x106;" horiz-adv-x="1431" 
d="M627 1610l194 319h187l-289 -319h-92zM752 -29q-189 0 -332 98t-221 278t-78 417q0 227 78 404t221 276.5t328 99.5q374 0 520 -334l-125 -65q-56 132 -151.5 199t-243.5 67q-220 0 -351 -176.5t-131 -466.5q0 -311 132 -488.5t356 -177.5q152 0 258 78t164 226l124 -58
q-69 -180 -208 -278.5t-340 -98.5z" />
    <glyph glyph-name="cacute" unicode="&#x107;" horiz-adv-x="1087" 
d="M483 1194l195 319h186l-289 -319h-92zM569 -23q-94 0 -178 38t-148.5 108t-102.5 178t-38 238q0 140 41 250t110 176.5t153.5 100.5t177.5 34q271 0 397 -256l-111 -68q-48 103 -116 154t-174 51q-63 0 -120.5 -24.5t-107 -75t-79 -138.5t-29.5 -204q0 -203 94 -323
t240 -120q105 0 175 51.5t126 159.5l104 -67q-138 -263 -414 -263z" />
    <glyph glyph-name="Ccircumflex" unicode="&#x108;" horiz-adv-x="1431" 
d="M428 1604l264 325h107l264 -325h-90l-230 200l-229 -200h-86zM752 -29q-189 0 -332 98t-221 278t-78 417q0 227 78 404t221 276.5t328 99.5q374 0 520 -334l-125 -65q-56 132 -151.5 199t-243.5 67q-220 0 -351 -176.5t-131 -466.5q0 -311 132 -488.5t356 -177.5
q152 0 258 78t164 226l124 -58q-69 -180 -208 -278.5t-340 -98.5z" />
    <glyph glyph-name="ccircumflex" unicode="&#x109;" horiz-adv-x="1087" 
d="M231 1188l265 325h106l264 -325h-90l-229 201l-230 -201h-86zM569 -23q-94 0 -178 38t-148.5 108t-102.5 178t-38 238q0 140 41 250t110 176.5t153.5 100.5t177.5 34q271 0 397 -256l-111 -68q-48 103 -116 154t-174 51q-63 0 -120.5 -24.5t-107 -75t-79 -138.5
t-29.5 -204q0 -203 94 -323t240 -120q105 0 175 51.5t126 159.5l104 -67q-138 -263 -414 -263z" />
    <glyph glyph-name="Cdotaccent" unicode="&#x10a;" horiz-adv-x="1431" 
d="M745 1604q-46 0 -72 27.5t-26 76.5q0 46 26 73t72 27t73.5 -27t27.5 -73q0 -49 -27.5 -76.5t-73.5 -27.5zM752 -29q-189 0 -332 98t-221 278t-78 417q0 227 78 404t221 276.5t328 99.5q374 0 520 -334l-125 -65q-56 132 -151.5 199t-243.5 67q-220 0 -351 -176.5
t-131 -466.5q0 -311 132 -488.5t356 -177.5q152 0 258 78t164 226l124 -58q-69 -180 -208 -278.5t-340 -98.5z" />
    <glyph glyph-name="cdotaccent" unicode="&#x10b;" horiz-adv-x="1087" 
d="M549 1188q-46 0 -72 27.5t-26 76.5q0 46 26.5 73.5t71.5 27.5q46 0 73 -27.5t27 -73.5q0 -49 -27 -76.5t-73 -27.5zM569 -23q-94 0 -178 38t-148.5 108t-102.5 178t-38 238q0 140 41 250t110 176.5t153.5 100.5t177.5 34q271 0 397 -256l-111 -68q-48 103 -116 154
t-174 51q-63 0 -120.5 -24.5t-107 -75t-79 -138.5t-29.5 -204q0 -203 94 -323t240 -120q105 0 175 51.5t126 159.5l104 -67q-138 -263 -414 -263z" />
    <glyph glyph-name="Ccaron" unicode="&#x10c;" horiz-adv-x="1431" 
d="M662 1612l-265 325h90l230 -202l229 202h86l-264 -325h-106zM752 -29q-189 0 -332 98t-221 278t-78 417q0 227 78 404t221 276.5t328 99.5q374 0 520 -334l-125 -65q-56 132 -151.5 199t-243.5 67q-220 0 -351 -176.5t-131 -466.5q0 -311 132 -488.5t356 -177.5
q152 0 258 78t164 226l124 -58q-69 -180 -208 -278.5t-340 -98.5z" />
    <glyph glyph-name="ccaron" unicode="&#x10d;" horiz-adv-x="1087" 
d="M492 1196l-265 326h90l230 -203l229 203h86l-264 -326h-106zM569 -23q-94 0 -178 38t-148.5 108t-102.5 178t-38 238q0 140 41 250t110 176.5t153.5 100.5t177.5 34q271 0 397 -256l-111 -68q-48 103 -116 154t-174 51q-63 0 -120.5 -24.5t-107 -75t-79 -138.5
t-29.5 -204q0 -203 94 -323t240 -120q105 0 175 51.5t126 159.5l104 -67q-138 -263 -414 -263z" />
    <glyph glyph-name="Dcaron" unicode="&#x10e;" horiz-adv-x="1452" 
d="M645 1612l-264 325h90l229 -202l230 202h86l-264 -325h-107zM578 0h-383v1516h383q370 0 561.5 -191t191.5 -565q0 -373 -193.5 -566.5t-559.5 -193.5zM340 1380v-1247h260q586 0 586 625q0 315 -150.5 468.5t-439.5 153.5h-256z" />
    <glyph glyph-name="dcaron" unicode="&#x10f;" horiz-adv-x="1214" 
d="M1243 1163h-80l49 387h172zM573 102q94 0 170.5 43.5t165.5 133.5v526q-88 89 -167.5 132.5t-172.5 43.5q-142 0 -232.5 -112t-90.5 -330q0 -213 92 -325t235 -112zM549 -18q-95 0 -174.5 34.5t-140.5 101t-95.5 174t-34.5 245.5t35 246.5t96 177t142 104t176 35.5
q105 0 198 -47t158 -123v575l142 21v-1526h-127l-15 156q-159 -174 -360 -174z" />
    <glyph glyph-name="Dcroat" unicode="&#x110;" horiz-adv-x="1452" 
d="M578 0h-383v737h-170v123h170v656h383q370 0 561.5 -191.5t191.5 -566.5q0 -371 -194 -564.5t-559 -193.5zM340 737v-606h260q586 0 586 627q0 315 -150.5 468.5t-439.5 153.5h-256v-520h326v-123h-326z" />
    <glyph glyph-name="dcroat" unicode="&#x111;" horiz-adv-x="1214" 
d="M573 98q94 0 171 43t165 133v531q-88 89 -167.5 132.5t-172.5 43.5q-142 0 -232.5 -112t-90.5 -330q0 -215 92 -328t235 -113zM909 162q-76 -83 -162 -131.5t-198 -48.5q-95 0 -174.5 34.5t-140.5 101t-95.5 174t-34.5 245.5t35 246.5t96 177t142 104t176 35.5
q105 0 196.5 -48.5t159.5 -127.5v309h-225v108h225v164l142 21v-185h178v-108h-178v-1233h-127z" />
    <glyph glyph-name="Emacron" unicode="&#x112;" horiz-adv-x="1236" 
d="M397 1608v121h521v-121h-521zM1143 0h-948v1516h905v-136h-760v-514h567l23 -131h-590v-602h803v-133z" />
    <glyph glyph-name="emacron" unicode="&#x113;" horiz-adv-x="1118" 
d="M297 1192v121h520v-121h-520zM596 -23q-103 0 -192 37t-156.5 106t-106.5 177.5t-39 243.5q0 111 27.5 204t73.5 157.5t107.5 110t128.5 66.5t136 21q195 0 318 -146.5t123 -414.5v-27h-772q1 -194 100 -305t254 -111q104 0 186 39.5t160 120.5l70 -92
q-92 -97 -189.5 -142t-228.5 -45zM246 623h633q-11 161 -89 259.5t-217 98.5q-125 0 -217 -92.5t-110 -265.5z" />
    <glyph glyph-name="Ebreve" unicode="&#x114;" horiz-adv-x="1236" 
d="M621 1597q-135 0 -217.5 90.5t-90.5 245.5h90q25 -223 218 -223q192 0 217 223h90q-8 -155 -90 -245.5t-217 -90.5zM1143 0h-948v1516h905v-136h-760v-514h567l23 -131h-590v-602h803v-133z" />
    <glyph glyph-name="ebreve" unicode="&#x115;" horiz-adv-x="1118" 
d="M561 1186q-135 0 -217 90.5t-90 245.5h90q25 -224 217 -224t217 224h90q-8 -155 -90 -245.5t-217 -90.5zM596 -23q-103 0 -192 37t-156.5 106t-106.5 177.5t-39 243.5q0 111 27.5 204t73.5 157.5t107.5 110t128.5 66.5t136 21q195 0 318 -146.5t123 -414.5v-27h-772
q1 -194 100 -305t254 -111q104 0 186 39.5t160 120.5l70 -92q-92 -97 -189.5 -142t-228.5 -45zM246 623h633q-11 161 -89 259.5t-217 98.5q-125 0 -217 -92.5t-110 -265.5z" />
    <glyph glyph-name="Edotaccent" unicode="&#x116;" horiz-adv-x="1236" 
d="M657 1604q-46 0 -72 27.5t-26 76.5q0 46 26 73t72 27t73.5 -27t27.5 -73q0 -49 -27.5 -76.5t-73.5 -27.5zM1143 0h-948v1516h905v-136h-760v-514h567l23 -131h-590v-602h803v-133z" />
    <glyph glyph-name="edotaccent" unicode="&#x117;" horiz-adv-x="1118" 
d="M557 1188q-46 0 -72 27.5t-26 76.5q0 46 26.5 73.5t71.5 27.5q46 0 73 -27.5t27 -73.5q0 -49 -27 -76.5t-73 -27.5zM596 -23q-103 0 -192 37t-156.5 106t-106.5 177.5t-39 243.5q0 111 27.5 204t73.5 157.5t107.5 110t128.5 66.5t136 21q195 0 318 -146.5t123 -414.5v-27
h-772q1 -194 100 -305t254 -111q104 0 186 39.5t160 120.5l70 -92q-92 -97 -189.5 -142t-228.5 -45zM246 623h633q-11 161 -89 259.5t-217 98.5q-125 0 -217 -92.5t-110 -265.5z" />
    <glyph glyph-name="Eogonek" unicode="&#x118;" horiz-adv-x="1236" 
d="M1169 -305q-136 -78 -260 -78q-89 0 -139.5 42t-50.5 116q0 57 46 116.5t118 108.5h-688v1516h905v-136h-760v-514h567l23 -131h-590v-602h803v-133h-162q-143 -100 -143 -203q0 -98 106 -98q88 0 195 49z" />
    <glyph glyph-name="eogonek" unicode="&#x119;" horiz-adv-x="1118" 
d="M627 -383q-89 0 -140 42t-51 116q0 50 36.5 103.5t96.5 98.5q-98 5 -182.5 44t-148 108.5t-100 175.5t-36.5 236q0 111 27.5 204t73.5 157.5t107.5 110t128.5 66.5t136 21q195 0 318 -146.5t123 -414.5v-27h-772q1 -194 100 -305t254 -111q104 0 186 39.5t160 120.5
l70 -92q-77 -81 -158 -125.5t-182 -56.5q-119 -89 -119 -185q0 -98 107 -98q87 0 194 49l31 -53q-136 -78 -260 -78zM246 623h633q-11 161 -89 259.5t-217 98.5q-125 0 -217 -92.5t-110 -265.5z" />
    <glyph glyph-name="Ecaron" unicode="&#x11a;" horiz-adv-x="1236" 
d="M604 1612l-264 325h90l229 -202l230 202h86l-264 -325h-107zM1143 0h-948v1516h905v-136h-760v-514h567l23 -131h-590v-602h803v-133z" />
    <glyph glyph-name="ecaron" unicode="&#x11b;" horiz-adv-x="1118" 
d="M506 1196l-264 326h90l229 -203l230 203h86l-265 -326h-106zM596 -23q-103 0 -192 37t-156.5 106t-106.5 177.5t-39 243.5q0 111 27.5 204t73.5 157.5t107.5 110t128.5 66.5t136 21q195 0 318 -146.5t123 -414.5v-27h-772q1 -194 100 -305t254 -111q104 0 186 39.5
t160 120.5l70 -92q-92 -97 -189.5 -142t-228.5 -45zM246 623h633q-11 161 -89 259.5t-217 98.5q-125 0 -217 -92.5t-110 -265.5z" />
    <glyph glyph-name="Gcircumflex" unicode="&#x11c;" horiz-adv-x="1480" 
d="M434 1604l264 325h107l264 -325h-90l-229 200l-230 -200h-86zM743 -29q-193 0 -335.5 104.5t-214.5 282.5t-72 406q0 175 47.5 321.5t131.5 247t200.5 156t253.5 55.5q184 0 316.5 -91t203.5 -263l-129 -62q-55 143 -149 213t-242 70q-100 0 -187.5 -41.5t-155 -120
t-106.5 -202t-39 -277.5q0 -311 134.5 -489.5t355.5 -178.5q192 0 306.5 130.5t113.5 355.5h-357l-22 125h520v-713h-131v219h-4q-58 -111 -167 -179.5t-272 -68.5z" />
    <glyph glyph-name="gcircumflex" unicode="&#x11d;" horiz-adv-x="1159" 
d="M225 1188l264 325h107l264 -325h-90l-229 201l-230 -201h-86zM543 436q132 0 210 74t78 199q0 130 -76.5 204t-213.5 74q-133 0 -211 -75.5t-78 -202.5q0 -124 79.5 -198.5t211.5 -74.5zM557 -414q-256 0 -384 71.5t-128 199.5q0 82 52 145t147 100q-97 40 -97 138
q0 92 132 161q-77 50 -120.5 130.5t-43.5 179.5q0 171 121 280t305 109q186 0 307 -111q48 35 113 63t124 35l21 -133q-121 0 -205 -36q64 -86 64 -207q0 -174 -120 -278.5t-304 -104.5q-95 0 -174 30q-86 -34 -86 -92q0 -35 35.5 -54t123.5 -28l236 -18q381 -30 381 -275
q0 -145 -137 -225t-363 -80zM571 -303q164 0 259.5 49.5t95.5 132.5q0 77 -68.5 117.5t-226.5 52.5l-215 17q-9 1 -28 3t-28 3q-88 -28 -134 -80.5t-46 -116.5q0 -178 391 -178z" />
    <glyph glyph-name="Gbreve" unicode="&#x11e;" horiz-adv-x="1480" 
d="M739 1602q-135 0 -217 90t-90 245h90q25 -223 217 -223t217 223h91q-7 -155 -90 -245t-218 -90zM743 -29q-193 0 -335.5 104.5t-214.5 282.5t-72 406q0 175 47.5 321.5t131.5 247t200.5 156t253.5 55.5q184 0 316.5 -91t203.5 -263l-129 -62q-55 143 -149 213t-242 70
q-100 0 -187.5 -41.5t-155 -120t-106.5 -202t-39 -277.5q0 -311 134.5 -489.5t355.5 -178.5q192 0 306.5 130.5t113.5 355.5h-357l-22 125h520v-713h-131v219h-4q-58 -111 -167 -179.5t-272 -68.5z" />
    <glyph glyph-name="gbreve" unicode="&#x11f;" horiz-adv-x="1159" 
d="M561 1186q-135 0 -217 90.5t-90 245.5h90q25 -224 217 -224t217 224h90q-8 -155 -90 -245.5t-217 -90.5zM543 436q132 0 210 74t78 199q0 130 -76.5 204t-213.5 74q-133 0 -211 -75.5t-78 -202.5q0 -124 79.5 -198.5t211.5 -74.5zM557 -414q-256 0 -384 71.5t-128 199.5
q0 82 52 145t147 100q-97 40 -97 138q0 92 132 161q-77 50 -120.5 130.5t-43.5 179.5q0 171 121 280t305 109q186 0 307 -111q48 35 113 63t124 35l21 -133q-121 0 -205 -36q64 -86 64 -207q0 -174 -120 -278.5t-304 -104.5q-95 0 -174 30q-86 -34 -86 -92q0 -35 35.5 -54
t123.5 -28l236 -18q381 -30 381 -275q0 -145 -137 -225t-363 -80zM571 -303q164 0 259.5 49.5t95.5 132.5q0 77 -68.5 117.5t-226.5 52.5l-215 17q-9 1 -28 3t-28 3q-88 -28 -134 -80.5t-46 -116.5q0 -178 391 -178z" />
    <glyph glyph-name="Gdotaccent" unicode="&#x120;" horiz-adv-x="1480" 
d="M737 1604q-46 0 -72 27.5t-26 76.5q0 46 26 73t72 27t73.5 -27t27.5 -73q0 -49 -27.5 -76.5t-73.5 -27.5zM743 -29q-193 0 -335.5 104.5t-214.5 282.5t-72 406q0 175 47.5 321.5t131.5 247t200.5 156t253.5 55.5q184 0 316.5 -91t203.5 -263l-129 -62q-55 143 -149 213
t-242 70q-100 0 -187.5 -41.5t-155 -120t-106.5 -202t-39 -277.5q0 -311 134.5 -489.5t355.5 -178.5q192 0 306.5 130.5t113.5 355.5h-357l-22 125h520v-713h-131v219h-4q-58 -111 -167 -179.5t-272 -68.5z" />
    <glyph glyph-name="gdotaccent" unicode="&#x121;" horiz-adv-x="1159" 
d="M541 1188q-46 0 -72.5 27.5t-26.5 76.5q0 46 26.5 73.5t72.5 27.5t73 -27.5t27 -73.5q0 -49 -27 -76.5t-73 -27.5zM543 436q132 0 210 74t78 199q0 130 -76.5 204t-213.5 74q-133 0 -211 -75.5t-78 -202.5q0 -124 79.5 -198.5t211.5 -74.5zM557 -414q-256 0 -384 71.5
t-128 199.5q0 82 52 145t147 100q-97 40 -97 138q0 92 132 161q-77 50 -120.5 130.5t-43.5 179.5q0 171 121 280t305 109q186 0 307 -111q48 35 113 63t124 35l21 -133q-121 0 -205 -36q64 -86 64 -207q0 -174 -120 -278.5t-304 -104.5q-95 0 -174 30q-86 -34 -86 -92
q0 -35 35.5 -54t123.5 -28l236 -18q381 -30 381 -275q0 -145 -137 -225t-363 -80zM571 -303q164 0 259.5 49.5t95.5 132.5q0 77 -68.5 117.5t-226.5 52.5l-215 17q-9 1 -28 3t-28 3q-88 -28 -134 -80.5t-46 -116.5q0 -178 391 -178z" />
    <glyph glyph-name="Gcommaaccent" unicode="&#x122;" horiz-adv-x="1480" 
d="M743 -29q-193 0 -335.5 104.5t-214.5 282.5t-72 406q0 175 47.5 321.5t131.5 247t200.5 156t253.5 55.5q184 0 316.5 -91t203.5 -263l-129 -62q-55 143 -149 213t-242 70q-100 0 -187.5 -41.5t-155 -120t-106.5 -202t-39 -277.5q0 -311 134.5 -489.5t355.5 -178.5
q192 0 306.5 130.5t113.5 355.5h-357l-22 125h520v-713h-131v219h-4q-58 -111 -167 -179.5t-272 -68.5zM715 -483h-80l49 391h172z" />
    <glyph glyph-name="gcommaaccent" unicode="&#x123;" horiz-adv-x="1159" 
d="M594 1583h80l-49 -389h-172zM543 436q132 0 210 74t78 199q0 130 -76.5 204t-213.5 74q-133 0 -211 -75.5t-78 -202.5q0 -124 79.5 -198.5t211.5 -74.5zM557 -414q-256 0 -384 71.5t-128 199.5q0 82 52 145t147 100q-97 40 -97 138q0 92 132 161q-77 50 -120.5 130.5
t-43.5 179.5q0 171 121 280t305 109q186 0 307 -111q48 35 113 63t124 35l21 -133q-121 0 -205 -36q64 -86 64 -207q0 -174 -120 -278.5t-304 -104.5q-95 0 -174 30q-86 -34 -86 -92q0 -35 35.5 -54t123.5 -28l236 -18q381 -30 381 -275q0 -145 -137 -225t-363 -80z
M571 -303q164 0 259.5 49.5t95.5 132.5q0 77 -68.5 117.5t-226.5 52.5l-215 17q-9 1 -28 3t-28 3q-88 -28 -134 -80.5t-46 -116.5q0 -178 391 -178z" />
    <glyph glyph-name="Hcircumflex" unicode="&#x124;" horiz-adv-x="1499" 
d="M432 1604l264 325h107l264 -325h-90l-229 200l-230 -200h-86zM340 0h-145v1516h145v-650h821v650h146v-1516h-146v733h-821v-733z" />
    <glyph glyph-name="hcircumflex" unicode="&#x125;" horiz-adv-x="1189" 
d="M-86 1604l264 325h107l264 -325h-90l-230 200l-229 -200h-86zM305 0h-141v1505l141 21v-619q193 193 408 193q161 0 243 -82.5t82 -235.5v-782h-141v754q0 115 -52 170t-165 55q-98 0 -188.5 -47.5t-186.5 -140.5v-791z" />
    <glyph glyph-name="Hbar" unicode="&#x126;" horiz-adv-x="1499" 
d="M340 866h821v256h-821v-256zM340 733v-733h-145v1122h-170v123h170v271h145v-271h821v271h146v-271h170v-123h-170v-1122h-146v733h-821z" />
    <glyph glyph-name="hbar" unicode="&#x127;" horiz-adv-x="1189" 
d="M305 791v-791h-141v1233h-178v108h178v168l141 13v-181h225v-108h-225v-326q193 193 408 193q161 0 243 -82.5t82 -235.5v-782h-141v752q0 115 -52 171t-165 56q-98 0 -188.5 -47.5t-186.5 -140.5z" />
    <glyph glyph-name="Itilde" unicode="&#x128;" horiz-adv-x="575" 
d="M440 1604q-49 0 -107 28.5t-110 57t-86 28.5q-45 0 -64 -27.5t-18 -91.5l-90 17q0 217 172 217q39 0 84 -18t79 -39.5t73 -39.5t67 -18q45 0 64.5 27.5t19.5 91.5l88 -16q0 -217 -172 -217zM360 0h-145v1516h145v-1516z" />
    <glyph glyph-name="itilde" unicode="&#x129;" horiz-adv-x="491" 
d="M397 1188q-49 0 -107 29t-110 57.5t-86 28.5q-45 0 -64 -27.5t-18 -91.5l-90 16q0 217 172 217q49 0 107 -28.5t110 -57t86 -28.5q45 0 64.5 27t19.5 91l88 -16q0 -217 -172 -217zM317 0h-141v1077h141v-1077z" />
    <glyph glyph-name="Imacron" unicode="&#x12a;" horiz-adv-x="575" 
d="M29 1608v121h520v-121h-520zM360 0h-145v1516h145v-1516z" />
    <glyph glyph-name="imacron" unicode="&#x12b;" horiz-adv-x="491" 
d="M-14 1192v121h520v-121h-520zM317 0h-141v1077h141v-1077z" />
    <glyph glyph-name="Ibreve" unicode="&#x12c;" horiz-adv-x="575" 
d="M289 1597q-135 0 -217 90.5t-90 245.5h90q25 -223 217 -223t217 223h90q-8 -155 -90 -245.5t-217 -90.5zM360 0h-145v1516h145v-1516z" />
    <glyph glyph-name="ibreve" unicode="&#x12d;" horiz-adv-x="491" 
d="M246 1186q-135 0 -217 90.5t-90 245.5h90q25 -224 217 -224t217 224h90q-8 -155 -90 -245.5t-217 -90.5zM317 0h-141v1077h141v-1077z" />
    <glyph glyph-name="Iogonek" unicode="&#x12e;" horiz-adv-x="575" 
d="M496 -305q-136 -78 -260 -78q-89 0 -140 42t-51 116q0 60 49.5 122t120.5 107v1512h145v-1516h-53q-143 -100 -143 -203q0 -98 106 -98q88 0 195 49z" />
    <glyph glyph-name="iogonek" unicode="&#x12f;" horiz-adv-x="491" 
d="M246 1315q-40 0 -63 24.5t-23 65.5q0 40 23 63t63 23t63 -23t23 -63q0 -41 -23 -65.5t-63 -24.5zM457 -305q-136 -78 -260 -78q-89 0 -140 42t-51 116q0 60 49.5 122t120.5 107v1073h141v-1077h-49q-143 -100 -143 -203q0 -98 106 -98q88 0 195 49z" />
    <glyph glyph-name="Idotaccent" unicode="&#x130;" horiz-adv-x="575" 
d="M289 1604q-46 0 -72.5 27.5t-26.5 76.5q0 46 26.5 73t72.5 27t73 -27t27 -73q0 -49 -27 -76.5t-73 -27.5zM360 0h-145v1516h145v-1516z" />
    <glyph glyph-name="dotlessi" unicode="&#x131;" horiz-adv-x="491" 
d="M317 0h-141v1077h141v-1077z" />
    <glyph glyph-name="IJ" unicode="&#x132;" horiz-adv-x="1515" 
d="M360 0h-145v1516h145v-1516zM942 -27q-231 0 -358 158l80 107q99 -136 272 -136q252 0 252 310v1106h145v-1108q0 -212 -102 -324.5t-289 -112.5z" />
    <glyph glyph-name="ij" unicode="&#x133;" horiz-adv-x="985" 
d="M737 1317q-40 0 -63 24.5t-23 65.5q0 40 23 63t63 23t63 -23t23 -63q0 -41 -23 -65.5t-63 -24.5zM246 1315q-40 0 -63 24.5t-23 65.5q0 40 23 63t63 23t63 -23t23 -63q0 -41 -23 -65.5t-63 -24.5zM317 0h-141v1077h141v-1077zM582 -410q-31 0 -80 7l-13 114q27 -6 72 -6
q107 0 107 119v1255h141v-1247q0 -119 -53.5 -180.5t-173.5 -61.5z" />
    <glyph glyph-name="Jcircumflex" unicode="&#x134;" horiz-adv-x="1019" 
d="M449 1604l264 325h106l264 -325h-90l-229 200l-229 -200h-86zM449 -29q-232 0 -359 158l80 107q99 -136 272 -136q252 0 252 310v1106h146v-1108q0 -212 -102 -324.5t-289 -112.5z" />
    <glyph glyph-name="jcircumflex" unicode="&#x135;" horiz-adv-x="491" 
d="M-72 1188l265 325h106l264 -325h-90l-229 201l-230 -201h-86zM90 -412q-40 0 -82 6l-4 115q27 -6 66 -6q106 0 106 119v1255h141v-1247q0 -119 -53.5 -180.5t-173.5 -61.5z" />
    <glyph glyph-name="Kcommaaccent" unicode="&#x136;" horiz-adv-x="1368" 
d="M340 0h-145v1516h145v-818l725 818h178l-520 -574l600 -930l-152 -24l-546 841l-285 -311v-518zM657 -483h-79l49 391h172z" />
    <glyph glyph-name="kcommaaccent" unicode="&#x137;" horiz-adv-x="1085" 
d="M305 0h-141v1505l141 21v-1016l514 567h166l-352 -379l391 -686l-139 -24l-346 604l-234 -252v-340zM516 -483h-80l49 391h172z" />
    <glyph glyph-name="kgreenlandic" unicode="&#x138;" horiz-adv-x="1085" 
d="M164 0v1077h141v-567l514 567h166l-352 -379l391 -686l-139 -24l-346 604l-234 -252v-340h-141z" />
    <glyph glyph-name="Lacute" unicode="&#x139;" horiz-adv-x="1157" 
d="M215 1610l195 319h186l-289 -319h-92zM1092 0h-897v1516h145v-1383h729z" />
    <glyph glyph-name="lacute" unicode="&#x13a;" horiz-adv-x="491" 
d="M197 1610l194 319h187l-289 -319h-92zM317 0h-141v1505l141 21v-1526z" />
    <glyph glyph-name="Lcommaaccent" unicode="&#x13b;" horiz-adv-x="1157" 
d="M1092 0h-897v1516h145v-1383h729zM553 -483h-80l49 391h172z" />
    <glyph glyph-name="lcommaaccent" unicode="&#x13c;" horiz-adv-x="491" 
d="M317 0h-141v1505l141 21v-1526zM219 -483h-80l49 391h172z" />
    <glyph glyph-name="Lcaron" unicode="&#x13d;" horiz-adv-x="1157" 
d="M1092 0h-897v1516h145v-1383h729zM672 1124h-80l49 392h172z" />
    <glyph glyph-name="lcaron" unicode="&#x13e;" horiz-adv-x="491" 
d="M508 1163h-80l49 387h172zM317 0h-141v1505l141 21v-1526z" />
    <glyph glyph-name="Ldot" unicode="&#x13f;" horiz-adv-x="1171" 
d="M1092 0h-897v1516h145v-1383h729zM848 713q-43 0 -68.5 27t-25.5 73t25.5 73t68.5 27q44 0 70 -27t26 -73t-26 -73t-70 -27z" />
    <glyph glyph-name="ldot" unicode="&#x140;" horiz-adv-x="679" 
d="M317 0h-141v1505l141 21v-1526zM588 561q-44 0 -69 26.5t-25 69.5q0 42 25 66.5t69 24.5q41 0 66.5 -25t25.5 -66q0 -43 -25.5 -69.5t-66.5 -26.5z" />
    <glyph glyph-name="Lslash" unicode="&#x141;" horiz-adv-x="1157" 
d="M1092 0h-895v711l-177 -47v122l177 48v682h145v-644l324 89v-123l-324 -86v-619h727z" />
    <glyph glyph-name="lslash" unicode="&#x142;" horiz-adv-x="606" 
d="M233 0v918l-192 -52v115l192 49v479l140 13v-455l196 53v-114l-196 -54v-952h-140z" />
    <glyph glyph-name="Nacute" unicode="&#x143;" horiz-adv-x="1521" 
d="M616 1610l195 319h186l-288 -319h-93zM332 0h-137v1516h155l836 -1250h4v1250h137v-1516h-129l-862 1288h-4v-1288z" />
    <glyph glyph-name="nacute" unicode="&#x144;" horiz-adv-x="1189" 
d="M479 1194l195 319h186l-289 -319h-92zM305 0h-141v1077h127l14 -170q193 193 408 193q161 0 243 -82.5t82 -235.5v-782h-141v754q0 115 -52 171t-165 56q-98 0 -188.5 -47.5t-186.5 -140.5v-793z" />
    <glyph glyph-name="Ncommaaccent" unicode="&#x145;" horiz-adv-x="1521" 
d="M332 0h-137v1516h155l836 -1250h4v1250h137v-1516h-129l-862 1288h-4v-1288zM733 -483h-80l49 391h172z" />
    <glyph glyph-name="ncommaaccent" unicode="&#x146;" horiz-adv-x="1189" 
d="M305 0h-141v1077h127l14 -170q193 193 408 193q161 0 243 -82.5t82 -235.5v-782h-141v754q0 115 -52 171t-165 56q-98 0 -188.5 -47.5t-186.5 -140.5v-793zM569 -483h-80l50 391h172z" />
    <glyph glyph-name="Ncaron" unicode="&#x147;" horiz-adv-x="1521" 
d="M707 1612l-265 325h90l230 -202l229 202h86l-264 -325h-106zM332 0h-137v1516h155l836 -1250h4v1250h137v-1516h-129l-862 1288h-4v-1288z" />
    <glyph glyph-name="ncaron" unicode="&#x148;" horiz-adv-x="1189" 
d="M543 1196l-264 326h90l229 -203l229 203h86l-264 -326h-106zM305 0h-141v1077h127l14 -170q193 193 408 193q161 0 243 -82.5t82 -235.5v-782h-141v754q0 115 -52 171t-165 56q-98 0 -188.5 -47.5t-186.5 -140.5v-793z" />
    <glyph glyph-name="Eng" unicode="&#x14a;" horiz-adv-x="1521" 
d="M195 0v1516h155l836 -1250h4v1250h137v-1500q0 -209 -105.5 -318.5t-297.5 -109.5q-235 0 -363 162l86 96q99 -133 271 -133q262 0 270 295v6l-852 1274h-4v-1288h-137z" />
    <glyph glyph-name="eng" unicode="&#x14b;" horiz-adv-x="1189" 
d="M164 0v1077h131l10 -176q199 199 408 199q161 0 243 -82.5t82 -235.5v-962q0 -115 -53.5 -173.5t-173.5 -58.5q-40 0 -82 6l-8 113q27 -6 72 -6q48 0 76 29t28 88v936q0 115 -52 171t-165 56q-98 0 -188.5 -47.5t-186.5 -140.5v-793h-141z" />
    <glyph glyph-name="Omacron" unicode="&#x14c;" horiz-adv-x="1519" 
d="M498 1608v121h520v-121h-520zM760 -29q-137 0 -254.5 56.5t-202.5 158t-133.5 249.5t-48.5 323t48.5 322.5t133.5 249t202.5 158t254.5 56.5q136 0 253.5 -56.5t203 -158t134 -249t48.5 -322.5t-48.5 -323t-134 -249.5t-203 -158t-253.5 -56.5zM760 102q219 0 356 176.5
t137 479.5q0 302 -137 477.5t-356 175.5t-356.5 -175.5t-137.5 -477.5t137.5 -479t356.5 -177z" />
    <glyph glyph-name="omacron" unicode="&#x14d;" horiz-adv-x="1181" 
d="M332 1192v121h520v-121h-520zM592 -23q-100 0 -188.5 38t-155.5 108t-106.5 177.5t-39.5 238.5t39 238.5t106.5 177.5t156 107.5t188.5 37.5t188 -37.5t154.5 -107.5t105.5 -177.5t39 -238.5t-39 -238.5t-105.5 -177.5t-154.5 -108t-188 -38zM592 98q160 0 253 123
t93 318q0 188 -91.5 314t-254.5 126q-161 0 -254.5 -122.5t-93.5 -317.5q0 -123 38 -221t118 -159t192 -61z" />
    <glyph glyph-name="Obreve" unicode="&#x14e;" horiz-adv-x="1519" 
d="M758 1602q-135 0 -217 90t-90 245h90q25 -223 217 -223t217 223h90q-8 -155 -90 -245t-217 -90zM760 -29q-137 0 -254.5 56.5t-202.5 158t-133.5 249.5t-48.5 323t48.5 322.5t133.5 249t202.5 158t254.5 56.5q136 0 253.5 -56.5t203 -158t134 -249t48.5 -322.5
t-48.5 -323t-134 -249.5t-203 -158t-253.5 -56.5zM760 102q219 0 356 176.5t137 479.5q0 302 -137 477.5t-356 175.5t-356.5 -175.5t-137.5 -477.5t137.5 -479t356.5 -177z" />
    <glyph glyph-name="obreve" unicode="&#x14f;" horiz-adv-x="1181" 
d="M592 1186q-135 0 -217 90.5t-90 245.5h90q25 -224 217 -224t217 224h90q-8 -155 -90 -245.5t-217 -90.5zM592 -23q-100 0 -188.5 38t-155.5 108t-106.5 177.5t-39.5 238.5t39 238.5t106.5 177.5t156 107.5t188.5 37.5t188 -37.5t154.5 -107.5t105.5 -177.5t39 -238.5
t-39 -238.5t-105.5 -177.5t-154.5 -108t-188 -38zM592 98q160 0 253 123t93 318q0 188 -91.5 314t-254.5 126q-161 0 -254.5 -122.5t-93.5 -317.5q0 -123 38 -221t118 -159t192 -61z" />
    <glyph glyph-name="Ohungarumlaut" unicode="&#x150;" horiz-adv-x="1519" 
d="M819 1610l199 319h190l-293 -319h-96zM489 1610l195 319h190l-288 -319h-97zM760 -29q-137 0 -254.5 56.5t-202.5 158t-133.5 249.5t-48.5 323t48.5 322.5t133.5 249t202.5 158t254.5 56.5q136 0 253.5 -56.5t203 -158t134 -249t48.5 -322.5t-48.5 -323t-134 -249.5
t-203 -158t-253.5 -56.5zM760 102q219 0 356 176.5t137 479.5q0 302 -137 477.5t-356 175.5t-356.5 -175.5t-137.5 -477.5t137.5 -479t356.5 -177z" />
    <glyph glyph-name="ohungarumlaut" unicode="&#x151;" horiz-adv-x="1181" 
d="M666 1194l198 319h191l-293 -319h-96zM336 1194l194 319h191l-289 -319h-96zM592 -23q-100 0 -188.5 38t-155.5 108t-106.5 177.5t-39.5 238.5t39 238.5t106.5 177.5t156 107.5t188.5 37.5t188 -37.5t154.5 -107.5t105.5 -177.5t39 -238.5t-39 -238.5t-105.5 -177.5
t-154.5 -108t-188 -38zM592 98q160 0 253 123t93 318q0 188 -91.5 314t-254.5 126q-161 0 -254.5 -122.5t-93.5 -317.5q0 -123 38 -221t118 -159t192 -61z" />
    <glyph glyph-name="OE" unicode="&#x152;" horiz-adv-x="2291" 
d="M760 102q218 0 354.5 177t136.5 479t-136.5 477.5t-354.5 175.5q-219 0 -356.5 -175.5t-137.5 -477.5t137.5 -479t356.5 -177zM758 -29q-278 0 -457.5 217.5t-179.5 569.5q0 175 48.5 322.5t133.5 249t202.5 158t254.5 56.5q172 0 300 -85.5t200 -233.5v291h894v-136
h-759v-514h555l22 -131h-577v-602h803v-133h-938v301q-72 -151 -201 -240.5t-301 -89.5z" />
    <glyph glyph-name="oe" unicode="&#x153;" horiz-adv-x="1937" 
d="M588 -23q-99 0 -187 38t-155 108t-105.5 177.5t-38.5 238.5q0 132 38.5 239t105 177t154.5 107.5t188 37.5q143 0 251 -77t160 -208q52 129 159.5 207t240.5 78q194 0 315 -146.5t121 -414.5v-23h-766q1 -198 101 -309t253 -111q98 0 179.5 39.5t164.5 120.5l70 -92
q-97 -97 -195 -142t-229 -45q-138 0 -251.5 78.5t-164.5 206.5q-52 -131 -159 -208t-250 -77zM1071 625h627q-13 164 -88.5 260t-212.5 96q-125 0 -216 -90.5t-110 -265.5zM588 98q160 0 252 122t92 319q0 122 -37.5 220t-117 159t-189.5 61q-160 0 -252 -122t-92 -318
q0 -189 89.5 -315t254.5 -126z" />
    <glyph glyph-name="Racute" unicode="&#x154;" horiz-adv-x="1374" 
d="M580 1610l194 319h187l-289 -319h-92zM338 0h-143v1516h507q253 0 389 -106t136 -308q0 -335 -361 -406l387 -684l-149 -24l-389 692h-377v-680zM338 1382v-573h354q196 0 293.5 67t97.5 224q0 151 -98 216.5t-295 65.5h-352z" />
    <glyph glyph-name="racute" unicode="&#x155;" horiz-adv-x="806" 
d="M297 1194l195 319h186l-289 -319h-92zM305 0h-141v1077h127l14 -211h4q146 234 424 234h15l12 -131q-4 2 -51 2q-133 0 -237.5 -70.5t-166.5 -198.5v-702z" />
    <glyph glyph-name="Rcommaaccent" unicode="&#x156;" horiz-adv-x="1374" 
d="M338 0h-143v1516h507q253 0 389 -106t136 -308q0 -335 -361 -406l387 -684l-149 -24l-389 692h-377v-680zM338 1382v-573h354q196 0 293.5 67t97.5 224q0 151 -98 216.5t-295 65.5h-352zM659 -483h-79l49 391h172z" />
    <glyph glyph-name="rcommaaccent" unicode="&#x157;" horiz-adv-x="806" 
d="M305 0h-141v1077h127l14 -211h4q146 234 424 234h15l12 -131q-4 2 -51 2q-133 0 -237.5 -70.5t-166.5 -198.5v-702zM207 -483h-80l49 391h172z" />
    <glyph glyph-name="Rcaron" unicode="&#x158;" horiz-adv-x="1374" 
d="M633 1612l-264 325h90l229 -202l230 202h86l-265 -325h-106zM338 0h-143v1516h507q253 0 389 -106t136 -308q0 -335 -361 -406l387 -684l-149 -24l-389 692h-377v-680zM338 1382v-573h354q196 0 293.5 67t97.5 224q0 151 -98 216.5t-295 65.5h-352z" />
    <glyph glyph-name="rcaron" unicode="&#x159;" horiz-adv-x="806" 
d="M350 1196l-264 326h90l230 -203l229 203h86l-264 -326h-107zM305 0h-141v1077h127l14 -211h4q146 234 424 234h15l12 -131q-4 2 -51 2q-133 0 -237.5 -70.5t-166.5 -198.5v-702z" />
    <glyph glyph-name="Sacute" unicode="&#x15a;" horiz-adv-x="1329" 
d="M555 1610l195 319h186l-289 -319h-92zM678 -29q-362 0 -604 242l84 109q100 -101 233.5 -160.5t284.5 -59.5q175 0 279 73.5t104 199.5q0 82 -33 137t-119.5 104t-247.5 99q-106 33 -177 61t-135.5 65.5t-100.5 80.5t-57 101t-21 132q0 165 133 277t338 112
q300 0 539 -215l-74 -115q-109 98 -221 148.5t-244 50.5q-149 0 -238.5 -71.5t-89.5 -176.5q0 -64 19.5 -108.5t73 -82.5t126.5 -68t201 -70q125 -40 207.5 -79t145 -91.5t90.5 -121.5t28 -161q0 -185 -147 -298.5t-377 -113.5z" />
    <glyph glyph-name="sacute" unicode="&#x15b;" horiz-adv-x="1036" 
d="M412 1194l194 319h187l-289 -319h-92zM512 -18q-140 0 -247 52t-175 138l78 86q142 -162 346 -162q136 0 208.5 49.5t72.5 137.5t-63.5 134t-233.5 85q-103 25 -169 50t-115 61.5t-70 85.5t-21 118q0 120 98.5 201.5t267.5 81.5q239 0 398 -152l-72 -98
q-139 133 -321 133q-116 0 -175 -46t-59 -114q0 -75 54.5 -116t203.5 -76q115 -27 187 -53t126.5 -65t77.5 -91.5t23 -128.5q0 -146 -116 -228.5t-304 -82.5z" />
    <glyph glyph-name="Scircumflex" unicode="&#x15c;" horiz-adv-x="1329" 
d="M344 1604l264 325h107l264 -325h-90l-230 200l-229 -200h-86zM678 -29q-362 0 -604 242l84 109q100 -101 233.5 -160.5t284.5 -59.5q175 0 279 73.5t104 199.5q0 82 -33 137t-119.5 104t-247.5 99q-106 33 -177 61t-135.5 65.5t-100.5 80.5t-57 101t-21 132
q0 165 133 277t338 112q300 0 539 -215l-74 -115q-109 98 -221 148.5t-244 50.5q-149 0 -238.5 -71.5t-89.5 -176.5q0 -64 19.5 -108.5t73 -82.5t126.5 -68t201 -70q125 -40 207.5 -79t145 -91.5t90.5 -121.5t28 -161q0 -185 -147 -298.5t-377 -113.5z" />
    <glyph glyph-name="scircumflex" unicode="&#x15d;" horiz-adv-x="1036" 
d="M168 1188l264 325h107l264 -325h-90l-230 201l-229 -201h-86zM512 -18q-140 0 -247 52t-175 138l78 86q142 -162 346 -162q136 0 208.5 49.5t72.5 137.5t-63.5 134t-233.5 85q-103 25 -169 50t-115 61.5t-70 85.5t-21 118q0 120 98.5 201.5t267.5 81.5q239 0 398 -152
l-72 -98q-139 133 -321 133q-116 0 -175 -46t-59 -114q0 -75 54.5 -116t203.5 -76q115 -27 187 -53t126.5 -65t77.5 -91.5t23 -128.5q0 -146 -116 -228.5t-304 -82.5z" />
    <glyph glyph-name="Scedilla" unicode="&#x15e;" horiz-adv-x="1329" 
d="M666 -399q-139 0 -254 75l39 60q92 -62 198 -62q154 0 154 99q0 71 -86 71q-57 0 -109 -41l-57 27l45 145q-307 23 -522 238l84 109q100 -101 233.5 -160.5t284.5 -59.5q175 0 279 73.5t104 199.5q0 82 -33 137t-119.5 104t-247.5 99q-106 33 -177 61t-135.5 65.5
t-100.5 80.5t-57 101t-21 132q0 165 133 277t338 112q300 0 539 -215l-74 -115q-109 98 -221 148.5t-244 50.5q-149 0 -238.5 -71.5t-89.5 -176.5q0 -64 19.5 -108.5t73 -82.5t126.5 -68t201 -70q125 -40 207.5 -79t145 -91.5t90.5 -121.5t28 -161q0 -185 -146.5 -298.5
t-373.5 -113.5l-25 -82q50 31 111 31q62 0 103.5 -36.5t41.5 -102.5q0 -90 -69 -135t-178 -45z" />
    <glyph glyph-name="scedilla" unicode="&#x15f;" horiz-adv-x="1036" 
d="M520 -399q-139 0 -254 75l39 60q92 -62 199 -62q153 0 153 99q0 71 -86 71q-56 0 -108 -41l-57 27l49 154q-231 19 -365 188l78 86q142 -162 346 -162q136 0 208.5 49.5t72.5 137.5t-63.5 134t-233.5 85q-103 25 -169 50t-115 61.5t-70 85.5t-21 118q0 120 98.5 201.5
t267.5 81.5q239 0 398 -152l-72 -98q-139 133 -321 133q-116 0 -175 -46t-59 -114q0 -75 54.5 -116t203.5 -76q115 -27 187 -53t126.5 -65t77.5 -91.5t23 -128.5q0 -140 -108.5 -222.5t-284.5 -88.5l-27 -93q50 31 111 31q62 0 103.5 -36.5t41.5 -102.5q0 -90 -69.5 -135
t-178.5 -45z" />
    <glyph glyph-name="Scaron" unicode="&#x160;" horiz-adv-x="1329" 
d="M610 1628l-264 326h90l230 -203l229 203h86l-264 -326h-107zM678 -29q-362 0 -604 242l84 109q100 -101 233.5 -160.5t284.5 -59.5q175 0 279 73.5t104 199.5q0 82 -33 137t-119.5 104t-247.5 99q-106 33 -177 61t-135.5 65.5t-100.5 80.5t-57 101t-21 132q0 165 133 277
t338 112q300 0 539 -215l-74 -115q-109 98 -221 148.5t-244 50.5q-149 0 -238.5 -71.5t-89.5 -176.5q0 -64 19.5 -108.5t73 -82.5t126.5 -68t201 -70q125 -40 207.5 -79t145 -91.5t90.5 -121.5t28 -161q0 -185 -147 -298.5t-377 -113.5z" />
    <glyph glyph-name="scaron" unicode="&#x161;" horiz-adv-x="1036" 
d="M465 1196l-264 326h90l229 -203l230 203h86l-265 -326h-106zM512 -18q-140 0 -247 52t-175 138l78 86q142 -162 346 -162q136 0 208.5 49.5t72.5 137.5t-63.5 134t-233.5 85q-103 25 -169 50t-115 61.5t-70 85.5t-21 118q0 120 98.5 201.5t267.5 81.5q239 0 398 -152
l-72 -98q-139 133 -321 133q-116 0 -175 -46t-59 -114q0 -75 54.5 -116t203.5 -76q115 -27 187 -53t126.5 -65t77.5 -91.5t23 -128.5q0 -146 -116 -228.5t-304 -82.5z" />
    <glyph glyph-name="Tcaron" unicode="&#x164;" horiz-adv-x="1263" 
d="M580 1612l-265 325h91l229 -202l229 202h86l-264 -325h-106zM705 0h-146v1380h-489v136h1112l22 -136h-499v-1380z" />
    <glyph glyph-name="tcaron" unicode="&#x165;" horiz-adv-x="745" 
d="M592 1247h-80l49 387h172zM520 -14q-148 0 -216 62.5t-68 207.5v702h-187v119h187v379l141 21v-400h280v-119h-280v-682q0 -89 38.5 -130.5t129.5 -41.5q52 0 106 15l17 -121q-70 -12 -148 -12z" />
    <glyph glyph-name="Tbar" unicode="&#x166;" horiz-adv-x="1263" 
d="M1192 696h-487v-696h-146v696h-489v123h489v561h-489v136h1120l8 -136h-493v-561h487v-123z" />
    <glyph glyph-name="tbar" unicode="&#x167;" horiz-adv-x="745" 
d="M670 -2q-74 -12 -150 -12q-148 0 -216 62.5t-68 207.5v254h-187v111h187v337h-187v119h187v385l141 8v-393h280v-119h-280v-337h280v-111h-280v-236q0 -89 38.5 -130.5t129.5 -41.5q63 0 110 15z" />
    <glyph glyph-name="Utilde" unicode="&#x168;" horiz-adv-x="1464" 
d="M883 1604q-49 0 -107 28.5t-110 57t-86 28.5q-45 0 -64 -27.5t-18 -91.5l-90 17q0 217 172 217q39 0 84 -18t79 -39.5t73 -39.5t67 -18q45 0 64.5 27.5t19.5 91.5l88 -16q0 -217 -172 -217zM731 -29q-135 0 -241.5 42t-173 116.5t-101.5 171.5t-35 211v1004h146v-984
q0 -193 102 -310.5t305 -117.5t304.5 115t101.5 309v988h145v-1000q0 -114 -35 -212t-102 -173t-174 -117.5t-242 -42.5z" />
    <glyph glyph-name="utilde" unicode="&#x169;" horiz-adv-x="1189" 
d="M750 1188q-49 0 -107 29t-110.5 57.5t-86.5 28.5q-45 0 -63.5 -27.5t-17.5 -91.5l-91 16q0 217 172 217q49 0 107 -28.5t110.5 -57t86.5 -28.5q45 0 64.5 27t19.5 91l88 -16q0 -217 -172 -217zM477 -23q-159 0 -241 82.5t-82 235.5v782h141v-753q0 -116 51 -171t164 -55
q97 0 187 48t190 141v790h141v-1077h-127l-14 170q-202 -193 -410 -193z" />
    <glyph glyph-name="Umacron" unicode="&#x16a;" horiz-adv-x="1464" 
d="M471 1608v121h520v-121h-520zM731 -29q-135 0 -241.5 42t-173 116.5t-101.5 171.5t-35 211v1004h146v-984q0 -193 102 -310.5t305 -117.5t304.5 115t101.5 309v988h145v-1000q0 -114 -35 -212t-102 -173t-174 -117.5t-242 -42.5z" />
    <glyph glyph-name="umacron" unicode="&#x16b;" horiz-adv-x="1189" 
d="M334 1192v121h520v-121h-520zM477 -23q-159 0 -241 82.5t-82 235.5v782h141v-753q0 -116 51 -171t164 -55q97 0 187 48t190 141v790h141v-1077h-127l-14 170q-202 -193 -410 -193z" />
    <glyph glyph-name="Ubreve" unicode="&#x16c;" horiz-adv-x="1464" 
d="M731 1602q-135 0 -217 90t-90 245h90q25 -223 217 -223t217 223h90q-8 -155 -90 -245t-217 -90zM731 -29q-135 0 -241.5 42t-173 116.5t-101.5 171.5t-35 211v1004h146v-984q0 -193 102 -310.5t305 -117.5t304.5 115t101.5 309v988h145v-1000q0 -114 -35 -212t-102 -173
t-174 -117.5t-242 -42.5z" />
    <glyph glyph-name="ubreve" unicode="&#x16d;" horiz-adv-x="1189" 
d="M594 1186q-135 0 -217 90.5t-90 245.5h90q25 -224 217 -224t217 224h90q-8 -155 -90 -245.5t-217 -90.5zM477 -23q-159 0 -241 82.5t-82 235.5v782h141v-753q0 -116 51 -171t164 -55q97 0 187 48t190 141v790h141v-1077h-127l-14 170q-202 -193 -410 -193z" />
    <glyph glyph-name="Uring" unicode="&#x16e;" horiz-adv-x="1464" 
d="M731 1595q-81 0 -133.5 53.5t-52.5 133.5t52.5 133t133.5 53t134 -53t53 -133t-53 -133.5t-134 -53.5zM731 1667q48 0 78.5 32t30.5 83q0 49 -31 81.5t-78 32.5t-77.5 -32t-30.5 -82q0 -51 30.5 -83t77.5 -32zM731 -29q-135 0 -241.5 42t-173 116.5t-101.5 171.5t-35 211
v1004h146v-984q0 -193 102 -310.5t305 -117.5t304.5 115t101.5 309v988h145v-1000q0 -114 -35 -212t-102 -173t-174 -117.5t-242 -42.5z" />
    <glyph glyph-name="uring" unicode="&#x16f;" horiz-adv-x="1189" 
d="M594 1180q-81 0 -133.5 53t-52.5 133t52.5 133t133.5 53t133.5 -53t52.5 -133t-52.5 -133t-133.5 -53zM594 1251q47 0 77.5 32t30.5 83q0 50 -30.5 82.5t-77.5 32.5t-78 -32.5t-31 -82.5q0 -51 30.5 -83t78.5 -32zM477 -23q-159 0 -241 82.5t-82 235.5v782h141v-753
q0 -116 51 -171t164 -55q97 0 187 48t190 141v790h141v-1077h-127l-14 170q-202 -193 -410 -193z" />
    <glyph glyph-name="Uhungarumlaut" unicode="&#x170;" horiz-adv-x="1464" 
d="M795 1610l198 319h191l-293 -319h-96zM465 1610l194 319h191l-289 -319h-96zM731 -29q-135 0 -241.5 42t-173 116.5t-101.5 171.5t-35 211v1004h146v-984q0 -193 102 -310.5t305 -117.5t304.5 115t101.5 309v988h145v-1000q0 -114 -35 -212t-102 -173t-174 -117.5
t-242 -42.5z" />
    <glyph glyph-name="uhungarumlaut" unicode="&#x171;" horiz-adv-x="1189" 
d="M659 1194l199 319h191l-293 -319h-97zM330 1194l194 319h191l-289 -319h-96zM477 -23q-159 0 -241 82.5t-82 235.5v782h141v-753q0 -116 51 -171t164 -55q97 0 187 48t190 141v790h141v-1077h-127l-14 170q-202 -193 -410 -193z" />
    <glyph glyph-name="Uogonek" unicode="&#x172;" horiz-adv-x="1464" 
d="M748 -383q-89 0 -140 42t-51 116q0 49 34.5 101t92.5 97q-124 7 -221 51.5t-158 117.5t-93 167t-32 203v1004h146v-984q0 -193 102 -310.5t305 -117.5t304.5 115t101.5 309v988h145v-1000q0 -109 -31.5 -203.5t-92.5 -168t-158 -119t-220 -52.5q-106 -86 -106 -176
q0 -98 106 -98q88 0 195 49l31 -53q-136 -78 -260 -78z" />
    <glyph glyph-name="uogonek" unicode="&#x173;" horiz-adv-x="1189" 
d="M1169 -305q-136 -78 -260 -78q-89 0 -139.5 42t-50.5 116q0 60 51 123t129 112h2l-14 160q-202 -193 -410 -193q-159 0 -241 82.5t-82 235.5v782h141v-753q0 -116 51 -171t164 -55q97 0 187 48t190 141v790h141v-1077h-47q-143 -100 -143 -203q0 -98 106 -98q88 0 195 49
z" />
    <glyph glyph-name="Wcircumflex" unicode="&#x174;" horiz-adv-x="1894" 
d="M631 1604l264 325h106l265 -325h-90l-230 200l-229 -200h-86zM623 0h-138l-401 1503l141 25l240 -932q46 -172 92 -381h4q29 149 88 379l225 922h154l229 -930q77 -318 86 -371h5q18 83 88 363l237 938h139l-401 -1516h-137l-322 1315h-4z" />
    <glyph glyph-name="wcircumflex" unicode="&#x175;" horiz-adv-x="1529" 
d="M446 1188l265 325h106l264 -325h-90l-229 201l-230 -201h-86zM516 0h-129l-328 1065l142 27l153 -547q51 -179 101 -367h4q52 206 98 367l148 532h129l149 -542q20 -66 96 -357h4q52 200 97 352l159 547h136l-332 -1077h-131l-244 887h-4z" />
    <glyph glyph-name="Ycircumflex" unicode="&#x176;" horiz-adv-x="1265" 
d="M313 1604l265 325h106l264 -325h-90l-229 200l-230 -200h-86zM705 0h-146v668l-500 835l142 25l434 -735l426 723h151l-507 -848v-668z" />
    <glyph glyph-name="ycircumflex" unicode="&#x177;" horiz-adv-x="1079" 
d="M225 1188l264 325h107l264 -325h-90l-229 201l-230 -201h-86zM201 -412q-85 0 -144 15l-10 123q88 -19 156 -19q87 0 137.5 39.5t85.5 128.5l45 119l-412 1071l142 27l340 -924h4l334 909h147l-465 -1202q-40 -103 -81 -162t-109.5 -92t-169.5 -33z" />
    <glyph glyph-name="Ydieresis" unicode="&#x178;" horiz-adv-x="1265" 
d="M811 1597q-40 0 -64 27.5t-24 73.5q0 43 24 69.5t64 26.5q42 0 66 -26.5t24 -69.5q0 -46 -24 -73.5t-66 -27.5zM451 1597q-41 0 -65 27.5t-24 73.5q0 43 24 69.5t65 26.5t64.5 -26.5t23.5 -69.5q0 -46 -23.5 -73.5t-64.5 -27.5zM705 0h-146v668l-500 835l142 25l434 -735
l426 723h151l-507 -848v-668z" />
    <glyph glyph-name="Zacute" unicode="&#x179;" horiz-adv-x="1275" 
d="M518 1610l195 319h186l-289 -319h-92zM1184 0h-1098v104l909 1289h-837l-25 123h1038v-107l-905 -1286h893z" />
    <glyph glyph-name="zacute" unicode="&#x17a;" horiz-adv-x="1036" 
d="M410 1194l194 319h187l-289 -319h-92zM958 0h-874v90l657 871h-594l-20 116h793v-90l-658 -870h676z" />
    <glyph glyph-name="Zdotaccent" unicode="&#x17b;" horiz-adv-x="1275" 
d="M637 1604q-46 0 -72 27.5t-26 76.5q0 46 26 73t72 27t73 -27t27 -73q0 -49 -27 -76.5t-73 -27.5zM1184 0h-1098v104l909 1289h-837l-25 123h1038v-107l-905 -1286h893z" />
    <glyph glyph-name="zdotaccent" unicode="&#x17c;" horiz-adv-x="1036" 
d="M518 1188q-46 0 -72 27.5t-26 76.5q0 46 26.5 73.5t71.5 27.5q46 0 73 -27.5t27 -73.5q0 -49 -27 -76.5t-73 -27.5zM958 0h-874v90l657 871h-594l-20 116h793v-90l-658 -870h676z" />
    <glyph glyph-name="Zcaron" unicode="&#x17d;" horiz-adv-x="1275" 
d="M588 1628l-264 326h90l229 -203l229 203h86l-264 -326h-106zM1184 0h-1098v104l909 1289h-837l-25 123h1038v-107l-905 -1286h893z" />
    <glyph glyph-name="zcaron" unicode="&#x17e;" horiz-adv-x="1036" 
d="M467 1196l-264 326h90l229 -203l230 203h86l-265 -326h-106zM958 0h-874v90l657 871h-594l-20 116h793v-90l-658 -870h676z" />
    <glyph glyph-name="florin" unicode="&#x192;" horiz-adv-x="681" 
d="M-197 -408l19 115q14 -4 67 -4q184 0 203 162l139 985h-188l14 115h189l37 276q19 140 104.5 208.5t243.5 68.5q37 0 82 -5l-19 -114q-14 2 -69 2q-180 0 -201 -156l-37 -280h238l-15 -115h-237l-142 -991q-19 -136 -104.5 -203.5t-243.5 -67.5q-48 0 -80 4z" />
    <glyph glyph-name="Scommaaccent" unicode="&#x218;" horiz-adv-x="1329" 
d="M678 -29q-362 0 -604 242l84 109q100 -101 233.5 -160.5t284.5 -59.5q175 0 279 73.5t104 199.5q0 82 -33 137t-119.5 104t-247.5 99q-106 33 -177 61t-135.5 65.5t-100.5 80.5t-57 101t-21 132q0 165 133 277t338 112q300 0 539 -215l-74 -115q-109 98 -221 148.5
t-244 50.5q-149 0 -238.5 -71.5t-89.5 -176.5q0 -64 19.5 -108.5t73 -82.5t126.5 -68t201 -70q125 -40 207.5 -79t145 -91.5t90.5 -121.5t28 -161q0 -185 -147 -298.5t-377 -113.5zM637 -483h-80l49 391h172z" />
    <glyph glyph-name="scommaaccent" unicode="&#x219;" horiz-adv-x="1036" 
d="M512 -18q-140 0 -247 52t-175 138l78 86q142 -162 346 -162q136 0 208.5 49.5t72.5 137.5t-63.5 134t-233.5 85q-103 25 -169 50t-115 61.5t-70 85.5t-21 118q0 120 98.5 201.5t267.5 81.5q239 0 398 -152l-72 -98q-139 133 -321 133q-116 0 -175 -46t-59 -114
q0 -75 54.5 -116t203.5 -76q115 -27 187 -53t126.5 -65t77.5 -91.5t23 -128.5q0 -146 -116 -228.5t-304 -82.5zM492 -483h-80l49 391h172z" />
    <glyph glyph-name="Tcommaaccent" unicode="&#x21a;" horiz-adv-x="1263" 
d="M705 0h-146v1380h-489v136h1112l22 -136h-499v-1380zM606 -483h-80l49 391h173z" />
    <glyph glyph-name="tcommaaccent" unicode="&#x21b;" horiz-adv-x="745" 
d="M520 -14q-148 0 -216 62.5t-68 207.5v702h-187v119h187v379l141 21v-400h280v-119h-280v-682q0 -89 38.5 -130.5t129.5 -41.5q52 0 106 15l17 -121q-70 -12 -148 -12zM301 -483h-80l49 391h172z" />
    <glyph glyph-name="schwa" unicode="&#x259;" horiz-adv-x="1118" 
d="M522 1100q103 0 192 -36.5t156.5 -105.5t106.5 -177t39 -242q0 -111 -27 -205t-73.5 -159t-107.5 -110.5t-128 -66.5t-137 -21q-195 0 -318 147.5t-123 414.5v26h772q-1 198 -99.5 308t-254.5 110q-104 0 -185.5 -40.5t-158.5 -121.5l-72 92q94 97 190.5 142t227.5 45z
M872 455h-632q11 -162 88.5 -260.5t216.5 -98.5q125 0 217 92.5t110 266.5z" />
    <glyph glyph-name="uni02BB" unicode="&#x2bb;" horiz-adv-x="548" 
d="M307 1516h86l-53 -400h-176z" />
    <glyph glyph-name="uni02BC" unicode="&#x2bc;" horiz-adv-x="548" 
d="M250 1116h-86l53 400h176z" />
    <glyph glyph-name="circumflex" unicode="&#x2c6;" horiz-adv-x="1044" 
d="M205 1188l264 325h106l265 -325h-90l-230 201l-229 -201h-86z" />
    <glyph glyph-name="caron" unicode="&#x2c7;" horiz-adv-x="1044" 
d="M469 1196l-264 326h90l229 -203l230 203h86l-265 -326h-106z" />
    <glyph glyph-name="uni02C9" unicode="&#x2c9;" horiz-adv-x="1024" 
d="M252 1192v121h520v-121h-520z" />
    <glyph glyph-name="breve" unicode="&#x2d8;" horiz-adv-x="1024" 
d="M512 1186q-135 0 -217 90.5t-90 245.5h90q25 -224 217 -224t217 224h90q-8 -155 -90 -245.5t-217 -90.5z" />
    <glyph glyph-name="dotaccent" unicode="&#x2d9;" horiz-adv-x="1024" 
d="M512 1188q-46 0 -72 27.5t-26 76.5q0 46 26.5 73.5t71.5 27.5q46 0 73 -27.5t27 -73.5q0 -49 -27 -76.5t-73 -27.5z" />
    <glyph glyph-name="ring" unicode="&#x2da;" horiz-adv-x="1105" 
d="M553 1180q-81 0 -133.5 53t-52.5 133t52.5 133t133.5 53t133.5 -53t52.5 -133t-52.5 -133t-133.5 -53zM553 1251q48 0 78.5 32t30.5 83q0 50 -31 82.5t-78 32.5t-78 -32.5t-31 -82.5q0 -51 30.5 -83t78.5 -32z" />
    <glyph glyph-name="ogonek" unicode="&#x2db;" horiz-adv-x="1024" 
d="M510 -383q-89 0 -140 42t-51 116q0 60 51 123t130 112h96q-158 -106 -158 -213q0 -98 107 -98q87 0 194 49l31 -53q-136 -78 -260 -78z" />
    <glyph glyph-name="tilde" unicode="&#x2dc;" horiz-adv-x="1032" 
d="M668 1188q-49 0 -107 29t-110 57.5t-86 28.5q-45 0 -64 -27.5t-18 -91.5l-90 16q0 217 172 217q49 0 107 -28.5t110 -57t86 -28.5q45 0 64.5 27t19.5 91l88 -16q0 -217 -172 -217z" />
    <glyph glyph-name="hungarumlaut" unicode="&#x2dd;" horiz-adv-x="1034" 
d="M498 1194l198 319h191l-293 -319h-96zM168 1194l194 319h191l-289 -319h-96z" />
    <glyph glyph-name="Delta" unicode="&#x394;" horiz-adv-x="1370" 
d="M68 0l546 1524h140l546 -1524h-1232zM244 125h870l-432 1210h-2z" />
    <glyph glyph-name="Omega" unicode="&#x3a9;" horiz-adv-x="1519" 
d="M760 1544q148 0 267.5 -59.5t195.5 -161.5t116.5 -234t40.5 -282q0 -208 -92 -385t-252 -297h330v-125h-471v125q342 276 342 680q0 174 -55 311t-165 219t-259 82q-144 0 -253 -77.5t-166.5 -215.5t-57.5 -317q0 -401 344 -682v-125h-471v125h329q-160 116 -253 295.5
t-93 386.5q0 151 42 284.5t120 234.5t197 159.5t264 58.5z" />
    <glyph glyph-name="mu" unicode="&#x3bc;" horiz-adv-x="1200" 
d="M305 -410h-141v1487h141v-753q0 -116 51 -171t164 -55q98 0 188 47.5t189 139.5v792h141v-1077h-141v176q-198 -189 -387 -194q-144 -3 -205 73v-465z" />
    <glyph glyph-name="pi" unicode="&#x3c0;" horiz-adv-x="1316" 
d="M18 965v116h1280v-116h-202v-965h-142v965h-594v-965h-139v965h-203z" />
    <glyph glyph-name="Wgrave" unicode="&#x1e80;" horiz-adv-x="1894" 
d="M1010 1610l-289 319h186l195 -319h-92zM623 0h-138l-401 1503l141 25l240 -932q46 -172 92 -381h4q29 149 88 379l225 922h154l229 -930q77 -318 86 -371h5q18 83 88 363l237 938h139l-401 -1516h-137l-322 1315h-4z" />
    <glyph glyph-name="wgrave" unicode="&#x1e81;" horiz-adv-x="1529" 
d="M727 1194l-289 319h187l194 -319h-92zM516 0h-129l-328 1065l142 27l153 -547q51 -179 101 -367h4q52 206 98 367l148 532h129l149 -542q20 -66 96 -357h4q52 200 97 352l159 547h136l-332 -1077h-131l-244 887h-4z" />
    <glyph glyph-name="Wacute" unicode="&#x1e82;" horiz-adv-x="1894" 
d="M797 1610l194 319h187l-289 -319h-92zM623 0h-138l-401 1503l141 25l240 -932q46 -172 92 -381h4q29 149 88 379l225 922h154l229 -930q77 -318 86 -371h5q18 83 88 363l237 938h139l-401 -1516h-137l-322 1315h-4z" />
    <glyph glyph-name="wacute" unicode="&#x1e83;" horiz-adv-x="1529" 
d="M717 1194l194 319h187l-289 -319h-92zM516 0h-129l-328 1065l142 27l153 -547q51 -179 101 -367h4q52 206 98 367l148 532h129l149 -542q20 -66 96 -357h4q52 200 97 352l159 547h136l-332 -1077h-131l-244 887h-4z" />
    <glyph glyph-name="Wdieresis" unicode="&#x1e84;" horiz-adv-x="1894" 
d="M1126 1597q-40 0 -64 27.5t-24 73.5q0 43 24 69.5t64 26.5q42 0 66.5 -26.5t24.5 -69.5q0 -46 -24.5 -73.5t-66.5 -27.5zM766 1597q-41 0 -64.5 27.5t-23.5 73.5q0 43 23.5 69.5t64.5 26.5t64.5 -26.5t23.5 -69.5q0 -46 -23.5 -73.5t-64.5 -27.5zM623 0h-138l-401 1503
l141 25l240 -932q46 -172 92 -381h4q29 149 88 379l225 922h154l229 -930q77 -318 86 -371h5q18 83 88 363l237 938h139l-401 -1516h-137l-322 1315h-4z" />
    <glyph glyph-name="wdieresis" unicode="&#x1e85;" horiz-adv-x="1529" 
d="M942 1182q-40 0 -64 27t-24 73q0 43 24 69.5t64 26.5q42 0 66 -26.5t24 -69.5q0 -46 -24 -73t-66 -27zM582 1182q-41 0 -64.5 27t-23.5 73q0 43 23.5 69.5t64.5 26.5t64.5 -26.5t23.5 -69.5q0 -46 -23.5 -73t-64.5 -27zM516 0h-129l-328 1065l142 27l153 -547
q51 -179 101 -367h4q52 206 98 367l148 532h129l149 -542q20 -66 96 -357h4q52 200 97 352l159 547h136l-332 -1077h-131l-244 887h-4z" />
    <glyph glyph-name="Ygrave" unicode="&#x1ef2;" horiz-adv-x="1265" 
d="M616 1610l-288 319h186l195 -319h-93zM705 0h-146v668l-500 835l142 25l434 -735l426 723h151l-507 -848v-668z" />
    <glyph glyph-name="ygrave" unicode="&#x1ef3;" horiz-adv-x="1079" 
d="M520 1194l-289 319h187l194 -319h-92zM201 -412q-85 0 -144 15l-10 123q88 -19 156 -19q87 0 137.5 39.5t85.5 128.5l45 119l-412 1071l142 27l340 -924h4l334 909h147l-465 -1202q-40 -103 -81 -162t-109.5 -92t-169.5 -33z" />
    <glyph glyph-name="uni2000" unicode="&#x2000;" horiz-adv-x="1024" 
 />
    <glyph glyph-name="uni2001" unicode="&#x2001;" horiz-adv-x="2048" 
 />
    <glyph glyph-name="space.en" unicode="&#x2002;" horiz-adv-x="1024" 
 />
    <glyph glyph-name="space.em" unicode="&#x2003;" horiz-adv-x="2048" 
 />
    <glyph glyph-name="uni2004" unicode="&#x2004;" horiz-adv-x="681" 
 />
    <glyph glyph-name="uni2005" unicode="&#x2005;" horiz-adv-x="512" 
 />
    <glyph glyph-name="space.tab_en" unicode="&#x2007;" 
 />
    <glyph glyph-name="space.thin" unicode="&#x2009;" horiz-adv-x="409" 
 />
    <glyph glyph-name="uni200A" unicode="&#x200a;" horiz-adv-x="204" 
 />
    <glyph glyph-name="uni200B" unicode="&#x200b;" horiz-adv-x="0" 
 />
    <glyph glyph-name="endash.tab" unicode="&#x2012;" 
d="M141 578v129h1049v-129h-1049z" />
    <glyph glyph-name="endash" unicode="&#x2013;" horiz-adv-x="1325" 
d="M1188 578h-1051v129h1051v-129z" />
    <glyph glyph-name="emdash" unicode="&#x2014;" horiz-adv-x="1892" 
d="M1755 578h-1618v129h1618v-129z" />
    <glyph glyph-name="emdash.salt_em" unicode="&#x2015;" horiz-adv-x="2048" 
d="M0 578v129h2048v-129h-2048z" />
    <glyph glyph-name="quoteleft" unicode="&#x2018;" horiz-adv-x="548" 
d="M307 1516h86l-53 -400h-176z" />
    <glyph glyph-name="quoteright" unicode="&#x2019;" horiz-adv-x="548" 
d="M250 1116h-86l53 400h176z" />
    <glyph glyph-name="quotesinglbase" unicode="&#x201a;" horiz-adv-x="548" 
d="M248 -207h-86l53 400h176z" />
    <glyph glyph-name="quotedblleft" unicode="&#x201c;" horiz-adv-x="925" 
d="M307 1516h86l-53 -400h-176zM682 1516h84l-51 -400h-176z" />
    <glyph glyph-name="quotedblright" unicode="&#x201d;" horiz-adv-x="925" 
d="M623 1116h-84l51 400h176zM250 1116h-86l53 400h176z" />
    <glyph glyph-name="quotedblbase" unicode="&#x201e;" horiz-adv-x="925" 
d="M621 -207h-84l51 400h176zM248 -207h-86l53 400h176z" />
    <glyph glyph-name="dagger" unicode="&#x2020;" horiz-adv-x="1138" 
d="M647 -410h-155l26 1276l-418 -20v137l418 -22l-26 555h155l-26 -555l417 22v-137l-417 20z" />
    <glyph glyph-name="daggerdbl" unicode="&#x2021;" horiz-adv-x="1138" 
d="M647 -410h-155l26 490l-401 -23v136l401 -23l-18 387l18 381l-401 -23v136l401 -23l-26 488h155l-26 -488l401 23v-136l-401 23l18 -381l-18 -387l401 23v-136l-401 23z" />
    <glyph glyph-name="bullet" unicode="&#x2022;" horiz-adv-x="948" 
d="M473 477q-104 0 -172 68t-68 172q0 105 67.5 173t172.5 68q106 0 174 -67.5t68 -173.5q0 -104 -68 -172t-174 -68z" />
    <glyph glyph-name="ellipsis" unicode="&#x2026;" horiz-adv-x="1646" 
d="M1372 -10q-47 0 -73.5 29t-26.5 79q0 48 26.5 76.5t73.5 28.5q46 0 73.5 -29t27.5 -76q0 -49 -27.5 -78.5t-73.5 -29.5zM823 -10q-47 0 -73.5 29t-26.5 79q0 48 26.5 76.5t73.5 28.5q46 0 73.5 -29t27.5 -76q0 -49 -27.5 -78.5t-73.5 -29.5zM274 -10q-47 0 -73.5 29
t-26.5 79q0 48 26.5 76.5t73.5 28.5q46 0 73.5 -29t27.5 -76q0 -49 -27.5 -78.5t-73.5 -29.5z" />
    <glyph glyph-name="perthousand" unicode="&#x2030;" horiz-adv-x="2822" 
d="M467 627q-161 0 -250.5 123t-89.5 327q0 212 92.5 335.5t249.5 123.5q156 0 247 -122.5t91 -328.5q0 -204 -91 -331t-249 -127zM606 0h-131l905 1516h131zM469 737q98 0 153.5 97t55.5 247q0 157 -55.5 250.5t-155.5 93.5q-99 0 -155 -96t-56 -244q0 -158 56 -253
t157 -95zM2355 -20q-160 0 -250 123.5t-90 326.5q0 210 93.5 334.5t250.5 124.5q156 0 247 -122.5t91 -330.5q0 -202 -92 -329t-250 -127zM1518 -20q-160 0 -250 123.5t-90 326.5q0 210 93.5 334.5t250.5 124.5q156 0 247 -122.5t91 -330.5q0 -203 -91.5 -329.5
t-250.5 -126.5zM2357 90q99 0 154 96.5t55 247.5q0 157 -55 250.5t-156 93.5q-99 0 -154 -95.5t-55 -246.5q0 -157 55 -251.5t156 -94.5zM1520 90q99 0 154 96.5t55 247.5q0 157 -55 250.5t-156 93.5q-99 0 -154 -95.5t-55 -246.5q0 -157 55 -251.5t156 -94.5z" />
    <glyph glyph-name="minute" unicode="&#x2032;" horiz-adv-x="477" 
d="M147 1001l35 402l21 113h141l-125 -515h-72z" />
    <glyph glyph-name="second" unicode="&#x2033;" horiz-adv-x="829" 
d="M500 1001l35 402l20 113h141l-125 -515h-71zM147 1001l35 402l21 113h141l-125 -515h-72z" />
    <glyph glyph-name="guilsinglleft" unicode="&#x2039;" horiz-adv-x="663" 
d="M543 0h-148l-303 541l303 536h148l-297 -536z" />
    <glyph glyph-name="guilsinglright" unicode="&#x203a;" horiz-adv-x="663" 
d="M266 0h-145l297 541l-297 536h145l305 -536z" />
    <glyph glyph-name="fraction" unicode="&#x2044;" horiz-adv-x="954" 
d="M102 0h-133l883 1516h133z" />
    <glyph glyph-name="zero.sups" unicode="&#x2070;" horiz-adv-x="966" 
d="M485 553q-172 0 -265 129.5t-93 357.5q0 226 93.5 359t264.5 133q167 0 261 -134t94 -358q0 -226 -94 -356.5t-261 -130.5zM485 657q112 0 173 98t61 285q0 183 -63 285t-171 102q-115 0 -176 -100.5t-61 -286.5t62.5 -284.5t174.5 -98.5z" />
    <glyph glyph-name="four.sups" unicode="&#x2074;" horiz-adv-x="897" 
d="M547 569v228h-434v80l424 639h129v-613h149l8 -106h-157v-228h-119zM252 901h297v451z" />
    <glyph glyph-name="five.sups" unicode="&#x2075;" horiz-adv-x="872" 
d="M426 553q-204 0 -324 182l82 68q96 -148 244 -148q104 0 160.5 64t56.5 158q0 103 -54.5 160t-141.5 57q-66 0 -109.5 -24.5t-81.5 -78.5l-102 39l32 486h517l2 -109h-416l-23 -291q64 78 203 78q126 0 209.5 -84.5t83.5 -228.5q0 -151 -91.5 -239.5t-246.5 -88.5z" />
    <glyph glyph-name="six.sups" unicode="&#x2076;" horiz-adv-x="909" 
d="M473 553q-156 0 -251 120.5t-95 356.5q0 229 100.5 365.5t276.5 136.5q167 0 270 -96l-63 -86q-57 42 -101 61t-108 19q-120 0 -186.5 -96t-71.5 -275q113 117 256 117q149 0 226 -82.5t77 -219.5q0 -140 -89.5 -230.5t-240.5 -90.5zM475 655q95 0 151 57.5t56 159.5
q0 95 -49 149t-150 54q-135 0 -233 -131q13 -143 74.5 -216t150.5 -73z" />
    <glyph glyph-name="seven.sups" unicode="&#x2077;" horiz-adv-x="829" 
d="M199 569l385 836h-463l-8 111h604v-95l-391 -852h-127z" />
    <glyph glyph-name="eight.sups" unicode="&#x2078;" horiz-adv-x="903" 
d="M451 553q-160 0 -253.5 71.5t-93.5 180.5q0 92 57 152.5t171 111.5q-95 44 -140 95t-45 132q0 97 83.5 166.5t220.5 69.5q141 0 223 -69.5t82 -166.5q0 -77 -48 -126t-147 -95q121 -57 179.5 -117t58.5 -153q0 -108 -94 -180t-254 -72zM457 1118q103 47 142.5 81.5
t39.5 90.5q0 59 -48 101.5t-138 42.5q-87 0 -137 -41.5t-50 -98.5q0 -58 41 -93t150 -83zM451 649q100 0 162.5 44t62.5 116q0 68 -59 117.5t-179 99.5q-117 -52 -166 -100.5t-49 -116.5q0 -70 64 -115t164 -45z" />
    <glyph glyph-name="nine.sups" unicode="&#x2079;" horiz-adv-x="909" 
d="M426 1010q135 0 233 131q-13 143 -74.5 216t-150.5 73q-95 0 -151 -58t-56 -160q0 -95 49 -148.5t150 -53.5zM406 553q-168 0 -271 96l64 86q54 -42 99 -60t110 -18q120 0 187 94.5t71 274.5q-115 -119 -256 -119q-148 0 -226 83.5t-78 219.5q0 140 89.5 231t240.5 91
q155 0 250.5 -120t95.5 -355q0 -228 -101.5 -366t-274.5 -138z" />
    <glyph glyph-name="zero.sinf" unicode="&#x2080;" horiz-adv-x="966" 
d="M485 -426q-172 0 -265 129.5t-93 357.5q0 226 93.5 359t264.5 133q167 0 261 -134t94 -358q0 -226 -94 -356.5t-261 -130.5zM485 -322q112 0 173 98t61 285q0 183 -63 285.5t-171 102.5q-115 0 -176 -101t-61 -287t62.5 -284.5t174.5 -98.5z" />
    <glyph glyph-name="one.sinf" unicode="&#x2081;" horiz-adv-x="729" 
d="M453 -410h-123v826l-152 -43l-22 102l209 62h88v-947z" />
    <glyph glyph-name="two.sinf" unicode="&#x2082;" horiz-adv-x="913" 
d="M137 -408v39q0 111 68.5 209.5t245.5 212.5q102 64 143 114t41 118q0 74 -43.5 117.5t-124.5 43.5q-71 0 -124 -39t-95 -126l-98 55q109 221 321 221q133 0 210 -74t77 -194q0 -97 -55.5 -171.5t-194.5 -158.5q-215 -134 -234 -254h488v-113h-625z" />
    <glyph glyph-name="three.sinf" unicode="&#x2083;" horiz-adv-x="913" 
d="M453 -426q-106 0 -193 50.5t-145 146.5l90 65q94 -151 246 -151q95 0 147.5 47t52.5 125q0 95 -63.5 141.5t-208.5 46.5h-53v98h59q130 0 189 39t59 119q0 66 -43.5 105.5t-130.5 39.5q-124 0 -219 -118l-84 69q131 160 307 160q146 0 220.5 -71t74.5 -175
q0 -78 -40.5 -133.5t-119.5 -81.5q94 -29 137 -88t43 -151q0 -124 -88.5 -203.5t-236.5 -79.5z" />
    <glyph glyph-name="four.sinf" unicode="&#x2084;" horiz-adv-x="897" 
d="M547 -410v228h-434v80l424 639h129v-613h149l8 -106h-157v-228h-119zM252 -78h297v451z" />
    <glyph glyph-name="five.sinf" unicode="&#x2085;" horiz-adv-x="872" 
d="M426 -426q-204 0 -324 182l82 68q96 -148 244 -148q104 0 160.5 64t56.5 158q0 103 -54.5 160t-141.5 57q-66 0 -109.5 -24.5t-81.5 -78.5l-102 39l32 486h517l2 -109h-416l-23 -291q64 78 203 78q126 0 209.5 -84.5t83.5 -228.5q0 -151 -91.5 -239.5t-246.5 -88.5z" />
    <glyph glyph-name="six.sinf" unicode="&#x2086;" horiz-adv-x="909" 
d="M473 -426q-156 0 -251 120.5t-95 356.5q0 229 100.5 365.5t276.5 136.5q167 0 270 -96l-63 -86q-57 42 -101 61t-108 19q-120 0 -186.5 -96t-71.5 -275q113 117 256 117q149 0 226 -82t77 -219q0 -140 -89.5 -231t-240.5 -91zM475 -324q95 0 151 58t56 160
q0 95 -49 148.5t-150 53.5q-135 0 -233 -131q13 -143 74.5 -216t150.5 -73z" />
    <glyph glyph-name="seven.sinf" unicode="&#x2087;" horiz-adv-x="829" 
d="M199 -410l385 836h-463l-8 111h604v-95l-391 -852h-127z" />
    <glyph glyph-name="eight.sinf" unicode="&#x2088;" horiz-adv-x="903" 
d="M451 -426q-160 0 -253.5 71.5t-93.5 180.5q0 92 57 152.5t171 111.5q-95 44 -140 95t-45 132q0 97 83.5 166.5t220.5 69.5q141 0 223 -69.5t82 -166.5q0 -77 -48 -126t-147 -95q121 -57 179.5 -117t58.5 -153q0 -108 -94 -180t-254 -72zM457 139q103 47 142.5 81.5
t39.5 90.5q0 59 -48 101.5t-138 42.5q-87 0 -137 -41.5t-50 -98.5q0 -58 41 -93t150 -83zM451 -330q100 0 162.5 44t62.5 116q0 68 -59 117.5t-179 99.5q-117 -52 -166 -100.5t-49 -116.5q0 -70 64 -115t164 -45z" />
    <glyph glyph-name="nine.sinf" unicode="&#x2089;" horiz-adv-x="909" 
d="M426 31q135 0 233 131q-13 143 -74.5 216t-150.5 73q-95 0 -151 -58t-56 -160q0 -95 49 -148.5t150 -53.5zM406 -426q-168 0 -271 96l64 86q54 -42 99 -60t110 -18q120 0 187 94.5t71 274.5q-115 -119 -256 -119q-148 0 -226 83.5t-78 219.5q0 140 89.5 231t240.5 91
q155 0 250.5 -120t95.5 -355q0 -228 -101.5 -366t-274.5 -138z" />
    <glyph glyph-name="Euro" unicode="&#x20ac;" horiz-adv-x="1468" 
d="M287 766q0 13 1 45t1 43h-246v113h258q21 145 74.5 257.5t128.5 181t163.5 103.5t186.5 35q100 0 180 -30t137.5 -86t97 -128t66.5 -165l-131 -50q-25 84 -51.5 140t-67 101.5t-98 67t-135.5 21.5q-156 0 -267 -113t-143 -335h465v-113h-477q-2 -23 -2 -80q0 -45 4 -115
h475v-116h-463q33 -218 139.5 -331.5t272.5 -113.5q150 0 236.5 86t134.5 262l129 -51q-59 -197 -183.5 -310.5t-318.5 -113.5q-215 0 -361.5 144.5t-189.5 427.5h-260v116h248q-4 66 -4 107z" />
    <glyph glyph-name="uni2117" unicode="&#x2117;" horiz-adv-x="1767" 
d="M883 -29q-161 0 -305.5 62t-249 167.5t-165.5 251t-61 306.5q0 215 104 395.5t284.5 285.5t394.5 105q160 0 304.5 -62t248.5 -167t165.5 -250.5t61.5 -306.5t-61.5 -306.5t-165.5 -251t-249 -167.5t-306 -62zM885 55q142 0 270.5 55.5t220 149.5t145.5 224t54 274
q0 143 -54 272.5t-146.5 224t-221 150t-270.5 55.5q-190 0 -349 -94t-250 -255t-91 -353q0 -191 91.5 -352.5t251 -256t349.5 -94.5zM727 326h-100v868h295q147 0 225 -61.5t78 -178.5q0 -124 -82.5 -186.5t-229.5 -62.5h-186v-379zM727 1102v-307h191q101 0 153.5 36
t52.5 119q0 80 -53 116t-156 36h-188z" />
    <glyph glyph-name="trademark" unicode="&#x2122;" horiz-adv-x="1794" 
d="M440 649h-108v770h-271v97h648v-97h-269v-770zM963 649h-101v867h142l260 -723l264 723h143v-867h-110v680l-252 -680h-92l-254 680v-680z" />
    <glyph glyph-name="uni2126" unicode="&#x2126;" horiz-adv-x="1519" 
d="M760 1544q148 0 267.5 -59.5t195.5 -161.5t116.5 -234t40.5 -282q0 -208 -92 -385t-252 -297h330v-125h-471v125q342 276 342 680q0 174 -55 311t-165 219t-259 82q-144 0 -253 -77.5t-166.5 -215.5t-57.5 -317q0 -401 344 -682v-125h-471v125h329q-160 116 -253 295.5
t-93 386.5q0 151 42 284.5t120 234.5t197 159.5t264 58.5z" />
    <glyph glyph-name="estimated" unicode="&#x212e;" horiz-adv-x="1427" 
d="M1360 651h-1004v-450q146 -146 357 -146q89 0 162.5 21.5t131.5 63.5t102 92t89 120l76 -47q-50 -78 -102 -134.5t-119 -102.5t-152 -69.5t-188 -23.5q-141 0 -261 54t-201.5 146.5t-127 216t-45.5 261.5q0 112 28 214.5t83 186.5t131.5 146t179 96.5t219.5 34.5
q146 0 267.5 -54t201.5 -147t125 -216t47 -263zM1075 733v373q-70 66 -164.5 105.5t-193.5 39.5q-216 0 -361 -145v-373h719z" />
    <glyph glyph-name="onethird" unicode="&#x2153;" horiz-adv-x="2123" 
d="M633 0h-133l882 1516h134zM412 557h-123v825l-152 -43l-22 103l209 61h88v-946zM1704 -16q-219 0 -338 196l90 66q94 -152 246 -152q95 0 148 47t53 125q0 95 -64 142t-209 47h-53v98h59q130 0 189 39t59 119q0 66 -43.5 105.5t-130.5 39.5q-123 0 -219 -119l-84 70
q131 160 307 160q146 0 220.5 -71t74.5 -175q0 -78 -40.5 -133.5t-119.5 -81.5q94 -29 137.5 -88.5t43.5 -151.5q0 -124 -89 -203t-237 -79z" />
    <glyph glyph-name="twothirds" unicode="&#x2154;" horiz-adv-x="2293" 
d="M96 559v39q0 111 68.5 209.5t245.5 212.5q102 64 143 113.5t41 117.5q0 74 -43.5 118t-124.5 44q-71 0 -124 -39.5t-95 -126.5l-98 56q109 221 321 221q133 0 210 -74.5t77 -194.5q0 -97 -55.5 -171t-194.5 -158q-215 -134 -234 -254h488v-113h-625zM803 0h-133l882 1516
h134zM1874 -16q-219 0 -338 196l90 66q94 -152 246 -152q95 0 148 47t53 125q0 95 -64 142t-209 47h-53v98h59q130 0 189 39t59 119q0 66 -43.5 105.5t-130.5 39.5q-123 0 -219 -119l-84 70q131 160 307 160q146 0 220.5 -71t74.5 -175q0 -78 -40.5 -133.5t-119.5 -81.5
q94 -29 137.5 -88.5t43.5 -151.5q0 -124 -89 -203t-237 -79z" />
    <glyph glyph-name="oneeighth" unicode="&#x215b;" horiz-adv-x="2099" 
d="M633 0h-133l882 1516h134zM412 557h-123v825l-152 -43l-22 103l209 61h88v-946zM1688 -16q-160 0 -253.5 71.5t-93.5 180.5q0 92 57 152.5t171 111.5q-95 44 -140 95t-45 132q0 97 83.5 166.5t220.5 69.5q141 0 223 -69.5t82 -166.5q0 -77 -48 -126t-147 -95
q121 -57 179.5 -117t58.5 -153q0 -108 -94 -180t-254 -72zM1694 549q103 47 142.5 81.5t39.5 90.5q0 59 -48 101t-138 42q-87 0 -137 -41.5t-50 -97.5q0 -58 41 -93t150 -83zM1688 80q100 0 162.5 44t62.5 116q0 68 -59 117.5t-179 99.5q-117 -52 -166 -100.5t-49 -116.5
q0 -70 64 -115t164 -45z" />
    <glyph glyph-name="threeeighths" unicode="&#x215c;" horiz-adv-x="2189" 
d="M723 0h-133l883 1516h133zM1778 -16q-160 0 -253 71.5t-93 180.5q0 92 56.5 152.5t170.5 111.5q-95 44 -139.5 95t-44.5 132q0 97 83 166.5t220 69.5q141 0 223 -69.5t82 -166.5q0 -77 -48 -126t-147 -95q121 -57 179.5 -117t58.5 -153q0 -108 -94 -180t-254 -72z
M1784 549q103 47 142.5 81.5t39.5 90.5q0 59 -48 101t-138 42q-87 0 -137 -41.5t-50 -97.5q0 -58 41 -93t150 -83zM412 541q-219 0 -338 196l90 66q94 -152 246 -152q95 0 147.5 47t52.5 125q0 95 -63.5 142t-208.5 47h-53v98h59q130 0 189 39t59 119q0 66 -43.5 105.5
t-130.5 39.5q-123 0 -219 -119l-84 70q131 160 307 160q146 0 220.5 -71t74.5 -175q0 -78 -40.5 -133.5t-119.5 -81.5q180 -55 180 -240q0 -124 -88.5 -203t-236.5 -79zM1778 80q100 0 162.5 44t62.5 116q0 68 -59 117.5t-179 99.5q-117 -52 -166 -100.5t-49 -116.5
q0 -70 64 -115t164 -45z" />
    <glyph glyph-name="fiveeighths" unicode="&#x215d;" horiz-adv-x="2152" 
d="M686 0h-133l883 1516h133zM1741 -16q-160 0 -253 71.5t-93 180.5q0 92 56.5 152.5t170.5 111.5q-95 44 -139.5 95t-44.5 132q0 97 83 166.5t220 69.5q141 0 223 -69.5t82 -166.5q0 -77 -48 -126t-147 -95q121 -57 179.5 -117t58.5 -153q0 -108 -94 -180t-254 -72z
M1747 549q103 47 142.5 81.5t39.5 90.5q0 59 -48 101t-138 42q-87 0 -137 -41.5t-50 -97.5q0 -58 41 -93t150 -83zM385 541q-204 0 -324 182l82 68q96 -148 244 -148q104 0 160.5 63.5t56.5 157.5q0 103 -54.5 160t-141.5 57q-66 0 -109.5 -24t-81.5 -78l-102 39l32 485h517
l2 -108h-416l-23 -291q64 78 203 78q125 0 209 -85t84 -229q0 -151 -91.5 -239t-246.5 -88zM1741 80q100 0 162.5 44t62.5 116q0 68 -58.5 117.5t-178.5 99.5q-117 -52 -166.5 -100.5t-49.5 -116.5q0 -70 64 -115t164 -45z" />
    <glyph glyph-name="seveneighths" unicode="&#x215e;" horiz-adv-x="1959" 
d="M494 0h-134l883 1516h133zM158 557l385 836h-463l-8 110h604v-94l-391 -852h-127zM1548 -16q-160 0 -253 71.5t-93 180.5q0 92 57 152.5t171 111.5q-95 44 -140 95t-45 132q0 97 83 166.5t220 69.5q141 0 223 -69.5t82 -166.5q0 -77 -48 -126.5t-146 -94.5
q120 -56 178.5 -116.5t58.5 -153.5q0 -108 -94 -180t-254 -72zM1554 549q103 47 143 81.5t40 90.5q0 59 -48.5 101t-138.5 42q-87 0 -136.5 -41t-49.5 -98q0 -58 40.5 -93.5t149.5 -82.5zM1548 80q100 0 163 44t63 116q0 68 -59 117.5t-179 99.5q-117 -52 -166 -100.5
t-49 -116.5q0 -70 63.5 -115t163.5 -45z" />
    <glyph glyph-name="partialdiff" unicode="&#x2202;" horiz-adv-x="1167" 
d="M700 1542q195 -164 277 -384.5t82 -512.5q0 -146 -46 -272t-122.5 -212t-178 -135t-210.5 -49q-199 0 -315.5 133t-116.5 339q0 137 47 255.5t123 196.5t171 122t193 44q101 0 182.5 -48t131.5 -134q-22 165 -99 315t-201 262zM506 84q76 0 149.5 38.5t130.5 105t92 164
t35 206.5q0 163 -76.5 264t-207.5 101q-79 0 -154.5 -38t-134 -104t-94 -163.5t-35.5 -208.5q0 -160 80 -262.5t215 -102.5z" />
    <glyph glyph-name="uni2206" unicode="&#x2206;" horiz-adv-x="1370" 
d="M68 0l546 1524h140l546 -1524h-1232zM244 125h870l-432 1210h-2z" />
    <glyph glyph-name="product" unicode="&#x220f;" horiz-adv-x="1484" 
d="M195 -410v1926h1095v-1926h-143v1796h-807v-1796h-145z" />
    <glyph glyph-name="summation" unicode="&#x2211;" horiz-adv-x="1210" 
d="M754 588l-486 -873h828v-125h-983v113l489 879l-463 807v127h934v-130h-776z" />
    <glyph glyph-name="minus" unicode="&#x2212;" horiz-adv-x="1302" 
d="M1169 612h-1036v123h1036v-123z" />
    <glyph glyph-name="uni2215" unicode="&#x2215;" horiz-adv-x="954" 
d="M102 0h-133l883 1516h133z" />
    <glyph glyph-name="uni2219" unicode="&#x2219;" horiz-adv-x="550" 
d="M274 547q-46 0 -72 28.5t-26 77.5q0 50 26 78.5t72 28.5q47 0 75 -29t28 -78t-28 -77.5t-75 -28.5z" />
    <glyph glyph-name="radical" unicode="&#x221a;" horiz-adv-x="1339" 
d="M748 -6h-142l-354 962h-174v121h280l320 -909h4l477 1348h144z" />
    <glyph glyph-name="infinity" unicode="&#x221e;" horiz-adv-x="1560" 
d="M414 385q-165 0 -251.5 89.5t-86.5 260.5q0 170 87 261t251 91q222 0 366 -245q144 245 367 245q164 0 251 -91t87 -261q0 -171 -86.5 -260.5t-251.5 -89.5q-220 0 -367 250q-147 -250 -366 -250zM1143 500q106 0 162.5 60t56.5 175t-56.5 176.5t-162.5 61.5
q-51 0 -95.5 -18t-81.5 -54.5t-64 -72t-60 -89.5q34 -55 60.5 -91.5t63.5 -73.5t81.5 -55.5t95.5 -18.5zM418 500q51 0 95.5 18t81.5 54t64 72.5t60 90.5q-27 43 -47 72.5t-50 63.5t-58.5 54.5t-66.5 34t-79 13.5q-106 0 -162.5 -61.5t-56.5 -176.5t56.5 -175t162.5 -60z
" />
    <glyph glyph-name="integral" unicode="&#x222b;" horiz-adv-x="675" 
d="M242 1241q0 277 311 277q70 0 80 -5v-114q-16 2 -72 2q-178 0 -178 -156v-1425q0 -115 -53.5 -173.5t-173.5 -58.5q-42 0 -84 6v115q24 -8 65 -8q49 0 77 29.5t28 89.5v1421z" />
    <glyph glyph-name="approxequal" unicode="&#x2248;" horiz-adv-x="1220" 
d="M864 729q-71 3 -269 77t-237 77q-103 10 -114 -97l-97 13q10 112 69 163.5t153 45.5q71 -4 268 -78.5t237 -77.5q107 -7 115 98l96 -10q-10 -112 -69 -164.5t-152 -46.5zM852 315q-70 4 -268 78.5t-238 77.5q-53 3 -82 -19t-35 -79l-96 12q12 112 70 163.5t151 45.5
q56 -3 163 -40t207 -74.5t138 -39.5q104 -10 115 97l96 -11q-10 -112 -69 -164.5t-152 -46.5z" />
    <glyph glyph-name="notequal" unicode="&#x2260;" horiz-adv-x="1302" 
d="M276 0l179 371h-322v121h375l168 346h-543v120h596l193 400h135l-191 -400h301v-120h-354l-170 -346h524v-121h-577l-178 -371h-136z" />
    <glyph glyph-name="lessequal" unicode="&#x2264;" horiz-adv-x="1302" 
d="M1188 285l-1084 395v102l1084 398v-133l-897 -316l897 -313v-133zM104 102v119h1084v-119h-1084z" />
    <glyph glyph-name="greaterequal" unicode="&#x2265;" horiz-adv-x="1302" 
d="M117 285v133l897 313l-897 316v133l1083 -398v-102zM117 102v119h1083v-119h-1083z" />
    <glyph glyph-name="lozenge" unicode="&#x25ca;" 
d="M602 1516h125l483 -758l-481 -758h-127l-481 758zM666 145l395 613l-395 612l-396 -612z" />
    <glyph glyph-name="uni2713" unicode="&#x2713;" horiz-adv-x="1183" 
d="M592 -6h-141l-398 1083h152l319 -909h4l476 1348h145z" />
    <glyph glyph-name="commaaccent" unicode="&#xf6c3;" horiz-adv-x="548" 
d="M248 -483h-80l49 391h172z" />
    <glyph glyph-name="apple" unicode="&#xf8ff;" horiz-adv-x="1556" 
d="M831 1051v-242h240l-10 229zM500 1040l-13 -231h240v242zM831 705v-238l228 10l12 228h-240zM498 479l229 -12v238h-240zM856 0h-156l27 385l-223 -12l4 -70h-127l4 62l-59 -5v127l67 -2l13 220l-386 -27v156l386 -25l-13 225l-67 -4v125l59 -2l-4 57h127l-2 -65l221 -12
l-27 383h156l-25 -383l224 12l-4 65h125l-2 -59l59 4v-125l-68 2l-12 -223l383 25v-156l-383 27l12 -222l68 4v-127l-62 5l5 -62h-125l2 70l-222 12z" />
    <glyph glyph-name="uniFEFF" unicode="&#xfeff;" horiz-adv-x="0" 
 />
    <glyph glyph-name="commaaccent.scrap" horiz-adv-x="548" 
d="M309 1583h80l-49 -389h-172z" />
    <glyph glyph-name="space.frac" horiz-adv-x="163" 
 />
    <glyph glyph-name="space.tab_em" horiz-adv-x="2662" 
 />
    <glyph glyph-name="space.tab_thin" horiz-adv-x="333" 
 />
    <glyph glyph-name="space.thin_fra" horiz-adv-x="245" 
 />
    <glyph glyph-name="hyphen.uc" horiz-adv-x="731" 
d="M596 725h-461v123h461v-123z" />
    <glyph glyph-name="endash.uc" horiz-adv-x="1325" 
d="M1188 721h-1051v129h1051v-129z" />
    <glyph glyph-name="emdash.uc" horiz-adv-x="1892" 
d="M1755 721h-1618v129h1618v-129z" />
    <glyph glyph-name="parenleft.uc" horiz-adv-x="813" 
d="M705 -207l-66 -69q-256 215 -383 453.5t-127 524.5q0 285 127.5 524.5t382.5 454.5l63 -71q-197 -180 -307 -412.5t-110 -495.5q0 -264 111 -496.5t309 -412.5z" />
    <glyph glyph-name="parenright.uc" horiz-adv-x="813" 
d="M174 -276l-63 69q197 181 308 413t111 496q0 262 -111 494.5t-308 413.5l63 71q256 -215 384 -454.5t128 -524.5q0 -286 -128 -524t-384 -454z" />
    <glyph glyph-name="bracketleft.uc" horiz-adv-x="796" 
d="M700 -266h-520v1925h520v-109h-376v-1708h376v-108z" />
    <glyph glyph-name="bracketright.uc" horiz-adv-x="796" 
d="M616 -266h-520v108h377v1706h-377v111h520v-1925z" />
    <glyph glyph-name="braceleft.uc" horiz-adv-x="778" 
d="M692 -266h-127q-138 0 -202 70.5t-64 207.5v385q0 75 -13.5 123.5t-43 75t-69.5 37t-101 10.5v107q61 0 101 10t70 37t43 75t13 123v385q0 279 266 279h127v-109h-90q-82 0 -121 -39t-39 -118v-404q0 -74 -11 -124.5t-35 -83t-53.5 -50.5t-74.5 -33v-4q45 -15 74.5 -33
t53.5 -50.5t35 -83t11 -124.5v-403q0 -158 160 -158h90v-108z" />
    <glyph glyph-name="braceright.uc" horiz-adv-x="778" 
d="M219 -266h-133v108h90q160 0 160 158v410q0 74 11 123.5t35.5 80.5t53 48t74.5 32v4q-46 15 -74.5 32t-53 48.5t-35.5 81t-11 123.5v410q0 81 -35.5 122t-116.5 41h-90l-8 103h133q138 0 199 -68t61 -205v-391q0 -144 52.5 -194.5t175.5 -50.5v-107q-61 0 -101 -10.5
t-70 -37t-43.5 -75t-13.5 -123.5v-391q0 -137 -61 -204.5t-199 -67.5z" />
    <glyph glyph-name="guilsinglleft.uc" horiz-adv-x="663" 
d="M543 143h-148l-303 541l303 537h148l-297 -537z" />
    <glyph glyph-name="guilsinglright.uc" horiz-adv-x="663" 
d="M266 143h-145l297 541l-297 537h145l305 -537z" />
    <glyph glyph-name="guillemotleft.uc" horiz-adv-x="1069" 
d="M543 143h-148l-303 541l303 537h148l-297 -537zM948 143h-147l-303 541l303 537h147l-299 -537z" />
    <glyph glyph-name="guillemotright.uc" horiz-adv-x="1069" 
d="M266 143h-145l297 541l-297 537h145l305 -537zM672 143h-146l297 541l-297 537h146l305 -537z" />
    <glyph glyph-name="periodcentered.uc" horiz-adv-x="550" 
d="M274 690q-46 0 -72 28.5t-26 78.5q0 49 26 77.5t72 28.5q47 0 75 -28.5t28 -77.5t-28 -78t-75 -29z" />
    <glyph glyph-name="endash.salt_en" horiz-adv-x="1024" 
d="M0 578v129h1024v-129h-1024z" />
    <glyph glyph-name="emdash.uc_salt_em" horiz-adv-x="2048" 
d="M0 721v129h2048v-129h-2048z" />
    <glyph glyph-name="endash.uc_salt_en" horiz-adv-x="1024" 
d="M0 721v129h1024v-129h-1024z" />
    <glyph glyph-name="registered.salt_big" horiz-adv-x="1767" 
d="M883 -29q-161 0 -305.5 62t-249 167.5t-165.5 251t-61 306.5q0 215 104 395.5t284.5 285.5t394.5 105q160 0 304.5 -62t248.5 -167t165.5 -250.5t61.5 -306.5t-61.5 -306.5t-165.5 -251t-249 -167.5t-306 -62zM885 55q142 0 270.5 55.5t220 149.5t145.5 224t54 274
q0 143 -54 272.5t-146.5 224t-221 150t-270.5 55.5q-190 0 -349 -94t-250 -255t-91 -353q0 -191 91.5 -352.5t251 -256t349.5 -94.5zM702 340h-102v866h295q148 0 226.5 -61.5t78.5 -177.5q0 -192 -196 -234l210 -391l-108 -4l-207 381h-197v-379zM702 1112v-307h189
q103 0 156 37t53 121q0 79 -53.5 114t-157.5 35h-187z" />
    <glyph glyph-name="zero.dnom" horiz-adv-x="884" 
d="M444 -16q-172 0 -265 129.5t-93 357.5q0 226 93.5 359t264.5 133q167 0 261 -134t94 -358q0 -226 -94 -356.5t-261 -130.5zM444 88q112 0 173 98t61 285q0 183 -63 285t-171 102q-115 0 -176 -100.5t-61 -286.5t62.5 -284.5t174.5 -98.5z" />
    <glyph glyph-name="one.dnom" horiz-adv-x="647" 
d="M412 0h-123v825l-152 -43l-22 103l209 61h88v-946z" />
    <glyph glyph-name="two.dnom" horiz-adv-x="831" 
d="M96 2v39q0 111 68.5 209.5t245.5 212.5q102 64 143 113.5t41 117.5q0 74 -43.5 118t-124.5 44q-71 0 -124 -39.5t-95 -126.5l-98 55q110 222 321 222q133 0 210 -74.5t77 -194.5q0 -97 -55.5 -171t-194.5 -158q-215 -134 -234 -254h488v-113h-625z" />
    <glyph glyph-name="three.dnom" horiz-adv-x="831" 
d="M412 -16q-219 0 -338 196l90 66q94 -152 246 -152q95 0 147.5 47t52.5 125q0 95 -63.5 142t-208.5 47h-53v98h59q130 0 189 39t59 119q0 66 -43.5 105.5t-130.5 39.5q-123 0 -219 -119l-84 70q131 160 307 160q146 0 220.5 -71t74.5 -175q0 -78 -40.5 -133.5
t-119.5 -81.5q180 -55 180 -240q0 -124 -88.5 -203t-236.5 -79z" />
    <glyph glyph-name="four.dnom" horiz-adv-x="815" 
d="M506 0v227h-434v80l424 639h129v-612h149l8 -107h-157v-227h-119zM211 332h297v450z" />
    <glyph glyph-name="five.dnom" horiz-adv-x="790" 
d="M385 -16q-204 0 -324 182l82 67q95 -147 244 -147q104 0 160.5 63.5t56.5 157.5q0 103 -54.5 160t-141.5 57q-66 0 -109.5 -24t-81.5 -78l-102 39l32 485h517l2 -108h-416l-23 -291q64 78 203 78q125 0 209 -85t84 -229q0 -151 -91.5 -239t-246.5 -88z" />
    <glyph glyph-name="six.dnom" horiz-adv-x="827" 
d="M432 -16q-156 0 -251 120.5t-95 356.5q0 229 100.5 365.5t276.5 136.5q166 0 270 -97l-63 -86q-57 42 -101 61t-108 19q-120 0 -186.5 -96t-71.5 -275q113 117 256 117q149 0 226 -82t77 -219q0 -140 -89.5 -230.5t-240.5 -90.5zM434 86q95 0 151 57.5t56 159.5
q0 95 -49 149t-150 54q-135 0 -233 -131q13 -143 74.5 -216t150.5 -73z" />
    <glyph glyph-name="seven.dnom" horiz-adv-x="747" 
d="M158 0l385 836h-463l-8 110h604v-94l-391 -852h-127z" />
    <glyph glyph-name="eight.dnom" horiz-adv-x="821" 
d="M410 -16q-160 0 -253.5 71.5t-93.5 180.5q0 92 57 152.5t171 111.5q-95 44 -140 95t-45 132q0 97 83.5 166.5t220.5 69.5q141 0 223 -69.5t82 -166.5q0 -77 -48 -126t-147 -95q121 -57 179.5 -117t58.5 -153q0 -108 -94 -180t-254 -72zM416 549q103 47 142.5 81.5
t39.5 90.5q0 59 -48 101t-138 42q-87 0 -137 -41.5t-50 -97.5q0 -58 41 -93t150 -83zM410 80q100 0 162.5 44t62.5 116q0 68 -59 117.5t-179 99.5q-117 -52 -166 -100.5t-49 -116.5q0 -70 64 -115t164 -45z" />
    <glyph glyph-name="nine.dnom" horiz-adv-x="827" 
d="M385 440q135 0 233 131q-13 143 -74.5 216t-150.5 73q-95 0 -151 -57.5t-56 -159.5q0 -95 49 -149t150 -54zM365 -16q-168 0 -271 96l64 86q54 -42 99 -60t110 -18q120 0 187 94.5t71 274.5q-115 -119 -256 -119q-148 0 -225.5 83.5t-77.5 219.5q0 140 89.5 231t239.5 91
q155 0 250.5 -120.5t95.5 -355.5q0 -228 -101.5 -365.5t-274.5 -137.5z" />
    <glyph glyph-name="zero.numr" horiz-adv-x="884" 
d="M444 541q-172 0 -265 129.5t-93 357.5q0 226 93.5 359t264.5 133q167 0 261 -134t94 -358q0 -226 -94 -356.5t-261 -130.5zM444 645q112 0 173 98t61 285q0 183 -63 285t-171 102q-115 0 -176 -100.5t-61 -286.5t62.5 -284.5t174.5 -98.5z" />
    <glyph glyph-name="one.numr" horiz-adv-x="647" 
d="M412 557h-123v825l-152 -43l-22 103l209 61h88v-946z" />
    <glyph glyph-name="two.numr" horiz-adv-x="831" 
d="M96 559v39q0 111 68.5 209.5t245.5 212.5q102 64 143 113.5t41 117.5q0 74 -43.5 118t-124.5 44q-71 0 -124 -39.5t-95 -126.5l-98 56q109 221 321 221q133 0 210 -74.5t77 -194.5q0 -97 -55.5 -171t-194.5 -158q-215 -134 -234 -254h488v-113h-625z" />
    <glyph glyph-name="three.numr" horiz-adv-x="831" 
d="M412 541q-219 0 -338 196l90 66q94 -152 246 -152q95 0 147.5 47t52.5 125q0 95 -63.5 142t-208.5 47h-53v98h59q130 0 189 39t59 119q0 66 -43.5 105.5t-130.5 39.5q-123 0 -219 -119l-84 70q131 160 307 160q146 0 220.5 -71t74.5 -175q0 -78 -40.5 -133.5
t-119.5 -81.5q180 -55 180 -240q0 -124 -88.5 -203t-236.5 -79z" />
    <glyph glyph-name="four.numr" horiz-adv-x="815" 
d="M506 557v227h-434v80l424 639h129v-612h149l8 -107h-157v-227h-119zM211 889h297v450z" />
    <glyph glyph-name="five.numr" horiz-adv-x="790" 
d="M385 541q-204 0 -324 182l82 68q96 -148 244 -148q104 0 160.5 63.5t56.5 157.5q0 103 -54.5 160t-141.5 57q-66 0 -109.5 -24t-81.5 -78l-102 39l32 485h517l2 -108h-416l-23 -291q64 78 203 78q125 0 209 -85t84 -229q0 -151 -91.5 -239t-246.5 -88z" />
    <glyph glyph-name="six.numr" horiz-adv-x="827" 
d="M432 541q-156 0 -251 120.5t-95 356.5q0 229 100.5 365.5t276.5 136.5q166 0 270 -97l-63 -86q-57 42 -101 61t-108 19q-120 0 -186.5 -95.5t-71.5 -274.5q112 116 256 116q149 0 226 -82t77 -219q0 -140 -89.5 -230.5t-240.5 -90.5zM434 643q95 0 151 57.5t56 159.5
q0 95 -49 149t-150 54q-135 0 -233 -131q13 -143 74.5 -216t150.5 -73z" />
    <glyph glyph-name="seven.numr" horiz-adv-x="747" 
d="M158 557l385 836h-463l-8 110h604v-94l-391 -852h-127z" />
    <glyph glyph-name="eight.numr" horiz-adv-x="821" 
d="M410 541q-160 0 -253.5 71.5t-93.5 180.5q0 92 57 152.5t171 111.5q-95 44 -140 95t-45 132q0 97 83.5 166.5t220.5 69.5q141 0 223 -69.5t82 -166.5q0 -77 -48 -126t-147 -95q121 -57 179.5 -117t58.5 -153q0 -108 -94 -180t-254 -72zM416 1106q103 47 142.5 81.5
t39.5 90.5q0 59 -48 101t-138 42q-87 0 -137 -41.5t-50 -97.5q0 -58 41 -93t150 -83zM410 637q100 0 162.5 44t62.5 116q0 68 -59 117.5t-179 99.5q-117 -52 -166 -100.5t-49 -116.5q0 -70 64 -115t164 -45z" />
    <glyph glyph-name="nine.numr" horiz-adv-x="827" 
d="M385 997q135 0 233 131q-13 143 -74.5 216t-150.5 73q-95 0 -151 -57.5t-56 -159.5q0 -95 49 -149t150 -54zM365 541q-168 0 -271 96l64 86q54 -42 99 -60t110 -18q120 0 187 94.5t71 274.5q-115 -119 -256 -119q-148 0 -225.5 83.5t-77.5 219.5q0 140 89.5 231t239.5 91
q155 0 250.5 -120.5t95.5 -355.5q0 -228 -101.5 -365.5t-274.5 -137.5z" />
    <glyph glyph-name="zero.salt_slash" horiz-adv-x="1337" 
d="M670 -29q-263 0 -410 213.5t-147 573.5t147 573t410 213q175 0 300.5 -98t189 -274.5t63.5 -413.5t-63.5 -413.5t-189 -275t-300.5 -98.5zM256 758q0 -227 61 -387l656 864q-109 180 -303 180q-195 0 -304.5 -171t-109.5 -486zM670 98q193 0 301 172t108 488
q0 225 -57 379l-657 -861q110 -178 305 -178z" />
    <glyph glyph-name="zero.sc_salt_slash" horiz-adv-x="1073" 
d="M537 -29q-142 0 -245 79.5t-155.5 221.5t-52.5 332t52.5 332t155.5 221.5t245 79.5q215 0 334.5 -172t119.5 -461t-119.5 -461t-334.5 -172zM219 604q0 -171 45 -295l496 688q-85 123 -223 123q-150 0 -234 -134.5t-84 -381.5zM537 90q151 0 234 133.5t83 380.5
q0 175 -45 299l-496 -690q85 -123 224 -123z" />
    <glyph glyph-name="zero.tab_salt_slash" 
d="M666 -29q-175 0 -301 98.5t-190 275t-64 413.5q0 360 146 573t409 213q175 0 300.5 -98t189 -274.5t63.5 -413.5t-63.5 -413.5t-189 -275t-300.5 -98.5zM254 758q0 -234 59 -385l658 864q-110 178 -305 178t-303.5 -169.5t-108.5 -487.5zM666 98q194 0 302.5 171
t108.5 489q0 230 -59 381l-658 -863q110 -178 306 -178z" />
    <glyph glyph-name="i.trk" horiz-adv-x="491" 
d="M246 1315q-40 0 -63 24.5t-23 65.5q0 40 23 63t63 23t63 -23t23 -63q0 -41 -23 -65.5t-63 -24.5zM317 0h-141v1077h141v-1077z" />
    <glyph glyph-name="A.sc" horiz-adv-x="1179" 
d="M61 0l457 1217h146l450 -1207l-137 -20l-135 368h-510l-135 -358h-136zM369 471h430l-105 291l-106 293h-4l-107 -293z" />
    <glyph glyph-name="Agrave.sc" horiz-adv-x="1179" 
d="M557 1317l-289 319h187l194 -319h-92zM61 0l457 1217h146l450 -1207l-137 -20l-135 368h-510l-135 -358h-136zM369 471h430l-105 291l-106 293h-4l-107 -293z" />
    <glyph glyph-name="Aacute.sc" horiz-adv-x="1179" 
d="M535 1317l194 319h186l-288 -319h-92zM61 0l457 1217h146l450 -1207l-137 -20l-135 368h-510l-135 -358h-136zM369 471h430l-105 291l-106 293h-4l-107 -293z" />
    <glyph glyph-name="Acircumflex.sc" horiz-adv-x="1179" 
d="M272 1311l265 325h106l264 -325h-90l-229 200l-230 -200h-86zM61 0l457 1217h146l450 -1207l-137 -20l-135 368h-510l-135 -358h-136zM369 471h430l-105 291l-106 293h-4l-107 -293z" />
    <glyph glyph-name="Atilde.sc" horiz-adv-x="1179" 
d="M741 1311q-49 0 -107 28.5t-110 57t-86 28.5q-45 0 -64 -27t-18 -91l-90 16q0 217 172 217q49 0 107 -29t110 -57.5t86 -28.5q45 0 64.5 27.5t19.5 91.5l88 -16q0 -217 -172 -217zM61 0l457 1217h146l450 -1207l-137 -20l-135 368h-510l-135 -358h-136zM369 471h430
l-105 291l-106 293h-4l-107 -293z" />
    <glyph glyph-name="Adieresis.sc" horiz-adv-x="1179" 
d="M768 1305q-40 0 -64 27t-24 73q0 43 24 69.5t64 26.5q42 0 66 -26.5t24 -69.5q0 -46 -24 -73t-66 -27zM408 1305q-41 0 -65 27t-24 73q0 43 24 69.5t65 26.5t64.5 -26.5t23.5 -69.5q0 -46 -23.5 -73t-64.5 -27zM61 0l457 1217h146l450 -1207l-137 -20l-135 368h-510
l-135 -358h-136zM369 471h430l-105 291l-106 293h-4l-107 -293z" />
    <glyph glyph-name="Aring.sc" horiz-adv-x="1179" 
d="M977 -10l-135 368h-510l-135 -358h-136l439 1167q-45 24 -71 67.5t-26 98.5q0 80 53 133.5t134 53.5t133.5 -53.5t52.5 -133.5q0 -55 -25 -97.5t-69 -66.5l432 -1159zM590 1219q48 0 78 31.5t30 82.5q0 50 -30.5 82.5t-77.5 32.5t-78 -32.5t-31 -82.5q0 -51 30.5 -82.5
t78.5 -31.5zM369 471h430l-105 291l-106 293h-4l-107 -293z" />
    <glyph glyph-name="Amacron.sc" horiz-adv-x="1179" 
d="M330 1315v121h520v-121h-520zM61 0l457 1217h146l450 -1207l-137 -20l-135 368h-510l-135 -358h-136zM369 471h430l-105 291l-106 293h-4l-107 -293z" />
    <glyph glyph-name="Abreve.sc" horiz-adv-x="1179" 
d="M590 1309q-135 0 -217 90.5t-90 245.5h90q25 -224 217 -224t217 224h90q-8 -155 -90 -245.5t-217 -90.5zM61 0l457 1217h146l450 -1207l-137 -20l-135 368h-510l-135 -358h-136zM369 471h430l-105 291l-106 293h-4l-107 -293z" />
    <glyph glyph-name="Aogonek.sc" horiz-adv-x="1179" 
d="M989 -383q-89 0 -139.5 42t-50.5 116q0 60 49.5 122.5t122.5 108.5l-129 352h-510l-135 -358h-136l457 1217h146l450 -1207l-49 -8q-147 -101 -147 -205q0 -98 106 -98q88 0 195 49l30 -53q-136 -78 -260 -78zM369 471h430l-105 291l-106 293h-4l-107 -293z" />
    <glyph glyph-name="B.sc" horiz-adv-x="1198" 
d="M164 0v1212h454q221 0 330 -70.5t109 -234.5q0 -115 -64.5 -186.5t-161.5 -91.5v-4q126 -21 196.5 -94t70.5 -201q0 -162 -112.5 -246t-328.5 -84h-493zM301 1100v-422h303q156 0 235 49.5t79 161.5q0 115 -72.5 163t-233.5 48h-311zM301 565v-452h350q158 0 232.5 54.5
t74.5 170.5q0 121 -88 174t-254 53h-315z" />
    <glyph glyph-name="C.sc" horiz-adv-x="1222" 
d="M641 -23q-245 0 -393 171.5t-148 461.5q0 279 150.5 452t390.5 173q167 0 279.5 -72.5t169.5 -204.5l-121 -59q-44 109 -124 164t-206 55q-182 0 -289.5 -138.5t-107.5 -365.5q0 -243 108 -381.5t293 -138.5q254 0 344 234l125 -49q-62 -143 -181 -222.5t-290 -79.5z" />
    <glyph glyph-name="Ccedilla.sc" horiz-adv-x="1222" 
d="M612 -399q-139 0 -254 75l39 60q92 -62 199 -62q154 0 154 99q0 71 -86 71q-57 0 -109 -41l-57 27l49 156q-205 33 -326 198.5t-121 425.5q0 279 150.5 452t390.5 173q167 0 279.5 -72.5t169.5 -204.5l-121 -59q-44 109 -124 164t-206 55q-182 0 -289.5 -138.5
t-107.5 -365.5q0 -243 108 -381.5t293 -138.5q254 0 344 234l125 -49q-62 -143 -181 -222.5t-290 -79.5h-10l-27 -88q50 31 111 31q62 0 103.5 -36.5t41.5 -102.5q0 -90 -69.5 -135t-178.5 -45z" />
    <glyph glyph-name="Cacute.sc" horiz-adv-x="1222" 
d="M506 1317l194 319h187l-289 -319h-92zM641 -23q-245 0 -393 171.5t-148 461.5q0 279 150.5 452t390.5 173q167 0 279.5 -72.5t169.5 -204.5l-121 -59q-44 109 -124 164t-206 55q-182 0 -289.5 -138.5t-107.5 -365.5q0 -243 108 -381.5t293 -138.5q254 0 344 234l125 -49
q-62 -143 -181 -222.5t-290 -79.5z" />
    <glyph glyph-name="Ccircumflex.sc" horiz-adv-x="1222" 
d="M322 1311l264 325h106l264 -325h-90l-229 200l-229 -200h-86zM641 -23q-245 0 -393 171.5t-148 461.5q0 279 150.5 452t390.5 173q167 0 279.5 -72.5t169.5 -204.5l-121 -59q-44 109 -124 164t-206 55q-182 0 -289.5 -138.5t-107.5 -365.5q0 -243 108 -381.5t293 -138.5
q254 0 344 234l125 -49q-62 -143 -181 -222.5t-290 -79.5z" />
    <glyph glyph-name="Cdotaccent.sc" horiz-adv-x="1222" 
d="M637 1311q-46 0 -72 27.5t-26 76.5q0 46 26.5 73.5t71.5 27.5q46 0 73 -27.5t27 -73.5q0 -49 -27 -76.5t-73 -27.5zM641 -23q-245 0 -393 171.5t-148 461.5q0 279 150.5 452t390.5 173q167 0 279.5 -72.5t169.5 -204.5l-121 -59q-44 109 -124 164t-206 55
q-182 0 -289.5 -138.5t-107.5 -365.5q0 -243 108 -381.5t293 -138.5q254 0 344 234l125 -49q-62 -143 -181 -222.5t-290 -79.5z" />
    <glyph glyph-name="Ccaron.sc" horiz-adv-x="1222" 
d="M557 1319l-264 326h90l229 -203l230 203h86l-264 -326h-107zM641 -23q-245 0 -393 171.5t-148 461.5q0 279 150.5 452t390.5 173q167 0 279.5 -72.5t169.5 -204.5l-121 -59q-44 109 -124 164t-206 55q-182 0 -289.5 -138.5t-107.5 -365.5q0 -243 108 -381.5t293 -138.5
q254 0 344 234l125 -49q-62 -143 -181 -222.5t-290 -79.5z" />
    <glyph glyph-name="D.sc" horiz-adv-x="1243" 
d="M164 0v1212h336q317 0 479 -146.5t162 -457.5q0 -608 -641 -608h-336zM303 1094v-977h213q243 0 363 115.5t120 373.5q0 255 -121.5 371.5t-363.5 116.5h-211z" />
    <glyph glyph-name="Dcaron.sc" horiz-adv-x="1243" 
d="M567 1319l-264 326h90l230 -203l229 203h86l-264 -326h-107zM164 0v1212h336q317 0 479 -146.5t162 -457.5q0 -608 -641 -608h-336zM303 1094v-977h213q243 0 363 115.5t120 373.5q0 255 -121.5 371.5t-363.5 116.5h-211z" />
    <glyph glyph-name="E.sc" horiz-adv-x="1060" 
d="M979 0h-815v1212h780v-118h-641v-398h467l21 -116h-488v-461h676v-119z" />
    <glyph glyph-name="Egrave.sc" horiz-adv-x="1060" 
d="M565 1317l-289 319h187l194 -319h-92zM979 0h-815v1212h780v-118h-641v-398h467l21 -116h-488v-461h676v-119z" />
    <glyph glyph-name="Eacute.sc" horiz-adv-x="1060" 
d="M440 1317l195 319h186l-289 -319h-92zM979 0h-815v1212h780v-118h-641v-398h467l21 -116h-488v-461h676v-119z" />
    <glyph glyph-name="Ecircumflex.sc" horiz-adv-x="1060" 
d="M231 1311l265 325h106l264 -325h-90l-229 200l-230 -200h-86zM979 0h-815v1212h780v-118h-641v-398h467l21 -116h-488v-461h676v-119z" />
    <glyph glyph-name="Edieresis.sc" horiz-adv-x="1060" 
d="M729 1305q-40 0 -64 27t-24 73q0 43 24 69.5t64 26.5q42 0 66 -26.5t24 -69.5q0 -46 -24 -73t-66 -27zM369 1305q-41 0 -64.5 27t-23.5 73q0 43 23.5 69.5t64.5 26.5t64.5 -26.5t23.5 -69.5q0 -46 -23.5 -73t-64.5 -27zM979 0h-815v1212h780v-118h-641v-398h467l21 -116
h-488v-461h676v-119z" />
    <glyph glyph-name="Emacron.sc" horiz-adv-x="1060" 
d="M272 1315v121h521v-121h-521zM979 0h-815v1212h780v-118h-641v-398h467l21 -116h-488v-461h676v-119z" />
    <glyph glyph-name="Ebreve.sc" horiz-adv-x="1060" 
d="M547 1309q-135 0 -217 90.5t-90 245.5h90q25 -224 217 -224t217 224h90q-8 -155 -90 -245.5t-217 -90.5zM979 0h-815v1212h780v-118h-641v-398h467l21 -116h-488v-461h676v-119z" />
    <glyph glyph-name="Edotaccent.sc" horiz-adv-x="1060" 
d="M549 1311q-46 0 -72 27.5t-26 76.5q0 46 26.5 73.5t71.5 27.5q46 0 73 -27.5t27 -73.5q0 -49 -27 -76.5t-73 -27.5zM979 0h-815v1212h780v-118h-641v-398h467l21 -116h-488v-461h676v-119z" />
    <glyph glyph-name="Eogonek.sc" horiz-adv-x="1060" 
d="M1065 -305q-136 -78 -260 -78q-89 0 -140 42t-51 116q0 57 46 116.5t118 108.5h-614v1212h780v-118h-641v-398h467l21 -116h-488v-461h676v-119h-102q-144 -101 -144 -203q0 -98 107 -98q87 0 194 49z" />
    <glyph glyph-name="Ecaron.sc" horiz-adv-x="1060" 
d="M496 1319l-265 326h91l229 -203l229 203h86l-264 -326h-106zM979 0h-815v1212h780v-118h-641v-398h467l21 -116h-488v-461h676v-119z" />
    <glyph glyph-name="F.sc" horiz-adv-x="991" 
d="M303 0h-139v1212h766v-118h-627v-410h453l20 -115h-473v-569z" />
    <glyph glyph-name="G.sc" horiz-adv-x="1267" 
d="M629 -23q-165 0 -286 83.5t-182 225.5t-61 324q0 283 151.5 454t393.5 171q329 0 445 -293l-123 -53q-48 116 -126 172.5t-196 56.5q-176 0 -289.5 -131.5t-113.5 -370.5q0 -245 108.5 -384.5t294.5 -139.5q160 0 256 100.5t96 272.5h-295l-18 113h444v-578h-120v178h-2
q-48 -89 -141 -145t-236 -56z" />
    <glyph glyph-name="Gcircumflex.sc" horiz-adv-x="1267" 
d="M330 1311l264 325h106l265 -325h-91l-229 200l-229 -200h-86zM629 -23q-165 0 -286 83.5t-182 225.5t-61 324q0 283 151.5 454t393.5 171q329 0 445 -293l-123 -53q-48 116 -126 172.5t-196 56.5q-176 0 -289.5 -131.5t-113.5 -370.5q0 -245 108.5 -384.5t294.5 -139.5
q160 0 256 100.5t96 272.5h-295l-18 113h444v-578h-120v178h-2q-48 -89 -141 -145t-236 -56z" />
    <glyph glyph-name="Gbreve.sc" horiz-adv-x="1267" 
d="M633 1309q-135 0 -217 90.5t-90 245.5h90q25 -224 217 -224t217 224h90q-8 -155 -90 -245.5t-217 -90.5zM629 -23q-165 0 -286 83.5t-182 225.5t-61 324q0 283 151.5 454t393.5 171q329 0 445 -293l-123 -53q-48 116 -126 172.5t-196 56.5q-176 0 -289.5 -131.5
t-113.5 -370.5q0 -245 108.5 -384.5t294.5 -139.5q160 0 256 100.5t96 272.5h-295l-18 113h444v-578h-120v178h-2q-48 -89 -141 -145t-236 -56z" />
    <glyph glyph-name="Gdotaccent.sc" horiz-adv-x="1267" 
d="M645 1311q-46 0 -72 27.5t-26 76.5q0 46 26.5 73.5t71.5 27.5q46 0 73 -27.5t27 -73.5q0 -49 -27 -76.5t-73 -27.5zM629 -23q-165 0 -286 83.5t-182 225.5t-61 324q0 283 151.5 454t393.5 171q329 0 445 -293l-123 -53q-48 116 -126 172.5t-196 56.5
q-176 0 -289.5 -131.5t-113.5 -370.5q0 -245 108.5 -384.5t294.5 -139.5q160 0 256 100.5t96 272.5h-295l-18 113h444v-578h-120v178h-2q-48 -89 -141 -145t-236 -56z" />
    <glyph glyph-name="Gcommaaccent.sc" horiz-adv-x="1267" 
d="M629 -23q-165 0 -286 83.5t-182 225.5t-61 324q0 283 151.5 454t393.5 171q329 0 445 -293l-123 -53q-48 116 -126 172.5t-196 56.5q-176 0 -289.5 -131.5t-113.5 -370.5q0 -245 108.5 -384.5t294.5 -139.5q160 0 256 100.5t96 272.5h-295l-18 113h444v-578h-120v178h-2
q-48 -89 -141 -145t-236 -56zM614 -483h-79l49 391h172z" />
    <glyph glyph-name="H.sc" horiz-adv-x="1284" 
d="M303 0h-139v1212h139v-512h676v512h141v-1212h-141v578h-676v-578z" />
    <glyph glyph-name="Hcircumflex.sc" horiz-adv-x="1284" 
d="M324 1311l264 325h106l264 -325h-90l-229 200l-229 -200h-86zM303 0h-139v1212h139v-512h676v512h141v-1212h-141v578h-676v-578z" />
    <glyph glyph-name="I.sc" horiz-adv-x="501" 
d="M324 0h-144v1212h144v-1212z" />
    <glyph glyph-name="Igrave.sc" horiz-adv-x="501" 
d="M217 1317l-289 319h187l194 -319h-92zM324 0h-144v1212h144v-1212z" />
    <glyph glyph-name="Iacute.sc" horiz-adv-x="501" 
d="M193 1317l194 319h186l-288 -319h-92zM324 0h-144v1212h144v-1212z" />
    <glyph glyph-name="Icircumflex.sc" horiz-adv-x="501" 
d="M-66 1311l265 325h106l264 -325h-90l-229 200l-230 -200h-86zM324 0h-144v1212h144v-1212z" />
    <glyph glyph-name="Idieresis.sc" horiz-adv-x="501" 
d="M430 1305q-40 0 -64 27t-24 73q0 43 24 69.5t64 26.5q42 0 66 -26.5t24 -69.5q0 -46 -24 -73t-66 -27zM70 1305q-41 0 -64.5 27t-23.5 73q0 43 23.5 69.5t64.5 26.5t64.5 -26.5t23.5 -69.5q0 -46 -23.5 -73t-64.5 -27zM324 0h-144v1212h144v-1212z" />
    <glyph glyph-name="Itilde.sc" horiz-adv-x="501" 
d="M401 1313q-49 0 -107 28.5t-110 57t-86 28.5q-45 0 -64 -27t-18 -91l-90 16q0 217 172 217q49 0 107 -29t110 -57.5t86 -28.5q45 0 64.5 27.5t19.5 91.5l88 -16q0 -217 -172 -217zM324 0h-144v1212h144v-1212z" />
    <glyph glyph-name="Imacron.sc" horiz-adv-x="501" 
d="M-10 1315v121h520v-121h-520zM324 0h-144v1212h144v-1212z" />
    <glyph glyph-name="Ibreve.sc" horiz-adv-x="501" 
d="M250 1309q-135 0 -217 90.5t-90 245.5h90q25 -224 217 -224t217 224h90q-8 -155 -90 -245.5t-217 -90.5zM324 0h-144v1212h144v-1212z" />
    <glyph glyph-name="Iogonek.sc" horiz-adv-x="501" 
d="M465 -305q-136 -78 -258 -78q-90 0 -140.5 42t-50.5 116q0 60 47.5 122.5t116.5 106.5v1208h144v-1212h-54q-135 -101 -135 -203q0 -98 105 -98q87 0 194 49z" />
    <glyph glyph-name="Idotaccent.sc" horiz-adv-x="501" 
d="M250 1311q-46 0 -72 27.5t-26 76.5q0 46 26.5 73.5t71.5 27.5q46 0 73 -27.5t27 -73.5q0 -49 -27 -76.5t-73 -27.5zM324 0h-144v1212h144v-1212z" />
    <glyph glyph-name="J.sc" horiz-adv-x="878" 
d="M371 -23q-187 0 -338 111l67 102q133 -98 265 -98q221 0 221 238v882h139v-882q0 -173 -88 -263t-266 -90z" />
    <glyph glyph-name="Jcircumflex.sc" horiz-adv-x="878" 
d="M338 1311l264 325h107l264 -325h-90l-230 200l-229 -200h-86zM371 -23q-187 0 -338 111l67 102q133 -98 265 -98q221 0 221 238v882h139v-882q0 -173 -88 -263t-266 -90z" />
    <glyph glyph-name="K.sc" horiz-adv-x="1175" 
d="M303 0h-139v1212h139v-639l225 242l375 397h164l-438 -460l493 -740l-145 -24l-445 659l-229 -235v-412z" />
    <glyph glyph-name="Kcommaaccent.sc" horiz-adv-x="1175" 
d="M303 0h-139v1212h139v-639l225 242l375 397h164l-438 -460l493 -740l-145 -24l-445 659l-229 -235v-412zM561 -483h-80l49 391h172z" />
    <glyph glyph-name="L.sc" horiz-adv-x="991" 
d="M938 0h-774v1212h139v-1093h615z" />
    <glyph glyph-name="Lacute.sc" horiz-adv-x="991" 
d="M188 1317l195 319h186l-288 -319h-93zM938 0h-774v1212h139v-1093h615z" />
    <glyph glyph-name="Lcommaaccent.sc" horiz-adv-x="991" 
d="M938 0h-774v1212h139v-1093h615zM469 -483h-80l49 391h172z" />
    <glyph glyph-name="Lcaron.sc" horiz-adv-x="991" 
d="M610 825h-80l50 387h172zM938 0h-774v1212h139v-1093h615z" />
    <glyph glyph-name="M.sc" horiz-adv-x="1523" 
d="M291 0h-127v1212h182l414 -1042h4l410 1042h186v-1212h-139v1014h-2q-25 -85 -78 -219q-1 -10 -159.5 -393.5t-162.5 -401.5h-125q-5 21 -163.5 406t-159.5 389q-17 49 -43 122.5t-35 100.5h-2v-1018z" />
    <glyph glyph-name="N.sc" horiz-adv-x="1300" 
d="M295 0h-131v1212h151l533 -751l156 -221h2v972h135v-1212h-129l-584 815l-131 186h-2v-1001z" />
    <glyph glyph-name="Ntilde.sc" horiz-adv-x="1300" 
d="M799 1311q-49 0 -107 28.5t-110 57t-86 28.5q-45 0 -64 -27t-18 -91l-90 16q0 217 172 217q49 0 107 -29t110 -57.5t86 -28.5q45 0 64.5 27.5t19.5 91.5l88 -16q0 -217 -172 -217zM295 0h-131v1212h151l533 -751l156 -221h2v972h135v-1212h-129l-584 815l-131 186h-2
v-1001z" />
    <glyph glyph-name="Nacute.sc" horiz-adv-x="1300" 
d="M541 1317l194 319h187l-289 -319h-92zM295 0h-131v1212h151l533 -751l156 -221h2v972h135v-1212h-129l-584 815l-131 186h-2v-1001z" />
    <glyph glyph-name="Ncommaaccent.sc" horiz-adv-x="1300" 
d="M295 0h-131v1212h151l533 -751l156 -221h2v972h135v-1212h-129l-584 815l-131 186h-2v-1001zM623 -483h-80l49 391h172z" />
    <glyph glyph-name="Ncaron.sc" horiz-adv-x="1300" 
d="M594 1319l-264 326h90l229 -203l230 203h86l-265 -326h-106zM295 0h-131v1212h151l533 -751l156 -221h2v972h135v-1212h-129l-584 815l-131 186h-2v-1001z" />
    <glyph glyph-name="O.sc" horiz-adv-x="1300" 
d="M651 -23q-116 0 -217 44.5t-175 124.5t-116.5 199t-42.5 261t42.5 261t116.5 199t175 124.5t217 44.5q115 0 215 -44.5t173.5 -124.5t116 -199t42.5 -261t-42.5 -261t-116 -199t-173.5 -124.5t-215 -44.5zM651 96q181 0 294.5 138t113.5 372q0 235 -113 372.5t-295 137.5
t-295.5 -137.5t-113.5 -372.5q0 -234 114 -372t295 -138z" />
    <glyph glyph-name="Ograve.sc" horiz-adv-x="1300" 
d="M666 1317l-289 319h186l195 -319h-92zM651 -23q-116 0 -217 44.5t-175 124.5t-116.5 199t-42.5 261t42.5 261t116.5 199t175 124.5t217 44.5q115 0 215 -44.5t173.5 -124.5t116 -199t42.5 -261t-42.5 -261t-116 -199t-173.5 -124.5t-215 -44.5zM651 96q181 0 294.5 138
t113.5 372q0 235 -113 372.5t-295 137.5t-295.5 -137.5t-113.5 -372.5q0 -234 114 -372t295 -138z" />
    <glyph glyph-name="Oacute.sc" horiz-adv-x="1300" 
d="M543 1317l194 319h187l-289 -319h-92zM651 -23q-116 0 -217 44.5t-175 124.5t-116.5 199t-42.5 261t42.5 261t116.5 199t175 124.5t217 44.5q115 0 215 -44.5t173.5 -124.5t116 -199t42.5 -261t-42.5 -261t-116 -199t-173.5 -124.5t-215 -44.5zM651 96q181 0 294.5 138
t113.5 372q0 235 -113 372.5t-295 137.5t-295.5 -137.5t-113.5 -372.5q0 -234 114 -372t295 -138z" />
    <glyph glyph-name="Ocircumflex.sc" horiz-adv-x="1300" 
d="M332 1311l264 325h106l265 -325h-90l-230 200l-229 -200h-86zM651 -23q-116 0 -217 44.5t-175 124.5t-116.5 199t-42.5 261t42.5 261t116.5 199t175 124.5t217 44.5q115 0 215 -44.5t173.5 -124.5t116 -199t42.5 -261t-42.5 -261t-116 -199t-173.5 -124.5t-215 -44.5z
M651 96q181 0 294.5 138t113.5 372q0 235 -113 372.5t-295 137.5t-295.5 -137.5t-113.5 -372.5q0 -234 114 -372t295 -138z" />
    <glyph glyph-name="Otilde.sc" horiz-adv-x="1300" 
d="M801 1311q-49 0 -107 28.5t-110 57t-86 28.5q-45 0 -64 -27t-18 -91l-90 16q0 217 172 217q49 0 107 -29t110 -57.5t86 -28.5q45 0 64.5 27.5t19.5 91.5l88 -16q0 -217 -172 -217zM651 -23q-116 0 -217 44.5t-175 124.5t-116.5 199t-42.5 261t42.5 261t116.5 199
t175 124.5t217 44.5q115 0 215 -44.5t173.5 -124.5t116 -199t42.5 -261t-42.5 -261t-116 -199t-173.5 -124.5t-215 -44.5zM651 96q181 0 294.5 138t113.5 372q0 235 -113 372.5t-295 137.5t-295.5 -137.5t-113.5 -372.5q0 -234 114 -372t295 -138z" />
    <glyph glyph-name="Odieresis.sc" horiz-adv-x="1300" 
d="M829 1305q-40 0 -64 27t-24 73q0 43 24 69.5t64 26.5q42 0 66.5 -26.5t24.5 -69.5q0 -46 -24.5 -73t-66.5 -27zM469 1305q-41 0 -64.5 27t-23.5 73q0 43 23.5 69.5t64.5 26.5t64.5 -26.5t23.5 -69.5q0 -46 -23.5 -73t-64.5 -27zM651 -23q-116 0 -217 44.5t-175 124.5
t-116.5 199t-42.5 261t42.5 261t116.5 199t175 124.5t217 44.5q115 0 215 -44.5t173.5 -124.5t116 -199t42.5 -261t-42.5 -261t-116 -199t-173.5 -124.5t-215 -44.5zM651 96q181 0 294.5 138t113.5 372q0 235 -113 372.5t-295 137.5t-295.5 -137.5t-113.5 -372.5
q0 -234 114 -372t295 -138z" />
    <glyph glyph-name="Omacron.sc" horiz-adv-x="1300" 
d="M389 1315v121h520v-121h-520zM651 -23q-116 0 -217 44.5t-175 124.5t-116.5 199t-42.5 261t42.5 261t116.5 199t175 124.5t217 44.5q115 0 215 -44.5t173.5 -124.5t116 -199t42.5 -261t-42.5 -261t-116 -199t-173.5 -124.5t-215 -44.5zM651 96q181 0 294.5 138t113.5 372
q0 235 -113 372.5t-295 137.5t-295.5 -137.5t-113.5 -372.5q0 -234 114 -372t295 -138z" />
    <glyph glyph-name="Obreve.sc" horiz-adv-x="1300" 
d="M649 1311q-135 0 -217 90.5t-90 245.5h90q25 -224 217 -224t217 224h90q-8 -155 -90 -245.5t-217 -90.5zM651 -23q-116 0 -217 44.5t-175 124.5t-116.5 199t-42.5 261t42.5 261t116.5 199t175 124.5t217 44.5q115 0 215 -44.5t173.5 -124.5t116 -199t42.5 -261
t-42.5 -261t-116 -199t-173.5 -124.5t-215 -44.5zM651 96q181 0 294.5 138t113.5 372q0 235 -113 372.5t-295 137.5t-295.5 -137.5t-113.5 -372.5q0 -234 114 -372t295 -138z" />
    <glyph glyph-name="Ohungarumlaut.sc" horiz-adv-x="1300" 
d="M713 1317l198 319h191l-293 -319h-96zM383 1317l195 319h190l-289 -319h-96zM651 -23q-116 0 -217 44.5t-175 124.5t-116.5 199t-42.5 261t42.5 261t116.5 199t175 124.5t217 44.5q115 0 215 -44.5t173.5 -124.5t116 -199t42.5 -261t-42.5 -261t-116 -199t-173.5 -124.5
t-215 -44.5zM651 96q181 0 294.5 138t113.5 372q0 235 -113 372.5t-295 137.5t-295.5 -137.5t-113.5 -372.5q0 -234 114 -372t295 -138z" />
    <glyph glyph-name="P.sc" horiz-adv-x="1126" 
d="M303 0h-139v1212h432q108 0 189.5 -18t143 -57t93 -105t31.5 -158q0 -98 -34.5 -167.5t-99.5 -108t-145.5 -55.5t-185.5 -17h-285v-526zM303 1096v-457h291q164 0 242.5 51.5t78.5 181.5q0 122 -79.5 173t-243.5 51h-289z" />
    <glyph glyph-name="Q.sc" horiz-adv-x="1300" 
d="M1096 -197l-21 -112h-108q-193 0 -292.5 81.5t-101.5 215.5q-209 24 -341 192t-132 426q0 142 42.5 261t116.5 199t175 124.5t217 44.5q115 0 215 -44.5t173.5 -124.5t116 -199t42.5 -261q0 -263 -135.5 -432t-349.5 -190q9 -99 79.5 -140t202.5 -41h101zM651 94
q180 0 293 138.5t113 373.5t-113 373.5t-293 138.5q-182 0 -295.5 -138t-113.5 -374t113.5 -374t295.5 -138z" />
    <glyph glyph-name="R.sc" horiz-adv-x="1175" 
d="M303 0h-139v1212h436q451 0 451 -331q0 -281 -297 -328l311 -543l-145 -20l-314 549h-303v-539zM303 1096v-449h291q161 0 240 50.5t79 176.5q0 120 -79.5 171t-241.5 51h-289z" />
    <glyph glyph-name="Racute.sc" horiz-adv-x="1175" 
d="M481 1317l195 319h186l-289 -319h-92zM303 0h-139v1212h436q451 0 451 -331q0 -281 -297 -328l311 -543l-145 -20l-314 549h-303v-539zM303 1096v-449h291q161 0 240 50.5t79 176.5q0 120 -79.5 171t-241.5 51h-289z" />
    <glyph glyph-name="Rcommaaccent.sc" horiz-adv-x="1175" 
d="M303 0h-139v1212h436q451 0 451 -331q0 -281 -297 -328l311 -543l-145 -20l-314 549h-303v-539zM303 1096v-449h291q161 0 240 50.5t79 176.5q0 120 -79.5 171t-241.5 51h-289zM561 -483h-80l49 391h172z" />
    <glyph glyph-name="Rcaron.sc" horiz-adv-x="1175" 
d="M535 1319l-265 326h90l230 -203l229 203h86l-264 -326h-106zM303 0h-139v1212h436q451 0 451 -331q0 -281 -297 -328l311 -543l-145 -20l-314 549h-303v-539zM303 1096v-449h291q161 0 240 50.5t79 176.5q0 120 -79.5 171t-241.5 51h-289z" />
    <glyph glyph-name="S.sc" horiz-adv-x="1140" 
d="M582 -23q-164 0 -284.5 52t-219.5 168l90 90q86 -100 186.5 -148.5t227.5 -48.5q147 0 229 56t82 157q0 48 -15 84.5t-40.5 60.5t-64.5 43t-81.5 33t-97.5 29q-11 3 -16 4q-170 45 -232 72q-148 64 -187 184q-16 48 -16 109q0 147 114.5 230t301.5 83q293 0 459 -217
l-86 -88q-150 188 -373 188q-130 0 -203 -49.5t-73 -140.5q0 -47 16.5 -83t41.5 -59.5t68 -43t82 -31.5t98 -28q22 -6 34 -9q159 -43 219 -71q146 -67 179 -198q11 -44 11 -94q0 -162 -125 -248t-325 -86z" />
    <glyph glyph-name="Sacute.sc" horiz-adv-x="1140" 
d="M461 1317l194 319h187l-289 -319h-92zM582 -23q-164 0 -284.5 52t-219.5 168l90 90q86 -100 186.5 -148.5t227.5 -48.5q147 0 229 56t82 157q0 48 -15 84.5t-40.5 60.5t-64.5 43t-81.5 33t-97.5 29q-11 3 -16 4q-170 45 -232 72q-148 64 -187 184q-16 48 -16 109
q0 147 114.5 230t301.5 83q293 0 459 -217l-86 -88q-150 188 -373 188q-130 0 -203 -49.5t-73 -140.5q0 -47 16.5 -83t41.5 -59.5t68 -43t82 -31.5t98 -28q22 -6 34 -9q159 -43 219 -71q146 -67 179 -198q11 -44 11 -94q0 -162 -125 -248t-325 -86z" />
    <glyph glyph-name="Scircumflex.sc" horiz-adv-x="1140" 
d="M233 1311l265 325h106l264 -325h-90l-229 200l-230 -200h-86zM582 -23q-164 0 -284.5 52t-219.5 168l90 90q86 -100 186.5 -148.5t227.5 -48.5q147 0 229 56t82 157q0 48 -15 84.5t-40.5 60.5t-64.5 43t-81.5 33t-97.5 29q-11 3 -16 4q-170 45 -232 72q-148 64 -187 184
q-16 48 -16 109q0 147 114.5 230t301.5 83q293 0 459 -217l-86 -88q-150 188 -373 188q-130 0 -203 -49.5t-73 -140.5q0 -47 16.5 -83t41.5 -59.5t68 -43t82 -31.5t98 -28q22 -6 34 -9q159 -43 219 -71q146 -67 179 -198q11 -44 11 -94q0 -162 -125 -248t-325 -86z" />
    <glyph glyph-name="Scedilla.sc" horiz-adv-x="1140" 
d="M571 -399q-139 0 -254 75l39 60q92 -62 199 -62q154 0 154 99q0 71 -86 71q-57 0 -109 -41l-57 27l47 150q-133 11 -236 63t-190 154l90 90q86 -100 186.5 -148.5t227.5 -48.5q147 0 229 56t82 157q0 48 -15 84.5t-40.5 60.5t-64.5 43t-81.5 33t-97.5 29q-11 3 -16 4
q-170 45 -232 72q-148 64 -187 184q-16 48 -16 109q0 147 114.5 230t301.5 83q293 0 459 -217l-86 -88q-150 188 -373 188q-130 0 -203 -49.5t-73 -140.5q0 -47 16.5 -83t41.5 -59.5t68 -43t82 -31.5t98 -28q22 -6 34 -9q159 -43 219 -71q146 -67 179 -198q11 -44 11 -94
q0 -109 -60 -186t-158 -112.5t-224 -35.5l-27 -88q50 31 111 31q62 0 103.5 -36.5t41.5 -102.5q0 -90 -69.5 -135t-178.5 -45z" />
    <glyph glyph-name="Scaron.sc" horiz-adv-x="1140" 
d="M516 1319l-264 326h90l229 -203l230 203h86l-264 -326h-107zM582 -23q-164 0 -284.5 52t-219.5 168l90 90q86 -100 186.5 -148.5t227.5 -48.5q147 0 229 56t82 157q0 48 -15 84.5t-40.5 60.5t-64.5 43t-81.5 33t-97.5 29q-11 3 -16 4q-170 45 -232 72q-148 64 -187 184
q-16 48 -16 109q0 147 114.5 230t301.5 83q293 0 459 -217l-86 -88q-150 188 -373 188q-130 0 -203 -49.5t-73 -140.5q0 -47 16.5 -83t41.5 -59.5t68 -43t82 -31.5t98 -28q22 -6 34 -9q159 -43 219 -71q146 -67 179 -198q11 -44 11 -94q0 -162 -125 -248t-325 -86z" />
    <glyph glyph-name="Scommaaccent.sc" horiz-adv-x="1140" 
d="M582 -23q-164 0 -284.5 52t-219.5 168l90 90q86 -100 186.5 -148.5t227.5 -48.5q147 0 229 56t82 157q0 48 -15 84.5t-40.5 60.5t-64.5 43t-81.5 33t-97.5 29q-11 3 -16 4q-170 45 -232 72q-148 64 -187 184q-16 48 -16 109q0 147 114.5 230t301.5 83q293 0 459 -217
l-86 -88q-150 188 -373 188q-130 0 -203 -49.5t-73 -140.5q0 -47 16.5 -83t41.5 -59.5t68 -43t82 -31.5t98 -28q22 -6 34 -9q159 -43 219 -71q146 -67 179 -198q11 -44 11 -94q0 -162 -125 -248t-325 -86zM543 -483h-80l49 391h172z" />
    <glyph glyph-name="T.sc" horiz-adv-x="1081" 
d="M612 0h-141v1094h-410v118h951l20 -118h-420v-1094z" />
    <glyph glyph-name="Tcaron.sc" horiz-adv-x="1081" 
d="M487 1319l-264 326h90l230 -203l229 203h86l-264 -326h-107zM612 0h-141v1094h-410v118h951l20 -118h-420v-1094z" />
    <glyph glyph-name="Tcommaaccent.sc" horiz-adv-x="1081" 
d="M612 0h-141v1094h-410v118h951l20 -118h-420v-1094zM514 -483h-80l49 391h172z" />
    <glyph glyph-name="U.sc" horiz-adv-x="1247" 
d="M625 -23q-115 0 -206 34t-149 94t-88 139.5t-30 173.5v794h141v-780q0 -154 82 -245t252 -91q166 0 247.5 89.5t81.5 244.5v782h142v-790q0 -128 -50.5 -226.5t-159 -158.5t-263.5 -60z" />
    <glyph glyph-name="Ugrave.sc" horiz-adv-x="1247" 
d="M639 1317l-289 319h187l194 -319h-92zM625 -23q-115 0 -206 34t-149 94t-88 139.5t-30 173.5v794h141v-780q0 -154 82 -245t252 -91q166 0 247.5 89.5t81.5 244.5v782h142v-790q0 -128 -50.5 -226.5t-159 -158.5t-263.5 -60z" />
    <glyph glyph-name="Uacute.sc" horiz-adv-x="1247" 
d="M463 1317l194 319h187l-289 -319h-92zM625 -23q-115 0 -206 34t-149 94t-88 139.5t-30 173.5v794h141v-780q0 -154 82 -245t252 -91q166 0 247.5 89.5t81.5 244.5v782h142v-790q0 -128 -50.5 -226.5t-159 -158.5t-263.5 -60z" />
    <glyph glyph-name="Ucircumflex.sc" horiz-adv-x="1247" 
d="M305 1311l264 325h107l264 -325h-90l-229 200l-230 -200h-86zM625 -23q-115 0 -206 34t-149 94t-88 139.5t-30 173.5v794h141v-780q0 -154 82 -245t252 -91q166 0 247.5 89.5t81.5 244.5v782h142v-790q0 -128 -50.5 -226.5t-159 -158.5t-263.5 -60z" />
    <glyph glyph-name="Udieresis.sc" horiz-adv-x="1247" 
d="M801 1305q-40 0 -64 27t-24 73q0 43 24 69.5t64 26.5q42 0 66 -26.5t24 -69.5q0 -46 -24 -73t-66 -27zM440 1305q-41 0 -64.5 27t-23.5 73q0 43 23.5 69.5t64.5 26.5t64.5 -26.5t23.5 -69.5q0 -46 -23.5 -73t-64.5 -27zM625 -23q-115 0 -206 34t-149 94t-88 139.5
t-30 173.5v794h141v-780q0 -154 82 -245t252 -91q166 0 247.5 89.5t81.5 244.5v782h142v-790q0 -128 -50.5 -226.5t-159 -158.5t-263.5 -60z" />
    <glyph glyph-name="Utilde.sc" horiz-adv-x="1247" 
d="M774 1311q-49 0 -107 28.5t-110 57t-86 28.5q-45 0 -64 -27t-18 -91l-90 16q0 217 172 217q49 0 107 -29t110 -57.5t86 -28.5q45 0 64.5 27.5t19.5 91.5l88 -16q0 -217 -172 -217zM625 -23q-115 0 -206 34t-149 94t-88 139.5t-30 173.5v794h141v-780q0 -154 82 -245
t252 -91q166 0 247.5 89.5t81.5 244.5v782h142v-790q0 -128 -50.5 -226.5t-159 -158.5t-263.5 -60z" />
    <glyph glyph-name="Umacron.sc" horiz-adv-x="1247" 
d="M362 1315v121h521v-121h-521zM625 -23q-115 0 -206 34t-149 94t-88 139.5t-30 173.5v794h141v-780q0 -154 82 -245t252 -91q166 0 247.5 89.5t81.5 244.5v782h142v-790q0 -128 -50.5 -226.5t-159 -158.5t-263.5 -60z" />
    <glyph glyph-name="Ubreve.sc" horiz-adv-x="1247" 
d="M623 1309q-135 0 -217.5 90.5t-90.5 245.5h91q25 -224 217 -224t217 224h90q-8 -155 -90 -245.5t-217 -90.5zM625 -23q-115 0 -206 34t-149 94t-88 139.5t-30 173.5v794h141v-780q0 -154 82 -245t252 -91q166 0 247.5 89.5t81.5 244.5v782h142v-790q0 -128 -50.5 -226.5
t-159 -158.5t-263.5 -60z" />
    <glyph glyph-name="Uring.sc" horiz-adv-x="1247" 
d="M623 1303q-81 0 -134 53t-53 133t53 133t134 53t133.5 -53t52.5 -133t-52.5 -133t-133.5 -53zM623 1374q47 0 77.5 32t30.5 83q0 50 -30.5 82.5t-77.5 32.5t-78 -32.5t-31 -82.5q0 -51 30.5 -83t78.5 -32zM625 -23q-115 0 -206 34t-149 94t-88 139.5t-30 173.5v794h141
v-780q0 -154 82 -245t252 -91q166 0 247.5 89.5t81.5 244.5v782h142v-790q0 -128 -50.5 -226.5t-159 -158.5t-263.5 -60z" />
    <glyph glyph-name="Uhungarumlaut.sc" horiz-adv-x="1247" 
d="M686 1317l199 319h190l-293 -319h-96zM356 1317l195 319h190l-288 -319h-97zM625 -23q-115 0 -206 34t-149 94t-88 139.5t-30 173.5v794h141v-780q0 -154 82 -245t252 -91q166 0 247.5 89.5t81.5 244.5v782h142v-790q0 -128 -50.5 -226.5t-159 -158.5t-263.5 -60z" />
    <glyph glyph-name="Uogonek.sc" horiz-adv-x="1247" 
d="M633 -383q-89 0 -140 42t-51 116q0 102 136 205q-207 13 -316.5 133.5t-109.5 304.5v794h141v-780q0 -154 82 -245t252 -91q166 0 247.5 89.5t81.5 244.5v782h142v-790q0 -90 -26.5 -166t-77.5 -135.5t-132.5 -96.5t-185.5 -44q-115 -91 -115 -183q0 -98 107 -98
q87 0 194 49l31 -53q-136 -78 -260 -78z" />
    <glyph glyph-name="V.sc" horiz-adv-x="1157" 
d="M643 -4h-129l-448 1204l137 25l307 -852l70 -195h4l69 193l308 841h135z" />
    <glyph glyph-name="W.sc" horiz-adv-x="1615" 
d="M541 0h-129l-342 1200l139 25l197 -723q45 -170 75 -301h4q14 71 70 299l186 712h144l186 -718q54 -184 72 -293h4q2 10 74 286l194 725h131l-338 -1212h-131l-262 1024h-4z" />
    <glyph glyph-name="Wcircumflex.sc" horiz-adv-x="1615" 
d="M489 1311l265 325h106l264 -325h-90l-229 200l-230 -200h-86zM541 0h-129l-342 1200l139 25l197 -723q45 -170 75 -301h4q14 71 70 299l186 712h144l186 -718q54 -184 72 -293h4q2 10 74 286l194 725h131l-338 -1212h-131l-262 1024h-4z" />
    <glyph glyph-name="Wgrave.sc" horiz-adv-x="1615" 
d="M764 1317l-289 319h187l194 -319h-92zM541 0h-129l-342 1200l139 25l197 -723q45 -170 75 -301h4q14 71 70 299l186 712h144l186 -718q54 -184 72 -293h4q2 10 74 286l194 725h131l-338 -1212h-131l-262 1024h-4z" />
    <glyph glyph-name="Wacute.sc" horiz-adv-x="1615" 
d="M762 1317l194 319h187l-289 -319h-92zM541 0h-129l-342 1200l139 25l197 -723q45 -170 75 -301h4q14 71 70 299l186 712h144l186 -718q54 -184 72 -293h4q2 10 74 286l194 725h131l-338 -1212h-131l-262 1024h-4z" />
    <glyph glyph-name="Wdieresis.sc" horiz-adv-x="1615" 
d="M985 1305q-40 0 -64 27t-24 73q0 43 24 69.5t64 26.5q42 0 66 -26.5t24 -69.5q0 -46 -24 -73t-66 -27zM625 1305q-41 0 -64.5 27t-23.5 73q0 43 23.5 69.5t64.5 26.5t64.5 -26.5t23.5 -69.5q0 -46 -23.5 -73t-64.5 -27zM541 0h-129l-342 1200l139 25l197 -723
q45 -170 75 -301h4q14 71 70 299l186 712h144l186 -718q54 -184 72 -293h4q2 10 74 286l194 725h131l-338 -1212h-131l-262 1024h-4z" />
    <glyph glyph-name="X.sc" horiz-adv-x="1146" 
d="M203 0h-152l441 651l-379 549l143 25l328 -480l313 467h150l-388 -573l433 -627l-142 -24l-381 555z" />
    <glyph glyph-name="Y.sc" horiz-adv-x="1093" 
d="M473 0v530l-424 670l139 25l361 -580l352 567h148l-433 -682v-530h-143z" />
    <glyph glyph-name="Yacute.sc" horiz-adv-x="1093" 
d="M438 1317l195 319h186l-289 -319h-92zM473 0v530l-424 670l139 25l361 -580l352 567h148l-433 -682v-530h-143z" />
    <glyph glyph-name="Ycircumflex.sc" horiz-adv-x="1093" 
d="M227 1311l265 325h106l264 -325h-90l-229 200l-230 -200h-86zM473 0v530l-424 670l139 25l361 -580l352 567h148l-433 -682v-530h-143z" />
    <glyph glyph-name="Ydieresis.sc" horiz-adv-x="1093" 
d="M725 1305q-40 0 -64 27t-24 73q0 43 24 69.5t64 26.5q42 0 66 -26.5t24 -69.5q0 -46 -24 -73t-66 -27zM365 1305q-41 0 -65 27t-24 73q0 43 24 69.5t65 26.5t64.5 -26.5t23.5 -69.5q0 -46 -23.5 -73t-64.5 -27zM473 0v530l-424 670l139 25l361 -580l352 567h148
l-433 -682v-530h-143z" />
    <glyph glyph-name="Ygrave.sc" horiz-adv-x="1093" 
d="M582 1317l-289 319h186l195 -319h-92zM473 0v530l-424 670l139 25l361 -580l352 567h148l-433 -682v-530h-143z" />
    <glyph glyph-name="Z.sc" horiz-adv-x="1097" 
d="M1018 0h-944v98l760 1000h-701l-20 114h893v-100l-756 -999h745z" />
    <glyph glyph-name="Zacute.sc" horiz-adv-x="1097" 
d="M440 1317l195 319h186l-289 -319h-92zM1018 0h-944v98l760 1000h-701l-20 114h893v-100l-756 -999h745z" />
    <glyph glyph-name="Zdotaccent.sc" horiz-adv-x="1097" 
d="M547 1311q-46 0 -72 27.5t-26 76.5q0 46 26.5 73.5t71.5 27.5q46 0 73 -27.5t27 -73.5q0 -49 -27 -76.5t-73 -27.5zM1018 0h-944v98l760 1000h-701l-20 114h893v-100l-756 -999h745z" />
    <glyph glyph-name="Zcaron.sc" horiz-adv-x="1097" 
d="M494 1319l-265 326h90l230 -203l229 203h86l-264 -326h-106zM1018 0h-944v98l760 1000h-701l-20 114h893v-100l-756 -999h745z" />
    <glyph glyph-name="AE.sc" horiz-adv-x="1763" 
d="M866 1110l-374 -616h376v616h-2zM426 381l-236 -381h-147l748 1212h854v-118h-639v-398h473l8 -116h-481v-461h675v-119h-813v381h-442z" />
    <glyph glyph-name="Eth.sc" horiz-adv-x="1243" 
d="M164 0v584h-141v104h141v524h336q317 0 479 -146.5t162 -457.5q0 -608 -641 -608h-336zM303 584v-467h213q243 0 363 115.5t120 373.5q0 255 -121.5 371.5t-363.5 116.5h-211v-406h275v-104h-275z" />
    <glyph glyph-name="Oslash.sc" horiz-adv-x="1300" 
d="M338 254l559 778q-105 88 -246 88q-182 0 -296.5 -138.5t-114.5 -375.5q0 -221 98 -352zM651 90q183 0 296.5 139t113.5 377q0 217 -98 355l-560 -781q107 -90 248 -90zM231 -59l-79 59l106 145q-158 179 -158 461q0 142 42.5 261t116.5 199t175 124.5t217 44.5
q176 0 316 -105l104 146l80 -59l-111 -152q158 -176 158 -459q0 -142 -42.5 -261t-116 -199t-173.5 -124.5t-215 -44.5q-182 0 -319 103z" />
    <glyph glyph-name="Thorn.sc" horiz-adv-x="1128" 
d="M303 0h-139v1212h139v-227h289q219 0 340 -82.5t121 -253.5q0 -93 -35 -161t-100 -108.5t-149 -59.5t-189 -19h-277v-301zM303 870v-458h285q163 0 245 55.5t82 177.5q0 117 -82.5 171t-248.5 54h-281z" />
    <glyph glyph-name="Dcroat.sc" horiz-adv-x="1243" 
d="M164 0v584h-141v104h141v524h336q317 0 479 -146.5t162 -457.5q0 -608 -641 -608h-336zM303 584v-467h213q243 0 363 115.5t120 373.5q0 255 -121.5 371.5t-363.5 116.5h-211v-406h275v-104h-275z" />
    <glyph glyph-name="Hbar.sc" horiz-adv-x="1284" 
d="M303 688h676v189h-676v-189zM303 571v-571h-139v877h-141v106h141v229h139v-229h676v229h141v-229h142v-106h-142v-877h-141v571h-676z" />
    <glyph glyph-name="IJ.sc" horiz-adv-x="1316" 
d="M324 0h-144v1212h144v-1212zM811 -20q-188 0 -338 110l68 103q135 -99 264 -99q221 0 221 238v882h139v-882q0 -172 -88 -262t-266 -90z" />
    <glyph glyph-name="Ldot.sc" horiz-adv-x="1038" 
d="M938 0h-774v1212h139v-1093h615zM754 553q-46 0 -72.5 27.5t-26.5 76.5q0 46 26.5 73.5t72.5 27.5t73 -27.5t27 -73.5q0 -49 -27 -76.5t-73 -27.5z" />
    <glyph glyph-name="Lslash.sc" horiz-adv-x="991" 
d="M924 117l8 -117h-768v561l-141 -37v105l141 35v548h139v-512l275 70v-104l-275 -70v-479h621z" />
    <glyph glyph-name="Eng.sc" horiz-adv-x="1300" 
d="M164 0v1212h151l533 -751l156 -221h2v972h135v-1271q0 -171 -87.5 -262t-262.5 -91q-187 0 -338 111l69 100q131 -98 262 -98q219 0 222 236v69l-578 809l-131 186h-2v-1001h-131z" />
    <glyph glyph-name="OE.sc" horiz-adv-x="1947" 
d="M649 94q181 0 294.5 138t113.5 374q0 235 -113 372.5t-295 137.5t-294.5 -137t-112.5 -373t113 -374t294 -138zM647 -23q-116 0 -216.5 44.5t-173.5 124.5t-115 199t-42 261t42.5 261t116 199t173.5 124.5t215 44.5q141 0 250 -67t172 -191v235h762v-118h-641v-398h473
l8 -116h-481v-461h676v-119h-797v233q-63 -124 -171.5 -190t-250.5 -66z" />
    <glyph glyph-name="Tbar.sc" horiz-adv-x="1081" 
d="M1022 530h-410v-530h-141v530h-410v107h410v457h-410v118h957l8 -118h-414v-457h410v-107z" />
    <glyph glyph-name="ordfeminine.sc" horiz-adv-x="845" 
d="M391 1006l-88 -240h232l-89 235l-24 80h-4zM197 477h-113l278 735h117l277 -735h-117l-74 199h-293z" />
    <glyph glyph-name="ordmasculine.sc" horiz-adv-x="878" 
d="M438 451q-148 0 -248 104.5t-100 286.5q0 185 100 290t248 105q149 0 249.5 -105t100.5 -290q0 -182 -100.5 -286.5t-249.5 -104.5zM438 543q111 0 174.5 84t63.5 217q0 127 -62.5 214t-175.5 87q-108 0 -171.5 -85t-63.5 -216q0 -128 61 -214.5t174 -86.5z" />
    <glyph glyph-name="germandbls.sc" horiz-adv-x="2281" 
d="M1722 -23q-164 0 -284 52t-219 168l90 90q86 -100 186 -148.5t227 -48.5q147 0 229.5 56t82.5 157q0 48 -17 85t-36.5 59t-69 44.5t-77.5 31.5t-99 29q-11 3 -17 5q-170 45 -232 72q-147 64 -186 184q-16 49 -16 109q0 147 114.5 230t301.5 83q293 0 459 -217l-86 -88
q-150 188 -373 188q-130 0 -203.5 -49.5t-73.5 -140.5q0 -47 16.5 -83t41.5 -59.5t68 -43t82 -31.5t98 -28q7 -2 11.5 -3t11 -2.5t11.5 -3.5q159 -43 219 -70q147 -68 180 -199q11 -43 11 -94q0 -162 -125.5 -248t-325.5 -86zM582 -23q-164 0 -284.5 52t-219.5 168l90 90
q86 -100 186.5 -148.5t227.5 -48.5q147 0 229 56t82 157q0 48 -15 84.5t-40.5 60.5t-64.5 43t-81.5 33t-97.5 29q-11 3 -16 4q-170 45 -232 72q-148 64 -187 184q-16 48 -16 109q0 147 114.5 230t301.5 83q293 0 459 -217l-86 -88q-150 188 -373 188q-130 0 -203 -49.5
t-73 -140.5q0 -47 16.5 -83t41.5 -59.5t68 -43t82 -31.5t98 -28q22 -6 34 -9q159 -43 219 -71q146 -67 179 -198q11 -44 11 -94q0 -162 -125 -248t-325 -86z" />
    <glyph glyph-name="zero.sc" horiz-adv-x="1073" 
d="M537 -29q-142 0 -245 79.5t-155.5 221.5t-52.5 332t52.5 332t155.5 221.5t245 79.5q215 0 334.5 -172t119.5 -461t-119.5 -461t-334.5 -172zM537 90q151 0 234 133.5t83 380.5q0 246 -85 381t-232 135q-150 0 -234 -134.5t-84 -381.5q0 -244 85.5 -379t232.5 -135z" />
    <glyph glyph-name="one.sc" horiz-adv-x="813" 
d="M524 0h-129v1081l-270 -75l-27 112l336 94h90v-1212z" />
    <glyph glyph-name="two.sc" horiz-adv-x="970" 
d="M874 0h-798v33q0 143 89.5 271t319.5 276q133 84 188.5 154.5t55.5 158.5q0 104 -59.5 164.5t-173.5 60.5q-189 0 -291 -211l-109 60q64 132 169 202t237 70q166 0 265 -94t99 -244q0 -126 -70.5 -216t-242.5 -200q-154 -97 -236 -189.5t-88 -172.5h637z" />
    <glyph glyph-name="three.sc" horiz-adv-x="985" 
d="M473 -29q-133 0 -243 61.5t-181 174.5l98 72q120 -189 326 -189q130 0 203.5 65t73.5 171q0 133 -82.5 195.5t-284.5 62.5h-49v116h57q183 0 259.5 54t76.5 164q0 90 -61 145t-187 55q-161 0 -280 -149l-95 78q71 87 168.5 139.5t214.5 52.5q184 0 279.5 -89.5
t95.5 -219.5q0 -111 -62.5 -188t-174.5 -99q128 -20 196 -103.5t68 -213.5q0 -154 -114.5 -254.5t-301.5 -100.5z" />
    <glyph glyph-name="four.sc" horiz-adv-x="1005" 
d="M766 0h-133v287h-582v100l553 825h162v-804h203v-121h-203v-287zM631 1042l-422 -634h424v634h-2z" />
    <glyph glyph-name="five.sc" horiz-adv-x="960" 
d="M469 -27q-130 0 -237.5 62t-174.5 166l95 82q123 -189 317 -189q94 0 161.5 44t97.5 111t30 148q0 136 -73 212.5t-191 76.5q-167 0 -275 -154l-98 37l45 643h653v-125h-538q0 -3 -15.5 -196.5t-15.5 -196.5q86 107 260 107q169 0 276 -109t107 -289q0 -190 -115.5 -310
t-308.5 -120z" />
    <glyph glyph-name="six.sc" horiz-adv-x="1003" 
d="M524 -29q-92 0 -170 38t-138.5 112t-95 193.5t-34.5 271.5q0 184 62 333t171.5 233.5t245.5 84.5q181 0 303 -96l-69 -103q-51 43 -104.5 63.5t-129.5 20.5q-155 0 -249 -144t-97 -366q56 64 145.5 109t188.5 45q188 0 287.5 -106t99.5 -279q0 -179 -113 -294.5
t-303 -115.5zM530 86q126 0 201.5 77.5t75.5 215.5q0 124 -66 198t-202 74q-94 0 -177 -45.5t-139 -124.5q18 -192 102.5 -293.5t204.5 -101.5z" />
    <glyph glyph-name="seven.sc" horiz-adv-x="905" 
d="M332 0h-144l502 1085h-608l-8 127h764v-118z" />
    <glyph glyph-name="eight.sc" horiz-adv-x="1001" 
d="M500 -29q-205 0 -321 92t-116 230q0 120 76.5 200t229.5 148q-124 58 -186 127.5t-62 171.5q0 122 104 209.5t275 87.5q177 0 279 -87t102 -210q0 -102 -62 -169t-192 -126q159 -70 235 -149t76 -203q0 -136 -117 -229t-321 -93zM506 698q134 56 185.5 106.5t51.5 129.5
q0 77 -60.5 133.5t-180.5 56.5q-117 0 -181.5 -55t-64.5 -129q0 -79 55 -130t195 -112zM500 82q134 0 217.5 59.5t83.5 157.5q0 92 -73.5 157t-233.5 130q-161 -71 -227 -133.5t-66 -153.5q0 -94 84 -155.5t215 -61.5z" />
    <glyph glyph-name="nine.sc" horiz-adv-x="1007" 
d="M469 557q93 0 175 45t140 123q-13 190 -99 292.5t-206 102.5q-127 0 -202.5 -76.5t-75.5 -212.5q0 -125 66.5 -199.5t201.5 -74.5zM442 -29q-194 0 -325 117l67 100q60 -53 116.5 -75.5t141.5 -22.5q153 0 246.5 143t99.5 365q-60 -65 -147 -110.5t-186 -45.5
q-187 0 -289.5 108t-102.5 279q0 178 115.5 293t304.5 115q74 0 139 -23t120 -71.5t95 -119.5t62.5 -172t22.5 -224q0 -186 -61 -335.5t-171 -235t-248 -85.5z" />
    <glyph glyph-name="exclam.sc" horiz-adv-x="557" 
d="M193 1212h169l-38 -876h-86zM279 -8q-44 0 -69.5 24.5t-25.5 67.5t25.5 67.5t69.5 24.5t70 -24.5t26 -67.5t-26 -67.5t-70 -24.5z" />
    <glyph glyph-name="exclamdown.sc" horiz-adv-x="557" 
d="M281 1223q44 0 69 -24t25 -66q0 -43 -25 -68t-69 -25t-70.5 25t-26.5 68q0 41 26.5 65.5t70.5 24.5zM322 877l43 -877h-170l41 877h86z" />
    <glyph glyph-name="question.sc" horiz-adv-x="954" 
d="M483 332h-112q-4 35 -4 108q0 87 35.5 143.5t119.5 102.5q60 34 91.5 55.5t60.5 50.5t40 61t11 75q0 194 -254 194q-104 0 -180 -42t-141 -122l-89 78q154 201 418 201q185 0 285 -82.5t100 -216.5q0 -59 -17 -106t-52 -83.5t-70.5 -61t-89.5 -54.5
q-100 -58 -127.5 -113.5t-24.5 -187.5zM424 -8q-44 0 -69 24.5t-25 67.5t25 67.5t69 24.5t70 -24.5t26 -67.5t-26 -67.5t-70 -24.5z" />
    <glyph glyph-name="questiondown.sc" horiz-adv-x="948" 
d="M524 1223q44 0 69 -24t25 -66q0 -43 -25 -68t-69 -25t-71 25t-27 68q0 41 27 65.5t71 24.5zM467 881h113q4 -35 4 -109q0 -88 -36 -144t-120 -104q-60 -34 -91.5 -55t-60.5 -49t-40 -60t-11 -75q0 -195 254 -195q104 0 180.5 42t141.5 122l88 -78q-154 -201 -418 -201
q-185 0 -285 82.5t-100 216.5q0 59 17 106.5t51 83.5t70.5 61.5t90.5 54.5q70 40 101.5 75.5t42 84.5t8.5 141z" />
    <glyph glyph-name="numbersign.sc" horiz-adv-x="1245" 
d="M504 752l-62 -287h293l62 287h-293zM344 0h-127l74 348h-189v117h213l60 287h-201v114h225l74 346h127l-72 -346h293l74 346h127l-74 -346h195v-114h-219l-62 -287h211v-117h-233l-74 -348h-127l72 348h-291z" />
    <glyph glyph-name="percent.sc" horiz-adv-x="1626" 
d="M348 504q-131 0 -204.5 100.5t-73.5 263.5q0 170 77 271.5t205 101.5q124 0 198.5 -100t74.5 -267q0 -164 -74.5 -267t-202.5 -103zM383 0l725 1212h129l-725 -1212h-129zM350 608q76 0 118 74t42 190q0 122 -42.5 194.5t-119.5 72.5t-120.5 -74.5t-43.5 -190.5
q0 -124 43 -195t123 -71zM1280 -25q-129 0 -205 100.5t-76 262.5q0 170 79 271.5t206 101.5q122 0 197 -99.5t75 -267.5q0 -163 -75 -266t-201 -103zM1282 76q76 0 117 74t41 192q0 125 -41.5 196.5t-118.5 71.5t-118.5 -73t-41.5 -193q0 -125 41 -196.5t121 -71.5z" />
    <glyph glyph-name="perthousand.sc" horiz-adv-x="2318" 
d="M346 504q-131 0 -204.5 100.5t-73.5 263.5q0 170 76 271.5t204 101.5q125 0 200 -100t75 -267q0 -164 -75 -267t-202 -103zM381 0l725 1212h129l-725 -1212h-129zM348 608q76 0 118 74t42 190q0 121 -43 194t-119 73q-79 0 -121.5 -74t-42.5 -191q0 -124 43 -195t123 -71
zM1974 -25q-130 0 -204 100t-74 263q0 171 77 272t205 101q124 0 199.5 -99.5t75.5 -267.5q0 -164 -76 -266.5t-203 -102.5zM1276 -25q-128 0 -204.5 101t-76.5 262q0 170 79.5 271.5t205.5 101.5q123 0 197.5 -99.5t74.5 -267.5q0 -164 -74.5 -266.5t-201.5 -102.5z
M1976 76q76 0 118 74t42 192q0 124 -42.5 196t-119.5 72q-76 0 -119 -73.5t-43 -192.5q0 -124 43 -196t121 -72zM1278 76q77 0 118.5 73.5t41.5 192.5q0 124 -42.5 196t-119.5 72q-76 0 -118 -73.5t-42 -192.5q0 -124 42 -196t120 -72z" />
    <glyph glyph-name="ampersand.sc" horiz-adv-x="1275" 
d="M416 950q0 -106 69 -219q54 29 89.5 52t71.5 54.5t53.5 68t17.5 79.5q0 67 -30.5 107.5t-98.5 40.5q-86 0 -129 -50t-43 -133zM510 84q151 0 276 98q-100 91 -227 240q-55 59 -135 168q-106 -60 -163.5 -124t-57.5 -155q0 -107 79 -167t228 -60zM1020 612l125 -8
q-36 -244 -170 -407q114 -86 250 -99l8 -114q-100 5 -180 31.5t-168 90.5q-163 -129 -377 -129q-219 0 -329.5 86t-110.5 238q0 56 17.5 106t44 86.5t69.5 72t81.5 59.5t92.5 53q-88 151 -88 270q0 58 18.5 109t54 91.5t94.5 64.5t134 24q123 0 189.5 -63.5t66.5 -180.5
q0 -43 -11 -80.5t-34.5 -69.5t-48.5 -57.5t-64.5 -52t-69.5 -44t-77 -42.5q53 -76 127 -158q132 -150 217 -227q114 140 139 350z" />
    <glyph glyph-name="slash.sc" horiz-adv-x="946" 
d="M195 0h-148l705 1212h147z" />
    <glyph glyph-name="backslash.sc" horiz-adv-x="946" 
d="M195 1212l704 -1212h-147l-705 1212h148z" />
    <glyph glyph-name="plus.sc" horiz-adv-x="1302" 
d="M715 98h-125v459h-457v123h457v459h125v-459h454v-123h-454v-459z" />
    <glyph glyph-name="minus.sc" horiz-adv-x="1302" 
d="M1169 557h-1036v123h1036v-123z" />
    <glyph glyph-name="divide.sc" horiz-adv-x="1302" 
d="M643 881q-43 0 -67.5 27.5t-24.5 74.5q0 46 24.5 72t67.5 26t69.5 -26.5t26.5 -71.5q0 -47 -26.5 -74.5t-69.5 -27.5zM1169 557h-1036v123h1036v-123zM643 154q-43 0 -67.5 27.5t-24.5 74.5q0 46 24.5 73t67.5 27t69.5 -27.5t26.5 -72.5q0 -47 -26.5 -74.5t-69.5 -27.5z
" />
    <glyph glyph-name="multiply.sc" horiz-adv-x="1302" 
d="M649 535l-352 -355l-84 84l352 352l-352 353l84 86l352 -355l352 355l86 -86l-354 -353l354 -350l-83 -84z" />
    <glyph glyph-name="equal.sc" horiz-adv-x="1302" 
d="M1167 793h-1034v118h1034v-118zM1167 326h-1034v118h1034v-118z" />
    <glyph glyph-name="less.sc" horiz-adv-x="1302" 
d="M1188 236v-134l-1084 465v103l1084 463v-132l-920 -383z" />
    <glyph glyph-name="greater.sc" horiz-adv-x="1302" 
d="M1200 567l-1083 -465v134l919 382l-919 383v132l1083 -463v-103z" />
    <glyph glyph-name="dollar.sc" horiz-adv-x="1120" 
d="M506 707v405q-111 -7 -166 -60.5t-55 -129.5q0 -84 57 -131.5t164 -83.5zM608 551v-449q72 5 127 26t92 68t37 115q0 43 -14 77t-34.5 57t-57.5 44t-68 33t-82 29zM612 -154h-108v146q-142 12 -239 80.5t-150 158.5q6 3 53 33t53 33q54 -86 122 -136.5t163 -58.5v480
q-64 20 -108.5 37t-94 45t-79 60.5t-49 80.5t-19.5 108q0 125 94.5 213t253.5 97v118h106v-120q214 -19 336 -215l-100 -70q-51 79 -103 120t-135 52v-430q49 -15 82 -26t77 -29.5t73 -36.5t60.5 -45.5t50 -58.5t30.5 -72.5t12 -90.5q0 -138 -103 -226.5t-278 -102.5v-144z
" />
    <glyph glyph-name="sterling.sc" horiz-adv-x="1040" 
d="M240 -29q-82 0 -142.5 46t-60.5 135q0 87 58.5 139.5t154.5 52.5q93 0 174 -74q6 34 6 90q-2 92 -68 228h-225v98h162q-38 69 -58 122.5t-20 113.5q0 137 92.5 223t251.5 86q87 0 152.5 -25.5t105 -71.5t60 -101t26.5 -122l-127 -14q-8 100 -60.5 160.5t-156.5 60.5
q-95 0 -150 -51.5t-55 -142.5q0 -40 14 -84.5t29 -73t46 -80.5h296v-98h-243q55 -121 55 -226q0 -97 -22 -174q54 -49 101.5 -75.5t102.5 -26.5q71 0 108 52t44 169h121q-18 -336 -264 -336q-75 0 -138.5 32t-134.5 89q-79 -121 -235 -121zM244 72q109 0 147 96
q-74 78 -143 78q-47 0 -76 -24t-29 -62q0 -88 101 -88z" />
    <glyph glyph-name="yen.sc" horiz-adv-x="1077" 
d="M467 0v213h-307v100h307v140h-307v98h303l-397 661h149l326 -553l325 553h146l-402 -661h312v-98h-314v-140h314v-100h-314v-213h-141z" />
    <glyph glyph-name="Euro.sc" horiz-adv-x="1187" 
d="M686 -27q-174 0 -293 115t-155 342h-205v100h194q-2 29 -2 74q0 47 2 72h-194v98h203q34 225 160 345t290 120q301 0 395 -360l-123 -33q-19 70 -39.5 116.5t-51.5 85t-75.5 56.5t-105.5 18q-117 0 -203.5 -89.5t-111.5 -258.5h364v-98h-375q-2 -20 -2 -72q0 -28 4 -74
h373v-100h-362q28 -165 110 -252.5t207 -87.5q113 0 180 71.5t107 217.5l123 -29q-48 -178 -150.5 -277.5t-263.5 -99.5z" />
    <glyph glyph-name="florin.sc" horiz-adv-x="667" 
d="M-121 -350l17 108q25 -4 63 -4q69 0 106 29t46 92q1 6 53 382t53 382h-147l14 109h149q0 2 15.5 119t15.5 118q29 227 275 227q56 0 96 -8l-19 -108q-23 4 -63 4q-67 0 -105 -27t-47 -90l-32 -235h190l-14 -109h-191q-1 -6 -55 -388t-55 -388q-18 -111 -84 -165t-195 -54
q-56 0 -86 6z" />
    <glyph glyph-name="fi.sc" horiz-adv-x="1492" 
d="M1315 0h-144v1212h144v-1212zM303 0h-139v1212h766v-118h-627v-410h453l20 -115h-473v-569z" />
    <glyph glyph-name="fl.sc" horiz-adv-x="1984" 
d="M1929 0h-774v1212h139v-1093h615zM303 0h-139v1212h766v-118h-627v-410h453l20 -115h-473v-569z" />
    <glyph glyph-name="space.tab" horiz-adv-x="665" 
 />
    <glyph glyph-name="zero.tab" 
d="M666 -29q-260 0 -406.5 213.5t-146.5 573.5q0 237 64 413.5t190 274.5t299 98q260 0 405.5 -213t145.5 -573t-145.5 -573.5t-405.5 -213.5zM666 98q192 0 300.5 172.5t108.5 487.5q0 314 -110 486.5t-299 172.5q-194 0 -303 -172t-109 -487q0 -314 111 -487t301 -173z
" />
    <glyph glyph-name="one.tab" 
d="M305 0v131h326v1235q-39 -20 -154.5 -46t-161.5 -26l-12 123q69 2 191 34.5t157 64.5h123v-1385h299v-131h-768z" />
    <glyph glyph-name="two.tab" 
d="M162 0v33q0 116 42.5 217t157 218t308.5 241q176 112 247.5 201.5t71.5 209.5q0 134 -81 214.5t-230 80.5q-126 0 -218.5 -65.5t-158.5 -200.5l-108 72q77 157 202 240t289 83q204 0 325 -115.5t121 -300.5q0 -155 -86 -269.5t-305 -252.5q-201 -129 -306.5 -250.5
t-110.5 -224.5h811l10 -131h-981z" />
    <glyph glyph-name="three.tab" 
d="M639 -29q-165 0 -299.5 73.5t-218.5 207.5l100 86q157 -238 418 -238q167 0 264.5 85t97.5 223q0 170 -112.5 251.5t-374.5 81.5h-53l-8 125h71q237 0 340 70.5t103 214.5q0 118 -79 191t-241 73q-212 0 -364 -190l-95 92q187 227 467 227q116 0 205 -31t142.5 -85
t80.5 -120.5t27 -142.5q0 -145 -81 -240t-222 -118q338 -67 338 -399q0 -190 -138.5 -313.5t-367.5 -123.5z" />
    <glyph glyph-name="four.tab" 
d="M842 0v367h-719v108l680 1041h178v-1020h244l8 -129h-252v-367h-139zM285 496h557v850h-4z" />
    <glyph glyph-name="five.tab" 
d="M651 -29q-160 0 -288.5 73.5t-206.5 197.5l94 92q154 -234 399 -234q75 0 137.5 22t105.5 59.5t72.5 88.5t43.5 107.5t14 118.5q0 178 -93.5 277t-246.5 99q-215 0 -346 -190l-109 41l60 793h788l4 -134h-671l-41 -526q121 141 335 141q205 0 334 -135t129 -360
q0 -152 -61.5 -272t-179.5 -189.5t-273 -69.5z" />
    <glyph glyph-name="six.tab" 
d="M688 -29q-111 0 -206 46.5t-168.5 137.5t-115.5 239t-42 337q0 231 75 416.5t210 291t304 105.5q209 0 357 -114l-68 -115q-66 53 -130 77.5t-159 24.5q-136 0 -239 -89t-156 -241t-53 -342q187 203 428 203q116 0 206 -35t147 -99t86.5 -149.5t29.5 -189.5
q0 -220 -138 -362t-368 -142zM696 96q162 0 259.5 100.5t97.5 276.5q0 160 -85 255t-261 95q-121 0 -226.5 -60t-179.5 -163q22 -250 130 -377t265 -127z" />
    <glyph glyph-name="seven.tab" 
d="M348 4l637 1378h-772l-12 134h936v-125l-643 -1395z" />
    <glyph glyph-name="eight.tab" 
d="M666 -31q-248 0 -392.5 113.5t-144.5 284.5q0 78 26.5 142t81 116.5t124 94.5t169.5 85q-82 37 -139.5 72.5t-102.5 80t-67 99.5t-22 123q0 70 32 135.5t90 117t148 82.5t197 31q110 0 200 -31t147.5 -82.5t88.5 -116.5t31 -136q0 -66 -21.5 -119.5t-66.5 -98t-103 -80
t-143 -73.5q104 -45 173 -86t124 -93.5t80.5 -117t25.5 -145.5q0 -168 -145 -283t-391 -115zM672 864q120 52 185.5 93.5t99.5 94t34 122.5q0 47 -19.5 90t-57.5 79.5t-102 58t-146 21.5q-154 0 -240 -72.5t-86 -170.5q0 -103 74.5 -170t257.5 -146zM666 92q175 0 284 77.5
t109 205.5q0 121 -95.5 203t-306.5 170q-209 -93 -297 -174.5t-88 -198.5q0 -124 110.5 -203.5t283.5 -79.5z" />
    <glyph glyph-name="nine.tab" 
d="M621 692q121 0 227 60t180 163q-22 250 -129.5 376t-265.5 126q-163 0 -260 -99.5t-97 -275.5q0 -160 85 -255t260 -95zM590 -29q-235 0 -391 135l67 115q77 -65 145.5 -94t176.5 -29q134 0 236 89.5t155 241.5t53 341q-187 -203 -428 -203q-230 0 -349.5 129.5
t-119.5 343.5q0 220 137.5 362t366.5 142q112 0 207.5 -46.5t169.5 -137.5t116 -239t42 -337q0 -231 -75 -417t-208.5 -291t-300.5 -105z" />
    <glyph glyph-name="parenleft.tab" horiz-adv-x="665" 
d="M563 -420q-256 215 -383 454t-127 525q0 285 127.5 524.5t382.5 454.5l64 -72q-197 -181 -307.5 -413t-110.5 -494q0 -263 111.5 -495.5t308.5 -413.5z" />
    <glyph glyph-name="parenright.tab" horiz-adv-x="665" 
d="M100 -420l-65 70q197 181 308.5 413.5t111.5 495.5q0 262 -110.5 494t-307.5 413l63 72q255 -215 382.5 -454.5t127.5 -524.5q0 -286 -127 -525t-383 -454z" />
    <glyph glyph-name="numbersign.tab" 
d="M428 561h387l82 393h-387zM193 0l90 444h-226v117h248l80 393h-242v117h265l90 445h125l-93 -445h388l92 445h123l-91 -445h230v-117h-252l-80 -393h246v-117h-268l-91 -444h-125l91 444h-385l-93 -444h-122z" />
    <glyph glyph-name="percent.tab" horiz-adv-x="2007" 
d="M492 627q-156 0 -245 122.5t-89 327.5q0 213 91.5 336t246.5 123q154 0 242.5 -121t88.5 -332q0 -205 -89.5 -330.5t-245.5 -125.5zM502 0l884 1516h119l-884 -1516h-119zM494 741q98 0 153 95t55 245q0 156 -55 248t-155 92q-97 0 -152 -95t-55 -243q0 -156 55.5 -249
t153.5 -93zM1513 -20q-157 0 -245 122t-88 328q0 212 91.5 335.5t244.5 123.5q154 0 243.5 -121.5t89.5 -331.5q0 -204 -90 -330t-246 -126zM1516 94q97 0 151.5 96t54.5 244q0 156 -55 248t-154 92q-98 0 -153 -95t-55 -243q0 -156 55.5 -249t155.5 -93z" />
    <glyph glyph-name="asterisk.tab" 
d="M504 723l-103 59l213 310l-374 -27v113l376 -27l-215 309l103 60l162 -340l161 340l103 -60l-213 -309l375 27v-113l-375 27l213 -310l-103 -59l-161 340z" />
    <glyph glyph-name="period.tab" horiz-adv-x="665" 
d="M332 -10q-47 0 -74 29t-27 79q0 48 27 76.5t74 28.5q46 0 73 -29t27 -76q0 -49 -27 -78.5t-73 -29.5z" />
    <glyph glyph-name="comma.tab" horiz-adv-x="665" 
d="M309 -207h-86l53 400h177z" />
    <glyph glyph-name="colon.tab" horiz-adv-x="665" 
d="M332 874q-47 0 -74 28.5t-27 78.5t27 78t74 28q46 0 73 -28.5t27 -77.5t-27 -78t-73 -29zM332 -10q-47 0 -74 29t-27 79q0 48 27 76.5t74 28.5q46 0 73 -29t27 -76q0 -49 -27 -78.5t-73 -29.5z" />
    <glyph glyph-name="semicolon.tab" horiz-adv-x="665" 
d="M334 874q-47 0 -74 28.5t-27 78.5t27 78t74 28q46 0 73 -28.5t27 -77.5t-27 -78t-73 -29zM309 -207h-86l53 400h175z" />
    <glyph glyph-name="slash.tab" 
d="M152 0l880 1516h148l-881 -1516h-147z" />
    <glyph glyph-name="periodcentered.tab" horiz-adv-x="665" 
d="M332 547q-46 0 -72.5 28.5t-26.5 77.5t26.5 78t72.5 29q47 0 74.5 -28.5t27.5 -78.5q0 -49 -27.5 -77.5t-74.5 -28.5z" />
    <glyph glyph-name="minute.tab" horiz-adv-x="665" 
d="M246 1001l35 402l20 113h143l-125 -515h-73z" />
    <glyph glyph-name="second.tab" 
d="M754 1001l34 402l21 113h141l-125 -515h-71zM403 1001l35 402l19 113h143l-125 -515h-72z" />
    <glyph glyph-name="plus.tab" 
d="M602 154v458h-455v123h455v459h127v-459h455v-123h-455v-458h-127z" />
    <glyph glyph-name="minus.tab" 
d="M147 612v123h1037v-123h-1037z" />
    <glyph glyph-name="divide.tab" 
d="M659 934q-43 0 -68.5 27.5t-25.5 74.5q0 46 25.5 72.5t68.5 26.5t69 -27t26 -72q0 -47 -26 -74.5t-69 -27.5zM147 612v123h1037v-123h-1037zM659 207q-43 0 -68.5 27.5t-25.5 74.5q0 46 25.5 73.5t68.5 27.5t69 -27.5t26 -73.5q0 -47 -26 -74.5t-69 -27.5z" />
    <glyph glyph-name="multiply.tab" 
d="M311 211l-84 86l353 350l-353 354l84 84l353 -354l352 354l84 -84l-352 -354l354 -350l-84 -84l-354 352z" />
    <glyph glyph-name="equal.tab" 
d="M147 838v120h1035v-120h-1035zM147 371v121h1035v-121h-1035z" />
    <glyph glyph-name="less.tab" 
d="M1202 147l-1083 465v103l1083 465v-133l-919 -383l919 -383v-134z" />
    <glyph glyph-name="greater.tab" 
d="M131 147v134l920 383l-920 383v133l1083 -465v-103z" />
    <glyph glyph-name="dollar.tab" 
d="M616 866v543q-33 -2 -65.5 -8t-77.5 -23.5t-78.5 -43t-57.5 -72t-24 -105.5q0 -61 24 -109t69 -82t94 -57t116 -43zM715 109q56 4 103.5 14t93 31t77.5 51t51 76t19 104q0 57 -20 104.5t-50.5 79.5t-78 59.5t-92 44.5t-103.5 34v-598zM612 -190v182q-293 18 -471 237
l99 82q84 -93 172 -144.5t204 -57.5v624q-81 25 -137 46.5t-118 57t-99.5 76t-62.5 100.5t-25 134q0 155 115.5 263.5t322.5 117.5v149h107v-153q257 -25 411 -234l-100 -84q-75 93 -147 140t-168 57v-561q59 -17 102.5 -31t97.5 -36.5t91.5 -46t76 -57.5t62 -73t38.5 -91
t15 -112q0 -175 -126 -284t-353 -119v-182h-107z" />
    <glyph glyph-name="cent.tab" 
d="M358 539q0 -123 38.5 -224.5t111.5 -160.5l229 833q-12 2 -37 2q-63 0 -121.5 -25t-109 -75.5t-81 -141t-30.5 -208.5zM688 -23q-64 0 -129 19l-72 -260h-98l84 297q-118 69 -184 204t-66 302q0 112 26.5 205.5t72 158.5t107 110t130.5 66t143 21q20 0 60 -4l59 211h99
l-66 -234q183 -64 264 -268l-117 -53q-63 163 -184 215l-231 -856q50 -21 108 -21q111 0 184 57t132 181l110 -49q-69 -146 -172 -224t-260 -78z" />
    <glyph glyph-name="sterling.tab" 
d="M924 -29q-85 0 -157.5 42t-158.5 118q-97 -160 -276 -160q-89 0 -155 54t-66 149q0 102 63 165.5t168 63.5q104 0 209 -88q8 57 8 144q-5 128 -82 282h-256v113h197q-47 88 -71.5 158.5t-24.5 148.5q0 170 104.5 276.5t284.5 106.5q80 0 145.5 -21.5t109.5 -57.5
t75.5 -86t47 -103.5t19.5 -112.5l-133 -16q-8 126 -72.5 201t-193.5 75q-117 0 -182.5 -69t-65.5 -191q0 -47 18.5 -105.5t34.5 -92t55 -111.5h351v-113h-297q69 -156 69 -286q0 -127 -30 -226q41 -37 61 -53.5t55.5 -41.5t68 -35.5t66.5 -10.5q90 0 133 67t52 218h127
q-4 -90 -21 -159.5t-51 -126t-91.5 -86.5t-137.5 -30zM336 72q132 0 186 135q-99 96 -182 96q-55 0 -87 -33.5t-32 -89.5q0 -51 32 -79.5t83 -28.5z" />
    <glyph glyph-name="yen.tab" 
d="M592 0v258h-389v115h389v196h-389v113h383l-496 834h158l420 -719l417 719h154l-498 -834h387v-113h-391v-196h391v-115h-391v-258h-145z" />
    <glyph glyph-name="Euro.tab" 
d="M782 -29q-213 0 -358 144t-186 428h-252v114h241q-6 62 -2 197h-239v113h252q20 146 72 258.5t126 181t161.5 103t184.5 34.5q358 0 473 -411l-129 -43q-24 83 -50 138.5t-65.5 100.5t-96.5 66.5t-134 21.5q-156 0 -264 -112.5t-139 -337.5h459v-113h-471q-6 -82 2 -197
h469v-114h-457q30 -220 134.5 -332.5t270.5 -112.5q147 0 233 86t132 258l127 -43q-57 -199 -180.5 -313.5t-313.5 -114.5z" />
    <glyph glyph-name="florin.tab" 
d="M137 -408l19 115q14 -4 69 -4q179 0 201 162l139 985h-188l14 115h189l36 276q20 140 106 208.5t245 68.5q70 0 80 -5l-19 -114q-28 4 -67 4q-181 0 -203 -158l-37 -280h237l-14 -115h-237l-140 -991q-20 -136 -105.5 -203.5t-242.5 -67.5q-74 0 -82 4z" />
    </font>
</defs>
</svg>
