<?xml version="1.0" standalone="no"?>
<!DOCTYPE svg PUBLIC "-//W3C//DTD SVG 1.1//EN" "http://www.w3.org/Graphics/SVG/1.1/DTD/svg11.dtd" >
<svg xmlns="http://www.w3.org/2000/svg" xmlns:xlink="http://www.w3.org/1999/xlink" version="1.1">
<metadata>
Created by FontForge 20170731 at Mon Apr  4 20:10:48 2022
 By Aleksey,,,
Copyright (c) The Font Bureau, Inc., 2008. All rights reserved.
</metadata>
<defs>
<font id="BentonSansBBVA-Bold" horiz-adv-x="1331" >
  <font-face 
    font-family="BentonSansBBVA"
    font-weight="700"
    font-stretch="normal"
    units-per-em="2048"
    panose-1="0 0 0 0 0 0 0 2 0 0"
    ascent="1638"
    descent="-410"
    x-height="1092"
    cap-height="1516"
    bbox="-184 -602 3095 2032"
    underline-thickness="0"
    underline-position="0"
    unicode-range="U+0020-FEFF"
  />
<missing-glyph horiz-adv-x="1024" 
d="M0 0v1434h1024v-1434h-1024zM102 1331v-1229h820v1229h-820z" />
    <glyph glyph-name="f_f" unicode="ff" horiz-adv-x="1501" 
d="M551 0h-328v852h-182v240h182v75q0 357 340 357q48 0 107.5 -5.5t77.5 -9.5v-227q-18 6 -80 6q-117 0 -117 -131v-65h330v75q0 60 8 107.5t32 96t64.5 80.5t110 52.5t164.5 20.5q43 0 112.5 -5.5t85.5 -9.5v-229q-36 8 -96 8q-73 0 -113.5 -26t-40.5 -105v-65h238v-240
h-238v-852h-327v852h-330v-852z" />
    <glyph glyph-name="f_i" unicode="fi" horiz-adv-x="1357" 
d="M1042 1198q-87 0 -135.5 47.5t-48.5 118.5q0 72 48.5 119t135.5 47q89 0 139 -47t50 -119q0 -71 -50 -118.5t-139 -47.5zM223 1092v75q0 60 7.5 107.5t29.5 96t58.5 81t99.5 52.5t147 20q46 0 109 -5.5t80 -9.5l18 -235q-35 14 -104 14q-26 0 -44.5 -4.5t-36.5 -17
t-27 -40t-9 -69.5v-65h201v-240h-201v-852h-328v852h-182v240h182zM1208 0h-327v1092h327v-1092z" />
    <glyph glyph-name="f_l" unicode="fl" horiz-adv-x="1349" 
d="M1208 0h-327v1491l327 49v-1540zM223 1092v75q0 60 7.5 107.5t29.5 96t58.5 81t99.5 52.5t147 20q46 0 109 -5.5t80 -9.5l18 -235q-35 14 -104 14q-26 0 -44.5 -4.5t-36.5 -17t-27 -40t-9 -69.5v-65h201v-240h-201v-852h-328v852h-182v240h182z" />
    <glyph glyph-name="f_f_i" unicode="ffi" horiz-adv-x="2002" 
d="M1698 1198q-87 0 -136 47.5t-49 118.5q0 72 48.5 119t136.5 47q89 0 138.5 -47t49.5 -119q0 -71 -49.5 -118.5t-138.5 -47.5zM1864 0h-328v1092h328v-1092zM1208 1092h199v-240h-199v-852h-327v852h-330v-852h-328v852h-182v240h182v75q0 60 7.5 107.5t29.5 96t58.5 81
t99.5 52.5t147 20q46 0 109 -5.5t80 -9.5l18 -235q-35 14 -104 14q-26 0 -44.5 -4.5t-36.5 -17t-27 -40t-9 -69.5v-65h330v75q0 60 7.5 107.5t29.5 96t58.5 81t99.5 52.5t147 20q46 0 108.5 -5.5t79.5 -9.5l19 -235q-35 14 -105 14q-26 0 -44.5 -4.5t-36.5 -17t-27 -40
t-9 -69.5v-65z" />
    <glyph glyph-name="f_f_l" unicode="ffl" horiz-adv-x="2002" 
d="M1866 0h-330v1491l330 49v-1540zM1208 1092h199v-240h-199v-852h-327v852h-330v-852h-328v852h-182v240h182v75q0 60 7.5 107.5t29.5 96t58.5 81t99.5 52.5t147 20q46 0 109 -5.5t80 -9.5l18 -235q-35 14 -104 14q-26 0 -44.5 -4.5t-36.5 -17t-27 -40t-9 -69.5v-65h330
v75q0 60 7.5 107.5t29.5 96t58.5 81t99.5 52.5t147 20q46 0 108.5 -5.5t79.5 -9.5l19 -235q-35 14 -105 14q-26 0 -44.5 -4.5t-36.5 -17t-27 -40t-9 -69.5v-65z" />
    <glyph glyph-name="f_j" unicode="fj" horiz-adv-x="1349" 
d="M1042 1198q-87 0 -135.5 47.5t-48.5 118.5q0 72 48.5 119t135.5 47q89 0 139 -47t50 -119q0 -71 -50 -118.5t-139 -47.5zM551 0h-328v852h-182v240h182v75q0 60 7.5 107.5t29.5 96t58.5 81t99.5 52.5t147 20q46 0 109 -5.5t80 -9.5l18 -235q-35 14 -104 14
q-26 0 -44.5 -4.5t-36.5 -17t-27 -40t-9 -69.5v-65h201v-240h-201v-852zM854 -416q-124 0 -192 15l-19 229q46 -12 105 -12q68 0 100.5 35t32.5 114v1127h327v-1135q0 -62 -6.5 -109.5t-28.5 -99.5t-59 -86t-103.5 -56t-156.5 -22z" />
    <glyph glyph-name=".notdef" horiz-adv-x="1024" 
d="M0 0v1434h1024v-1434h-1024zM102 1331v-1229h820v1229h-820z" />
    <glyph glyph-name=".null" horiz-adv-x="0" 
 />
    <glyph glyph-name="nonmarkingreturn" horiz-adv-x="682" 
 />
    <glyph glyph-name="space" unicode=" " horiz-adv-x="550" 
 />
    <glyph glyph-name="space" unicode="&#xa0;" horiz-adv-x="550" 
 />
    <glyph glyph-name="exclam" unicode="!" horiz-adv-x="731" 
d="M498 479h-248l-84 1037h414zM371 -16q-92 0 -143.5 50t-51.5 124q0 75 51.5 124.5t143.5 49.5q93 0 145.5 -49.5t52.5 -124.5q0 -74 -52.5 -124t-145.5 -50z" />
    <glyph glyph-name="quotedbl" unicode="&#x22;" horiz-adv-x="942" 
d="M776 963h-209l-35 401v152h279v-152zM375 963h-211l-35 401v152h281v-152z" />
    <glyph glyph-name="numbersign" unicode="#" horiz-adv-x="1562" 
d="M680 891l-57 -266h229l55 266h-227zM492 0h-295l79 381h-225v244h277l55 266h-244v244h295l80 381h295l-80 -381h229l80 381h295l-80 -381h256v-244h-307l-55 -266h274v-244h-325l-80 -381h-295l80 381h-228z" />
    <glyph glyph-name="dollar" unicode="$" horiz-adv-x="1398" 
d="M612 934v364q-89 -12 -134.5 -60t-45.5 -120t43 -113.5t137 -70.5zM793 600v-389q99 14 147.5 60t48.5 130q0 75 -47 121.5t-149 77.5zM602 -190v172q-184 24 -304.5 89t-215.5 183l186 188q72 -93 161.5 -153.5t182.5 -75.5v434q-85 21 -147 41.5t-129 57t-109.5 80.5
t-70 112t-27.5 152q0 192 127 310.5t346 135.5v141h197v-147q165 -23 263.5 -79t192.5 -159l-196 -188q-67 73 -128 118t-138 66v-401q93 -22 162 -45.5t136 -60.5t108.5 -83.5t67 -114t25.5 -151.5q0 -87 -28.5 -161.5t-86.5 -136t-154.5 -101.5t-223.5 -51v-172h-197z" />
    <glyph glyph-name="percent" unicode="%" horiz-adv-x="2269" 
d="M500 549q-192 0 -302 134.5t-110 360.5q0 227 111 361.5t301 134.5q188 0 297.5 -134t109.5 -359q0 -226 -109 -362t-298 -136zM823 0h-282l905 1516h283zM500 756q137 0 137 288q0 285 -137 285q-142 0 -142 -282q0 -291 142 -291zM1772 -20q-190 0 -300 135t-110 360
q0 227 111 362.5t301 135.5q188 0 297.5 -135t109.5 -361q0 -225 -109.5 -361t-299.5 -136zM1774 188q137 0 137 289q0 283 -139 283q-140 0 -140 -283q0 -289 142 -289z" />
    <glyph glyph-name="ampersand" unicode="&#x26;" horiz-adv-x="1521" 
d="M653 952q86 49 133.5 108t47.5 140q0 53 -27.5 91t-85.5 38t-95.5 -38.5t-37.5 -110.5q0 -107 65 -228zM606 201q115 0 207 59q-81 77 -207 234q-38 48 -106 141q-133 -89 -133 -213q0 -104 65 -162.5t174 -58.5zM604 -29q-277 0 -424 108t-147 296q0 71 19 133t49.5 107
t78 86t94 69t107.5 57q-96 187 -96 334q0 77 26 144.5t77 121.5t135 85.5t192 31.5q100 0 177.5 -27.5t123.5 -75t69 -105.5t23 -124t-19.5 -123.5t-50 -100.5t-78.5 -83t-94 -68t-108 -59q23 -34 92 -119q90 -113 166 -186q75 129 96 326l281 -35q-39 -261 -156 -449
q122 -67 260 -67l25 -268q-288 3 -490 116q-181 -125 -428 -125z" />
    <glyph glyph-name="quotesingle" unicode="'" horiz-adv-x="540" 
d="M375 963h-211l-35 401v152h281v-152z" />
    <glyph glyph-name="parenleft" unicode="(" horiz-adv-x="827" 
d="M776 -270l-162 -150q-260 219 -392 462t-132 542t132 541.5t392 461.5l152 -160q-332 -369 -332 -843q0 -248 90.5 -465t251.5 -389z" />
    <glyph glyph-name="parenright" unicode=")" horiz-adv-x="827" 
d="M213 -420l-162 150q160 173 250 389.5t90 464.5q0 478 -332 843l154 160q260 -219 391 -461t131 -542t-131 -543t-391 -461z" />
    <glyph glyph-name="asterisk" unicode="*" horiz-adv-x="1040" 
d="M520 924l-145 -306l-172 103l190 276l-338 -22v192l340 -24l-192 278l172 103l145 -305l146 305l174 -103l-193 -278l338 24v-192l-338 22l193 -276l-172 -103z" />
    <glyph glyph-name="plus" unicode="+" horiz-adv-x="1323" 
d="M793 178h-263v410h-393v260h393v409h263v-409h393v-260h-393v-410z" />
    <glyph glyph-name="comma" unicode="," horiz-adv-x="577" 
d="M272 -246h-194l55 563h352z" />
    <glyph glyph-name="hyphen" unicode="-" horiz-adv-x="731" 
d="M635 532h-539v222h539v-222z" />
    <glyph glyph-name="hyphen" unicode="&#x2011;" horiz-adv-x="731" 
d="M635 532h-539v222h539v-222z" />
    <glyph glyph-name="hyphen" unicode="&#x2010;" horiz-adv-x="731" 
d="M635 532h-539v222h539v-222z" />
    <glyph glyph-name="hyphen" unicode="&#xad;" horiz-adv-x="731" 
d="M635 532h-539v222h539v-222z" />
    <glyph glyph-name="period" unicode="." horiz-adv-x="577" 
d="M289 -16q-92 0 -143.5 50t-51.5 124q0 75 51.5 124.5t143.5 49.5q93 0 145.5 -49.5t52.5 -124.5q0 -74 -52.5 -124t-145.5 -50z" />
    <glyph glyph-name="slash" unicode="/" horiz-adv-x="1312" 
d="M385 0h-338l881 1516h338z" />
    <glyph glyph-name="zero" unicode="0" horiz-adv-x="1425" 
d="M713 -29q-196 0 -339 98t-217.5 275.5t-74.5 413.5t74.5 413t217.5 275t339 98q295 0 461.5 -213t166.5 -573t-166.5 -573.5t-461.5 -213.5zM713 231q146 0 222.5 134t76.5 393q0 257 -77.5 388.5t-221.5 131.5q-299 0 -299 -520q0 -257 77.5 -392t221.5 -135z" />
    <glyph glyph-name="one" unicode="1" horiz-adv-x="937" 
d="M702 0h-321v1214l-291 -69l-41 272l340 99h313v-1516z" />
    <glyph glyph-name="two" unicode="2" horiz-adv-x="1257" 
d="M1192 0h-1139v33q0 73 8.5 131.5t36.5 130.5t76 137t132 139.5t200 149.5q177 112 227 155q81 69 96 150q5 25 5 55q0 86 -52.5 135.5t-146.5 49.5q-92 0 -183 -58t-157 -164l-221 183q206 317 571 317q242 0 377 -118.5t135 -321.5q0 -55 -7 -99.5t-28 -96.5t-57 -98.5
t-97.5 -100t-146.5 -107.5q-179 -114 -272.5 -196t-99.5 -146h694z" />
    <glyph glyph-name="three" unicode="3" horiz-adv-x="1275" 
d="M612 -29q-365 0 -575 246l176 205q77 -90 180.5 -138t204.5 -48q127 0 193.5 54t66.5 156q0 122 -88 173t-274 51h-58l-39 243h103q81 0 140.5 11t94.5 28t55.5 43t27.5 51.5t7 57.5q0 168 -219 168q-197 0 -358 -156l-150 232q95 90 242 142t305 52q246 0 378 -101
t132 -286q0 -134 -77 -228t-220 -124q167 -27 256.5 -128t89.5 -249q0 -211 -162.5 -333t-431.5 -122z" />
    <glyph glyph-name="four" unicode="4" horiz-adv-x="1384" 
d="M1102 0h-322v297h-735v242l690 977h367v-957h235l33 -262h-268v-297zM776 1118l-387 -559h391v559h-4z" />
    <glyph glyph-name="five" unicode="5" horiz-adv-x="1247" 
d="M600 -29q-332 0 -553 191l135 237q82 -73 187 -118t211 -45q145 0 216.5 72.5t71.5 195.5q0 130 -67 202t-195 72q-160 0 -278 -145l-215 67l61 816h899l25 -252h-668l-29 -336q42 41 120 67.5t186 26.5q237 0 365 -139t128 -367q0 -246 -161.5 -395.5t-438.5 -149.5z
" />
    <glyph glyph-name="six" unicode="6" horiz-adv-x="1339" 
d="M700 -29q-136 0 -249 49.5t-195.5 144t-128 239t-45.5 327.5q0 142 27 262t76.5 208t114.5 154.5t144.5 107.5t164.5 61t175 20q213 0 392 -123l-113 -241q-132 100 -275 100q-165 0 -265 -115.5t-115 -324.5q177 137 378 137q103 0 190 -28.5t155 -85t106.5 -150.5
t38.5 -217q0 -236 -159 -380.5t-417 -144.5zM715 223q116 0 182 74.5t66 183.5q0 51 -12 93.5t-39 79t-76 57t-117 20.5q-181 0 -311 -127q12 -189 90 -285t217 -96z" />
    <glyph glyph-name="seven" unicode="7" horiz-adv-x="1103" 
d="M492 -25l-316 50l569 1222h-696l-49 269h1085v-246z" />
    <glyph glyph-name="eight" unicode="8" horiz-adv-x="1306" 
d="M653 -29q-286 0 -448 111.5t-162 308.5q0 134 93 236t243 164q-90 47 -144.5 92t-88 115t-33.5 163q0 74 35 141.5t100 122t170 87t235 32.5q133 0 239 -33t170 -88t97 -122t33 -140q0 -118 -68.5 -211t-193.5 -149q64 -28 110 -54t90.5 -62t71.5 -76.5t43.5 -95.5
t16.5 -122q0 -196 -162 -308t-447 -112zM676 909q105 52 149.5 101.5t44.5 119.5t-53 124.5t-162 54.5q-110 0 -164.5 -50.5t-54.5 -121.5q0 -81 57.5 -130t182.5 -98zM653 199q127 0 201 60t74 151q0 84 -68 141t-231 123q-124 -61 -187 -123.5t-63 -140.5q0 -90 74 -150.5
t200 -60.5z" />
    <glyph glyph-name="nine" unicode="9" horiz-adv-x="1339" 
d="M621 784q182 0 309 127q-21 373 -305 373q-118 0 -183 -71t-65 -179q0 -51 12 -93t38.5 -79t76 -57.5t117.5 -20.5zM590 -29q-261 0 -428 121l112 244q84 -57 147.5 -83t153.5 -26q147 0 243.5 120.5t111.5 328.5q-177 -137 -379 -137q-102 0 -188.5 28.5t-154.5 85
t-106.5 150.5t-38.5 217q0 236 159 380t417 144q279 0 447.5 -198.5t168.5 -561.5q0 -169 -38.5 -307.5t-103.5 -231t-151.5 -155.5t-179.5 -91t-192 -28z" />
    <glyph glyph-name="colon" unicode=":" horiz-adv-x="604" 
d="M299 758q-92 0 -143.5 50t-51.5 124q0 75 51.5 124.5t143.5 49.5q93 0 146 -49.5t53 -124.5q0 -74 -53 -124t-146 -50zM299 -16q-92 0 -143.5 50t-51.5 124q0 75 51.5 124.5t143.5 49.5q93 0 146 -49.5t53 -124.5q0 -74 -53 -124t-146 -50z" />
    <glyph glyph-name="semicolon" unicode=";" horiz-adv-x="604" 
d="M299 758q-92 0 -143.5 50t-51.5 124q0 75 51.5 124.5t143.5 49.5q93 0 146 -49.5t53 -124.5q0 -74 -53 -124t-146 -50zM293 -246h-195l56 563h352z" />
    <glyph glyph-name="less" unicode="&#x3c;" horiz-adv-x="1323" 
d="M1206 369v-271l-1083 475v181l1083 475v-271l-731 -294z" />
    <glyph glyph-name="equal" unicode="=" horiz-adv-x="1323" 
d="M1178 788h-1035v234h1035v-234zM1178 322h-1035v233h1035v-233z" />
    <glyph glyph-name="greater" unicode="&#x3e;" horiz-adv-x="1323" 
d="M1210 573l-1083 -475v271l731 295l-731 294v271l1083 -475v-181z" />
    <glyph glyph-name="question" unicode="?" horiz-adv-x="1216" 
d="M702 475h-270q-8 73 -8 148q0 109 57.5 182t159.5 129q91 50 127.5 94t36.5 115q0 63 -51 101t-142 38q-102 0 -198.5 -53t-157.5 -131l-188 200q96 111 241 178.5t338 67.5q228 0 354.5 -104t126.5 -271q0 -69 -18 -124.5t-53.5 -97.5t-75 -72t-94.5 -60
q-29 -15 -50.5 -27t-40 -26t-31 -23.5t-23.5 -26t-17 -26t-11 -31t-7 -34t-3.5 -41t-1.5 -46v-56.5v-3zM565 -16q-91 0 -142.5 50t-51.5 124q0 75 51 124.5t143 49.5q93 0 146 -49.5t53 -124.5q0 -74 -53 -124t-146 -50z" />
    <glyph glyph-name="at" unicode="@" horiz-adv-x="1777" 
d="M870 -29q-178 0 -326 59t-248 162.5t-155 248t-55 313.5t59 315t163.5 251t256 164.5t328.5 59.5t326.5 -57t253 -158t161.5 -243t58 -308q0 -210 -107 -338.5t-297 -128.5q-115 0 -179.5 47.5t-92.5 135.5q-67 -71 -143.5 -113.5t-178.5 -42.5q-128 0 -201 82.5
t-73 232.5q0 247 113 398t278 151q90 0 143.5 -27t94.5 -77l14 88h250l-101 -611q-25 -129 113 -129q99 0 160 86t61 238q0 283 -179.5 458t-475.5 175t-472.5 -180t-176.5 -469q0 -190 76 -338t222 -233t341 -85q230 0 385 105l69 -101q-186 -131 -465 -131zM803 528
q84 0 166 82l51 316q-34 37 -67.5 53t-80.5 16q-95 0 -147.5 -93t-52.5 -222q0 -76 29.5 -114t101.5 -38z" />
    <glyph glyph-name="A" unicode="A" horiz-adv-x="1460" 
d="M342 0h-307l536 1522h318l528 -1497l-321 -50l-121 363h-516zM719 1096l-178 -516h356l-174 516h-4z" />
    <glyph glyph-name="B" unicode="B" horiz-adv-x="1460" 
d="M793 0h-637v1516h606q90 0 164 -9t146 -34.5t121.5 -66.5t79.5 -108.5t30 -156.5q0 -151 -81 -236.5t-208 -111.5v-5q58 -10 105.5 -27.5t90 -47.5t71 -70t45.5 -97t17 -128q0 -110 -45.5 -193t-124.5 -131t-174 -71t-206 -23zM483 1257v-366h246q254 0 254 182
q0 92 -60 138t-190 46h-250zM483 655v-401h269q266 0 266 203q0 198 -281 198h-254z" />
    <glyph glyph-name="C" unicode="C" horiz-adv-x="1472" 
d="M782 -29q-151 0 -277 49t-220.5 144t-147.5 247.5t-53 348.5q0 192 53 343.5t146.5 246.5t215 144.5t263.5 49.5q226 0 371.5 -90t232.5 -272l-281 -142q-43 99 -124.5 163.5t-198.5 64.5q-171 0 -257.5 -133.5t-86.5 -374.5q0 -244 93 -382t271 -138q126 0 211 72
t125 196l287 -100q-151 -437 -623 -437z" />
    <glyph glyph-name="D" unicode="D" horiz-adv-x="1515" 
d="M621 0h-465v1516h465q143 0 262.5 -24.5t222.5 -80.5t174 -141.5t111.5 -213.5t40.5 -290q0 -167 -41 -298t-112.5 -218t-175 -144t-222.5 -81.5t-260 -24.5zM487 1237v-967h156q245 0 350 115.5t105 376.5q0 247 -107 361t-352 114h-152z" />
    <glyph glyph-name="E" unicode="E" horiz-adv-x="1296" 
d="M1225 0h-1069v1516h1032v-279h-699v-326h543l49 -264h-592v-377h736v-270z" />
    <glyph glyph-name="F" unicode="F" horiz-adv-x="1214" 
d="M489 0h-333v1516h1001v-279h-668v-369h492l49 -264h-541v-604z" />
    <glyph glyph-name="G" unicode="G" horiz-adv-x="1558" 
d="M741 -29q-166 0 -293 59t-206 166.5t-118.5 250.5t-39.5 317q0 357 185 568.5t499 211.5q90 0 174.5 -19.5t165.5 -60.5t151 -113t117 -169l-282 -127q-44 99 -123.5 156t-186.5 57q-32 0 -63 -5t-68 -19.5t-69 -37t-63 -61.5t-52.5 -89.5t-35 -124t-13.5 -161.5
q0 -122 23 -217.5t59 -153t85.5 -94.5t98 -51t100.5 -14q124 0 206.5 72.5t105.5 199.5h-240l-49 248h606v-760h-268v168h-4q-47 -87 -155 -142t-247 -55z" />
    <glyph glyph-name="H" unicode="H" horiz-adv-x="1574" 
d="M489 0h-333v1516h333v-588h596v588h334v-1516h-334v647h-596v-647z" />
    <glyph glyph-name="I" unicode="I" horiz-adv-x="675" 
d="M504 0h-332v1516h332v-1516z" />
    <glyph glyph-name="J" unicode="J" horiz-adv-x="1095" 
d="M463 -29q-249 0 -422 150l143 244q139 -127 262 -127q189 0 189 260v1018h334v-1070q0 -223 -122.5 -349t-383.5 -126z" />
    <glyph glyph-name="K" unicode="K" horiz-adv-x="1470" 
d="M489 0h-333v1516h333v-627l508 627h389l-514 -592l574 -899l-348 -50l-443 697l-166 -187v-485z" />
    <glyph glyph-name="L" unicode="L" horiz-adv-x="1200" 
d="M1182 0h-1026v1516h333v-1246h644z" />
    <glyph glyph-name="M" unicode="M" horiz-adv-x="1859" 
d="M455 0h-299v1516h440l338 -1115h4l315 1115h451v-1516h-322v1034h-4q-24 -135 -84 -338l-227 -696h-295l-225 696q-55 180 -88 355h-4v-1051z" />
    <glyph glyph-name="N" unicode="N" horiz-adv-x="1591" 
d="M463 0h-307v1516h333l635 -967h4v967h308v-1516h-308l-661 975h-4v-975z" />
    <glyph glyph-name="O" unicode="O" horiz-adv-x="1597" 
d="M799 -29q-112 0 -215.5 30t-194.5 94t-159 155.5t-107 222t-39 285.5t39 285.5t107 221.5t159 155t194.5 94t215.5 30q111 0 214 -30t194 -94t158.5 -155t106.5 -221.5t39 -285.5t-39 -285.5t-106.5 -222t-158.5 -155.5t-194 -94t-214 -30zM799 240q175 0 278 140
t103 378q0 237 -103 373.5t-278 136.5q-177 0 -279 -136t-102 -374t102.5 -378t278.5 -140z" />
    <glyph glyph-name="P" unicode="P" horiz-adv-x="1384" 
d="M487 0h-331v1516h551q104 0 189 -12t167.5 -44.5t138 -85.5t89.5 -140.5t34 -203.5q0 -491 -623 -491h-215v-539zM487 1243v-446h228q151 0 217.5 56.5t66.5 168.5q0 110 -66 165.5t-218 55.5h-228z" />
    <glyph glyph-name="Q" unicode="Q" horiz-adv-x="1597" 
d="M1341 -406h-235q-225 0 -358.5 112t-139.5 290q-112 26 -206 87t-166.5 154.5t-113 227t-40.5 293.5q0 155 39 285.5t107 221.5t159 155t194.5 94t215.5 30q111 0 214 -30t194 -94t158.5 -155t106.5 -221.5t39 -285.5q0 -166 -44.5 -304t-122.5 -232t-178 -153t-218 -81
q10 -30 26 -52t40.5 -36t48.5 -22.5t60.5 -12.5t65.5 -5t75 -1h129zM797 240q175 0 277 140t102 378q0 237 -102 373.5t-277 136.5q-177 0 -280 -136.5t-103 -373.5q0 -238 103 -378t280 -140z" />
    <glyph glyph-name="R" unicode="R" horiz-adv-x="1443" 
d="M483 0h-327v1516h569q290 0 443 -112.5t153 -356.5q0 -176 -79.5 -281t-235.5 -152l344 -589l-324 -50l-350 596h-193v-571zM483 1243v-414h228q148 0 216 48t68 161q0 110 -68 157.5t-216 47.5h-228z" />
    <glyph glyph-name="S" unicode="S" horiz-adv-x="1417" 
d="M735 -29q-369 0 -661 271l174 223q90 -93 223 -161t254 -68q125 0 199.5 44.5t74.5 129.5q0 81 -72 127.5t-235 91.5q-204 57 -283 92q-186 80 -242 217q-28 68 -28 154q0 209 151 330.5t396 121.5q164 0 315 -61t271 -158l-154 -238q-89 77 -206 131t-218 54
q-108 0 -168.5 -41.5t-60.5 -110.5q0 -36 14 -64.5t37 -49t65.5 -40t85 -33t109.5 -32.5q71 -19 115 -32.5t109 -37.5t105 -46.5t86.5 -59t72.5 -76.5t43.5 -96t17.5 -121q0 -93 -36.5 -175t-107.5 -146.5t-185.5 -102t-260.5 -37.5z" />
    <glyph glyph-name="T" unicode="T" horiz-adv-x="1327" 
d="M829 0h-333v1237h-451v279h1212l50 -279h-478v-1237z" />
    <glyph glyph-name="U" unicode="U" horiz-adv-x="1484" 
d="M743 -25q-308 0 -460 159t-152 446v936h334v-928q0 -342 283 -342q145 0 211.5 86t66.5 256v928h328v-934q0 -289 -151.5 -448t-459.5 -159z" />
    <glyph glyph-name="V" unicode="V" horiz-adv-x="1429" 
d="M872 -6h-315l-514 1497l322 49l354 -1108h4l358 1084h314z" />
    <glyph glyph-name="W" unicode="W" horiz-adv-x="1957" 
d="M735 0h-289l-397 1491l324 49l166 -715q53 -204 73 -331h4q16 111 70 329l154 693h307l164 -697q7 -30 20 -81t19.5 -78.5t15.5 -72.5t16 -93h4q7 49 15.5 93.5t14.5 69.5t19 78t19 80l154 701h307l-395 -1516h-285l-240 1055h-4z" />
    <glyph glyph-name="X" unicode="X" horiz-adv-x="1484" 
d="M418 0h-352l485 801l-428 690l350 49l283 -481l258 457h346l-432 -717l477 -774l-340 -50l-334 557z" />
    <glyph glyph-name="Y" unicode="Y" horiz-adv-x="1415" 
d="M872 0h-331v643l-508 848l315 49l361 -614l348 590h340l-525 -873v-643z" />
    <glyph glyph-name="Z" unicode="Z" horiz-adv-x="1351" 
d="M1296 0h-1235v229l791 1010h-715l-49 277h1184v-238l-774 -1008h749z" />
    <glyph glyph-name="bracketleft" unicode="[" horiz-adv-x="909" 
d="M850 -410h-709v1926h709v-230h-377v-1466h377v-230z" />
    <glyph glyph-name="backslash" unicode="\" horiz-adv-x="1251" 
d="M1235 0h-338l-881 1516h338z" />
    <glyph glyph-name="bracketright" unicode="]" horiz-adv-x="909" 
d="M766 -410h-709v230h377v1466h-377v230h709v-1926z" />
    <glyph glyph-name="asciicircum" unicode="^" horiz-adv-x="1323" 
d="M100 668l478 848h178l475 -848h-268l-297 516l-295 -516h-271z" />
    <glyph glyph-name="underscore" unicode="_" horiz-adv-x="1024" 
d="M1024 -324h-1024v230h1024v-230z" />
    <glyph glyph-name="grave" unicode="`" horiz-adv-x="1024" 
d="M504 1208l-303 355h329l191 -355h-217z" />
    <glyph glyph-name="a" unicode="a" horiz-adv-x="1181" 
d="M496 231q154 0 249 95v202q-370 -38 -370 -192q0 -51 32.5 -78t88.5 -27zM365 -16q-131 0 -221.5 80t-90.5 215q0 190 167.5 295.5t524.5 134.5v26q0 131 -163 131q-157 0 -318 -129l-178 178q217 199 543 199q229 0 333.5 -106.5t104.5 -321.5v-686h-297l-25 160
q-156 -176 -380 -176z" />
    <glyph glyph-name="b" unicode="b" horiz-adv-x="1277" 
d="M786 -16q-202 0 -331 145l-25 -129h-305v1491l330 49v-616q137 190 336 190q192 0 305.5 -146t113.5 -421t-115 -419t-309 -144zM674 231q102 0 154.5 81.5t52.5 232.5q0 141 -52 219t-159 78q-108 0 -215 -107v-403q56 -53 105.5 -77t113.5 -24z" />
    <glyph glyph-name="c" unicode="c" horiz-adv-x="1136" 
d="M602 -23q-80 0 -154 18t-145 60.5t-122.5 106t-83 162t-31.5 221.5q0 126 34.5 226t89 163t128.5 104.5t147.5 58.5t150.5 17q154 0 279 -72t190 -217l-239 -123q-38 90 -92 130t-138 40q-104 0 -162.5 -84.5t-58.5 -244.5q0 -156 53.5 -245t169.5 -89q163 0 250 197
l244 -121q-50 -107 -132 -177.5t-175.5 -100.5t-202.5 -30z" />
    <glyph glyph-name="d" unicode="d" horiz-adv-x="1277" 
d="M608 231q110 0 213 107v403q-56 53 -105.5 77t-111.5 24q-103 0 -156 -77t-53 -226q0 -142 53.5 -225t159.5 -83zM485 -16q-193 0 -306 139.5t-113 413.5q0 276 115.5 426.5t307.5 150.5q214 0 332 -160v537l330 49v-1540h-305l-25 164q-132 -180 -336 -180z" />
    <glyph glyph-name="e" unicode="e" horiz-adv-x="1181" 
d="M623 -23q-89 0 -168 18t-151 60.5t-124 106.5t-83 162t-31 221q0 122 35.5 221.5t92 162.5t130.5 106t146.5 61t143.5 18q51 0 99 -7.5t99 -26.5t94.5 -49t82.5 -78t67 -109.5t44 -148t16 -189.5v-49h-723q11 -129 78 -189.5t176 -60.5q92 0 180.5 35t147.5 88l123 -189
q-191 -164 -475 -164zM397 651h424q-24 228 -209 228q-81 0 -139 -56.5t-76 -171.5z" />
    <glyph glyph-name="f" unicode="f" horiz-adv-x="829" 
d="M551 0h-328v852h-182v240h182v75q0 60 8 107.5t32.5 96t65 80.5t110 52.5t163.5 20.5q46 0 109 -5.5t80 -9.5l18 -235q-35 14 -104 14q-73 0 -113.5 -26t-40.5 -105v-65h237v-240h-237v-852z" />
    <glyph glyph-name="g" unicode="g" horiz-adv-x="1259" 
d="M578 516q88 0 137 54.5t49 140.5t-48.5 140t-137.5 54q-88 0 -137.5 -54t-49.5 -140t50 -140.5t137 -54.5zM555 -410q-157 0 -267.5 16.5t-175 49t-93.5 76.5t-29 104q0 74 52.5 129.5t135.5 89.5q-74 49 -74 131q0 64 44 121.5t114 102.5q-88 52 -134 133t-46 180
q0 170 131 280.5t360 110.5q235 0 367 -119q54 46 125.5 77.5t134.5 35.5l41 -252q-112 0 -205 -25q21 -51 21 -108q0 -171 -128 -280t-356 -109q-79 0 -167 18q-37 -29 -37 -55q0 -29 28.5 -39.5t94.5 -13.5l163 -11q281 -10 404 -82.5t123 -226.5q0 -109 -82 -185.5
t-221 -112.5t-324 -36zM608 -244q128 0 206.5 30t78.5 83q0 37 -18.5 57t-82.5 34t-190 20l-172 8q-38 3 -72 6q-61 -40 -61 -98q0 -72 73 -106t238 -34z" />
    <glyph glyph-name="h" unicode="h" horiz-adv-x="1265" 
d="M455 0h-330v1491l330 49v-620q149 194 376 194q147 0 233.5 -77.5t86.5 -239.5v-797h-330v692q0 75 -30.5 112.5t-96.5 37.5q-111 0 -239 -109v-733z" />
    <glyph glyph-name="i" unicode="i" horiz-adv-x="602" 
d="M299 1198q-87 0 -135.5 47.5t-48.5 118.5q0 72 48.5 119t135.5 47q89 0 138.5 -47t49.5 -119q0 -71 -49.5 -118.5t-138.5 -47.5zM465 0h-328v1092h328v-1092z" />
    <glyph glyph-name="j" unicode="j" horiz-adv-x="602" 
d="M299 1198q-87 0 -135.5 47.5t-48.5 118.5q0 72 48.5 119t135.5 47q89 0 138.5 -47t49.5 -119q0 -71 -49.5 -118.5t-138.5 -47.5zM111 -416q-125 0 -193 15l-18 229q46 -12 104 -12q68 0 100.5 35t32.5 114v1127h328v-1135q0 -62 -6.5 -109.5t-28.5 -99.5t-59 -86
t-103.5 -56t-156.5 -22z" />
    <glyph glyph-name="k" unicode="k" horiz-adv-x="1198" 
d="M455 0h-330v1491l330 49v-856l340 408h354l-356 -408l383 -659l-314 -50l-274 469l-133 -149v-295z" />
    <glyph glyph-name="l" unicode="l" horiz-adv-x="602" 
d="M465 0h-328v1491l328 49v-1540z" />
    <glyph glyph-name="m" unicode="m" horiz-adv-x="1908" 
d="M455 0h-330v1092h305l25 -172q61 80 151.5 137t206.5 57q248 0 299 -194q62 79 153.5 136.5t207.5 57.5q160 0 239.5 -90.5t79.5 -243.5v-780h-330v692q0 78 -25 114t-94 36q-57 0 -107 -27.5t-112 -81.5v-733h-329v692q0 78 -25 114t-94 36q-57 0 -107 -27t-114 -82
v-733z" />
    <glyph glyph-name="n" unicode="n" horiz-adv-x="1265" 
d="M457 0h-330v1092h305l25 -172q149 194 377 194q146 0 231.5 -77.5t85.5 -239.5v-797h-328v692q0 75 -30.5 112.5t-98.5 37.5q-109 0 -237 -109v-733z" />
    <glyph glyph-name="o" unicode="o" horiz-adv-x="1247" 
d="M625 -23q-83 0 -160 18t-150.5 60.5t-128 106t-87.5 162t-33 221.5q0 124 33 223t87 162.5t127.5 106t150.5 60t161 17.5q83 0 159.5 -17.5t150 -60t127.5 -106t87 -162.5t33 -223q0 -123 -33 -221.5t-87 -162t-127.5 -106t-150 -60.5t-159.5 -18zM625 209
q113 0 170 89.5t57 244.5q0 147 -55.5 238t-171.5 91q-115 0 -172.5 -88t-57.5 -241q0 -96 21.5 -168t74.5 -119t134 -47z" />
    <glyph glyph-name="p" unicode="p" horiz-adv-x="1277" 
d="M674 231q102 0 154.5 81.5t52.5 232.5q0 141 -52 219t-159 78q-108 0 -215 -107v-403q56 -53 105.5 -77t113.5 -24zM455 -385l-330 -49v1526h305l25 -166q138 188 336 188q192 0 305.5 -146t113.5 -421t-115 -419t-309 -144q-202 0 -331 145v-514z" />
    <glyph glyph-name="q" unicode="q" horiz-adv-x="1277" 
d="M821 -434v590q-138 -172 -336 -172q-193 0 -306 139.5t-113 413.5q0 276 115.5 426.5t307.5 150.5q210 0 332 -158l25 136h305v-1477zM608 231q110 0 213 107v403q-56 53 -105.5 77t-111.5 24q-103 0 -156 -77t-53 -226q0 -142 53.5 -225t159.5 -83z" />
    <glyph glyph-name="r" unicode="r" horiz-adv-x="866" 
d="M455 0h-330v1092h305l25 -183h2q26 40 53.5 71t70 64t101 51.5t127.5 18.5h8l31 -293q-27 4 -76 4q-204 0 -317 -147v-678z" />
    <glyph glyph-name="s" unicode="s" horiz-adv-x="1093" 
d="M555 -23q-278 0 -504 156l111 193q85 -59 191.5 -98.5t201.5 -39.5q79 0 126.5 27.5t47.5 79.5q0 55 -45.5 82.5t-161.5 48.5q-41 7 -69.5 13t-67.5 15.5t-66 19.5t-60 25.5t-55 33t-44.5 41.5t-35.5 52t-21.5 64t-8.5 78q0 161 118.5 253.5t305.5 92.5q144 0 255 -33
t216 -96l-100 -197q-84 50 -174 77.5t-168 27.5q-70 0 -109 -25.5t-39 -70.5q0 -48 44.5 -72.5t150.5 -44.5q43 -7 72.5 -13t69.5 -15.5t68.5 -19.5t62 -25t56.5 -32t46 -40.5t36.5 -50.5t22 -62.5t8.5 -75.5q0 -96 -39 -168.5t-107.5 -115.5t-152.5 -64t-182 -21z" />
    <glyph glyph-name="t" unicode="t" horiz-adv-x="874" 
d="M584 -14q-198 0 -284.5 75t-86.5 267v524h-182v240h182v350l328 49v-399h280v-240h-280v-487q0 -82 35 -111t106 -29q50 0 113 19l22 -240q-23 -5 -101 -11.5t-132 -6.5z" />
    <glyph glyph-name="u" unicode="u" horiz-adv-x="1265" 
d="M434 -23q-147 0 -233 78t-86 240v797h329v-701q0 -75 31 -113t98 -38q109 0 238 110v742h330v-1092h-305l-25 170q-152 -193 -377 -193z" />
    <glyph glyph-name="v" unicode="v" horiz-adv-x="1105" 
d="M719 -2h-332l-383 1069l324 49l237 -751h4l230 727h309z" />
    <glyph glyph-name="w" unicode="w" horiz-adv-x="1587" 
d="M627 0h-303l-312 1067l318 49l100 -416q53 -225 72 -333h4q34 183 76 342l94 383h256l100 -390q32 -112 78 -335h4q36 185 76 331l100 394h293l-319 -1092h-306l-163 666h-4z" />
    <glyph glyph-name="x" unicode="x" horiz-adv-x="1122" 
d="M354 0h-331l374 563l-331 504l315 49l203 -325l178 301h332l-353 -529l353 -538l-312 -50l-225 355z" />
    <glyph glyph-name="y" unicode="y" horiz-adv-x="1146" 
d="M297 -418q-124 0 -205 17l-24 274q98 -27 194 -27q54 0 86.5 22t52.5 73l21 53l-408 1073l324 49l246 -733h4l241 709h320l-459 -1207q-40 -100 -86.5 -163.5t-123.5 -101.5t-183 -38z" />
    <glyph glyph-name="z" unicode="z" horiz-adv-x="1085" 
d="M1057 0h-998v170l529 682h-469l-41 240h917v-174l-530 -685h551z" />
    <glyph glyph-name="braceleft" unicode="{" horiz-adv-x="903" 
d="M860 -410h-291q-138 0 -214 83.5t-76 220.5v296q0 75 -13.5 123.5t-43.5 75t-70 37t-101 10.5v234q123 0 175.5 50.5t52.5 194.5v297q0 137 76 220.5t214 83.5h291v-230h-90q-160 0 -160 -162v-254q0 -144 -43 -215t-131 -100v-4q88 -29 131 -100t43 -215v-254
q0 -162 160 -162h90v-230z" />
    <glyph glyph-name="bar" unicode="|" horiz-adv-x="819" 
d="M571 -410h-325v1926h325v-1926z" />
    <glyph glyph-name="braceright" unicode="}" horiz-adv-x="903" 
d="M365 -410h-322v230h90q160 0 160 162v284q0 74 11 123.5t35.5 81t53 48.5t74.5 32v4q-46 15 -74.5 32t-53 48.5t-35.5 81t-11 123.5v284q0 164 -158 164h-90l-2 228h322q138 0 199 -68t61 -205v-328q0 -75 13 -123t43 -75t70 -37t101 -10v-234q-61 0 -101 -10.5
t-69.5 -37t-43 -75t-13.5 -123.5v-327q0 -137 -61 -205t-199 -68z" />
    <glyph glyph-name="asciitilde" unicode="~" horiz-adv-x="1323" 
d="M932 528q-77 1 -188.5 34t-208.5 66t-138 34q-38 0 -59.5 -19.5t-28.5 -73.5l-192 33q20 163 90 238t182 73q65 -1 150.5 -22t152 -45.5t133.5 -45.5t101 -22q39 0 61 20t29 74l190 -24q-20 -165 -91.5 -244t-182.5 -76z" />
    <glyph glyph-name="exclamdown" unicode="&#xa1;" horiz-adv-x="731" 
d="M360 1532q92 0 143.5 -50t51.5 -124q0 -75 -51.5 -124.5t-143.5 -49.5q-93 0 -145.5 49.5t-52.5 124.5q0 74 52.5 124t145.5 50zM233 1036h248l84 -1036h-413z" />
    <glyph glyph-name="cent" unicode="&#xa2;" horiz-adv-x="1146" 
d="M428 291l174 588q-103 -3 -168 -88.5t-65 -247.5q0 -169 59 -252zM256 -264l88 299q-126 65 -202 192.5t-76 317.5q0 121 34 220t89 162.5t128 106.5t147 61.5t150 18.5q34 0 48 -2l57 195h168l-68 -226q197 -69 279 -301l-254 -92q-32 104 -105 154l-186 -635
q32 -4 53 -4q75 0 142.5 48.5t103.5 151.5l250 -94q-137 -332 -502 -332q-52 0 -102 9l-74 -250h-168z" />
    <glyph glyph-name="sterling" unicode="&#xa3;" horiz-adv-x="1411" 
d="M465 684h-281v178h172q-77 140 -77 260q0 182 126 302t332 120q86 0 157 -15.5t121.5 -45.5t88 -66t64 -84.5t42.5 -93.5t29 -100l-287 -62q-18 99 -62 156t-138 57q-71 0 -113.5 -44.5t-42.5 -121.5q0 -44 16.5 -94t31 -77t50.5 -91h365v-178h-277q39 -107 39 -223
q0 -111 -51 -213q82 -45 154 -45q80 0 121 47.5t45 171.5h280q-4 -75 -14.5 -134t-37 -121t-67.5 -103t-110 -67t-160 -26q-183 0 -342 113q-142 -113 -322 -113q-79 0 -143 24t-106.5 80.5t-42.5 137.5q0 124 86 195t204 71q106 0 224 -71v38q-4 70 -22 123t-52 115z
M481 219q-47 44 -84 66t-75 22q-41 0 -65 -23.5t-24 -62.5q0 -37 24.5 -60.5t66.5 -23.5q98 0 157 82z" />
    <glyph glyph-name="currency" unicode="&#xa4;" horiz-adv-x="1323" 
d="M662 522q92 0 148 61t56 162t-56 161.5t-148 60.5q-93 0 -149 -60.5t-56 -161.5t56.5 -162t148.5 -61zM662 342q-100 0 -175 37l-196 -197l-193 191l197 196q-41 77 -41 174q0 96 37 175l-193 192l193 190l194 -192q80 39 177 39q92 0 174 -37l190 190l193 -190
l-189 -188q39 -80 39 -174q0 -102 -41 -179l195 -190l-193 -193l-192 195q-77 -39 -176 -39z" />
    <glyph glyph-name="yen" unicode="&#xa5;" horiz-adv-x="1400" 
d="M866 0h-334v188h-366v179h366v139h-366v176h360l-497 834h346l327 -560l328 560h342l-502 -834h367v-176h-371v-139h371v-179h-371v-188z" />
    <glyph glyph-name="brokenbar" unicode="&#xa6;" horiz-adv-x="819" 
d="M571 678h-325v838h325v-838zM571 -410h-325v838h325v-838z" />
    <glyph glyph-name="section" unicode="&#xa7;" horiz-adv-x="1193" 
d="M725 340q92 63 92 139q0 73 -49.5 123.5t-212.5 142.5q-28 15 -88 50q-92 -63 -92 -140q0 -73 49.5 -123.5t212.5 -142.5q29 -14 88 -49zM592 -410q-91 0 -164.5 17.5t-121.5 44.5t-85 67t-57 78t-35 84l236 105q66 -179 213 -179q141 0 141 132q0 32 -16 60.5t-54 58
t-76 52.5t-106 60q-55 31 -88.5 51t-81.5 53t-76.5 63t-57 69.5t-41.5 85.5t-13 98q0 103 56.5 184t137.5 133q-71 60 -103 124.5t-32 148.5q0 157 115.5 260.5t316.5 103.5q381 0 471 -291l-233 -104q-66 178 -224 178q-80 0 -115.5 -37t-35.5 -94q0 -26 14 -51t32 -43.5
t59 -45t69 -42.5t88 -49q55 -31 88.5 -51t81.5 -53t76.5 -63t57 -69.5t41.5 -85.5t13 -98q0 -105 -57 -186.5t-139 -133.5q69 -60 98 -122.5t29 -147.5q0 -158 -111.5 -261.5t-310.5 -103.5z" />
    <glyph glyph-name="dieresis" unicode="&#xa8;" horiz-adv-x="1085" 
d="M760 1182q-74 0 -116 47.5t-42 118.5q0 70 42 116.5t116 46.5q77 0 119.5 -46t42.5 -117t-43 -118.5t-119 -47.5zM322 1182q-74 0 -116 47.5t-42 118.5q0 70 42 116.5t116 46.5q77 0 119 -46t42 -117t-42.5 -118.5t-118.5 -47.5z" />
    <glyph glyph-name="copyright" unicode="&#xa9;" horiz-adv-x="1775" 
d="M885 -29q-219 0 -398.5 103t-282 282.5t-102.5 397.5q0 164 61.5 310.5t166 251.5t251 166.5t310.5 61.5q163 0 308 -60.5t249 -164.5t164.5 -249t60.5 -308q0 -164 -61.5 -310.5t-166.5 -252t-251 -167t-309 -61.5zM891 115q133 0 249 48.5t198.5 133t130 203
t47.5 254.5q0 182 -81.5 330t-226.5 232.5t-323 84.5q-133 0 -249 -48.5t-198.5 -133t-130 -203t-47.5 -254.5q0 -182 81.5 -330t226.5 -232.5t323 -84.5zM891 317q-167 0 -271 118t-104 327q0 208 103.5 325t277.5 117q121 0 202.5 -51.5t117.5 -144.5l-170 -88
q-40 112 -148 112q-80 0 -129 -74t-49 -196q0 -125 48 -196.5t130 -71.5q110 0 148 112l180 -69q-88 -220 -336 -220z" />
    <glyph glyph-name="ordfeminine" unicode="&#xaa;" horiz-adv-x="915" 
d="M393 913q102 0 172 70v141q-254 -24 -254 -139q0 -35 22 -53.5t60 -18.5zM301 737q-94 0 -156.5 52.5t-62.5 148.5q0 272 483 311v19q0 88 -102 88q-127 0 -227 -80l-121 119q148 137 383 137q156 0 227.5 -73.5t71.5 -225.5v-479h-213l-19 108q-109 -125 -264 -125z" />
    <glyph glyph-name="guillemotleft" unicode="&#xab;" horiz-adv-x="1296" 
d="M702 0h-313l-340 547l340 545h313l-325 -545zM1237 0h-313l-342 547l342 545h313l-328 -545z" />
    <glyph glyph-name="logicalnot" unicode="&#xac;" horiz-adv-x="1318" 
d="M1182 848v-668h-260v412h-785v256h1045z" />
    <glyph glyph-name="registered" unicode="&#xae;" horiz-adv-x="1083" 
d="M539 600q-199 0 -334 135.5t-135 335.5q0 201 137 338t338 137q198 0 333.5 -136t135.5 -335q0 -201 -137 -338t-338 -137zM545 690q160 0 266.5 108.5t106.5 272.5q0 165 -108.5 276t-270.5 111q-160 0 -266.5 -109.5t-106.5 -273.5q0 -165 107.5 -275t271.5 -110z
M354 825v516h201q96 0 147.5 -42.5t51.5 -127.5q0 -105 -92 -149l98 -186l-125 -17l-94 189h-62v-183h-125zM479 1100h68q86 0 86 65q0 66 -86 66h-68v-131z" />
    <glyph glyph-name="macron" unicode="&#xaf;" horiz-adv-x="1024" 
d="M172 1196v234h680v-234h-680z" />
    <glyph glyph-name="degree" unicode="&#xb0;" horiz-adv-x="849" 
d="M426 885q-145 0 -239.5 92.5t-94.5 234.5t94.5 235t239.5 93q143 0 237.5 -92t94.5 -234t-94.5 -235.5t-237.5 -93.5zM426 1040q69 0 112.5 48t43.5 126q0 77 -43 123.5t-113 46.5q-71 0 -114.5 -46.5t-43.5 -123.5q0 -78 43.5 -126t114.5 -48z" />
    <glyph glyph-name="plusminus" unicode="&#xb1;" horiz-adv-x="1323" 
d="M137 31v239h395v336h-395v254h395v412h259v-412h395v-254h-395v-336h395v-239h-1049z" />
    <glyph glyph-name="two.sups" unicode="&#xb2;" horiz-adv-x="978" 
d="M115 541v53q0 40 3.5 71.5t13 70t29.5 73.5t50.5 73t78.5 77t111 77q124 76 149 98q41 36 44 87v10q0 41 -25 63.5t-71 22.5q-50 0 -106.5 -37.5t-100.5 -110.5l-178 129q75 120 169 179t222 59q169 0 255.5 -79.5t86.5 -219.5q0 -93 -53 -172.5t-193 -155.5
q-155 -87 -180 -157h416l30 -211h-751z" />
    <glyph glyph-name="three.sups" unicode="&#xb3;" horiz-adv-x="978" 
d="M481 524q-125 0 -228 51.5t-169 149.5l160 139q93 -127 215 -127q145 0 145 107q0 63 -45 90t-147 27h-78v182h82q93 0 131.5 24.5t38.5 71.5q0 37 -27.5 58.5t-77.5 21.5q-120 0 -223 -98l-139 161q161 154 383 154q166 0 254 -70t88 -196q0 -70 -36 -125.5t-110 -81.5
q176 -54 176 -225q0 -151 -105.5 -232.5t-287.5 -81.5z" />
    <glyph glyph-name="acute" unicode="&#xb4;" horiz-adv-x="1024" 
d="M303 1208l191 355h331l-305 -355h-217z" />
    <glyph glyph-name="uni00B5" unicode="&#xb5;" horiz-adv-x="1275" 
d="M455 -410h-330v1502h330v-695q0 -149 129 -149q114 0 237 110v734h330v-1092h-330v170q-111 -137 -258 -172q-68 -10 -108 8v-416z" />
    <glyph glyph-name="paragraph" unicode="&#xb6;" horiz-adv-x="1306" 
d="M809 -410h-223v1051q-241 4 -369.5 116t-128.5 318q0 92 31 172t89.5 140t148 94.5t200.5 34.5h647v-1926h-221v1680h-174v-1680z" />
    <glyph glyph-name="periodcentered" unicode="&#xb7;" horiz-adv-x="591" 
d="M295 516q-92 0 -143.5 50t-51.5 124q0 75 51.5 124.5t143.5 49.5q93 0 146 -49.5t53 -124.5q0 -74 -53 -124t-146 -50z" />
    <glyph glyph-name="cedilla" unicode="&#xb8;" horiz-adv-x="1024" 
d="M539 -414q-187 0 -303 76l59 98q91 -61 217 -61q102 0 102 70q0 55 -65 55q-44 0 -88 -35l-82 41l53 170h135l-22 -94q50 31 131 31q62 0 105.5 -38.5t43.5 -105.5q0 -94 -81.5 -150.5t-204.5 -56.5z" />
    <glyph glyph-name="one.sups" unicode="&#xb9;" horiz-adv-x="790" 
d="M569 537h-264v772l-151 -41l-33 180l231 68h217v-979z" />
    <glyph glyph-name="ordmasculine" unicode="&#xba;" horiz-adv-x="954" 
d="M477 737q-58 0 -112.5 12.5t-106 42.5t-90 74.5t-61.5 113.5t-23 155q0 88 23.5 157.5t61.5 114t90 74t105.5 41.5t112.5 12t112.5 -12t105.5 -41.5t90 -74t61.5 -114t23.5 -157.5q0 -86 -23 -155t-61.5 -113.5t-90 -74.5t-106 -42.5t-112.5 -12.5zM477 905
q79 0 118.5 62t39.5 168q0 102 -38.5 164.5t-119.5 62.5q-79 0 -118.5 -61t-39.5 -166q0 -103 38 -166.5t120 -63.5z" />
    <glyph glyph-name="guillemotright" unicode="&#xbb;" horiz-adv-x="1296" 
d="M375 0h-314l326 547l-326 545h314l340 -545zM907 0h-313l328 547l-328 545h313l342 -545z" />
    <glyph glyph-name="onequarter" unicode="&#xbc;" horiz-adv-x="2168" 
d="M465 0l905 1516h283l-905 -1516h-283zM578 537h-263v725l-145 -25l-37 211l266 65h179v-976zM1665 0v203h-440v166l430 610h272v-573h154v-203h-154v-203h-262zM1468 389h213v311z" />
    <glyph glyph-name="onehalf" unicode="&#xbd;" horiz-adv-x="2234" 
d="M465 0l905 1516h283l-905 -1516h-283zM578 537h-263v725l-145 -25l-37 211l266 65h179v-976zM1374 0v53q0 60 9.5 107t37.5 104t88 115t152 117q112 72 139 96q47 45 47 100q0 41 -25 62.5t-69 21.5q-49 0 -104.5 -37t-98.5 -110l-178 129q76 120 169 178.5t222 58.5
q162 0 252 -80.5t90 -218.5q0 -93 -51.5 -172t-187.5 -155q-154 -86 -180 -158h425v-211h-737z" />
    <glyph glyph-name="threequarters" unicode="&#xbe;" horiz-adv-x="2248" 
d="M586 0l905 1516h283l-906 -1516h-282zM1745 0v203h-440v166l430 610h272v-573h154v-203h-154v-203h-262zM481 524q-125 0 -228 51.5t-169 149.5l160 139q93 -127 215 -127q145 0 145 107q0 63 -45 90t-147 27h-78v182h82q93 0 131.5 24.5t38.5 71.5q0 37 -27.5 58.5
t-77.5 21.5q-120 0 -223 -98l-139 161q161 154 383 154q166 0 254 -70t88 -196q0 -70 -36 -125.5t-110 -81.5q176 -54 176 -225q0 -151 -105.5 -232.5t-287.5 -81.5zM1548 389h213v311z" />
    <glyph glyph-name="questiondown" unicode="&#xbf;" horiz-adv-x="1216" 
d="M651 1532q92 0 143.5 -50t51.5 -124q0 -75 -51.5 -124.5t-143.5 -49.5q-93 0 -145.5 49.5t-52.5 124.5q0 74 52.5 124t145.5 50zM514 1040h270q9 -82 9 -147q0 -108 -57.5 -181.5t-160.5 -129.5q-90 -50 -126.5 -93.5t-36.5 -115.5q0 -63 51 -101.5t141 -38.5
q102 0 199 53.5t158 131.5l188 -201q-96 -111 -241.5 -178.5t-338.5 -67.5q-228 0 -354.5 104t-126.5 271q0 69 18 124.5t54 97.5t75.5 72t94.5 60q28 15 49.5 27t40 26t31.5 23.5t23.5 25.5t16.5 25.5t11 31t7 33.5t3.5 40.5t1.5 46v55.5v6z" />
    <glyph glyph-name="Agrave" unicode="&#xc0;" horiz-adv-x="1460" 
d="M643 1604l-303 354h330l190 -354h-217zM342 0h-307l536 1522h318l528 -1497l-321 -50l-121 363h-516zM719 1096l-178 -516h356l-174 516h-4z" />
    <glyph glyph-name="Aacute" unicode="&#xc1;" horiz-adv-x="1460" 
d="M598 1604l190 354h332l-305 -354h-217zM342 0h-307l536 1522h318l528 -1497l-321 -50l-121 363h-516zM719 1096l-178 -516h356l-174 516h-4z" />
    <glyph glyph-name="Acircumflex" unicode="&#xc2;" horiz-adv-x="1460" 
d="M356 1608l265 350h219l264 -350h-186l-191 151l-184 -151h-187zM342 0h-307l536 1522h318l528 -1497l-321 -50l-121 363h-516zM719 1096l-178 -516h356l-174 516h-4z" />
    <glyph glyph-name="Atilde" unicode="&#xc3;" horiz-adv-x="1460" 
d="M887 1583q-51 0 -97.5 18t-75 39.5t-63 39.5t-63.5 18q-86 0 -80 -125l-178 29q0 151 65 231t178 80q51 0 97.5 -18t75 -39.5t63 -39.5t63.5 -18q86 0 80 125l176 -29q0 -150 -64.5 -230.5t-176.5 -80.5zM342 0h-307l536 1522h318l528 -1497l-321 -50l-121 363h-516z
M719 1096l-178 -516h356l-174 516h-4z" />
    <glyph glyph-name="Adieresis" unicode="&#xc4;" horiz-adv-x="1460" 
d="M946 1577q-74 0 -116 47.5t-42 118.5q0 70 42 117t116 47q77 0 119.5 -46.5t42.5 -117.5t-43 -118.5t-119 -47.5zM508 1577q-74 0 -116 47.5t-42 118.5q0 70 42 117t116 47q77 0 119.5 -46.5t42.5 -117.5t-43 -118.5t-119 -47.5zM342 0h-307l536 1522h318l528 -1497
l-321 -50l-121 363h-516zM719 1096l-178 -516h356l-174 516h-4z" />
    <glyph glyph-name="Aring" unicode="&#xc5;" horiz-adv-x="1460" 
d="M37 0l522 1485q-53 56 -53 139q0 95 64 159t161 64q95 0 159 -64t64 -159q0 -87 -53 -137l516 -1462l-321 -50l-121 365h-516l-117 -340h-305zM731 1526q40 0 67 28t27 70q0 41 -27 69.5t-67 28.5q-41 0 -67.5 -28t-26.5 -70q0 -43 26.5 -70.5t67.5 -27.5zM541 580h356
l-174 518h-4z" />
    <glyph glyph-name="AE" unicode="&#xc6;" horiz-adv-x="2199" 
d="M1059 1235l-314 -557h316v557h-2zM367 0h-336l862 1516h1194v-279h-696v-326h479l49 -264h-528v-377h733v-270h-1063v430h-455z" />
    <glyph glyph-name="Ccedilla" unicode="&#xc7;" horiz-adv-x="1472" 
d="M782 -414q-187 0 -303 76l60 98q91 -61 217 -61q102 0 102 70q0 55 -65 55q-44 0 -88 -35l-82 41l47 150q-129 16 -235 72.5t-185 151.5t-122.5 237t-43.5 319q0 192 53 343.5t146.5 246.5t215 144.5t263.5 49.5q226 0 371.5 -90t232.5 -272l-281 -142
q-43 99 -124.5 163.5t-198.5 64.5q-171 0 -257.5 -133.5t-86.5 -374.5q0 -244 93 -382t271 -138q126 0 211 72t125 196l287 -100q-148 -426 -600 -437l-17 -65q50 31 132 31q62 0 105.5 -38.5t43.5 -105.5q0 -94 -82 -150.5t-205 -56.5z" />
    <glyph glyph-name="Egrave" unicode="&#xc8;" horiz-adv-x="1296" 
d="M625 1604l-303 354h329l191 -354h-217zM1225 0h-1069v1516h1032v-279h-699v-326h543l49 -264h-592v-377h736v-270z" />
    <glyph glyph-name="Eacute" unicode="&#xc9;" horiz-adv-x="1296" 
d="M483 1604l191 354h332l-306 -354h-217zM1225 0h-1069v1516h1032v-279h-699v-326h543l49 -264h-592v-377h736v-270z" />
    <glyph glyph-name="Ecircumflex" unicode="&#xca;" horiz-adv-x="1296" 
d="M295 1608l264 350h219l264 -350h-186l-190 151l-185 -151h-186zM1225 0h-1069v1516h1032v-279h-699v-326h543l49 -264h-592v-377h736v-270z" />
    <glyph glyph-name="Edieresis" unicode="&#xcb;" horiz-adv-x="1296" 
d="M895 1577q-74 0 -116 47.5t-42 118.5q0 70 42 117t116 47q77 0 119.5 -46.5t42.5 -117.5t-43 -118.5t-119 -47.5zM457 1577q-74 0 -116 47.5t-42 118.5q0 70 42 117t116 47q76 0 118.5 -46.5t42.5 -117.5t-42.5 -118.5t-118.5 -47.5zM1225 0h-1069v1516h1032v-279h-699
v-326h543l49 -264h-592v-377h736v-270z" />
    <glyph glyph-name="Igrave" unicode="&#xcc;" horiz-adv-x="675" 
d="M258 1604l-303 354h330l190 -354h-217zM504 0h-332v1516h332v-1516z" />
    <glyph glyph-name="Iacute" unicode="&#xcd;" horiz-adv-x="675" 
d="M209 1604l190 354h332l-305 -354h-217zM504 0h-332v1516h332v-1516z" />
    <glyph glyph-name="Icircumflex" unicode="&#xce;" horiz-adv-x="675" 
d="M-35 1608l264 350h220l264 -350h-187l-190 151l-184 -151h-187zM504 0h-332v1516h332v-1516z" />
    <glyph glyph-name="Idieresis" unicode="&#xcf;" horiz-adv-x="675" 
d="M555 1577q-74 0 -116 47.5t-42 118.5q0 70 42 117t116 47q77 0 119.5 -46.5t42.5 -117.5t-43 -118.5t-119 -47.5zM117 1577q-74 0 -116 47.5t-42 118.5q0 70 42 117t116 47q77 0 119.5 -46.5t42.5 -117.5t-43 -118.5t-119 -47.5zM504 0h-332v1516h332v-1516z" />
    <glyph glyph-name="Eth" unicode="&#xd0;" horiz-adv-x="1515" 
d="M621 0h-465v649h-136v250h136v617h465q143 0 262.5 -24.5t222.5 -81t174 -143t111.5 -215.5t40.5 -294q0 -163 -41 -291.5t-112.5 -215.5t-175 -144t-222.5 -82t-260 -25zM487 649v-379h156q245 0 350 115.5t105 376.5q0 247 -107 361t-352 114h-152v-338h308v-250h-308z
" />
    <glyph glyph-name="Ntilde" unicode="&#xd1;" horiz-adv-x="1591" 
d="M961 1583q-51 0 -97.5 18t-75 39.5t-63 39.5t-63.5 18q-86 0 -80 -125l-179 29q0 151 65.5 231t178.5 80q51 0 97.5 -18t75 -39.5t63 -39.5t63.5 -18q86 0 80 125l176 -29q0 -150 -64.5 -230.5t-176.5 -80.5zM463 0h-307v1516h333l635 -967h4v967h308v-1516h-308
l-661 975h-4v-975z" />
    <glyph glyph-name="Ograve" unicode="&#xd2;" horiz-adv-x="1597" 
d="M745 1604l-303 354h330l191 -354h-218zM799 -29q-112 0 -215.5 30t-194.5 94t-159 155.5t-107 222t-39 285.5t39 285.5t107 221.5t159 155t194.5 94t215.5 30q111 0 214 -30t194 -94t158.5 -155t106.5 -221.5t39 -285.5t-39 -285.5t-106.5 -222t-158.5 -155.5t-194 -94
t-214 -30zM799 240q175 0 278 140t103 378q0 237 -103 373.5t-278 136.5q-177 0 -279 -136t-102 -374t102.5 -378t278.5 -140z" />
    <glyph glyph-name="Oacute" unicode="&#xd3;" horiz-adv-x="1597" 
d="M629 1604l190 354h332l-305 -354h-217zM799 -29q-112 0 -215.5 30t-194.5 94t-159 155.5t-107 222t-39 285.5t39 285.5t107 221.5t159 155t194.5 94t215.5 30q111 0 214 -30t194 -94t158.5 -155t106.5 -221.5t39 -285.5t-39 -285.5t-106.5 -222t-158.5 -155.5t-194 -94
t-214 -30zM799 240q175 0 278 140t103 378q0 237 -103 373.5t-278 136.5q-177 0 -279 -136t-102 -374t102.5 -378t278.5 -140z" />
    <glyph glyph-name="Ocircumflex" unicode="&#xd4;" horiz-adv-x="1597" 
d="M424 1608l264 350h219l264 -350h-186l-190 151l-185 -151h-186zM799 -29q-112 0 -215.5 30t-194.5 94t-159 155.5t-107 222t-39 285.5t39 285.5t107 221.5t159 155t194.5 94t215.5 30q111 0 214 -30t194 -94t158.5 -155t106.5 -221.5t39 -285.5t-39 -285.5t-106.5 -222
t-158.5 -155.5t-194 -94t-214 -30zM799 240q175 0 278 140t103 378q0 237 -103 373.5t-278 136.5q-177 0 -279 -136t-102 -374t102.5 -378t278.5 -140z" />
    <glyph glyph-name="Otilde" unicode="&#xd5;" horiz-adv-x="1597" 
d="M952 1583q-51 0 -97.5 18t-75 39.5t-63 39.5t-63.5 18q-86 0 -80 -125l-178 29q0 151 65.5 231t178.5 80q51 0 97.5 -18t75 -39.5t63 -39.5t63.5 -18q86 0 80 125l176 -29q0 -150 -65 -230.5t-177 -80.5zM799 -29q-112 0 -215.5 30t-194.5 94t-159 155.5t-107 222
t-39 285.5t39 285.5t107 221.5t159 155t194.5 94t215.5 30q111 0 214 -30t194 -94t158.5 -155t106.5 -221.5t39 -285.5t-39 -285.5t-106.5 -222t-158.5 -155.5t-194 -94t-214 -30zM799 240q175 0 278 140t103 378q0 237 -103 373.5t-278 136.5q-177 0 -279 -136t-102 -374
t102.5 -378t278.5 -140z" />
    <glyph glyph-name="Odieresis" unicode="&#xd6;" horiz-adv-x="1597" 
d="M1014 1577q-74 0 -116 47.5t-42 118.5q0 70 42 117t116 47q77 0 119.5 -46.5t42.5 -117.5t-43 -118.5t-119 -47.5zM575 1577q-74 0 -115.5 47.5t-41.5 118.5t41.5 117.5t115.5 46.5q77 0 119.5 -46.5t42.5 -117.5t-43 -118.5t-119 -47.5zM799 -29q-112 0 -215.5 30
t-194.5 94t-159 155.5t-107 222t-39 285.5t39 285.5t107 221.5t159 155t194.5 94t215.5 30q111 0 214 -30t194 -94t158.5 -155t106.5 -221.5t39 -285.5t-39 -285.5t-106.5 -222t-158.5 -155.5t-194 -94t-214 -30zM799 240q175 0 278 140t103 378q0 237 -103 373.5
t-278 136.5q-177 0 -279 -136t-102 -374t102.5 -378t278.5 -140z" />
    <glyph glyph-name="multiply" unicode="&#xd7;" horiz-adv-x="1323" 
d="M662 471l-326 -326l-191 193l322 324l-322 319l191 193l323 -322l320 322l192 -193l-319 -319l324 -320l-191 -192z" />
    <glyph glyph-name="Oslash" unicode="&#xd8;" horiz-adv-x="1597" 
d="M453 496l581 690q-95 86 -235 86q-179 0 -284 -138t-105 -376q0 -152 43 -262zM1143 1020l-584 -692q95 -92 240 -92q178 0 282.5 141t104.5 381q0 152 -43 262zM1524 1450l-160 -184q147 -203 147 -508q0 -155 -39 -285.5t-106.5 -222t-158.5 -155.5t-194 -94t-214 -30
q-242 0 -424 133l-144 -165l-159 127l159 182q-147 203 -147 510q0 155 39 285.5t107 221.5t159 155t194.5 94t215.5 30q243 0 422 -133l145 166z" />
    <glyph glyph-name="Ugrave" unicode="&#xd9;" horiz-adv-x="1484" 
d="M692 1604l-303 354h330l190 -354h-217zM743 -25q-308 0 -460 159t-152 446v936h334v-928q0 -342 283 -342q145 0 211.5 86t66.5 256v928h328v-934q0 -289 -151.5 -448t-459.5 -159z" />
    <glyph glyph-name="Uacute" unicode="&#xda;" horiz-adv-x="1484" 
d="M553 1604l190 354h332l-305 -354h-217zM743 -25q-308 0 -460 159t-152 446v936h334v-928q0 -342 283 -342q145 0 211.5 86t66.5 256v928h328v-934q0 -289 -151.5 -448t-459.5 -159z" />
    <glyph glyph-name="Ucircumflex" unicode="&#xdb;" horiz-adv-x="1484" 
d="M367 1608l264 350h219l264 -350h-186l-191 151l-184 -151h-186zM743 -25q-308 0 -460 159t-152 446v936h334v-928q0 -342 283 -342q145 0 211.5 86t66.5 256v928h328v-934q0 -289 -151.5 -448t-459.5 -159z" />
    <glyph glyph-name="Udieresis" unicode="&#xdc;" horiz-adv-x="1484" 
d="M958 1577q-74 0 -115.5 47.5t-41.5 118.5t41.5 117.5t115.5 46.5q77 0 119.5 -46.5t42.5 -117.5t-43 -118.5t-119 -47.5zM520 1577q-74 0 -116 47.5t-42 118.5q0 70 42 117t116 47q77 0 119.5 -46.5t42.5 -117.5t-43 -118.5t-119 -47.5zM743 -25q-308 0 -460 159
t-152 446v936h334v-928q0 -342 283 -342q145 0 211.5 86t66.5 256v928h328v-934q0 -289 -151.5 -448t-459.5 -159z" />
    <glyph glyph-name="Yacute" unicode="&#xdd;" horiz-adv-x="1415" 
d="M512 1610l190 354h332l-305 -354h-217zM872 0h-331v643l-508 848l315 49l361 -614l348 590h340l-525 -873v-643z" />
    <glyph glyph-name="Thorn" unicode="&#xde;" horiz-adv-x="1388" 
d="M489 0h-333v1516h333v-230h211q104 0 190 -12.5t169 -46.5t140 -88t91.5 -142t34.5 -204q0 -117 -37 -207t-96.5 -144t-144 -88t-169 -46.5t-182.5 -12.5h-207v-295zM489 1008v-449h213q151 0 218 57t67 168q0 110 -67 167t-218 57h-213z" />
    <glyph glyph-name="germandbls" unicode="&#xdf;" horiz-adv-x="1398" 
d="M907 -23q-115 0 -211.5 28.5t-158.5 68.5l96 205q134 -66 244 -66q80 0 126 53.5t46 139.5q0 61 -23 106.5t-61 73t-97.5 45.5t-120.5 25t-141 10v219q161 1 225 57t64 158q0 73 -54.5 122.5t-152.5 49.5q-118 0 -177.5 -63t-59.5 -201v-1008h-326v999q0 262 147.5 389.5
t407.5 127.5q241 0 380.5 -102t139.5 -286q0 -122 -72.5 -202t-187.5 -115q78 -9 149 -36.5t131 -73.5t96 -118.5t36 -162.5q0 -212 -120.5 -327.5t-324.5 -115.5z" />
    <glyph glyph-name="agrave" unicode="&#xe0;" horiz-adv-x="1181" 
d="M549 1208l-303 355h329l191 -355h-217zM496 231q154 0 249 95v202q-370 -38 -370 -192q0 -51 32.5 -78t88.5 -27zM365 -16q-131 0 -221.5 80t-90.5 215q0 190 167.5 295.5t524.5 134.5v26q0 131 -163 131q-157 0 -318 -129l-178 178q217 199 543 199q229 0 333.5 -106.5
t104.5 -321.5v-686h-297l-25 160q-156 -176 -380 -176z" />
    <glyph glyph-name="aacute" unicode="&#xe1;" horiz-adv-x="1181" 
d="M426 1208l190 355h332l-305 -355h-217zM496 231q154 0 249 95v202q-370 -38 -370 -192q0 -51 32.5 -78t88.5 -27zM365 -16q-131 0 -221.5 80t-90.5 215q0 190 167.5 295.5t524.5 134.5v26q0 131 -163 131q-157 0 -318 -129l-178 178q217 199 543 199q229 0 333.5 -106.5
t104.5 -321.5v-686h-297l-25 160q-156 -176 -380 -176z" />
    <glyph glyph-name="acircumflex" unicode="&#xe2;" horiz-adv-x="1181" 
d="M219 1212l264 351h219l265 -351h-187l-190 152l-184 -152h-187zM496 231q154 0 249 95v202q-370 -38 -370 -192q0 -51 32.5 -78t88.5 -27zM365 -16q-131 0 -221.5 80t-90.5 215q0 190 167.5 295.5t524.5 134.5v26q0 131 -163 131q-157 0 -318 -129l-178 178
q217 199 543 199q229 0 333.5 -106.5t104.5 -321.5v-686h-297l-25 160q-156 -176 -380 -176z" />
    <glyph glyph-name="atilde" unicode="&#xe3;" horiz-adv-x="1181" 
d="M750 1188q-51 0 -97.5 18t-75 39.5t-63 39.5t-63.5 18q-86 0 -80 -125l-178 28q0 151 65 231.5t178 80.5q51 0 97.5 -18t75 -39.5t63 -39.5t63.5 -18q86 0 80 125l176 -29q0 -150 -64.5 -230.5t-176.5 -80.5zM496 231q154 0 249 95v202q-370 -38 -370 -192
q0 -51 32.5 -78t88.5 -27zM365 -16q-131 0 -221.5 80t-90.5 215q0 190 167.5 295.5t524.5 134.5v26q0 131 -163 131q-157 0 -318 -129l-178 178q217 199 543 199q229 0 333.5 -106.5t104.5 -321.5v-686h-297l-25 160q-156 -176 -380 -176z" />
    <glyph glyph-name="adieresis" unicode="&#xe4;" horiz-adv-x="1181" 
d="M813 1182q-74 0 -116 47.5t-42 118.5q0 70 42 116.5t116 46.5q77 0 119.5 -46t42.5 -117t-43 -118.5t-119 -47.5zM375 1182q-74 0 -116 47.5t-42 118.5q0 70 42 116.5t116 46.5q77 0 119.5 -46t42.5 -117t-43 -118.5t-119 -47.5zM496 231q154 0 249 95v202
q-370 -38 -370 -192q0 -51 32.5 -78t88.5 -27zM365 -16q-131 0 -221.5 80t-90.5 215q0 190 167.5 295.5t524.5 134.5v26q0 131 -163 131q-157 0 -318 -129l-178 178q217 199 543 199q229 0 333.5 -106.5t104.5 -321.5v-686h-297l-25 160q-156 -176 -380 -176z" />
    <glyph glyph-name="aring" unicode="&#xe5;" horiz-adv-x="1181" 
d="M598 1190q-97 0 -160 64t-63 161q0 94 63.5 157.5t159.5 63.5t160.5 -63.5t64.5 -157.5q0 -97 -64 -161t-161 -64zM598 1315q41 0 67.5 28t26.5 72q0 41 -26.5 68.5t-67.5 27.5t-67.5 -27.5t-26.5 -68.5q0 -44 26.5 -72t67.5 -28zM496 231q154 0 249 95v202
q-370 -38 -370 -192q0 -51 32.5 -78t88.5 -27zM365 -16q-131 0 -221.5 80t-90.5 215q0 190 167.5 295.5t524.5 134.5v26q0 131 -163 131q-157 0 -318 -129l-178 178q217 199 543 199q229 0 333.5 -106.5t104.5 -321.5v-686h-297l-25 160q-156 -176 -380 -176z" />
    <glyph glyph-name="ae" unicode="&#xe6;" horiz-adv-x="1835" 
d="M362 -23q-131 0 -220 75.5t-89 209.5q0 391 692 447v26q0 131 -149 131q-172 0 -332 -129l-178 178q221 199 559 199q115 0 193.5 -37t115.5 -100q55 62 141.5 99.5t172.5 37.5q77 0 143.5 -15t134 -56.5t115.5 -107.5t78 -176t30 -253v-49h-720q19 -248 254 -248
q90 0 175.5 37t145.5 92l127 -197q-188 -164 -473 -164q-323 0 -453 224q-192 -224 -463 -224zM1053 651h422q-21 226 -209 226q-81 0 -138 -55.5t-75 -170.5zM496 225q153 0 272 119q-17 61 -20 123q-4 51 -3 68q-201 -21 -285.5 -72.5t-84.5 -132.5q0 -51 32.5 -78
t88.5 -27z" />
    <glyph glyph-name="ccedilla" unicode="&#xe7;" horiz-adv-x="1150" 
d="M606 -414q-187 0 -303 76l59 98q91 -61 218 -61q102 0 102 70q0 55 -66 55q-44 0 -88 -35l-82 41l50 156q-69 12 -130 37t-117 70.5t-96 107t-63.5 150t-23.5 194.5q0 126 34.5 226t89 163t128.5 104.5t147.5 58.5t150.5 17q154 0 279 -72t190 -217l-239 -123
q-38 90 -92 130t-138 40q-104 0 -162.5 -84.5t-58.5 -244.5q0 -156 53.5 -245t169.5 -89q163 0 250 197l244 -121q-72 -151 -198.5 -226.5t-284.5 -81.5l-17 -71q50 31 131 31q62 0 106 -38.5t44 -105.5q0 -94 -82 -150.5t-205 -56.5z" />
    <glyph glyph-name="egrave" unicode="&#xe8;" horiz-adv-x="1181" 
d="M539 1208l-303 355h329l191 -355h-217zM623 -23q-89 0 -168 18t-151 60.5t-124 106.5t-83 162t-31 221q0 122 35.5 221.5t92 162.5t130.5 106t146.5 61t143.5 18q51 0 99 -7.5t99 -26.5t94.5 -49t82.5 -78t67 -109.5t44 -148t16 -189.5v-49h-723q11 -129 78 -189.5
t176 -60.5q92 0 180.5 35t147.5 88l123 -189q-191 -164 -475 -164zM397 651h424q-24 228 -209 228q-81 0 -139 -56.5t-76 -171.5z" />
    <glyph glyph-name="eacute" unicode="&#xe9;" horiz-adv-x="1181" 
d="M426 1208l190 355h332l-305 -355h-217zM623 -23q-89 0 -168 18t-151 60.5t-124 106.5t-83 162t-31 221q0 122 35.5 221.5t92 162.5t130.5 106t146.5 61t143.5 18q51 0 99 -7.5t99 -26.5t94.5 -49t82.5 -78t67 -109.5t44 -148t16 -189.5v-49h-723q11 -129 78 -189.5
t176 -60.5q92 0 180.5 35t147.5 88l123 -189q-191 -164 -475 -164zM397 651h424q-24 228 -209 228q-81 0 -139 -56.5t-76 -171.5z" />
    <glyph glyph-name="ecircumflex" unicode="&#xea;" horiz-adv-x="1181" 
d="M219 1212l264 351h219l265 -351h-187l-190 152l-184 -152h-187zM623 -23q-89 0 -168 18t-151 60.5t-124 106.5t-83 162t-31 221q0 122 35.5 221.5t92 162.5t130.5 106t146.5 61t143.5 18q51 0 99 -7.5t99 -26.5t94.5 -49t82.5 -78t67 -109.5t44 -148t16 -189.5v-49h-723
q11 -129 78 -189.5t176 -60.5q92 0 180.5 35t147.5 88l123 -189q-191 -164 -475 -164zM397 651h424q-24 228 -209 228q-81 0 -139 -56.5t-76 -171.5z" />
    <glyph glyph-name="edieresis" unicode="&#xeb;" horiz-adv-x="1181" 
d="M809 1182q-74 0 -116 47.5t-42 118.5q0 70 42 116.5t116 46.5q77 0 119.5 -46t42.5 -117t-43 -118.5t-119 -47.5zM371 1182q-74 0 -116 47.5t-42 118.5q0 70 42 116.5t116 46.5q77 0 119 -46t42 -117t-42.5 -118.5t-118.5 -47.5zM623 -23q-89 0 -168 18t-151 60.5
t-124 106.5t-83 162t-31 221q0 122 35.5 221.5t92 162.5t130.5 106t146.5 61t143.5 18q51 0 99 -7.5t99 -26.5t94.5 -49t82.5 -78t67 -109.5t44 -148t16 -189.5v-49h-723q11 -129 78 -189.5t176 -60.5q92 0 180.5 35t147.5 88l123 -189q-191 -164 -475 -164zM397 651h424
q-24 228 -209 228q-81 0 -139 -56.5t-76 -171.5z" />
    <glyph glyph-name="igrave" unicode="&#xec;" horiz-adv-x="602" 
d="M207 1208l-303 355h329l191 -355h-217zM465 0h-328v1092h328v-1092z" />
    <glyph glyph-name="iacute" unicode="&#xed;" horiz-adv-x="602" 
d="M182 1208l191 355h332l-306 -355h-217zM465 0h-328v1092h328v-1092z" />
    <glyph glyph-name="icircumflex" unicode="&#xee;" horiz-adv-x="602" 
d="M-72 1212l265 351h219l264 -351h-187l-190 152l-184 -152h-187zM465 0h-328v1092h328v-1092z" />
    <glyph glyph-name="idieresis" unicode="&#xef;" horiz-adv-x="602" 
d="M518 1182q-74 0 -116 47.5t-42 118.5q0 70 42 116.5t116 46.5q77 0 119.5 -46t42.5 -117t-43 -118.5t-119 -47.5zM80 1182q-74 0 -116 47.5t-42 118.5q0 70 42 116.5t116 46.5q77 0 119.5 -46t42.5 -117t-43 -118.5t-119 -47.5zM465 0h-328v1092h328v-1092z" />
    <glyph glyph-name="eth" unicode="&#xf0;" horiz-adv-x="1245" 
d="M623 -23q-247 0 -400 137t-153 375q0 124 38 222.5t103.5 160.5t150 94.5t181.5 32.5q75 0 161.5 -32.5t141.5 -96.5q-31 146 -113 265l-155 -76l-95 170l129 61q-60 60 -123 109l156 176q118 -77 197 -156l166 84l92 -170l-133 -69q209 -302 209 -725q0 -262 -153 -412
t-400 -150zM623 209q104 0 164.5 75t60.5 212q0 132 -60.5 207t-164.5 75q-105 0 -165.5 -73.5t-60.5 -210.5q0 -134 60.5 -209.5t165.5 -75.5z" />
    <glyph glyph-name="ntilde" unicode="&#xf1;" horiz-adv-x="1265" 
d="M793 1188q-51 0 -97.5 18t-75 39.5t-63 39.5t-63.5 18q-86 0 -80 -125l-178 28q0 151 65 231.5t178 80.5q51 0 97.5 -18t75 -39.5t63 -39.5t63.5 -18q86 0 80 125l176 -29q0 -150 -64.5 -230.5t-176.5 -80.5zM459 0h-330v1092h305l25 -172q149 194 377 194
q146 0 231.5 -77.5t85.5 -239.5v-797h-328v692q0 75 -30.5 112.5t-98.5 37.5q-109 0 -237 -109v-733z" />
    <glyph glyph-name="ograve" unicode="&#xf2;" horiz-adv-x="1247" 
d="M571 1208l-303 355h330l190 -355h-217zM625 -23q-83 0 -160 18t-150.5 60.5t-128 106t-87.5 162t-33 221.5q0 124 33 223t87 162.5t127.5 106t150.5 60t161 17.5q83 0 159.5 -17.5t150 -60t127.5 -106t87 -162.5t33 -223q0 -123 -33 -221.5t-87 -162t-127.5 -106
t-150 -60.5t-159.5 -18zM625 209q113 0 170 89.5t57 244.5q0 147 -55.5 238t-171.5 91q-115 0 -172.5 -88t-57.5 -241q0 -96 21.5 -168t74.5 -119t134 -47z" />
    <glyph glyph-name="oacute" unicode="&#xf3;" horiz-adv-x="1247" 
d="M457 1208l190 355h332l-305 -355h-217zM625 -23q-83 0 -160 18t-150.5 60.5t-128 106t-87.5 162t-33 221.5q0 124 33 223t87 162.5t127.5 106t150.5 60t161 17.5q83 0 159.5 -17.5t150 -60t127.5 -106t87 -162.5t33 -223q0 -123 -33 -221.5t-87 -162t-127.5 -106
t-150 -60.5t-159.5 -18zM625 209q113 0 170 89.5t57 244.5q0 147 -55.5 238t-171.5 91q-115 0 -172.5 -88t-57.5 -241q0 -96 21.5 -168t74.5 -119t134 -47z" />
    <glyph glyph-name="ocircumflex" unicode="&#xf4;" horiz-adv-x="1247" 
d="M250 1212l264 351h219l264 -351h-186l-190 152l-185 -152h-186zM625 -23q-83 0 -160 18t-150.5 60.5t-128 106t-87.5 162t-33 221.5q0 124 33 223t87 162.5t127.5 106t150.5 60t161 17.5q83 0 159.5 -17.5t150 -60t127.5 -106t87 -162.5t33 -223q0 -123 -33 -221.5
t-87 -162t-127.5 -106t-150 -60.5t-159.5 -18zM625 209q113 0 170 89.5t57 244.5q0 147 -55.5 238t-171.5 91q-115 0 -172.5 -88t-57.5 -241q0 -96 21.5 -168t74.5 -119t134 -47z" />
    <glyph glyph-name="otilde" unicode="&#xf5;" horiz-adv-x="1247" 
d="M780 1188q-51 0 -97.5 18t-75 39.5t-63 39.5t-63.5 18q-86 0 -80 -125l-178 28q0 151 65.5 231.5t178.5 80.5q51 0 97.5 -18t75 -39.5t63 -39.5t63.5 -18q86 0 80 125l176 -29q0 -150 -65 -230.5t-177 -80.5zM625 -23q-83 0 -160 18t-150.5 60.5t-128 106t-87.5 162
t-33 221.5q0 124 33 223t87 162.5t127.5 106t150.5 60t161 17.5q83 0 159.5 -17.5t150 -60t127.5 -106t87 -162.5t33 -223q0 -123 -33 -221.5t-87 -162t-127.5 -106t-150 -60.5t-159.5 -18zM625 209q113 0 170 89.5t57 244.5q0 147 -55.5 238t-171.5 91q-115 0 -172.5 -88
t-57.5 -241q0 -96 21.5 -168t74.5 -119t134 -47z" />
    <glyph glyph-name="odieresis" unicode="&#xf6;" horiz-adv-x="1247" 
d="M840 1182q-74 0 -116 47.5t-42 118.5q0 70 42 116.5t116 46.5q77 0 119 -46t42 -117t-42.5 -118.5t-118.5 -47.5zM401 1182q-74 0 -115.5 47.5t-41.5 118.5q0 70 41.5 116.5t115.5 46.5q77 0 119.5 -46t42.5 -117t-43 -118.5t-119 -47.5zM625 -23q-83 0 -160 18
t-150.5 60.5t-128 106t-87.5 162t-33 221.5q0 124 33 223t87 162.5t127.5 106t150.5 60t161 17.5q83 0 159.5 -17.5t150 -60t127.5 -106t87 -162.5t33 -223q0 -123 -33 -221.5t-87 -162t-127.5 -106t-150 -60.5t-159.5 -18zM625 209q113 0 170 89.5t57 244.5
q0 147 -55.5 238t-171.5 91q-115 0 -172.5 -88t-57.5 -241q0 -96 21.5 -168t74.5 -119t134 -47z" />
    <glyph glyph-name="divide" unicode="&#xf7;" horiz-adv-x="1323" 
d="M657 965q-73 0 -115 41.5t-42 103.5t41.5 102.5t115.5 40.5t117 -40.5t43 -102.5q0 -61 -43 -103t-117 -42zM1186 588h-1049v260h1049v-260zM657 172q-73 0 -115 42t-42 103q0 63 41.5 103.5t115.5 40.5t117 -41t43 -103q0 -61 -43 -103t-117 -42z" />
    <glyph glyph-name="oslash" unicode="&#xf8;" horiz-adv-x="1247" 
d="M401 410l367 415q-54 54 -143 54q-118 0 -178 -90.5t-60 -245.5q0 -76 14 -133zM850 664l-367 -410q58 -49 142 -49q116 0 175.5 91t59.5 247q0 59 -10 121zM1196 1036l-117 -129q103 -141 103 -362q0 -123 -33 -221.5t-87 -162t-127.5 -106t-150 -60.5t-159.5 -18
q-178 0 -314 78l-131 -141l-129 125l125 135q-110 142 -110 371q0 124 33 223t87 162.5t127.5 106t150.5 60t161 17.5q185 0 323 -86l119 131z" />
    <glyph glyph-name="ugrave" unicode="&#xf9;" horiz-adv-x="1265" 
d="M582 1208l-303 355h329l191 -355h-217zM434 -23q-147 0 -233 78t-86 240v797h329v-701q0 -75 31 -113t98 -38q109 0 238 110v742h330v-1092h-305l-25 170q-152 -193 -377 -193z" />
    <glyph glyph-name="uacute" unicode="&#xfa;" horiz-adv-x="1265" 
d="M449 1208l190 355h332l-305 -355h-217zM434 -23q-147 0 -233 78t-86 240v797h329v-701q0 -75 31 -113t98 -38q109 0 238 110v742h330v-1092h-305l-25 170q-152 -193 -377 -193z" />
    <glyph glyph-name="ucircumflex" unicode="&#xfb;" horiz-adv-x="1265" 
d="M252 1212l264 351h219l264 -351h-186l-190 152l-185 -152h-186zM434 -23q-147 0 -233 78t-86 240v797h329v-701q0 -75 31 -113t98 -38q109 0 238 110v742h330v-1092h-305l-25 170q-152 -193 -377 -193z" />
    <glyph glyph-name="udieresis" unicode="&#xfc;" horiz-adv-x="1265" 
d="M844 1182q-74 0 -116 47.5t-42 118.5q0 70 42 116.5t116 46.5q77 0 119.5 -46t42.5 -117t-43 -118.5t-119 -47.5zM406 1182q-74 0 -116 47.5t-42 118.5q0 70 42 116.5t116 46.5q77 0 119 -46t42 -117t-42.5 -118.5t-118.5 -47.5zM434 -23q-147 0 -233 78t-86 240v797h329
v-701q0 -75 31 -113t98 -38q109 0 238 110v742h330v-1092h-305l-25 170q-152 -193 -377 -193z" />
    <glyph glyph-name="yacute" unicode="&#xfd;" horiz-adv-x="1146" 
d="M379 1208l190 355h332l-305 -355h-217zM297 -418q-124 0 -205 17l-24 274q98 -27 194 -27q54 0 86.5 22t52.5 73l21 53l-408 1073l324 49l246 -733h4l241 709h320l-459 -1207q-40 -100 -86.5 -163.5t-123.5 -101.5t-183 -38z" />
    <glyph glyph-name="thorn" unicode="&#xfe;" horiz-adv-x="1277" 
d="M674 231q102 0 154.5 81.5t52.5 232.5q0 141 -52 219t-159 78q-108 0 -215 -107v-403q56 -53 105.5 -77t113.5 -24zM455 -385l-330 -49v1925l330 49v-614q138 188 336 188q192 0 305.5 -146t113.5 -421t-115 -419t-309 -144q-202 0 -331 145v-514z" />
    <glyph glyph-name="ydieresis" unicode="&#xff;" horiz-adv-x="1146" 
d="M803 1182q-74 0 -116 47.5t-42 118.5q0 70 42 116.5t116 46.5q77 0 119.5 -46t42.5 -117t-43 -118.5t-119 -47.5zM365 1182q-74 0 -116 47.5t-42 118.5q0 70 42 116.5t116 46.5q77 0 119 -46t42 -117t-42.5 -118.5t-118.5 -47.5zM297 -418q-124 0 -205 17l-24 274
q98 -27 194 -27q54 0 86.5 22t52.5 73l21 53l-408 1073l324 49l246 -733h4l241 709h320l-459 -1207q-40 -100 -86.5 -163.5t-123.5 -101.5t-183 -38z" />
    <glyph glyph-name="Amacron" unicode="&#x100;" horiz-adv-x="1460" 
d="M389 1591v234h680v-234h-680zM342 0h-307l536 1522h318l528 -1497l-321 -50l-121 363h-516zM719 1096l-178 -516h356l-174 516h-4z" />
    <glyph glyph-name="amacron" unicode="&#x101;" horiz-adv-x="1181" 
d="M250 1196v234h680v-234h-680zM496 231q154 0 249 95v202q-370 -38 -370 -192q0 -51 32.5 -78t88.5 -27zM365 -16q-131 0 -221.5 80t-90.5 215q0 190 167.5 295.5t524.5 134.5v26q0 131 -163 131q-157 0 -318 -129l-178 178q217 199 543 199q229 0 333.5 -106.5
t104.5 -321.5v-686h-297l-25 160q-156 -176 -380 -176z" />
    <glyph glyph-name="Abreve" unicode="&#x102;" horiz-adv-x="1460" 
d="M729 1581q-166 0 -260 106.5t-102 272.5h176q21 -172 186 -172q34 0 61 6.5t54.5 24t46 53t24.5 88.5h177q-8 -167 -101.5 -273t-261.5 -106zM342 0h-307l536 1522h318l528 -1497l-321 -50l-121 363h-516zM719 1096l-178 -516h356l-174 516h-4z" />
    <glyph glyph-name="abreve" unicode="&#x103;" horiz-adv-x="1181" 
d="M590 1186q-167 0 -261 106.5t-102 272.5h176q21 -172 187 -172q34 0 61 6.5t54.5 24t46 53t24.5 88.5h176q-8 -167 -101 -273t-261 -106zM496 231q154 0 249 95v202q-370 -38 -370 -192q0 -51 32.5 -78t88.5 -27zM365 -16q-131 0 -221.5 80t-90.5 215q0 190 167.5 295.5
t524.5 134.5v26q0 131 -163 131q-157 0 -318 -129l-178 178q217 199 543 199q229 0 333.5 -106.5t104.5 -321.5v-686h-297l-25 160q-156 -176 -380 -176z" />
    <glyph glyph-name="Aogonek" unicode="&#x104;" horiz-adv-x="1460" 
d="M1149 -383q-111 0 -170 41.5t-59 116.5q0 60 45.5 120t121.5 107l-112 336h-516l-117 -338h-307l536 1522h318l528 -1497l-157 -25q-121 -84 -121 -172q0 -80 94 -80q37 0 72.5 9.5t49.5 16.5t48 25l63 -100q-141 -82 -317 -82zM719 1096l-178 -516h356l-174 516h-4z" />
    <glyph glyph-name="aogonek" unicode="&#x105;" horiz-adv-x="1181" 
d="M496 231q154 0 249 95v202q-370 -38 -370 -192q0 -51 32.5 -78t88.5 -27zM1147 -301q-141 -82 -318 -82q-111 0 -170 41.5t-59 116.5q0 60 47 120.5t123 108.5l-25 156q-156 -176 -380 -176q-131 0 -221.5 80t-90.5 215q0 190 167.5 295.5t524.5 134.5v26q0 131 -163 131
q-157 0 -318 -129l-178 178q217 199 543 199q229 0 333.5 -106.5t104.5 -321.5v-686h-127q-121 -84 -121 -172q0 -80 94 -80q37 0 72.5 9.5t49.5 16.5t48 25z" />
    <glyph glyph-name="Cacute" unicode="&#x106;" horiz-adv-x="1492" 
d="M588 1604l190 354h332l-305 -354h-217zM782 -29q-151 0 -277 49t-220.5 144t-147.5 247.5t-53 348.5q0 192 53 343.5t146.5 246.5t215 144.5t263.5 49.5q226 0 371.5 -90t232.5 -272l-281 -142q-43 99 -124.5 163.5t-198.5 64.5q-171 0 -257.5 -133.5t-86.5 -374.5
q0 -244 93 -382t271 -138q126 0 211 72t125 196l287 -100q-151 -437 -623 -437z" />
    <glyph glyph-name="cacute" unicode="&#x107;" horiz-adv-x="1136" 
d="M432 1208l191 355h331l-305 -355h-217zM602 -23q-80 0 -154 18t-145 60.5t-122.5 106t-83 162t-31.5 221.5q0 126 34.5 226t89 163t128.5 104.5t147.5 58.5t150.5 17q154 0 279 -72t190 -217l-239 -123q-38 90 -92 130t-138 40q-104 0 -162.5 -84.5t-58.5 -244.5
q0 -156 53.5 -245t169.5 -89q163 0 250 197l244 -121q-50 -107 -132 -177.5t-175.5 -100.5t-202.5 -30z" />
    <glyph glyph-name="Ccircumflex" unicode="&#x108;" horiz-adv-x="1492" 
d="M391 1608l264 350h219l265 -350h-187l-190 151l-184 -151h-187zM782 -29q-151 0 -277 49t-220.5 144t-147.5 247.5t-53 348.5q0 192 53 343.5t146.5 246.5t215 144.5t263.5 49.5q226 0 371.5 -90t232.5 -272l-281 -142q-43 99 -124.5 163.5t-198.5 64.5
q-171 0 -257.5 -133.5t-86.5 -374.5q0 -244 93 -382t271 -138q126 0 211 72t125 196l287 -100q-151 -437 -623 -437z" />
    <glyph glyph-name="ccircumflex" unicode="&#x109;" horiz-adv-x="1136" 
d="M217 1212l264 351h219l265 -351h-187l-190 152l-185 -152h-186zM602 -23q-80 0 -154 18t-145 60.5t-122.5 106t-83 162t-31.5 221.5q0 126 34.5 226t89 163t128.5 104.5t147.5 58.5t150.5 17q154 0 279 -72t190 -217l-239 -123q-38 90 -92 130t-138 40
q-104 0 -162.5 -84.5t-58.5 -244.5q0 -156 53.5 -245t169.5 -89q163 0 250 197l244 -121q-50 -107 -132 -177.5t-175.5 -100.5t-202.5 -30z" />
    <glyph glyph-name="Cdotaccent" unicode="&#x10a;" horiz-adv-x="1492" 
d="M758 1610q-89 0 -138 43.5t-49 109.5t49 110t138 44q90 0 141 -44t51 -110t-51 -109.5t-141 -43.5zM782 -29q-151 0 -277 49t-220.5 144t-147.5 247.5t-53 348.5q0 192 53 343.5t146.5 246.5t215 144.5t263.5 49.5q226 0 371.5 -90t232.5 -272l-281 -142
q-43 99 -124.5 163.5t-198.5 64.5q-171 0 -257.5 -133.5t-86.5 -374.5q0 -244 93 -382t271 -138q126 0 211 72t125 196l287 -100q-151 -437 -623 -437z" />
    <glyph glyph-name="cdotaccent" unicode="&#x10b;" horiz-adv-x="1136" 
d="M596 1214q-89 0 -137.5 44t-48.5 110t48.5 110t137.5 44q90 0 141 -44t51 -110t-51 -110t-141 -44zM602 -23q-80 0 -154 18t-145 60.5t-122.5 106t-83 162t-31.5 221.5q0 126 34.5 226t89 163t128.5 104.5t147.5 58.5t150.5 17q154 0 279 -72t190 -217l-239 -123
q-38 90 -92 130t-138 40q-104 0 -162.5 -84.5t-58.5 -244.5q0 -156 53.5 -245t169.5 -89q163 0 250 197l244 -121q-50 -107 -132 -177.5t-175.5 -100.5t-202.5 -30z" />
    <glyph glyph-name="Ccaron" unicode="&#x10c;" horiz-adv-x="1492" 
d="M635 1610l-264 350h186l186 -152l189 152h186l-264 -350h-219zM782 -29q-151 0 -277 49t-220.5 144t-147.5 247.5t-53 348.5q0 192 53 343.5t146.5 246.5t215 144.5t263.5 49.5q226 0 371.5 -90t232.5 -272l-281 -142q-43 99 -124.5 163.5t-198.5 64.5
q-171 0 -257.5 -133.5t-86.5 -374.5q0 -244 93 -382t271 -138q126 0 211 72t125 196l287 -100q-151 -437 -623 -437z" />
    <glyph glyph-name="ccaron" unicode="&#x10d;" horiz-adv-x="1136" 
d="M459 1214l-264 351h186l186 -152l189 152h186l-264 -351h-219zM602 -23q-80 0 -154 18t-145 60.5t-122.5 106t-83 162t-31.5 221.5q0 126 34.5 226t89 163t128.5 104.5t147.5 58.5t150.5 17q154 0 279 -72t190 -217l-239 -123q-38 90 -92 130t-138 40
q-104 0 -162.5 -84.5t-58.5 -244.5q0 -156 53.5 -245t169.5 -89q163 0 250 197l244 -121q-50 -107 -132 -177.5t-175.5 -100.5t-202.5 -30z" />
    <glyph glyph-name="Dcaron" unicode="&#x10e;" horiz-adv-x="1515" 
d="M647 1610l-264 350h186l187 -152l188 152h186l-264 -350h-219zM621 0h-465v1516h465q143 0 262.5 -24.5t222.5 -80.5t174 -141.5t111.5 -213.5t40.5 -290q0 -167 -41 -298t-112.5 -218t-175 -144t-222.5 -81.5t-260 -24.5zM487 1237v-967h156q245 0 350 115.5t105 376.5
q0 247 -107 361t-352 114h-152z" />
    <glyph glyph-name="dcaron" unicode="&#x10f;" horiz-adv-x="1277" 
d="M1401 1208h-168l47 494h309zM608 231q110 0 213 107v403q-56 53 -105.5 77t-111.5 24q-103 0 -156 -77t-53 -226q0 -142 53.5 -225t159.5 -83zM485 -16q-193 0 -306 139.5t-113 413.5q0 276 115.5 426.5t307.5 150.5q214 0 332 -160v537l330 49v-1540h-305l-25 164
q-132 -180 -336 -180z" />
    <glyph glyph-name="Dcroat" unicode="&#x110;" horiz-adv-x="1515" 
d="M621 0h-465v649h-136v250h136v617h465q143 0 262.5 -24.5t222.5 -81t174 -143t111.5 -215.5t40.5 -294q0 -163 -41 -291.5t-112.5 -215.5t-175 -144t-222.5 -82t-260 -25zM487 649v-379h156q245 0 350 115.5t105 376.5q0 247 -107 361t-352 114h-152v-338h308v-250h-308z
" />
    <glyph glyph-name="dcroat" unicode="&#x111;" horiz-adv-x="1277" 
d="M608 231q108 0 215 107v405q-56 53 -105.5 77t-113.5 24q-103 0 -156 -78t-53 -227q0 -142 53.5 -225t159.5 -83zM821 164q-63 -84 -142.5 -132t-191.5 -48q-193 0 -306 139.5t-113 413.5q0 276 115.5 426.5t308.5 150.5q210 0 331 -160v220h-176v208h176v109l328 49
v-158h131v-208h-131v-1174h-305z" />
    <glyph glyph-name="Emacron" unicode="&#x112;" horiz-adv-x="1296" 
d="M348 1591v234h680v-234h-680zM1225 0h-1069v1516h1032v-279h-699v-326h543l49 -264h-592v-377h736v-270z" />
    <glyph glyph-name="emacron" unicode="&#x113;" horiz-adv-x="1181" 
d="M248 1196v234h680v-234h-680zM623 -23q-89 0 -168 18t-151 60.5t-124 106.5t-83 162t-31 221q0 122 35.5 221.5t92 162.5t130.5 106t146.5 61t143.5 18q51 0 99 -7.5t99 -26.5t94.5 -49t82.5 -78t67 -109.5t44 -148t16 -189.5v-49h-723q11 -129 78 -189.5t176 -60.5
q92 0 180.5 35t147.5 88l123 -189q-191 -164 -475 -164zM397 651h424q-24 228 -209 228q-81 0 -139 -56.5t-76 -171.5z" />
    <glyph glyph-name="Ebreve" unicode="&#x114;" horiz-adv-x="1296" 
d="M662 1581q-167 0 -261 106.5t-102 272.5h176q21 -172 187 -172q34 0 61 6.5t54.5 24t46 53t24.5 88.5h176q-8 -167 -101 -273t-261 -106zM1225 0h-1069v1516h1032v-279h-699v-326h543l49 -264h-592v-377h736v-270z" />
    <glyph glyph-name="ebreve" unicode="&#x115;" horiz-adv-x="1181" 
d="M604 1186q-166 0 -260 106.5t-102 272.5h176q21 -172 186 -172q34 0 61 6.5t55 24t46.5 53t24.5 88.5h176q-8 -167 -101.5 -273t-261.5 -106zM623 -23q-89 0 -168 18t-151 60.5t-124 106.5t-83 162t-31 221q0 122 35.5 221.5t92 162.5t130.5 106t146.5 61t143.5 18
q51 0 99 -7.5t99 -26.5t94.5 -49t82.5 -78t67 -109.5t44 -148t16 -189.5v-49h-723q11 -129 78 -189.5t176 -60.5q92 0 180.5 35t147.5 88l123 -189q-191 -164 -475 -164zM397 651h424q-24 228 -209 228q-81 0 -139 -56.5t-76 -171.5z" />
    <glyph glyph-name="Edotaccent" unicode="&#x116;" horiz-adv-x="1296" 
d="M686 1610q-89 0 -137.5 43.5t-48.5 109.5t48.5 110t137.5 44q90 0 141.5 -44t51.5 -110t-51.5 -109.5t-141.5 -43.5zM1225 0h-1069v1516h1032v-279h-699v-326h543l49 -264h-592v-377h736v-270z" />
    <glyph glyph-name="edotaccent" unicode="&#x117;" horiz-adv-x="1181" 
d="M586 1214q-89 0 -138 44t-49 110t49 110t138 44q90 0 141 -44t51 -110t-51 -110t-141 -44zM623 -23q-89 0 -168 18t-151 60.5t-124 106.5t-83 162t-31 221q0 122 35.5 221.5t92 162.5t130.5 106t146.5 61t143.5 18q51 0 99 -7.5t99 -26.5t94.5 -49t82.5 -78t67 -109.5
t44 -148t16 -189.5v-49h-723q11 -129 78 -189.5t176 -60.5q92 0 180.5 35t147.5 88l123 -189q-191 -164 -475 -164zM397 651h424q-24 228 -209 228q-81 0 -139 -56.5t-76 -171.5z" />
    <glyph glyph-name="Eogonek" unicode="&#x118;" horiz-adv-x="1296" 
d="M1276 -301q-141 -82 -318 -82q-111 0 -170 41.5t-59 116.5q0 60 44.5 118.5t119.5 106.5h-737v1516h1032v-279h-699v-326h543l49 -264h-592v-377h736v-270h-156q-121 -84 -121 -172q0 -80 94 -80q37 0 72.5 9.5t49.5 16.5t48 25z" />
    <glyph glyph-name="eogonek" unicode="&#x119;" horiz-adv-x="1181" 
d="M662 -383q-111 0 -170.5 42t-59.5 116q0 53 36 107t97 98q-103 7 -189.5 41.5t-157.5 99.5t-111.5 173.5t-40.5 250.5q0 122 35.5 221.5t92 162.5t130.5 106t146.5 61t143.5 18q51 0 99 -7.5t99 -26.5t94.5 -49t82.5 -78t67 -109.5t44 -148t16 -189.5v-49h-723
q11 -129 78 -189.5t176 -60.5q92 0 180.5 35t147.5 88l123 -189q-148 -126 -344 -153q-103 -77 -103 -160q0 -80 94 -80q37 0 72.5 9.5t49.5 16.5t48 25l64 -100q-141 -82 -317 -82zM397 651h424q-24 228 -209 228q-81 0 -139 -56.5t-76 -171.5z" />
    <glyph glyph-name="Ecaron" unicode="&#x11a;" horiz-adv-x="1296" 
d="M578 1610l-265 350h187l186 -152l188 152h187l-264 -350h-219zM1225 0h-1069v1516h1032v-279h-699v-326h543l49 -264h-592v-377h736v-270z" />
    <glyph glyph-name="ecaron" unicode="&#x11b;" horiz-adv-x="1181" 
d="M479 1214l-264 351h186l187 -152l188 152h187l-265 -351h-219zM623 -23q-89 0 -168 18t-151 60.5t-124 106.5t-83 162t-31 221q0 122 35.5 221.5t92 162.5t130.5 106t146.5 61t143.5 18q51 0 99 -7.5t99 -26.5t94.5 -49t82.5 -78t67 -109.5t44 -148t16 -189.5v-49h-723
q11 -129 78 -189.5t176 -60.5q92 0 180.5 35t147.5 88l123 -189q-191 -164 -475 -164zM397 651h424q-24 228 -209 228q-81 0 -139 -56.5t-76 -171.5z" />
    <glyph glyph-name="Gcircumflex" unicode="&#x11c;" horiz-adv-x="1558" 
d="M399 1608l265 350h219l264 -350h-186l-191 151l-184 -151h-187zM741 -29q-166 0 -293 59t-206 166.5t-118.5 250.5t-39.5 317q0 357 185 568.5t499 211.5q90 0 174.5 -19.5t165.5 -60.5t151 -113t117 -169l-282 -127q-44 99 -123.5 156t-186.5 57q-32 0 -63 -5t-68 -19.5
t-69 -37t-63 -61.5t-52.5 -89.5t-35 -124t-13.5 -161.5q0 -122 23 -217.5t59 -153t85.5 -94.5t98 -51t100.5 -14q124 0 206.5 72.5t105.5 199.5h-240l-49 248h606v-760h-268v168h-4q-47 -87 -155 -142t-247 -55z" />
    <glyph glyph-name="gcircumflex" unicode="&#x11d;" horiz-adv-x="1259" 
d="M199 1212l264 351h219l264 -351h-186l-191 152l-184 -152h-186zM578 516q88 0 137 54.5t49 140.5t-48.5 140t-137.5 54q-88 0 -137.5 -54t-49.5 -140t50 -140.5t137 -54.5zM555 -410q-157 0 -267.5 16.5t-175 49t-93.5 76.5t-29 104q0 74 52.5 129.5t135.5 89.5
q-74 49 -74 131q0 64 44 121.5t114 102.5q-88 52 -134 133t-46 180q0 170 131 280.5t360 110.5q235 0 367 -119q54 46 125.5 77.5t134.5 35.5l41 -252q-112 0 -205 -25q21 -51 21 -108q0 -171 -128 -280t-356 -109q-79 0 -167 18q-37 -29 -37 -55q0 -29 28.5 -39.5
t94.5 -13.5l163 -11q281 -10 404 -82.5t123 -226.5q0 -109 -82 -185.5t-221 -112.5t-324 -36zM608 -244q128 0 206.5 30t78.5 83q0 37 -18.5 57t-82.5 34t-190 20l-172 8q-38 3 -72 6q-61 -40 -61 -98q0 -72 73 -106t238 -34z" />
    <glyph glyph-name="Gbreve" unicode="&#x11e;" horiz-adv-x="1558" 
d="M778 1581q-166 0 -260 106.5t-102 272.5h176q21 -172 186 -172q34 0 61 6.5t55 24t46.5 53t24.5 88.5h176q-8 -167 -101.5 -273t-261.5 -106zM741 -29q-166 0 -293 59t-206 166.5t-118.5 250.5t-39.5 317q0 357 185 568.5t499 211.5q90 0 174.5 -19.5t165.5 -60.5
t151 -113t117 -169l-282 -127q-44 99 -123.5 156t-186.5 57q-32 0 -63 -5t-68 -19.5t-69 -37t-63 -61.5t-52.5 -89.5t-35 -124t-13.5 -161.5q0 -122 23 -217.5t59 -153t85.5 -94.5t98 -51t100.5 -14q124 0 206.5 72.5t105.5 199.5h-240l-49 248h606v-760h-268v168h-4
q-47 -87 -155 -142t-247 -55z" />
    <glyph glyph-name="gbreve" unicode="&#x11f;" horiz-adv-x="1259" 
d="M586 1186q-167 0 -261 106.5t-102 272.5h176q21 -172 187 -172q34 0 61 6.5t54.5 24t46 53t24.5 88.5h176q-8 -167 -101 -273t-261 -106zM578 516q88 0 137 54.5t49 140.5t-48.5 140t-137.5 54q-88 0 -137.5 -54t-49.5 -140t50 -140.5t137 -54.5zM555 -410
q-157 0 -267.5 16.5t-175 49t-93.5 76.5t-29 104q0 74 52.5 129.5t135.5 89.5q-74 49 -74 131q0 64 44 121.5t114 102.5q-88 52 -134 133t-46 180q0 170 131 280.5t360 110.5q235 0 367 -119q54 46 125.5 77.5t134.5 35.5l41 -252q-112 0 -205 -25q21 -51 21 -108
q0 -171 -128 -280t-356 -109q-79 0 -167 18q-37 -29 -37 -55q0 -29 28.5 -39.5t94.5 -13.5l163 -11q281 -10 404 -82.5t123 -226.5q0 -109 -82 -185.5t-221 -112.5t-324 -36zM608 -244q128 0 206.5 30t78.5 83q0 37 -18.5 57t-82.5 34t-190 20l-172 8q-38 3 -72 6
q-61 -40 -61 -98q0 -72 73 -106t238 -34z" />
    <glyph glyph-name="Gdotaccent" unicode="&#x120;" horiz-adv-x="1558" 
d="M766 1610q-89 0 -137.5 43.5t-48.5 109.5t48.5 110t137.5 44q90 0 141 -44t51 -110t-51 -109.5t-141 -43.5zM741 -29q-166 0 -293 59t-206 166.5t-118.5 250.5t-39.5 317q0 357 185 568.5t499 211.5q90 0 174.5 -19.5t165.5 -60.5t151 -113t117 -169l-282 -127
q-44 99 -123.5 156t-186.5 57q-32 0 -63 -5t-68 -19.5t-69 -37t-63 -61.5t-52.5 -89.5t-35 -124t-13.5 -161.5q0 -122 23 -217.5t59 -153t85.5 -94.5t98 -51t100.5 -14q124 0 206.5 72.5t105.5 199.5h-240l-49 248h606v-760h-268v168h-4q-47 -87 -155 -142t-247 -55z" />
    <glyph glyph-name="gdotaccent" unicode="&#x121;" horiz-adv-x="1259" 
d="M569 1214q-89 0 -137.5 44t-48.5 110t48.5 110t137.5 44q90 0 141.5 -44t51.5 -110t-51.5 -110t-141.5 -44zM578 516q88 0 137 54.5t49 140.5t-48.5 140t-137.5 54q-88 0 -137.5 -54t-49.5 -140t50 -140.5t137 -54.5zM555 -410q-157 0 -267.5 16.5t-175 49t-93.5 76.5
t-29 104q0 74 52.5 129.5t135.5 89.5q-74 49 -74 131q0 64 44 121.5t114 102.5q-88 52 -134 133t-46 180q0 170 131 280.5t360 110.5q235 0 367 -119q54 46 125.5 77.5t134.5 35.5l41 -252q-112 0 -205 -25q21 -51 21 -108q0 -171 -128 -280t-356 -109q-79 0 -167 18
q-37 -29 -37 -55q0 -29 28.5 -39.5t94.5 -13.5l163 -11q281 -10 404 -82.5t123 -226.5q0 -109 -82 -185.5t-221 -112.5t-324 -36zM608 -244q128 0 206.5 30t78.5 83q0 37 -18.5 57t-82.5 34t-190 20l-172 8q-38 3 -72 6q-61 -40 -61 -98q0 -72 73 -106t238 -34z" />
    <glyph glyph-name="Gcommaaccent" unicode="&#x122;" horiz-adv-x="1558" 
d="M741 -29q-166 0 -293 59t-206 166.5t-118.5 250.5t-39.5 317q0 357 185 568.5t499 211.5q90 0 174.5 -19.5t165.5 -60.5t151 -113t117 -169l-282 -127q-44 99 -123.5 156t-186.5 57q-32 0 -63 -5t-68 -19.5t-69 -37t-63 -61.5t-52.5 -89.5t-35 -124t-13.5 -161.5
q0 -122 23 -217.5t59 -153t85.5 -94.5t98 -51t100.5 -14q124 0 206.5 72.5t105.5 199.5h-240l-49 248h606v-760h-268v168h-4q-47 -87 -155 -142t-247 -55zM770 -602h-176l49 514h322z" />
    <glyph glyph-name="gcommaaccent" unicode="&#x123;" horiz-adv-x="1259" 
d="M594 1712h176l-49 -514h-322zM578 516q88 0 137 54.5t49 140.5t-48.5 140t-137.5 54q-88 0 -137.5 -54t-49.5 -140t50 -140.5t137 -54.5zM555 -410q-157 0 -267.5 16.5t-175 49t-93.5 76.5t-29 104q0 74 52.5 129.5t135.5 89.5q-74 49 -74 131q0 64 44 121.5t114 102.5
q-88 52 -134 133t-46 180q0 170 131 280.5t360 110.5q235 0 367 -119q54 46 125.5 77.5t134.5 35.5l41 -252q-112 0 -205 -25q21 -51 21 -108q0 -171 -128 -280t-356 -109q-79 0 -167 18q-37 -29 -37 -55q0 -29 28.5 -39.5t94.5 -13.5l163 -11q281 -10 404 -82.5t123 -226.5
q0 -109 -82 -185.5t-221 -112.5t-324 -36zM608 -244q128 0 206.5 30t78.5 83q0 37 -18.5 57t-82.5 34t-190 20l-172 8q-38 3 -72 6q-61 -40 -61 -98q0 -72 73 -106t238 -34z" />
    <glyph glyph-name="Hcircumflex" unicode="&#x124;" horiz-adv-x="1574" 
d="M414 1608l264 350h219l264 -350h-186l-191 151l-184 -151h-186zM489 0h-333v1516h333v-588h596v588h334v-1516h-334v647h-596v-647z" />
    <glyph glyph-name="hcircumflex" unicode="&#x125;" horiz-adv-x="1265" 
d="M-86 1608l264 350h219l265 -350h-187l-190 151l-185 -151h-186zM455 0h-330v1491l330 49v-620q149 194 376 194q147 0 233.5 -77.5t86.5 -239.5v-797h-330v692q0 75 -30.5 112.5t-96.5 37.5q-111 0 -239 -109v-733z" />
    <glyph glyph-name="Hbar" unicode="&#x126;" horiz-adv-x="1574" 
d="M489 897h596v174h-596v-174zM489 618v-618h-331v1071h-135v248h135v197h331v-197h596v197h334v-197h133v-248h-133v-1071h-334v618h-596z" />
    <glyph glyph-name="hbar" unicode="&#x127;" horiz-adv-x="1265" 
d="M455 733v-733h-328v1174h-131v208h131v134h328v-134h176v-208h-176v-254q149 194 376 194q147 0 233.5 -77.5t86.5 -239.5v-797h-330v692q0 152 -127 152q-109 0 -239 -111z" />
    <glyph glyph-name="Itilde" unicode="&#x128;" horiz-adv-x="675" 
d="M496 1583q-51 0 -97.5 18t-75 39.5t-63 39.5t-63.5 18q-86 0 -80 -125l-178 29q0 151 65 231t178 80q51 0 97.5 -18t75 -39.5t63 -39.5t63.5 -18q86 0 80 125l176 -29q0 -150 -64.5 -230.5t-176.5 -80.5zM504 0h-332v1516h332v-1516z" />
    <glyph glyph-name="itilde" unicode="&#x129;" horiz-adv-x="602" 
d="M459 1188q-51 0 -97.5 18t-75 39.5t-63 39.5t-63.5 18q-86 0 -80 -125l-178 28q0 151 65 231.5t178 80.5q51 0 97.5 -18t75 -39.5t63 -39.5t63.5 -18q86 0 80 125l176 -29q0 -150 -64.5 -230.5t-176.5 -80.5zM465 0h-328v1092h328v-1092z" />
    <glyph glyph-name="Imacron" unicode="&#x12a;" horiz-adv-x="675" 
d="M-2 1591v234h680v-234h-680zM504 0h-332v1516h332v-1516z" />
    <glyph glyph-name="imacron" unicode="&#x12b;" horiz-adv-x="602" 
d="M-39 1196v234h680v-234h-680zM465 0h-328v1092h328v-1092z" />
    <glyph glyph-name="Ibreve" unicode="&#x12c;" horiz-adv-x="675" 
d="M338 1581q-167 0 -261 106.5t-102 272.5h177q21 -172 186 -172q34 0 61 6.5t54.5 24t46 53t24.5 88.5h176q-8 -167 -101 -273t-261 -106zM504 0h-332v1516h332v-1516z" />
    <glyph glyph-name="ibreve" unicode="&#x12d;" horiz-adv-x="602" 
d="M301 1186q-166 0 -260 106.5t-102 272.5h176q21 -172 186 -172q34 0 61 6.5t54.5 24t46 53t24.5 88.5h177q-8 -167 -101.5 -273t-261.5 -106zM465 0h-328v1092h328v-1092z" />
    <glyph glyph-name="Iogonek" unicode="&#x12e;" horiz-adv-x="675" 
d="M549 -301q-141 -82 -318 -82q-111 0 -170 41.5t-59 116.5q0 61 46.5 121t123.5 108v1512h332v-1516h-162q-121 -84 -121 -172q0 -80 94 -80q37 0 72.5 9.5t49.5 16.5t48 25z" />
    <glyph glyph-name="iogonek" unicode="&#x12f;" horiz-adv-x="602" 
d="M299 1198q-87 0 -135.5 47.5t-48.5 118.5q0 72 48.5 119t135.5 47q89 0 138.5 -47t49.5 -119q0 -71 -49.5 -118.5t-138.5 -47.5zM514 -301q-141 -82 -317 -82q-111 0 -170.5 42t-59.5 116q0 61 46.5 121t123.5 108v1088h328v-1092h-158q-121 -84 -121 -172q0 -80 95 -80
q37 0 72.5 9.5t49.5 16.5t48 25z" />
    <glyph glyph-name="Idotaccent" unicode="&#x130;" horiz-adv-x="675" 
d="M336 1610q-89 0 -137.5 43.5t-48.5 109.5t48.5 110t137.5 44q90 0 141 -44t51 -110t-51 -109.5t-141 -43.5zM504 0h-332v1516h332v-1516z" />
    <glyph glyph-name="dotlessi" unicode="&#x131;" horiz-adv-x="602" 
d="M465 0h-328v1092h328v-1092z" />
    <glyph glyph-name="IJ" unicode="&#x132;" horiz-adv-x="1689" 
d="M504 0h-332v1516h332v-1516zM1057 -20q-251 0 -422 149l143 244q139 -127 262 -127q189 0 189 260v1018h334v-1069q0 -223 -122.5 -349t-383.5 -126z" />
    <glyph glyph-name="ij" unicode="&#x133;" horiz-adv-x="1204" 
d="M901 1206q-87 0 -135.5 47.5t-48.5 118.5q0 72 48.5 119t135.5 47q89 0 139 -47t50 -119q0 -71 -50 -118.5t-139 -47.5zM299 1198q-87 0 -135.5 47.5t-48.5 118.5q0 72 48.5 119t135.5 47q89 0 138.5 -47t49.5 -119q0 -71 -49.5 -118.5t-138.5 -47.5zM465 0h-328v1092
h328v-1092zM713 -408q-125 0 -193 15l-18 229q46 -12 104 -12q68 0 100.5 35t32.5 114v1127h328v-1135q0 -62 -6.5 -109.5t-28.5 -99.5t-59 -86t-103.5 -56t-156.5 -22z" />
    <glyph glyph-name="Jcircumflex" unicode="&#x134;" horiz-adv-x="1095" 
d="M426 1608l264 350h219l265 -350h-187l-190 151l-185 -151h-186zM463 -29q-249 0 -422 150l143 244q139 -127 262 -127q189 0 189 260v1018h334v-1070q0 -223 -122.5 -349t-383.5 -126z" />
    <glyph glyph-name="jcircumflex" unicode="&#x135;" horiz-adv-x="602" 
d="M-72 1212l265 351h219l264 -351h-187l-190 152l-184 -152h-187zM111 -416q-125 0 -193 15l-18 229q46 -12 104 -12q68 0 100.5 35t32.5 114v1127h328v-1135q0 -62 -6.5 -109.5t-28.5 -99.5t-59 -86t-103.5 -56t-156.5 -22z" />
    <glyph glyph-name="Kcommaaccent" unicode="&#x136;" horiz-adv-x="1470" 
d="M489 0h-333v1516h333v-627l508 627h389l-514 -592l574 -899l-348 -50l-443 697l-166 -187v-485zM725 -602h-176l49 514h322z" />
    <glyph glyph-name="kcommaaccent" unicode="&#x137;" horiz-adv-x="1198" 
d="M455 0h-330v1491l330 49v-856l340 408h354l-356 -408l383 -659l-314 -50l-274 469l-133 -149v-295zM590 -602h-176l49 514h321z" />
    <glyph glyph-name="kgreenlandic" unicode="&#x138;" horiz-adv-x="1198" 
d="M127 0v1092h328v-408l340 408h354l-356 -406l383 -661l-314 -50l-274 469l-133 -149v-295h-328z" />
    <glyph glyph-name="Lacute" unicode="&#x139;" horiz-adv-x="1200" 
d="M217 1604l191 354h331l-305 -354h-217zM1182 0h-1026v1516h333v-1246h644z" />
    <glyph glyph-name="lacute" unicode="&#x13a;" horiz-adv-x="602" 
d="M184 1604l191 354h332l-306 -354h-217zM465 0h-328v1491l328 49v-1540z" />
    <glyph glyph-name="Lcommaaccent" unicode="&#x13b;" horiz-adv-x="1200" 
d="M1182 0h-1026v1516h333v-1246h644zM590 -602h-176l49 514h321z" />
    <glyph glyph-name="lcommaaccent" unicode="&#x13c;" horiz-adv-x="602" 
d="M465 0h-328v1491l328 49v-1540zM291 -602h-176l49 514h321z" />
    <glyph glyph-name="Lcaron" unicode="&#x13d;" horiz-adv-x="1200" 
d="M1182 0h-1026v1516h333v-1246h644zM801 999h-176l49 514h321z" />
    <glyph glyph-name="lcaron" unicode="&#x13e;" horiz-adv-x="602" 
d="M713 1208h-168l47 494h309zM465 0h-328v1491l328 49v-1540z" />
    <glyph glyph-name="Ldot" unicode="&#x13f;" horiz-adv-x="1277" 
d="M1182 0h-1026v1516h333v-1246h644zM956 698q-76 0 -119.5 42t-43.5 104q0 63 43 104t120 41q79 0 123.5 -41t44.5 -104q0 -62 -45 -104t-123 -42z" />
    <glyph glyph-name="ldot" unicode="&#x140;" horiz-adv-x="899" 
d="M465 0h-328v1491l328 49v-1540zM752 541q-79 0 -123.5 42.5t-44.5 106.5t44.5 106t123.5 42q80 0 125 -42t45 -106t-45 -106.5t-125 -42.5z" />
    <glyph glyph-name="Lslash" unicode="&#x141;" horiz-adv-x="1200" 
d="M1182 0h-1024v657l-166 -43v248l166 45v609h331v-521l291 78v-250l-291 -75v-478h644z" />
    <glyph glyph-name="lslash" unicode="&#x142;" horiz-adv-x="692" 
d="M184 0v805l-139 -39v240l139 38v472h328v-383l135 36v-239l-135 -37v-893h-328z" />
    <glyph glyph-name="Nacute" unicode="&#x143;" horiz-adv-x="1591" 
d="M621 1604l190 354h332l-305 -354h-217zM463 0h-307v1516h333l635 -967h4v967h308v-1516h-308l-661 975h-4v-975z" />
    <glyph glyph-name="nacute" unicode="&#x144;" horiz-adv-x="1265" 
d="M426 1208l190 355h332l-305 -355h-217zM457 0h-330v1092h305l25 -172q149 194 377 194q146 0 231.5 -77.5t85.5 -239.5v-797h-328v692q0 75 -30.5 112.5t-98.5 37.5q-109 0 -237 -109v-733z" />
    <glyph glyph-name="Ncommaaccent" unicode="&#x145;" horiz-adv-x="1591" 
d="M463 0h-307v1516h333l635 -967h4v967h308v-1516h-308l-661 975h-4v-975zM784 -602h-176l49 514h322z" />
    <glyph glyph-name="ncommaaccent" unicode="&#x146;" horiz-adv-x="1265" 
d="M457 0h-330v1092h305l25 -172q149 194 377 194q146 0 231.5 -77.5t85.5 -239.5v-797h-328v692q0 75 -30.5 112.5t-98.5 37.5q-109 0 -237 -109v-733zM627 -602h-176l49 514h321z" />
    <glyph glyph-name="Ncaron" unicode="&#x147;" horiz-adv-x="1591" 
d="M684 1610l-264 350h186l187 -152l188 152h186l-264 -350h-219zM463 0h-307v1516h333l635 -967h4v967h308v-1516h-308l-661 975h-4v-975z" />
    <glyph glyph-name="ncaron" unicode="&#x148;" horiz-adv-x="1265" 
d="M528 1214l-264 351h187l186 -152l188 152h187l-264 -351h-220zM457 0h-330v1092h305l25 -172q149 194 377 194q146 0 231.5 -77.5t85.5 -239.5v-797h-328v692q0 75 -30.5 112.5t-98.5 37.5q-109 0 -237 -109v-733z" />
    <glyph glyph-name="Eng" unicode="&#x14a;" horiz-adv-x="1591" 
d="M158 0v1516h331l635 -967h4v967h308v-1512q0 -198 -119 -309t-363 -111q-105 0 -190 23.5t-137.5 56.5t-106.5 84l174 219q113 -117 242 -117q152 0 180 162v6l-649 959h-4v-977h-305z" />
    <glyph glyph-name="eng" unicode="&#x14b;" horiz-adv-x="1265" 
d="M127 0v1092h330v-172q149 194 377 194q146 0 231.5 -77.5t85.5 -239.5v-901q0 -52 -6.5 -91.5t-28.5 -83t-59 -72t-103.5 -47t-156.5 -18.5q-43 0 -114 5.5t-87 9.5v221q45 -10 94 -10q66 0 99.5 32.5t33.5 104.5v745q0 152 -129 152q-107 0 -237 -111v-733h-330z" />
    <glyph glyph-name="Omacron" unicode="&#x14c;" horiz-adv-x="1597" 
d="M457 1591v234h680v-234h-680zM799 -29q-112 0 -215.5 30t-194.5 94t-159 155.5t-107 222t-39 285.5t39 285.5t107 221.5t159 155t194.5 94t215.5 30q111 0 214 -30t194 -94t158.5 -155t106.5 -221.5t39 -285.5t-39 -285.5t-106.5 -222t-158.5 -155.5t-194 -94t-214 -30z
M799 240q175 0 278 140t103 378q0 237 -103 373.5t-278 136.5q-177 0 -279 -136t-102 -374t102.5 -378t278.5 -140z" />
    <glyph glyph-name="omacron" unicode="&#x14d;" horiz-adv-x="1247" 
d="M283 1196v234h680v-234h-680zM625 -23q-83 0 -160 18t-150.5 60.5t-128 106t-87.5 162t-33 221.5q0 124 33 223t87 162.5t127.5 106t150.5 60t161 17.5q83 0 159.5 -17.5t150 -60t127.5 -106t87 -162.5t33 -223q0 -123 -33 -221.5t-87 -162t-127.5 -106t-150 -60.5
t-159.5 -18zM625 209q113 0 170 89.5t57 244.5q0 147 -55.5 238t-171.5 91q-115 0 -172.5 -88t-57.5 -241q0 -96 21.5 -168t74.5 -119t134 -47z" />
    <glyph glyph-name="Obreve" unicode="&#x14e;" horiz-adv-x="1597" 
d="M797 1581q-167 0 -261 106.5t-102 272.5h176q21 -172 187 -172q34 0 61 6.5t54.5 24t46 53t24.5 88.5h176q-8 -167 -101 -273t-261 -106zM799 -29q-112 0 -215.5 30t-194.5 94t-159 155.5t-107 222t-39 285.5t39 285.5t107 221.5t159 155t194.5 94t215.5 30
q111 0 214 -30t194 -94t158.5 -155t106.5 -221.5t39 -285.5t-39 -285.5t-106.5 -222t-158.5 -155.5t-194 -94t-214 -30zM799 240q175 0 278 140t103 378q0 237 -103 373.5t-278 136.5q-177 0 -279 -136t-102 -374t102.5 -378t278.5 -140z" />
    <glyph glyph-name="obreve" unicode="&#x14f;" horiz-adv-x="1247" 
d="M623 1186q-167 0 -261 106.5t-102 272.5h176q21 -172 187 -172q34 0 61 6.5t54.5 24t46 53t24.5 88.5h176q-8 -167 -101 -273t-261 -106zM625 -23q-83 0 -160 18t-150.5 60.5t-128 106t-87.5 162t-33 221.5q0 124 33 223t87 162.5t127.5 106t150.5 60t161 17.5
q83 0 159.5 -17.5t150 -60t127.5 -106t87 -162.5t33 -223q0 -123 -33 -221.5t-87 -162t-127.5 -106t-150 -60.5t-159.5 -18zM625 209q113 0 170 89.5t57 244.5q0 147 -55.5 238t-171.5 91q-115 0 -172.5 -88t-57.5 -241q0 -96 21.5 -168t74.5 -119t134 -47z" />
    <glyph glyph-name="Ohungarumlaut" unicode="&#x150;" horiz-adv-x="1597" 
d="M817 1604l230 354h331l-342 -354h-219zM426 1604l213 354h332l-328 -354h-217zM799 -29q-112 0 -215.5 30t-194.5 94t-159 155.5t-107 222t-39 285.5t39 285.5t107 221.5t159 155t194.5 94t215.5 30q111 0 214 -30t194 -94t158.5 -155t106.5 -221.5t39 -285.5t-39 -285.5
t-106.5 -222t-158.5 -155.5t-194 -94t-214 -30zM799 240q175 0 278 140t103 378q0 237 -103 373.5t-278 136.5q-177 0 -279 -136t-102 -374t102.5 -378t278.5 -140z" />
    <glyph glyph-name="ohungarumlaut" unicode="&#x151;" horiz-adv-x="1247" 
d="M662 1208l229 355h332l-342 -355h-219zM270 1208l213 355h332l-328 -355h-217zM625 -23q-83 0 -160 18t-150.5 60.5t-128 106t-87.5 162t-33 221.5q0 124 33 223t87 162.5t127.5 106t150.5 60t161 17.5q83 0 159.5 -17.5t150 -60t127.5 -106t87 -162.5t33 -223
q0 -123 -33 -221.5t-87 -162t-127.5 -106t-150 -60.5t-159.5 -18zM625 209q113 0 170 89.5t57 244.5q0 147 -55.5 238t-171.5 91q-115 0 -172.5 -88t-57.5 -241q0 -96 21.5 -168t74.5 -119t134 -47z" />
    <glyph glyph-name="OE" unicode="&#x152;" horiz-adv-x="2314" 
d="M797 240q175 0 277 140t102 378q0 237 -102 373.5t-277 136.5q-177 0 -280 -136.5t-103 -373.5q0 -238 103 -378t280 -140zM778 -29q-110 0 -211.5 30t-190 94t-154 155.5t-103 222t-37.5 285.5t39 285.5t107 221.5t159 155t194.5 94t215.5 30q239 0 411 -158v130h998
v-279h-699v-326h482l49 -264h-531v-377h736v-270h-1035v131q-174 -160 -430 -160z" />
    <glyph glyph-name="oe" unicode="&#x153;" horiz-adv-x="1951" 
d="M623 -23q-83 0 -159.5 18t-150 60.5t-127.5 106t-87 162t-33 221.5q0 124 32.5 223t86.5 162.5t127.5 106t150 60t160.5 17.5q118 0 217 -51t168 -154q71 102 170.5 153.5t205.5 51.5q77 0 144 -15t135 -56.5t116 -107.5t78.5 -176t30.5 -253v-49h-721q19 -250 252 -250
q94 0 182 35t146 88l123 -189q-191 -164 -475 -164q-120 0 -222.5 48.5t-171.5 144.5q-66 -97 -164 -145t-214 -48zM1169 651h424q-23 226 -211 226q-80 0 -137 -55.5t-76 -170.5zM623 217q115 0 171 85.5t56 240.5q0 147 -54.5 235t-172.5 88q-115 0 -171.5 -85t-56.5 -238
q0 -148 54.5 -237t173.5 -89z" />
    <glyph glyph-name="Racute" unicode="&#x154;" horiz-adv-x="1443" 
d="M557 1604l191 354h331l-305 -354h-217zM483 0h-327v1516h569q290 0 443 -112.5t153 -356.5q0 -176 -79.5 -281t-235.5 -152l344 -589l-324 -50l-350 596h-193v-571zM483 1243v-414h228q148 0 216 48t68 161q0 110 -68 157.5t-216 47.5h-228z" />
    <glyph glyph-name="racute" unicode="&#x155;" horiz-adv-x="866" 
d="M270 1208l191 355h332l-306 -355h-217zM455 0h-330v1092h305l25 -183h2q26 40 53.5 71t70 64t101 51.5t127.5 18.5h8l31 -293q-27 4 -76 4q-204 0 -317 -147v-678z" />
    <glyph glyph-name="Rcommaaccent" unicode="&#x156;" horiz-adv-x="1443" 
d="M483 0h-327v1516h569q290 0 443 -112.5t153 -356.5q0 -176 -79.5 -281t-235.5 -152l344 -589l-324 -50l-350 596h-193v-571zM483 1243v-414h228q148 0 216 48t68 161q0 110 -68 157.5t-216 47.5h-228zM711 -602h-176l49 514h321z" />
    <glyph glyph-name="rcommaaccent" unicode="&#x157;" horiz-adv-x="866" 
d="M455 0h-330v1092h305l25 -183h2q26 40 53.5 71t70 64t101 51.5t127.5 18.5h8l31 -293q-27 4 -76 4q-204 0 -317 -147v-678zM279 -602h-177l50 514h321z" />
    <glyph glyph-name="Rcaron" unicode="&#x158;" horiz-adv-x="1443" 
d="M610 1610l-264 350h186l187 -152l188 152h187l-265 -350h-219zM483 0h-327v1516h569q290 0 443 -112.5t153 -356.5q0 -176 -79.5 -281t-235.5 -152l344 -589l-324 -50l-350 596h-193v-571zM483 1243v-414h228q148 0 216 48t68 161q0 110 -68 157.5t-216 47.5h-228z" />
    <glyph glyph-name="rcaron" unicode="&#x159;" horiz-adv-x="866" 
d="M324 1214l-265 351h187l186 -152l189 152h186l-264 -351h-219zM455 0h-330v1092h305l25 -183h2q26 40 53.5 71t70 64t101 51.5t127.5 18.5h8l31 -293q-27 4 -76 4q-204 0 -317 -147v-678z" />
    <glyph glyph-name="Sacute" unicode="&#x15a;" horiz-adv-x="1417" 
d="M543 1604l190 354h332l-305 -354h-217zM735 -29q-369 0 -661 271l174 223q90 -93 223 -161t254 -68q125 0 199.5 44.5t74.5 129.5q0 81 -72 127.5t-235 91.5q-204 57 -283 92q-186 80 -242 217q-28 68 -28 154q0 209 151 330.5t396 121.5q164 0 315 -61t271 -158
l-154 -238q-89 77 -206 131t-218 54q-108 0 -168.5 -41.5t-60.5 -110.5q0 -36 14 -64.5t37 -49t65.5 -40t85 -33t109.5 -32.5q71 -19 115 -32.5t109 -37.5t105 -46.5t86.5 -59t72.5 -76.5t43.5 -96t17.5 -121q0 -93 -36.5 -175t-107.5 -146.5t-185.5 -102t-260.5 -37.5z" />
    <glyph glyph-name="sacute" unicode="&#x15b;" horiz-adv-x="1093" 
d="M383 1208l190 355h332l-305 -355h-217zM555 -23q-278 0 -504 156l111 193q85 -59 191.5 -98.5t201.5 -39.5q79 0 126.5 27.5t47.5 79.5q0 55 -45.5 82.5t-161.5 48.5q-41 7 -69.5 13t-67.5 15.5t-66 19.5t-60 25.5t-55 33t-44.5 41.5t-35.5 52t-21.5 64t-8.5 78
q0 161 118.5 253.5t305.5 92.5q144 0 255 -33t216 -96l-100 -197q-84 50 -174 77.5t-168 27.5q-70 0 -109 -25.5t-39 -70.5q0 -48 44.5 -72.5t150.5 -44.5q43 -7 72.5 -13t69.5 -15.5t68.5 -19.5t62 -25t56.5 -32t46 -40.5t36.5 -50.5t22 -62.5t8.5 -75.5q0 -96 -39 -168.5
t-107.5 -115.5t-152.5 -64t-182 -21z" />
    <glyph glyph-name="Scircumflex" unicode="&#x15c;" horiz-adv-x="1417" 
d="M317 1608l265 350h219l264 -350h-186l-191 151l-184 -151h-187zM735 -29q-369 0 -661 271l174 223q90 -93 223 -161t254 -68q125 0 199.5 44.5t74.5 129.5q0 81 -72 127.5t-235 91.5q-204 57 -283 92q-186 80 -242 217q-28 68 -28 154q0 209 151 330.5t396 121.5
q164 0 315 -61t271 -158l-154 -238q-89 77 -206 131t-218 54q-108 0 -168.5 -41.5t-60.5 -110.5q0 -36 14 -64.5t37 -49t65.5 -40t85 -33t109.5 -32.5q71 -19 115 -32.5t109 -37.5t105 -46.5t86.5 -59t72.5 -76.5t43.5 -96t17.5 -121q0 -93 -36.5 -175t-107.5 -146.5
t-185.5 -102t-260.5 -37.5z" />
    <glyph glyph-name="scircumflex" unicode="&#x15d;" horiz-adv-x="1093" 
d="M166 1212l264 351h219l264 -351h-186l-190 152l-185 -152h-186zM555 -23q-278 0 -504 156l111 193q85 -59 191.5 -98.5t201.5 -39.5q79 0 126.5 27.5t47.5 79.5q0 55 -45.5 82.5t-161.5 48.5q-41 7 -69.5 13t-67.5 15.5t-66 19.5t-60 25.5t-55 33t-44.5 41.5t-35.5 52
t-21.5 64t-8.5 78q0 161 118.5 253.5t305.5 92.5q144 0 255 -33t216 -96l-100 -197q-84 50 -174 77.5t-168 27.5q-70 0 -109 -25.5t-39 -70.5q0 -48 44.5 -72.5t150.5 -44.5q43 -7 72.5 -13t69.5 -15.5t68.5 -19.5t62 -25t56.5 -32t46 -40.5t36.5 -50.5t22 -62.5t8.5 -75.5
q0 -96 -39 -168.5t-107.5 -115.5t-152.5 -64t-182 -21z" />
    <glyph glyph-name="Scedilla" unicode="&#x15e;" horiz-adv-x="1417" 
d="M733 -414q-187 0 -303 76l59 98q91 -61 218 -61q102 0 102 70q0 55 -66 55q-44 0 -88 -35l-82 41l48 147q-301 38 -547 265l174 223q90 -93 223 -161t254 -68q125 0 199.5 44.5t74.5 129.5q0 81 -72 127.5t-235 91.5q-204 57 -283 92q-186 80 -242 217q-28 68 -28 154
q0 209 151 330.5t396 121.5q164 0 315 -61t271 -158l-154 -238q-89 77 -206 131t-218 54q-108 0 -168.5 -41.5t-60.5 -110.5q0 -36 14 -64.5t37 -49t65.5 -40t85 -33t109.5 -32.5q71 -19 115 -32.5t109 -37.5t105 -46.5t86.5 -59t72.5 -76.5t43.5 -96t17.5 -121
q0 -92 -35 -172.5t-103.5 -144.5t-179 -102.5t-251.5 -41.5l-17 -65q50 31 131 31q62 0 106 -38.5t44 -105.5q0 -94 -82 -150.5t-205 -56.5z" />
    <glyph glyph-name="scedilla" unicode="&#x15f;" horiz-adv-x="1093" 
d="M571 -414q-187 0 -303 76l60 98q91 -61 217 -61q102 0 102 70q0 55 -65 55q-44 0 -88 -35l-82 41l47 152q-226 24 -408 151l111 193q85 -59 191.5 -98.5t201.5 -39.5q79 0 126.5 27.5t47.5 79.5q0 55 -45.5 82.5t-161.5 48.5q-41 7 -69.5 13t-67.5 15.5t-66 19.5
t-60 25.5t-55 33t-44.5 41.5t-35.5 52t-21.5 64t-8.5 78q0 161 118.5 253.5t305.5 92.5q144 0 255 -33t216 -96l-100 -197q-84 50 -174 77.5t-168 27.5q-70 0 -109 -25.5t-39 -70.5q0 -48 44.5 -72.5t150.5 -44.5q43 -7 72.5 -13t69.5 -15.5t68.5 -19.5t62 -25t56.5 -32
t46 -40.5t36.5 -50.5t22 -62.5t8.5 -75.5q0 -91 -35 -161t-97 -113t-140 -66.5t-170 -28.5l-16 -71q50 31 131 31q62 0 105.5 -38.5t43.5 -105.5q0 -94 -82 -150.5t-205 -56.5z" />
    <glyph glyph-name="Scaron" unicode="&#x160;" horiz-adv-x="1417" 
d="M598 1616l-264 350h186l187 -151l188 151h186l-264 -350h-219zM735 -29q-369 0 -661 271l174 223q90 -93 223 -161t254 -68q125 0 199.5 44.5t74.5 129.5q0 81 -72 127.5t-235 91.5q-204 57 -283 92q-186 80 -242 217q-28 68 -28 154q0 209 151 330.5t396 121.5
q164 0 315 -61t271 -158l-154 -238q-89 77 -206 131t-218 54q-108 0 -168.5 -41.5t-60.5 -110.5q0 -36 14 -64.5t37 -49t65.5 -40t85 -33t109.5 -32.5q71 -19 115 -32.5t109 -37.5t105 -46.5t86.5 -59t72.5 -76.5t43.5 -96t17.5 -121q0 -93 -36.5 -175t-107.5 -146.5
t-185.5 -102t-260.5 -37.5z" />
    <glyph glyph-name="scaron" unicode="&#x161;" horiz-adv-x="1093" 
d="M438 1214l-264 351h186l187 -152l188 152h187l-265 -351h-219zM555 -23q-278 0 -504 156l111 193q85 -59 191.5 -98.5t201.5 -39.5q79 0 126.5 27.5t47.5 79.5q0 55 -45.5 82.5t-161.5 48.5q-41 7 -69.5 13t-67.5 15.5t-66 19.5t-60 25.5t-55 33t-44.5 41.5t-35.5 52
t-21.5 64t-8.5 78q0 161 118.5 253.5t305.5 92.5q144 0 255 -33t216 -96l-100 -197q-84 50 -174 77.5t-168 27.5q-70 0 -109 -25.5t-39 -70.5q0 -48 44.5 -72.5t150.5 -44.5q43 -7 72.5 -13t69.5 -15.5t68.5 -19.5t62 -25t56.5 -32t46 -40.5t36.5 -50.5t22 -62.5t8.5 -75.5
q0 -96 -39 -168.5t-107.5 -115.5t-152.5 -64t-182 -21z" />
    <glyph glyph-name="Tcaron" unicode="&#x164;" horiz-adv-x="1327" 
d="M553 1610l-264 350h186l187 -152l188 152h186l-264 -350h-219zM829 0h-333v1237h-451v279h1212l50 -279h-478v-1237z" />
    <glyph glyph-name="tcaron" unicode="&#x165;" horiz-adv-x="874" 
d="M797 1233h-168l47 493h309zM584 -14q-198 0 -284.5 75t-86.5 267v524h-182v240h182v350l328 49v-399h280v-240h-280v-487q0 -82 35 -111t106 -29q50 0 113 19l22 -240q-23 -5 -101 -11.5t-132 -6.5z" />
    <glyph glyph-name="Tbar" unicode="&#x166;" horiz-adv-x="1327" 
d="M1280 569h-451v-569h-331v569h-453v248h453v420h-453v279h1212l50 -279h-478v-420h451v-248z" />
    <glyph glyph-name="tbar" unicode="&#x167;" horiz-adv-x="874" 
d="M817 4q-23 -5 -101 -11.5t-132 -6.5q-198 0 -284.5 75t-86.5 267v127h-180v209h180v188h-182v240h182v350l328 49v-399h280v-240h-280v-188h280v-209h-280v-90q0 -82 35 -111t106 -29q50 0 113 19z" />
    <glyph glyph-name="Utilde" unicode="&#x168;" horiz-adv-x="1484" 
d="M901 1583q-51 0 -97.5 18t-75 39.5t-63 39.5t-63.5 18q-86 0 -80 -125l-178 29q0 151 65.5 231t178.5 80q51 0 97.5 -18t75 -39.5t63 -39.5t63.5 -18q86 0 80 125l176 -29q0 -150 -65 -230.5t-177 -80.5zM743 -25q-308 0 -460 159t-152 446v936h334v-928q0 -342 283 -342
q145 0 211.5 86t66.5 256v928h328v-934q0 -289 -151.5 -448t-459.5 -159z" />
    <glyph glyph-name="utilde" unicode="&#x169;" horiz-adv-x="1265" 
d="M788 1188q-51 0 -97.5 18t-75 39.5t-63 39.5t-63.5 18q-85 0 -79 -125l-179 28q0 151 65.5 231.5t178.5 80.5q51 0 97.5 -18t75 -39.5t63 -39.5t63.5 -18q86 0 80 125l176 -29q0 -150 -65 -230.5t-177 -80.5zM434 -23q-147 0 -233 78t-86 240v797h329v-701q0 -75 31 -113
t98 -38q109 0 238 110v742h330v-1092h-305l-25 170q-152 -193 -377 -193z" />
    <glyph glyph-name="Umacron" unicode="&#x16a;" horiz-adv-x="1484" 
d="M401 1591v234h680v-234h-680zM743 -25q-308 0 -460 159t-152 446v936h334v-928q0 -342 283 -342q145 0 211.5 86t66.5 256v928h328v-934q0 -289 -151.5 -448t-459.5 -159z" />
    <glyph glyph-name="umacron" unicode="&#x16b;" horiz-adv-x="1265" 
d="M291 1196v234h680v-234h-680zM434 -23q-147 0 -233 78t-86 240v797h329v-701q0 -75 31 -113t98 -38q109 0 238 110v742h330v-1092h-305l-25 170q-152 -193 -377 -193z" />
    <glyph glyph-name="Ubreve" unicode="&#x16c;" horiz-adv-x="1484" 
d="M743 1581q-166 0 -260 106.5t-102 272.5h176q21 -172 186 -172q34 0 61 6.5t55 24t46.5 53t24.5 88.5h176q-8 -167 -101.5 -273t-261.5 -106zM743 -25q-308 0 -460 159t-152 446v936h334v-928q0 -342 283 -342q145 0 211.5 86t66.5 256v928h328v-934q0 -289 -151.5 -448
t-459.5 -159z" />
    <glyph glyph-name="ubreve" unicode="&#x16d;" horiz-adv-x="1265" 
d="M631 1186q-167 0 -261 106.5t-102 272.5h176q21 -172 187 -172q34 0 61 6.5t54.5 24t46 53t24.5 88.5h176q-8 -167 -101 -273t-261 -106zM434 -23q-147 0 -233 78t-86 240v797h329v-701q0 -75 31 -113t98 -38q109 0 238 110v742h330v-1092h-305l-25 170
q-152 -193 -377 -193z" />
    <glyph glyph-name="Uring" unicode="&#x16e;" horiz-adv-x="1484" 
d="M741 1585q-97 0 -160 64t-63 161q0 94 63.5 158t159.5 64t161 -64t65 -158q0 -97 -64.5 -161t-161.5 -64zM741 1710q41 0 68 28t27 72q0 41 -27 69t-68 28t-67.5 -27.5t-26.5 -69.5q0 -44 26.5 -72t67.5 -28zM743 -25q-308 0 -460 159t-152 446v936h334v-928
q0 -342 283 -342q145 0 211.5 86t66.5 256v928h328v-934q0 -289 -151.5 -448t-459.5 -159z" />
    <glyph glyph-name="uring" unicode="&#x16f;" horiz-adv-x="1265" 
d="M631 1190q-97 0 -160 64t-63 161q0 94 63.5 157.5t159.5 63.5t160.5 -63.5t64.5 -157.5q0 -97 -64 -161t-161 -64zM631 1315q41 0 67.5 28t26.5 72q0 41 -26.5 68.5t-67.5 27.5t-67.5 -27.5t-26.5 -68.5q0 -44 26.5 -72t67.5 -28zM434 -23q-147 0 -233 78t-86 240v797
h329v-701q0 -75 31 -113t98 -38q109 0 238 110v742h330v-1092h-305l-25 170q-152 -193 -377 -193z" />
    <glyph glyph-name="Uhungarumlaut" unicode="&#x170;" horiz-adv-x="1484" 
d="M776 1604l230 354h331l-342 -354h-219zM385 1604l213 354h332l-328 -354h-217zM743 -25q-308 0 -460 159t-152 446v936h334v-928q0 -342 283 -342q145 0 211.5 86t66.5 256v928h328v-934q0 -289 -151.5 -448t-459.5 -159z" />
    <glyph glyph-name="uhungarumlaut" unicode="&#x171;" horiz-adv-x="1265" 
d="M684 1208l229 355h332l-342 -355h-219zM293 1208l213 355h332l-328 -355h-217zM434 -23q-147 0 -233 78t-86 240v797h329v-701q0 -75 31 -113t98 -38q109 0 238 110v742h330v-1092h-305l-25 170q-152 -193 -377 -193z" />
    <glyph glyph-name="Uogonek" unicode="&#x172;" horiz-adv-x="1484" 
d="M782 -383q-111 0 -170 41.5t-59 116.5q0 106 131 202q-278 15 -415.5 173t-137.5 430v936h334v-928q0 -342 283 -342q145 0 211.5 86t66.5 256v928h328v-934q0 -257 -120 -411.5t-364 -186.5q-98 -78 -98 -156q0 -80 94 -80q37 0 72.5 9.5t49.5 16.5t48 25l64 -100
q-141 -82 -318 -82z" />
    <glyph glyph-name="uogonek" unicode="&#x173;" horiz-adv-x="1265" 
d="M1186 -301q-141 -82 -318 -82q-111 0 -170 41.5t-59 116.5q0 64 52 128t136 111h7l-23 156q-152 -193 -377 -193q-147 0 -233 78t-86 240v797h329v-701q0 -75 31 -113t98 -38q109 0 238 110v742h330v-1092h-162q-121 -84 -121 -172q0 -80 94 -80q37 0 72.5 9.5t49.5 16.5
t48 25z" />
    <glyph glyph-name="Wcircumflex" unicode="&#x174;" horiz-adv-x="1957" 
d="M604 1608l264 350h219l265 -350h-187l-190 151l-184 -151h-187zM735 0h-289l-397 1491l324 49l166 -715q53 -204 73 -331h4q16 111 70 329l154 693h307l164 -697q7 -30 20 -81t19.5 -78.5t15.5 -72.5t16 -93h4q7 49 15.5 93.5t14.5 69.5t19 78t19 80l154 701h307
l-395 -1516h-285l-240 1055h-4z" />
    <glyph glyph-name="wcircumflex" unicode="&#x175;" horiz-adv-x="1587" 
d="M420 1212l264 351h219l264 -351h-186l-190 152l-185 -152h-186zM627 0h-303l-312 1067l318 49l100 -416q53 -225 72 -333h4q34 183 76 342l94 383h256l100 -390q32 -112 78 -335h4q36 185 76 331l100 394h293l-319 -1092h-306l-163 666h-4z" />
    <glyph glyph-name="Ycircumflex" unicode="&#x176;" horiz-adv-x="1415" 
d="M332 1608l264 350h219l264 -350h-186l-191 151l-184 -151h-186zM872 0h-331v643l-508 848l315 49l361 -614l348 590h340l-525 -873v-643z" />
    <glyph glyph-name="ycircumflex" unicode="&#x177;" horiz-adv-x="1146" 
d="M213 1212l264 351h219l265 -351h-187l-190 152l-185 -152h-186zM297 -418q-124 0 -205 17l-24 274q98 -27 194 -27q54 0 86.5 22t52.5 73l21 53l-408 1073l324 49l246 -733h4l241 709h320l-459 -1207q-40 -100 -86.5 -163.5t-123.5 -101.5t-183 -38z" />
    <glyph glyph-name="Ydieresis" unicode="&#x178;" horiz-adv-x="1415" 
d="M928 1577q-74 0 -116 47.5t-42 118.5q0 70 42 117t116 47q77 0 119.5 -46.5t42.5 -117.5t-43 -118.5t-119 -47.5zM489 1577q-74 0 -115.5 47.5t-41.5 118.5t41.5 117.5t115.5 46.5q77 0 119.5 -46.5t42.5 -117.5t-43 -118.5t-119 -47.5zM872 0h-331v643l-508 848l315 49
l361 -614l348 590h340l-525 -873v-643z" />
    <glyph glyph-name="Zacute" unicode="&#x179;" horiz-adv-x="1351" 
d="M479 1604l191 354h331l-305 -354h-217zM1296 0h-1235v229l791 1010h-715l-49 277h1184v-238l-774 -1008h749z" />
    <glyph glyph-name="zacute" unicode="&#x17a;" horiz-adv-x="1085" 
d="M379 1208l190 355h332l-305 -355h-217zM1057 0h-998v170l529 682h-469l-41 240h917v-174l-530 -685h551z" />
    <glyph glyph-name="Zdotaccent" unicode="&#x17b;" horiz-adv-x="1351" 
d="M672 1610q-89 0 -138 43.5t-49 109.5t49 110t138 44q90 0 141 -44t51 -110t-51 -109.5t-141 -43.5zM1296 0h-1235v229l791 1010h-715l-49 277h1184v-238l-774 -1008h749z" />
    <glyph glyph-name="zdotaccent" unicode="&#x17c;" horiz-adv-x="1085" 
d="M541 1214q-89 0 -138 44t-49 110t49 110t138 44q90 0 141 -44t51 -110t-51 -110t-141 -44zM1057 0h-998v170l529 682h-469l-41 240h917v-174l-530 -685h551z" />
    <glyph glyph-name="Zcaron" unicode="&#x17d;" horiz-adv-x="1351" 
d="M580 1616l-265 350h187l186 -151l189 151h186l-264 -350h-219zM1296 0h-1235v229l791 1010h-715l-49 277h1184v-238l-774 -1008h749z" />
    <glyph glyph-name="zcaron" unicode="&#x17e;" horiz-adv-x="1085" 
d="M442 1214l-264 351h187l186 -152l188 152h187l-264 -351h-220zM1057 0h-998v170l529 682h-469l-41 240h917v-174l-530 -685h551z" />
    <glyph glyph-name="florin" unicode="&#x192;" horiz-adv-x="860" 
d="M-184 -401l28 221q32 -8 95 -8q79 0 121.5 37.5t52.5 123.5l104 813h-188l28 230h189l18 151q7 61 20.5 109t44 96.5t76 80t118 51.5t167.5 20q45 0 113 -5.5t86 -9.5l-31 -229q-32 8 -94 8q-27 0 -47.5 -2.5t-43.5 -10t-38.5 -21.5t-27.5 -38.5t-15 -58.5l-17 -141h238
l-29 -230h-237l-113 -878q-7 -54 -20 -96.5t-43 -87t-74.5 -74t-117 -48t-167.5 -18.5q-43 0 -111.5 5.5t-84.5 9.5z" />
    <glyph glyph-name="Scommaaccent" unicode="&#x218;" horiz-adv-x="1417" 
d="M735 -29q-369 0 -661 271l174 223q90 -93 223 -161t254 -68q125 0 199.5 44.5t74.5 129.5q0 81 -72 127.5t-235 91.5q-204 57 -283 92q-186 80 -242 217q-28 68 -28 154q0 209 151 330.5t396 121.5q164 0 315 -61t271 -158l-154 -238q-89 77 -206 131t-218 54
q-108 0 -168.5 -41.5t-60.5 -110.5q0 -36 14 -64.5t37 -49t65.5 -40t85 -33t109.5 -32.5q71 -19 115 -32.5t109 -37.5t105 -46.5t86.5 -59t72.5 -76.5t43.5 -96t17.5 -121q0 -93 -36.5 -175t-107.5 -146.5t-185.5 -102t-260.5 -37.5zM698 -602h-176l49 514h322z" />
    <glyph glyph-name="scommaaccent" unicode="&#x219;" horiz-adv-x="1093" 
d="M555 -23q-278 0 -504 156l111 193q85 -59 191.5 -98.5t201.5 -39.5q79 0 126.5 27.5t47.5 79.5q0 55 -45.5 82.5t-161.5 48.5q-41 7 -69.5 13t-67.5 15.5t-66 19.5t-60 25.5t-55 33t-44.5 41.5t-35.5 52t-21.5 64t-8.5 78q0 161 118.5 253.5t305.5 92.5q144 0 255 -33
t216 -96l-100 -197q-84 50 -174 77.5t-168 27.5q-70 0 -109 -25.5t-39 -70.5q0 -48 44.5 -72.5t150.5 -44.5q43 -7 72.5 -13t69.5 -15.5t68.5 -19.5t62 -25t56.5 -32t46 -40.5t36.5 -50.5t22 -62.5t8.5 -75.5q0 -96 -39 -168.5t-107.5 -115.5t-152.5 -64t-182 -21zM537 -602
h-177l50 514h321z" />
    <glyph glyph-name="Tcommaaccent" unicode="&#x21a;" horiz-adv-x="1327" 
d="M829 0h-333v1237h-451v279h1212l50 -279h-478v-1237zM653 -602h-176l49 514h322z" />
    <glyph glyph-name="tcommaaccent" unicode="&#x21b;" horiz-adv-x="874" 
d="M584 -14q-198 0 -284.5 75t-86.5 267v524h-182v240h182v350l328 49v-399h280v-240h-280v-487q0 -82 35 -111t106 -29q50 0 113 19l22 -240q-23 -5 -101 -11.5t-132 -6.5zM397 -602h-176l49 514h322z" />
    <glyph glyph-name="schwa" unicode="&#x259;" horiz-adv-x="1181" 
d="M559 1114q89 0 168 -18t151 -60.5t124 -106.5t83 -161.5t31 -220.5q0 -122 -36 -221.5t-92.5 -163t-130.5 -106.5t-146.5 -61t-143.5 -18q-73 0 -139 15t-134 57t-117 108t-80 176t-31 253v49h722q-12 129 -78.5 189.5t-174.5 60.5q-92 0 -180.5 -35t-147.5 -88l-123 188
q191 164 475 164zM784 440h-424q24 -227 209 -227q81 0 139 56t76 171z" />
    <glyph glyph-name="uni02BB" unicode="&#x2bb;" horiz-adv-x="577" 
d="M311 1516h195l-55 -564h-353z" />
    <glyph glyph-name="uni02BC" unicode="&#x2bc;" horiz-adv-x="577" 
d="M293 952h-195l56 564h352z" />
    <glyph glyph-name="circumflex" unicode="&#x2c6;" horiz-adv-x="1132" 
d="M193 1212l264 351h219l264 -351h-186l-191 152l-184 -152h-186z" />
    <glyph glyph-name="caron" unicode="&#x2c7;" horiz-adv-x="1132" 
d="M457 1214l-264 351h186l186 -152l189 152h186l-264 -351h-219z" />
    <glyph glyph-name="uni02C9" unicode="&#x2c9;" horiz-adv-x="1024" 
d="M172 1196v234h680v-234h-680z" />
    <glyph glyph-name="breve" unicode="&#x2d8;" horiz-adv-x="1024" 
d="M512 1186q-166 0 -260 106.5t-102 272.5h176q21 -172 186 -172q34 0 61 6.5t54.5 24t46 53t24.5 88.5h176q-8 -167 -101 -273t-261 -106z" />
    <glyph glyph-name="dotaccent" unicode="&#x2d9;" horiz-adv-x="1024" 
d="M510 1214q-89 0 -137.5 44t-48.5 110t48.5 110t137.5 44q90 0 141 -44t51 -110t-51 -110t-141 -44z" />
    <glyph glyph-name="ring" unicode="&#x2da;" horiz-adv-x="1105" 
d="M553 1190q-97 0 -160 64t-63 161q0 94 63.5 157.5t159.5 63.5t160.5 -63.5t64.5 -157.5q0 -97 -64 -161t-161 -64zM553 1315q41 0 67.5 28t26.5 72q0 41 -26.5 68.5t-67.5 27.5t-67.5 -27.5t-26.5 -68.5q0 -44 26.5 -72t67.5 -28z" />
    <glyph glyph-name="ogonek" unicode="&#x2db;" horiz-adv-x="1024" 
d="M549 -383q-111 0 -170.5 42t-59.5 116q0 64 52 128t137 111h172q-141 -92 -141 -186q0 -80 94 -80q37 0 72.5 9.5t49.5 16.5t48 25l63 -100q-141 -82 -317 -82z" />
    <glyph glyph-name="tilde" unicode="&#x2dc;" horiz-adv-x="1071" 
d="M692 1188q-51 0 -97.5 18t-75 39.5t-63 39.5t-63.5 18q-86 0 -80 -125l-178 28q0 151 65.5 231.5t178.5 80.5q51 0 97.5 -18t75 -39.5t63 -39.5t63.5 -18q86 0 80 125l176 -29q0 -150 -65 -230.5t-177 -80.5z" />
    <glyph glyph-name="hungarumlaut" unicode="&#x2dd;" horiz-adv-x="1077" 
d="M492 1208l229 355h332l-342 -355h-219zM100 1208l213 355h332l-328 -355h-217z" />
    <glyph glyph-name="Delta" unicode="&#x394;" horiz-adv-x="1458" 
d="M35 0l538 1522h310l540 -1522h-1388zM426 268h580l-285 828h-4z" />
    <glyph glyph-name="Omega" unicode="&#x3a9;" horiz-adv-x="1589" 
d="M795 1544q162 0 295 -61t218 -163t131 -230t46 -267q0 -157 -70.5 -303t-202.5 -250h258v-270h-538v270q118 129 168.5 253t50.5 298q0 121 -39.5 220.5t-122.5 163t-198 63.5q-111 0 -192.5 -61.5t-121 -160.5t-39.5 -221q0 -174 51 -300.5t168 -254.5v-270h-538v270
h258q-131 101 -201 249.5t-70 303.5q0 139 46 267.5t131 230t218 162.5t294 61z" />
    <glyph glyph-name="mu" unicode="&#x3bc;" horiz-adv-x="1275" 
d="M455 -410h-330v1502h330v-695q0 -149 129 -149q114 0 237 110v734h330v-1092h-330v170q-111 -137 -258 -172q-68 -10 -108 8v-416z" />
    <glyph glyph-name="pi" unicode="&#x3c0;" horiz-adv-x="1404" 
d="M14 856v238h1377v-238h-177v-856h-327v856h-369v-856h-328v856h-176z" />
    <glyph glyph-name="Wgrave" unicode="&#x1e80;" horiz-adv-x="1957" 
d="M909 1604l-303 354h330l190 -354h-217zM735 0h-289l-397 1491l324 49l166 -715q53 -204 73 -331h4q16 111 70 329l154 693h307l164 -697q7 -30 20 -81t19.5 -78.5t15.5 -72.5t16 -93h4q7 49 15.5 93.5t14.5 69.5t19 78t19 80l154 701h307l-395 -1516h-285l-240 1055h-4z
" />
    <glyph glyph-name="wgrave" unicode="&#x1e81;" horiz-adv-x="1587" 
d="M694 1208l-303 355h330l190 -355h-217zM627 0h-303l-312 1067l318 49l100 -416q53 -225 72 -333h4q34 183 76 342l94 383h256l100 -390q32 -112 78 -335h4q36 185 76 331l100 394h293l-319 -1092h-306l-163 666h-4z" />
    <glyph glyph-name="Wacute" unicode="&#x1e82;" horiz-adv-x="1957" 
d="M848 1604l190 354h332l-305 -354h-217zM735 0h-289l-397 1491l324 49l166 -715q53 -204 73 -331h4q16 111 70 329l154 693h307l164 -697q7 -30 20 -81t19.5 -78.5t15.5 -72.5t16 -93h4q7 49 15.5 93.5t14.5 69.5t19 78t19 80l154 701h307l-395 -1516h-285l-240 1055h-4z
" />
    <glyph glyph-name="wacute" unicode="&#x1e83;" horiz-adv-x="1587" 
d="M690 1208l191 355h331l-305 -355h-217zM627 0h-303l-312 1067l318 49l100 -416q53 -225 72 -333h4q34 183 76 342l94 383h256l100 -390q32 -112 78 -335h4q36 185 76 331l100 394h293l-319 -1092h-306l-163 666h-4z" />
    <glyph glyph-name="Wdieresis" unicode="&#x1e84;" horiz-adv-x="1957" 
d="M1194 1577q-74 0 -116 47.5t-42 118.5q0 70 42 117t116 47q77 0 119.5 -46.5t42.5 -117.5t-43 -118.5t-119 -47.5zM756 1577q-74 0 -116 47.5t-42 118.5q0 70 42 117t116 47q77 0 119.5 -46.5t42.5 -117.5t-43 -118.5t-119 -47.5zM735 0h-289l-397 1491l324 49l166 -715
q53 -204 73 -331h4q16 111 70 329l154 693h307l164 -697q7 -30 20 -81t19.5 -78.5t15.5 -72.5t16 -93h4q7 49 15.5 93.5t14.5 69.5t19 78t19 80l154 701h307l-395 -1516h-285l-240 1055h-4z" />
    <glyph glyph-name="wdieresis" unicode="&#x1e85;" horiz-adv-x="1587" 
d="M1010 1182q-74 0 -116 47.5t-42 118.5q0 70 42 116.5t116 46.5q77 0 119 -46t42 -117t-42.5 -118.5t-118.5 -47.5zM571 1182q-74 0 -115.5 47.5t-41.5 118.5q0 70 41.5 116.5t115.5 46.5q77 0 119.5 -46t42.5 -117t-43 -118.5t-119 -47.5zM627 0h-303l-312 1067l318 49
l100 -416q53 -225 72 -333h4q34 183 76 342l94 383h256l100 -390q32 -112 78 -335h4q36 185 76 331l100 394h293l-319 -1092h-306l-163 666h-4z" />
    <glyph glyph-name="Ygrave" unicode="&#x1ef2;" horiz-adv-x="1415" 
d="M672 1604l-303 354h329l191 -354h-217zM872 0h-331v643l-508 848l315 49l361 -614l348 590h340l-525 -873v-643z" />
    <glyph glyph-name="ygrave" unicode="&#x1ef3;" horiz-adv-x="1146" 
d="M504 1208l-303 355h329l191 -355h-217zM297 -418q-124 0 -205 17l-24 274q98 -27 194 -27q54 0 86.5 22t52.5 73l21 53l-408 1073l324 49l246 -733h4l241 709h320l-459 -1207q-40 -100 -86.5 -163.5t-123.5 -101.5t-183 -38z" />
    <glyph glyph-name="uni2000" unicode="&#x2000;" horiz-adv-x="1024" 
 />
    <glyph glyph-name="uni2001" unicode="&#x2001;" horiz-adv-x="2048" 
 />
    <glyph glyph-name="space.en" unicode="&#x2002;" horiz-adv-x="1024" 
 />
    <glyph glyph-name="space.em" unicode="&#x2003;" horiz-adv-x="2048" 
 />
    <glyph glyph-name="uni2004" unicode="&#x2004;" horiz-adv-x="681" 
 />
    <glyph glyph-name="uni2005" unicode="&#x2005;" horiz-adv-x="512" 
 />
    <glyph glyph-name="space.tab_en" unicode="&#x2007;" 
 />
    <glyph glyph-name="space.thin" unicode="&#x2009;" horiz-adv-x="409" 
 />
    <glyph glyph-name="uni200A" unicode="&#x200a;" horiz-adv-x="204" 
 />
    <glyph glyph-name="uni200B" unicode="&#x200b;" horiz-adv-x="0" 
 />
    <glyph glyph-name="endash.tab" unicode="&#x2012;" 
d="M84 500v276h1163v-276h-1163z" />
    <glyph glyph-name="endash" unicode="&#x2013;" horiz-adv-x="1388" 
d="M1276 500h-1163v276h1163v-276z" />
    <glyph glyph-name="emdash" unicode="&#x2014;" horiz-adv-x="1931" 
d="M1819 498h-1706v278h1706v-278z" />
    <glyph glyph-name="emdash.salt_em" unicode="&#x2015;" horiz-adv-x="2048" 
d="M0 498v278h2048v-278h-2048z" />
    <glyph glyph-name="quoteleft" unicode="&#x2018;" horiz-adv-x="577" 
d="M311 1516h195l-55 -564h-353z" />
    <glyph glyph-name="quoteright" unicode="&#x2019;" horiz-adv-x="577" 
d="M293 952h-195l56 564h352z" />
    <glyph glyph-name="quotesinglbase" unicode="&#x201a;" horiz-adv-x="577" 
d="M272 -246h-194l55 563h352z" />
    <glyph glyph-name="quotedblleft" unicode="&#x201c;" horiz-adv-x="1062" 
d="M311 1516h195l-55 -564h-353zM797 1516h194l-55 -564h-352z" />
    <glyph glyph-name="quotedblright" unicode="&#x201d;" horiz-adv-x="1062" 
d="M778 952h-194l55 564h352zM293 952h-195l56 564h352z" />
    <glyph glyph-name="quotedblbase" unicode="&#x201e;" horiz-adv-x="1062" 
d="M758 -246h-195l55 563h353zM272 -246h-194l55 563h352z" />
    <glyph glyph-name="dagger" unicode="&#x2020;" horiz-adv-x="1251" 
d="M797 -410h-344l51 1164l-443 -33v301l443 -37l-51 531h344l-52 -531l443 37v-301l-443 33z" />
    <glyph glyph-name="daggerdbl" unicode="&#x2021;" horiz-adv-x="1251" 
d="M797 -410h-344l51 420l-402 -37v287l402 -35l-43 328l43 326l-402 -33v284l402 -34l-51 420h344l-52 -420l402 34v-284l-402 33l43 -326l-43 -328l402 35v-287l-402 37z" />
    <glyph glyph-name="bullet" unicode="&#x2022;" horiz-adv-x="948" 
d="M473 438q-120 0 -199 79.5t-79 199.5q0 121 79 200.5t199 79.5q122 0 201.5 -79.5t79.5 -200.5q0 -120 -80 -199.5t-201 -79.5z" />
    <glyph glyph-name="ellipsis" unicode="&#x2026;" horiz-adv-x="1730" 
d="M1440 -16q-92 0 -143.5 50t-51.5 124q0 75 51.5 124.5t143.5 49.5q93 0 145.5 -49.5t52.5 -124.5q0 -74 -52.5 -124t-145.5 -50zM862 -16q-91 0 -142.5 50t-51.5 124q0 75 51 124.5t143 49.5q93 0 146 -49.5t53 -124.5q0 -74 -53 -124t-146 -50zM289 -16q-92 0 -143.5 50
t-51.5 124q0 75 51.5 124.5t143.5 49.5q93 0 145.5 -49.5t52.5 -124.5q0 -74 -52.5 -124t-145.5 -50z" />
    <glyph glyph-name="perthousand" unicode="&#x2030;" horiz-adv-x="3184" 
d="M500 549q-192 0 -302 134.5t-110 360.5q0 227 111 361.5t301 134.5q188 0 297.5 -134t109.5 -359q0 -226 -109 -362t-298 -136zM823 0h-282l905 1516h283zM500 756q137 0 137 288q0 285 -137 285q-142 0 -142 -282q0 -291 142 -291zM2687 -20q-190 0 -300 135t-110 360
q0 227 110.5 362.5t299.5 135.5t298.5 -135t109.5 -361q0 -225 -109.5 -361t-298.5 -136zM1772 -20q-190 0 -300 135t-110 360q0 227 111 362.5t301 135.5q188 0 297.5 -135t109.5 -361q0 -225 -109.5 -361t-299.5 -136zM2687 188q137 0 137 289q0 283 -137 283
q-141 0 -141 -283q0 -289 141 -289zM1774 188q137 0 137 289q0 283 -139 283q-140 0 -140 -283q0 -289 142 -289z" />
    <glyph glyph-name="minute" unicode="&#x2032;" horiz-adv-x="540" 
d="M113 965l37 401l26 150h279l-131 -551h-211z" />
    <glyph glyph-name="second" unicode="&#x2033;" horiz-adv-x="942" 
d="M514 965l37 401l27 150h278l-131 -551h-211zM113 965l37 401l26 150h279l-131 -551h-211z" />
    <glyph glyph-name="guilsinglleft" unicode="&#x2039;" horiz-adv-x="763" 
d="M702 0h-313l-340 547l340 545h313l-325 -545z" />
    <glyph glyph-name="guilsinglright" unicode="&#x203a;" horiz-adv-x="763" 
d="M375 0h-314l326 547l-326 545h314l340 -545z" />
    <glyph glyph-name="fraction" unicode="&#x2044;" horiz-adv-x="1114" 
d="M250 0h-285l901 1516h283z" />
    <glyph glyph-name="zero.sups" unicode="&#x2070;" horiz-adv-x="1089" 
d="M545 520q-206 0 -319 136t-113 370q0 233 113 370.5t319 137.5t319 -137.5t113 -370.5q0 -234 -113 -370t-319 -136zM545 725q88 0 127 75.5t39 225.5q0 297 -166 297q-90 0 -129 -74.5t-39 -222.5q0 -301 168 -301z" />
    <glyph glyph-name="four.sups" unicode="&#x2074;" horiz-adv-x="1015" 
d="M532 539v200h-440v166l432 611h269v-574h133l41 -203h-174v-200h-261zM336 926h211v311z" />
    <glyph glyph-name="five.sups" unicode="&#x2075;" horiz-adv-x="960" 
d="M457 520q-130 0 -217.5 32.5t-161.5 98.5l115 170q48 -45 119.5 -73.5t138.5 -28.5q81 0 122 40t41 113q0 71 -39 108.5t-108 37.5q-86 0 -160 -88l-176 55l41 531h608l27 -201h-440l-15 -180q60 57 193 57q151 0 238 -81t87 -243q0 -172 -112 -260t-301 -88z" />
    <glyph glyph-name="six.sups" unicode="&#x2076;" horiz-adv-x="1017" 
d="M537 520q-208 0 -316 124.5t-108 367.5q0 115 24 205.5t65 149t99.5 97t123.5 54.5t142 16q106 0 188 -25t132 -63l-107 -182q-91 61 -213 61q-99 0 -143.5 -53t-50.5 -185q58 44 110.5 64t134.5 20q140 0 228 -77t88 -234t-103 -248.5t-294 -91.5zM539 713q73 0 110 36
t37 97q0 70 -34.5 104.5t-108.5 34.5q-56 0 -94.5 -16.5t-75.5 -50.5q6 -98 48.5 -151.5t117.5 -53.5z" />
    <glyph glyph-name="seven.sups" unicode="&#x2077;" horiz-adv-x="866" 
d="M162 539l356 764h-424l-41 213h742v-195l-361 -782h-272z" />
    <glyph glyph-name="eight.sups" unicode="&#x2078;" horiz-adv-x="997" 
d="M498 520q-199 0 -304.5 72t-105.5 201q0 86 57.5 151t149.5 105q-83 43 -123.5 95.5t-40.5 139.5q0 102 95.5 176t271.5 74q181 0 273.5 -73t92.5 -177q0 -75 -44 -135t-120 -94q102 -47 154.5 -105t52.5 -157q0 -129 -106 -201t-303 -72zM522 1122q53 29 78 59.5
t25 73.5q0 41 -30.5 72t-90.5 31q-61 0 -93 -28t-32 -70q0 -49 31.5 -78.5t111.5 -59.5zM494 688q159 0 159 115q0 53 -44 92.5t-138 75.5q-135 -64 -135 -168q0 -54 39.5 -84.5t118.5 -30.5z" />
    <glyph glyph-name="nine.sups" unicode="&#x2079;" horiz-adv-x="1017" 
d="M475 1063q57 0 95.5 16.5t74.5 50.5q-6 97 -49.5 151t-118.5 54q-71 0 -108 -37t-37 -98q0 -137 143 -137zM449 520q-105 0 -187 25t-131 63l107 176q88 -61 213 -61q99 0 143.5 53t50.5 185q-58 -44 -111 -64t-137 -20q-139 0 -226 79.5t-87 237.5q0 156 102.5 248
t292.5 92q210 0 318 -124.5t108 -367.5q0 -115 -26.5 -206t-69.5 -149t-103 -96.5t-123.5 -54.5t-133.5 -16z" />
    <glyph glyph-name="zero.sinf" unicode="&#x2080;" horiz-adv-x="1089" 
d="M545 -426q-206 0 -319 136t-113 370q0 233 113 370.5t319 137.5t319 -137.5t113 -370.5q0 -234 -113 -370t-319 -136zM545 -221q88 0 127 75.5t39 225.5q0 297 -166 297q-90 0 -129 -74.5t-39 -222.5q0 -301 168 -301z" />
    <glyph glyph-name="one.sinf" unicode="&#x2081;" horiz-adv-x="774" 
d="M559 -410h-264v772l-152 -40l-32 180l231 67h217v-979z" />
    <glyph glyph-name="two.sinf" unicode="&#x2082;" horiz-adv-x="978" 
d="M115 -406v54q0 40 3.5 71.5t13 70t29.5 73.5t50.5 73t78.5 77t111 77q9 6 26 16q109 66 134 92q33 34 33 87q0 41 -25 63.5t-71 22.5q-50 0 -106.5 -37.5t-100.5 -110.5l-178 129q75 120 169 179t222 59q169 0 255.5 -79.5t86.5 -219.5q0 -93 -53 -172.5t-193 -155.5
q-154 -86 -180 -158h416l30 -211h-751z" />
    <glyph glyph-name="three.sinf" unicode="&#x2083;" horiz-adv-x="978" 
d="M481 -422q-125 0 -228 51.5t-169 149.5l160 139q93 -127 215 -127q145 0 145 107q0 63 -45 89.5t-147 26.5h-78v183h82q93 0 131.5 24.5t38.5 71.5q0 37 -27.5 58.5t-77.5 21.5q-119 0 -223 -99l-139 162q161 154 383 154q166 0 254 -70t88 -196q0 -70 -36 -125.5
t-110 -81.5q176 -54 176 -226q0 -151 -105.5 -232t-287.5 -81z" />
    <glyph glyph-name="four.sinf" unicode="&#x2084;" horiz-adv-x="1015" 
d="M532 -408v201h-440v166l432 610h269v-573h133l41 -203h-174v-201h-261zM336 -20h211v311z" />
    <glyph glyph-name="five.sinf" unicode="&#x2085;" horiz-adv-x="960" 
d="M457 -426q-130 0 -217.5 32.5t-161.5 98.5l115 170q48 -45 119.5 -73.5t138.5 -28.5q81 0 122 40t41 113q0 71 -39 108.5t-108 37.5q-86 0 -160 -88l-176 55l41 530h608l27 -200h-440l-15 -181q61 58 193 58q151 0 238 -81t87 -243q0 -172 -112 -260t-301 -88z" />
    <glyph glyph-name="six.sinf" unicode="&#x2086;" horiz-adv-x="1017" 
d="M537 -426q-208 0 -316 124.5t-108 367.5q0 115 24 205.5t65 149t99.5 97t123.5 54.5t142 16q106 0 188 -25t132 -63l-107 -183q-92 62 -213 62q-99 0 -143.5 -53t-50.5 -185q58 44 110.5 64t134.5 20q140 0 228 -77t88 -234t-103 -248.5t-294 -91.5zM539 -233
q73 0 110 36t37 97q0 70 -34.5 104.5t-108.5 34.5q-56 0 -94 -17t-76 -51q6 -98 48 -151t118 -53z" />
    <glyph glyph-name="seven.sinf" unicode="&#x2087;" horiz-adv-x="866" 
d="M162 -408l356 764h-424l-41 213h742v-194l-361 -783h-272z" />
    <glyph glyph-name="eight.sinf" unicode="&#x2088;" horiz-adv-x="997" 
d="M498 -426q-199 0 -304.5 71.5t-105.5 200.5q0 86 57.5 151t149.5 105q-83 43 -123.5 96t-40.5 140q0 102 95.5 176t271.5 74q181 0 273.5 -73t92.5 -177q0 -75 -44 -135t-120 -94q102 -47 154.5 -105.5t52.5 -157.5q0 -129 -105.5 -200.5t-303.5 -71.5zM522 176
q53 29 78 59.5t25 73.5q0 41 -30.5 72t-90.5 31q-61 0 -93 -28t-32 -71q0 -49 31.5 -77.5t111.5 -59.5zM494 -258q159 0 159 115q0 53 -44 92.5t-138 75.5q-135 -64 -135 -168q0 -54 39.5 -84.5t118.5 -30.5z" />
    <glyph glyph-name="nine.sinf" unicode="&#x2089;" horiz-adv-x="1017" 
d="M475 117q57 0 95.5 16.5t74.5 50.5q-6 97 -49.5 151t-118.5 54q-71 0 -108 -37t-37 -98q0 -137 143 -137zM449 -426q-105 0 -187 25t-131 63l107 176q88 -61 213 -61q100 0 144 52.5t50 184.5q-58 -44 -111 -64t-137 -20q-139 0 -226 80t-87 238q0 156 102.5 248
t292.5 92q210 0 318 -124.5t108 -367.5q0 -115 -26.5 -206t-69.5 -149t-103 -96.5t-123.5 -54.5t-133.5 -16z" />
    <glyph glyph-name="Euro" unicode="&#x20ac;" horiz-adv-x="1509" 
d="M254 760v53h-211v176h229q33 184 121.5 311t210 185.5t270.5 58.5q223 0 350.5 -95t184.5 -273l-272 -127q-38 122 -94 178.5t-162 56.5q-228 0 -285 -295h326v-176h-347v-51q0 -44 3 -88h344v-178h-324q29 -133 98 -202t189 -69q98 0 161 67.5t105 213.5l285 -94
q-66 -214 -204 -327.5t-349 -113.5q-231 0 -390.5 130.5t-213.5 394.5h-236v178h213q-2 29 -2 86z" />
    <glyph glyph-name="uni2117" unicode="&#x2117;" horiz-adv-x="1775" 
d="M885 -29q-219 0 -398.5 103t-282 282.5t-102.5 397.5q0 164 61.5 310.5t166 251.5t251 166.5t310.5 61.5q163 0 308 -60.5t249 -164.5t164.5 -249t60.5 -308q0 -164 -61.5 -310.5t-166.5 -252t-251 -167t-309 -61.5zM891 115q133 0 249 48.5t198.5 133t130 203
t47.5 254.5q0 182 -81.5 330t-226.5 232.5t-323 84.5q-133 0 -249 -48.5t-198.5 -133t-130 -203t-47.5 -254.5q0 -182 81.5 -330t226.5 -232.5t323 -84.5zM803 338h-203v854h332q332 0 332 -272q0 -143 -92 -212t-254 -69h-115v-301zM803 1020v-221h123q137 0 137 110
q0 111 -139 111h-121z" />
    <glyph glyph-name="trademark" unicode="&#x2122;" horiz-adv-x="1894" 
d="M518 649h-223v682h-238v185h699v-185h-238v-682zM1075 649h-198v867h305l157 -576l160 576h301v-867h-217v565l-162 -565h-184l-162 561v-561z" />
    <glyph glyph-name="uni2126" unicode="&#x2126;" horiz-adv-x="1589" 
d="M795 1544q162 0 295 -61t218 -163t131 -230t46 -267q0 -157 -70.5 -303t-202.5 -250h258v-270h-538v270q118 129 168.5 253t50.5 298q0 121 -39.5 220.5t-122.5 163t-198 63.5q-111 0 -192.5 -61.5t-121 -160.5t-39.5 -221q0 -174 51 -300.5t168 -254.5v-270h-538v270
h258q-131 101 -201 249.5t-70 303.5q0 139 46 267.5t131 230t218 162.5t294 61z" />
    <glyph glyph-name="estimated" unicode="&#x212e;" horiz-adv-x="1427" 
d="M1360 651h-1004v-450q146 -146 357 -146q89 0 162.5 21.5t131.5 63.5t102 92t89 120l76 -47q-50 -78 -102 -134.5t-119 -102.5t-152 -69.5t-188 -23.5q-141 0 -261 54t-201.5 146.5t-127 216t-45.5 261.5q0 112 28 214.5t83 186.5t131.5 146t179 96.5t219.5 34.5
q146 0 267.5 -54t201.5 -147t125 -216t47 -263zM1075 733v373q-70 66 -164.5 105.5t-193.5 39.5q-216 0 -361 -145v-373h719z" />
    <glyph glyph-name="onethird" unicode="&#x2153;" horiz-adv-x="2379" 
d="M850 0h-285l901 1516h283zM518 526h-264v772l-152 -41l-32 181l231 67h217v-979zM1923 -10q-126 0 -229 51.5t-168 148.5l160 140q93 -127 215 -127q145 0 145 106q0 63 -45.5 90t-147.5 27h-77v182h82q93 0 131.5 25t38.5 72q0 37 -27.5 58t-77.5 21q-120 0 -223 -98
l-139 162q160 153 383 153q166 0 254 -70t88 -196q0 -70 -36 -125.5t-110 -81.5q176 -54 176 -225q0 -151 -105.5 -232t-287.5 -81z" />
    <glyph glyph-name="twothirds" unicode="&#x2154;" horiz-adv-x="2506" 
d="M74 530v54q0 40 3.5 71.5t13 70t29.5 73.5t50.5 73t78.5 77t111 77q124 76 149 98q41 36 44 87v10q0 41 -25 63.5t-71 22.5q-50 0 -106.5 -37.5t-100.5 -110.5l-178 129q75 120 169 179t222 59q169 0 255.5 -79.5t86.5 -219.5q0 -93 -53 -172.5t-193 -155.5
q-154 -86 -180 -158h416l30 -211h-751zM977 0h-285l901 1516h283zM2050 -10q-126 0 -229 51.5t-168 148.5l159 140q93 -127 216 -127q145 0 145 106q0 63 -45.5 90t-147.5 27h-77v182h82q93 0 131 24.5t38 72.5q0 37 -27 58t-77 21q-120 0 -223 -98l-139 162
q160 153 383 153q166 0 254 -70t88 -196q0 -70 -36 -125.5t-110 -81.5q176 -54 176 -225q0 -151 -105.5 -232t-287.5 -81z" />
    <glyph glyph-name="oneeighth" unicode="&#x215b;" horiz-adv-x="2408" 
d="M850 0h-285l901 1516h283zM518 526h-264v772l-152 -41l-32 181l231 67h217v-979zM1950 -14q-199 0 -304.5 71.5t-105.5 200.5q0 86 57.5 151t149.5 105q-83 43 -123.5 96t-40.5 140q0 102 95 175.5t272 73.5q181 0 273.5 -72.5t92.5 -176.5q0 -75 -44 -135.5t-120 -94.5
q102 -47 154.5 -105t52.5 -157q0 -129 -105.5 -200.5t-303.5 -71.5zM1974 588q53 29 78 59.5t25 73.5q0 41 -30.5 71.5t-90.5 30.5q-61 0 -93 -28t-32 -70q0 -49 31.5 -77.5t111.5 -59.5zM1946 154q159 0 159 114q0 53 -44 92.5t-138 75.5q-135 -64 -135 -168
q0 -114 158 -114z" />
    <glyph glyph-name="threeeighths" unicode="&#x215c;" horiz-adv-x="2469" 
d="M911 0h-284l901 1516h282zM2011 -14q-199 0 -304 71.5t-105 200.5q0 86 57 151t149 105q-83 43 -123 96t-40 140q0 102 95 175.5t271 73.5q181 0 274 -73t93 -176q0 -75 -44 -135.5t-120 -94.5q102 -47 154.5 -105t52.5 -157q0 -129 -106 -200.5t-304 -71.5zM440 514
q-125 0 -228 51.5t-169 149.5l160 139q93 -127 215 -127q145 0 145 107q0 63 -45 89.5t-147 26.5h-78v183h82q93 0 131.5 24.5t38.5 71.5q0 37 -27.5 58.5t-77.5 21.5q-119 0 -223 -99l-139 162q161 154 383 154q166 0 254 -70t88 -196q0 -70 -36 -125.5t-110 -81.5
q177 -54 177 -226q0 -151 -106 -232t-288 -81zM2036 588q53 29 77.5 59.5t24.5 73.5q0 41 -30.5 71.5t-90.5 30.5q-61 0 -93 -28t-32 -70q0 -49 32 -77.5t112 -59.5zM2007 154q160 0 160 114q0 53 -44 92.5t-138 75.5q-136 -65 -136 -168q0 -114 158 -114z" />
    <glyph glyph-name="fiveeighths" unicode="&#x215d;" horiz-adv-x="2465" 
d="M907 0h-284l901 1516h282zM2007 -14q-199 0 -304.5 71.5t-105.5 200.5q0 86 57.5 151t149.5 105q-83 43 -123.5 96t-40.5 140q0 102 95 175.5t272 73.5q181 0 274 -73t93 -176q0 -75 -44 -135.5t-120 -94.5q102 -47 154.5 -105t52.5 -157q0 -129 -106 -200.5t-304 -71.5z
M2032 588q53 29 77.5 59.5t24.5 73.5q0 41 -30.5 71.5t-90.5 30.5q-61 0 -93 -28t-32 -70q0 -49 32 -77.5t112 -59.5zM416 510q-130 0 -217.5 32.5t-161.5 98.5l115 170q48 -45 119.5 -73.5t138.5 -28.5q81 0 122 40t41 113q0 71 -39 108.5t-108 37.5q-86 0 -160 -88
l-176 55l41 530h608l27 -200h-440l-15 -181q61 58 193 58q151 0 238 -81t87 -243q0 -172 -112 -260t-301 -88zM2003 154q160 0 160 114q0 53 -44.5 92.5t-138.5 75.5q-135 -64 -135 -168q0 -114 158 -114z" />
    <glyph glyph-name="seveneighths" unicode="&#x215e;" horiz-adv-x="2285" 
d="M727 0h-285l901 1516h283zM121 528l356 764h-424l-41 213h742v-194l-361 -783h-272zM1827 -14q-199 0 -304.5 71.5t-105.5 200.5q0 86 57.5 151t149.5 105q-83 43 -123.5 96t-40.5 140q0 102 95 175.5t272 73.5q181 0 273.5 -72.5t92.5 -176.5q0 -75 -43.5 -135.5
t-119.5 -94.5q102 -47 154 -105t52 -157q0 -129 -105.5 -200.5t-303.5 -71.5zM1851 588q53 29 78 59.5t25 73.5q0 41 -30.5 71.5t-90.5 30.5q-61 0 -93 -28t-32 -70q0 -49 31.5 -77.5t111.5 -59.5zM1823 154q159 0 159 114q0 53 -44 92.5t-138 75.5q-135 -64 -135 -168
q0 -114 158 -114z" />
    <glyph glyph-name="partialdiff" unicode="&#x2202;" horiz-adv-x="1226" 
d="M795 1579q186 -155 276 -383.5t90 -495.5q0 -181 -47.5 -321t-132 -226.5t-196 -131t-244.5 -44.5q-235 0 -368.5 124.5t-133.5 326.5q0 116 32.5 213.5t86 162.5t122.5 110.5t140.5 66t142.5 20.5q90 0 171.5 -37.5t131.5 -105.5q-3 138 -83 299.5t-173 247.5zM553 207
q50 0 96 21t84 62.5t61 110.5t23 156q0 103 -49 163t-135 60q-50 0 -96.5 -22t-85 -63.5t-61.5 -110.5t-23 -156q0 -103 49.5 -162t136.5 -59z" />
    <glyph glyph-name="uni2206" unicode="&#x2206;" horiz-adv-x="1458" 
d="M35 0l538 1522h310l540 -1522h-1388zM426 268h580l-285 828h-4z" />
    <glyph glyph-name="product" unicode="&#x220f;" horiz-adv-x="1542" 
d="M158 -410v1926h1226v-1926h-331v1647h-564v-1647h-331z" />
    <glyph glyph-name="summation" unicode="&#x2211;" horiz-adv-x="1255" 
d="M842 594l-391 -735h725v-269h-1088v230l410 762l-389 663v271h1036v-277h-674z" />
    <glyph glyph-name="minus" unicode="&#x2212;" horiz-adv-x="1323" 
d="M1186 588h-1049v260h1049v-260z" />
    <glyph glyph-name="uni2215" unicode="&#x2215;" horiz-adv-x="1114" 
d="M250 0h-285l901 1516h283z" />
    <glyph glyph-name="uni2219" unicode="&#x2219;" horiz-adv-x="591" 
d="M295 516q-92 0 -143.5 50t-51.5 124q0 75 51.5 124.5t143.5 49.5q93 0 146 -49.5t53 -124.5q0 -74 -53 -124t-146 -50z" />
    <glyph glyph-name="radical" unicode="&#x221a;" horiz-adv-x="1263" 
d="M836 -2h-332l-311 872h-162v222h422l229 -727h4l367 1151h309z" />
    <glyph glyph-name="infinity" unicode="&#x221e;" horiz-adv-x="1634" 
d="M444 328q-191 0 -292 104t-101 303q0 198 101.5 305t291.5 107q218 0 373 -211q155 211 373 211q190 0 291.5 -107t101.5 -305q0 -199 -101 -303t-292 -104q-216 0 -373 213q-157 -213 -373 -213zM1171 555q82 0 126 46.5t44 133.5q0 89 -44 137t-126 48
q-75 0 -126.5 -47.5t-104.5 -135.5q52 -88 104 -135t127 -47zM463 555q77 0 128 46t105 134q-27 44 -46.5 71t-48.5 56.5t-63 43.5t-75 14q-82 0 -125 -48t-43 -137q0 -88 43 -134t125 -46z" />
    <glyph glyph-name="integral" unicode="&#x222b;" horiz-adv-x="829" 
d="M223 1167q0 60 8 107.5t32.5 96t65 80.5t110 52.5t163.5 20.5q43 0 113 -5.5t86 -9.5v-229q-32 8 -96 8q-73 0 -113.5 -26t-40.5 -105v-1261q0 -52 -6.5 -91.5t-28.5 -83t-59 -72t-103.5 -47t-156.5 -18.5q-43 0 -114 5.5t-87 9.5v223q36 -12 94 -12q68 0 100.5 35
t32.5 114v1208z" />
    <glyph glyph-name="approxequal" unicode="&#x2248;" horiz-adv-x="1378" 
d="M961 682q-62 1 -143 26.5t-145 55.5t-129.5 55.5t-99.5 26.5q-38 2 -59.5 -17.5t-28.5 -72.5l-192 30q21 164 91 240t181 74q65 -1 147 -26.5t144.5 -56.5t126.5 -56.5t98 -26.5q38 -2 61 19t29 75l191 -24q-20 -166 -91 -245t-181 -77zM938 197q-61 1 -142 26t-145 55.5
t-129.5 55.5t-99.5 26q-38 2 -59.5 -18t-28.5 -74l-191 33q20 163 90.5 238.5t180.5 72.5q65 -1 147 -26t144.5 -55.5t126.5 -55.5t98 -26q38 -2 60.5 18t29.5 74l194 -25q-21 -165 -92.5 -243t-183.5 -76z" />
    <glyph glyph-name="notequal" unicode="&#x2260;" horiz-adv-x="1323" 
d="M272 -4l121 326h-250v233h330l90 233h-420v234h500l139 373h275l-139 -373h260v-234h-340l-90 -233h430v-233h-510l-121 -326h-275z" />
    <glyph glyph-name="lessequal" unicode="&#x2264;" horiz-adv-x="1323" 
d="M1206 299l-1083 369v178l1083 383v-268l-696 -205l696 -189v-268zM123 31v239h1083v-239h-1083z" />
    <glyph glyph-name="greaterequal" unicode="&#x2265;" horiz-adv-x="1323" 
d="M127 299v268l696 189l-696 205v268l1083 -383v-178zM127 31v239h1083v-239h-1083z" />
    <glyph glyph-name="lozenge" unicode="&#x25ca;" 
d="M541 1516h237l482 -758l-467 -758h-252l-469 758zM666 313l278 445l-278 446l-277 -446z" />
    <glyph glyph-name="uni2713" unicode="&#x2713;" horiz-adv-x="1144" 
d="M719 -2h-332l-391 1094h340l229 -727h4l367 1151h309z" />
    <glyph glyph-name="commaaccent" unicode="&#xf6c3;" horiz-adv-x="577" 
d="M279 -602h-177l50 514h321z" />
    <glyph glyph-name="apple" unicode="&#xf8ff;" horiz-adv-x="1556" 
d="M899 1042v-165h164l-12 153zM506 1030l-14 -153h165v165zM899 635v-164l152 12l12 152h-164zM504 485l153 -14v164h-165zM950 0h-344l51 301l-135 -12l4 -56h-239l4 35l-35 -2v240l53 -4l13 133l-302 -51v344l302 -51l-13 137l-53 -4v239l33 -2l-2 31h239l-6 -53l137 -13
l-51 304h344l-51 -304l135 13l-4 53h240l-2 -33l32 4v-239l-55 4l-12 -137l303 51v-344l-303 51l12 -133l55 4v-240l-34 2l4 -35h-240l4 56l-135 12z" />
    <glyph glyph-name="uniFEFF" unicode="&#xfeff;" horiz-adv-x="0" 
 />
    <glyph glyph-name="commaaccent.scrap" horiz-adv-x="577" 
d="M297 1712h176l-49 -514h-322z" />
    <glyph glyph-name="space.frac" horiz-adv-x="163" 
 />
    <glyph glyph-name="space.tab_em" horiz-adv-x="2662" 
 />
    <glyph glyph-name="space.tab_thin" horiz-adv-x="333" 
 />
    <glyph glyph-name="space.thin_fra" horiz-adv-x="245" 
 />
    <glyph glyph-name="hyphen.uc" horiz-adv-x="731" 
d="M635 676h-539v221h539v-221z" />
    <glyph glyph-name="endash.uc" horiz-adv-x="1388" 
d="M1276 643h-1163v277h1163v-277z" />
    <glyph glyph-name="emdash.uc" horiz-adv-x="1931" 
d="M1819 641h-1706v279h1706v-279z" />
    <glyph glyph-name="parenleft.uc" horiz-adv-x="827" 
d="M776 -127l-162 -149q-260 219 -392 461.5t-132 541.5t132 542t392 462l152 -160q-332 -369 -332 -844q0 -248 90.5 -465t251.5 -389z" />
    <glyph glyph-name="parenright.uc" horiz-adv-x="827" 
d="M213 -276l-162 149q160 173 250 389.5t90 464.5q0 479 -332 844l154 160q260 -218 391 -461t131 -543t-131 -542t-391 -461z" />
    <glyph glyph-name="bracketleft.uc" horiz-adv-x="909" 
d="M850 -266h-709v1925h709v-229h-377v-1467h377v-229z" />
    <glyph glyph-name="bracketright.uc" horiz-adv-x="909" 
d="M766 -266h-709v229h377v1467h-377v229h709v-1925z" />
    <glyph glyph-name="braceleft.uc" horiz-adv-x="903" 
d="M860 -266h-291q-138 0 -214 83t-76 220v297q0 75 -13.5 123.5t-43.5 75t-70 37t-101 10.5v233q61 0 101 10.5t70 37t43.5 75t13.5 123.5v297q0 137 76 220t214 83h291v-229h-90q-160 0 -160 -162v-254q0 -144 -43 -215.5t-131 -100.5v-4q88 -29 131 -100t43 -215v-254
q0 -162 160 -162h90v-229z" />
    <glyph glyph-name="braceright.uc" horiz-adv-x="903" 
d="M365 -266h-322v229h90q160 0 160 162v285q0 74 11 123.5t35.5 80.5t53 48t74.5 32v4q-46 15 -74.5 32t-53 48.5t-35.5 81t-11 123.5v285q0 164 -158 164h-90l-2 227h322q138 0 199 -68t61 -205v-327q0 -75 13.5 -123.5t43 -75t69.5 -37t101 -10.5v-233q-61 0 -101 -10.5
t-69.5 -37t-43 -75t-13.5 -123.5v-328q0 -137 -61 -204.5t-199 -67.5z" />
    <glyph glyph-name="guilsinglleft.uc" horiz-adv-x="763" 
d="M702 143h-313l-340 547l340 545h313l-325 -545z" />
    <glyph glyph-name="guilsinglright.uc" horiz-adv-x="763" 
d="M375 143h-314l326 547l-326 545h314l340 -545z" />
    <glyph glyph-name="guillemotleft.uc" horiz-adv-x="1296" 
d="M702 143h-313l-340 547l340 545h313l-325 -545zM1237 143h-313l-342 547l342 545h313l-328 -545z" />
    <glyph glyph-name="guillemotright.uc" horiz-adv-x="1296" 
d="M375 143h-314l326 547l-326 545h314l340 -545zM907 143h-313l328 547l-328 545h313l342 -545z" />
    <glyph glyph-name="periodcentered.uc" horiz-adv-x="591" 
d="M295 659q-91 0 -143 50.5t-52 124.5q0 75 51.5 124.5t143.5 49.5q93 0 146 -49.5t53 -124.5q0 -74 -53 -124.5t-146 -50.5z" />
    <glyph glyph-name="endash.salt_en" horiz-adv-x="1024" 
d="M0 500v276h1024v-276h-1024z" />
    <glyph glyph-name="emdash.uc_salt_em" horiz-adv-x="2048" 
d="M0 641v279h2048v-279h-2048z" />
    <glyph glyph-name="endash.uc_salt_en" horiz-adv-x="1024" 
d="M0 643v277h1024v-277h-1024z" />
    <glyph glyph-name="registered.salt_big" horiz-adv-x="1775" 
d="M885 -29q-219 0 -398.5 103t-282 282.5t-102.5 397.5q0 164 61.5 310.5t166 251.5t251 166.5t310.5 61.5q163 0 308 -60.5t249 -164.5t164.5 -249t60.5 -308q0 -164 -61.5 -310.5t-166.5 -252t-251 -167t-309 -61.5zM891 115q133 0 249 48.5t198.5 133t130 203
t47.5 254.5q0 182 -81.5 330t-226.5 232.5t-323 84.5q-133 0 -249 -48.5t-198.5 -133t-130 -203t-47.5 -254.5q0 -182 81.5 -330t226.5 -232.5t323 -84.5zM780 1022v-225h117q73 0 108 27.5t35 86.5q0 111 -143 111h-117zM780 348h-202v854h331q159 0 245.5 -70t86.5 -208
q0 -182 -158 -248l168 -328h-215l-151 301h-105v-301z" />
    <glyph glyph-name="zero.dnom" horiz-adv-x="1007" 
d="M504 -14q-206 0 -319 136t-113 370q0 233 113 370t319 137t319 -137t113 -370q0 -234 -113 -370t-319 -136zM504 190q88 0 127 76t39 226q0 296 -166 296q-90 0 -129 -74.5t-39 -221.5q0 -302 168 -302z" />
    <glyph glyph-name="one.dnom" horiz-adv-x="692" 
d="M518 2h-264v772l-152 -41l-32 180l231 68h217v-979z" />
    <glyph glyph-name="two.dnom" horiz-adv-x="897" 
d="M74 6v53q0 40 3.5 71.5t13 70.5t29.5 74t50.5 73t78.5 77t111 77q123 76 147 96q42 36 46 85v13q0 41 -25 63.5t-71 22.5q-50 0 -106.5 -37t-100.5 -110l-178 129q75 120 169 178.5t222 58.5q169 0 255.5 -79.5t86.5 -219.5q0 -93 -53 -172t-193 -155q-154 -86 -180 -158
h416l30 -211h-751z" />
    <glyph glyph-name="three.dnom" horiz-adv-x="897" 
d="M440 -10q-126 0 -229 51.5t-168 148.5l160 140q93 -127 215 -127q145 0 145 106q0 63 -45 90t-147 27h-78v182h82q93 0 131.5 25t38.5 72q0 37 -27.5 58t-77.5 21q-120 0 -223 -98l-139 162q160 153 383 153q166 0 254 -70t88 -196q0 -70 -36 -125.5t-110 -81.5
q177 -54 177 -225q0 -151 -106 -232t-288 -81z" />
    <glyph glyph-name="four.dnom" horiz-adv-x="933" 
d="M492 4v201h-441v166l432 610h269v-573h133l41 -203h-174v-201h-260zM295 391h211v311z" />
    <glyph glyph-name="five.dnom" horiz-adv-x="878" 
d="M416 -14q-130 0 -217.5 32.5t-161.5 98.5l115 170q48 -45 119.5 -74t138.5 -29q80 0 121.5 40.5t41.5 113.5q0 71 -39 108t-108 37q-86 0 -160 -88l-176 56l41 530h608l27 -201h-440l-15 -180q60 57 193 57q151 0 238 -80.5t87 -242.5q0 -172 -112 -260t-301 -88z" />
    <glyph glyph-name="six.dnom" horiz-adv-x="935" 
d="M496 -14q-208 0 -316 124t-108 367q0 115 24 205.5t65 149t99.5 97t123.5 54.5t142 16q106 0 188 -25t132 -63l-107 -182q-92 62 -213 62q-99 0 -143.5 -53t-50.5 -185q58 44 111 64t135 20q140 0 227.5 -77t87.5 -234t-103 -248.5t-294 -91.5zM498 178q73 0 110 36
t37 97q0 140 -143 140q-56 0 -94 -17t-76 -51q6 -98 48.5 -151.5t117.5 -53.5z" />
    <glyph glyph-name="seven.dnom" horiz-adv-x="784" 
d="M121 4l356 764h-424l-41 213h742v-195l-361 -782h-272z" />
    <glyph glyph-name="eight.dnom" horiz-adv-x="915" 
d="M457 -14q-199 0 -304.5 71.5t-105.5 200.5q0 86 57.5 151t149.5 105q-83 43 -123.5 96t-40.5 140q0 102 95 175.5t272 73.5q181 0 273.5 -72.5t92.5 -176.5q0 -75 -44 -135.5t-120 -94.5q102 -47 154.5 -105t52.5 -157q0 -129 -105.5 -200.5t-303.5 -71.5zM481 588
q53 29 78 59.5t25 73.5q0 41 -30.5 71.5t-90.5 30.5q-61 0 -93 -28t-32 -70q0 -49 31.5 -77.5t111.5 -59.5zM453 154q159 0 159 114q0 53 -44 92.5t-138 75.5q-135 -64 -135 -168q0 -114 158 -114z" />
    <glyph glyph-name="nine.dnom" horiz-adv-x="935" 
d="M434 528q57 0 95.5 16.5t74.5 51.5q-6 97 -49.5 151t-118.5 54q-71 0 -108 -37t-37 -98q0 -138 143 -138zM408 -14q-105 0 -187 25t-131 63l107 176q89 -62 213 -62q99 0 143.5 53t50.5 185q-58 -44 -111 -64t-137 -20q-139 0 -226 79.5t-87 237.5q0 156 102.5 248
t292.5 92q210 0 318 -124t108 -367q0 -115 -26.5 -206t-69.5 -149t-103 -96.5t-123.5 -54.5t-133.5 -16z" />
    <glyph glyph-name="zero.numr" horiz-adv-x="1007" 
d="M504 510q-206 0 -319 136t-113 370q0 233 113 370.5t319 137.5t319 -137.5t113 -370.5q0 -234 -113 -370t-319 -136zM504 715q88 0 127 75.5t39 225.5q0 297 -166 297q-90 0 -129 -74.5t-39 -222.5q0 -301 168 -301z" />
    <glyph glyph-name="one.numr" horiz-adv-x="692" 
d="M518 526h-264v772l-152 -41l-32 181l231 67h217v-979z" />
    <glyph glyph-name="two.numr" horiz-adv-x="897" 
d="M74 530v54q0 40 3.5 71.5t13 70t29.5 73.5t50.5 73t78.5 77t111 77q124 76 149 98q41 36 44 87v10q0 41 -25 63.5t-71 22.5q-50 0 -106.5 -37.5t-100.5 -110.5l-178 129q75 120 169 179t222 59q169 0 255.5 -79.5t86.5 -219.5q0 -93 -53 -172.5t-193 -155.5
q-154 -86 -180 -158h416l30 -211h-751z" />
    <glyph glyph-name="three.numr" horiz-adv-x="897" 
d="M440 514q-125 0 -228 51.5t-169 149.5l160 139q93 -127 215 -127q145 0 145 107q0 63 -45 89.5t-147 26.5h-78v183h82q93 0 131.5 24.5t38.5 71.5q0 37 -27.5 58.5t-77.5 21.5q-119 0 -223 -99l-139 162q161 154 383 154q166 0 254 -70t88 -196q0 -70 -36 -125.5
t-110 -81.5q177 -54 177 -226q0 -151 -106 -232t-288 -81z" />
    <glyph glyph-name="four.numr" horiz-adv-x="933" 
d="M492 528v201h-441v166l432 610h269v-573h133l41 -203h-174v-201h-260zM295 915h211v312z" />
    <glyph glyph-name="five.numr" horiz-adv-x="878" 
d="M416 510q-130 0 -217.5 32.5t-161.5 98.5l115 170q48 -45 119.5 -73.5t138.5 -28.5q81 0 122 40t41 113q0 71 -39 108.5t-108 37.5q-86 0 -160 -88l-176 55l41 530h608l27 -200h-440l-15 -181q61 58 193 58q151 0 238 -81t87 -243q0 -172 -112 -260t-301 -88z" />
    <glyph glyph-name="six.numr" horiz-adv-x="935" 
d="M496 510q-208 0 -316 124t-108 367q0 115 24 205.5t65 149.5t99.5 97.5t123.5 54.5t142 16q106 0 188 -25t132 -63l-107 -183q-92 62 -213 62q-99 0 -143.5 -53t-50.5 -185q58 44 111 64t135 20q140 0 227.5 -77t87.5 -234t-103 -248.5t-294 -91.5zM498 702
q72 0 109.5 36.5t37.5 97.5q0 70 -34.5 104.5t-108.5 34.5q-56 0 -94 -17t-76 -51q6 -98 48.5 -151.5t117.5 -53.5z" />
    <glyph glyph-name="seven.numr" horiz-adv-x="784" 
d="M121 528l356 764h-424l-41 213h742v-194l-361 -783h-272z" />
    <glyph glyph-name="eight.numr" horiz-adv-x="915" 
d="M457 510q-199 0 -304.5 71.5t-105.5 200.5q0 86 57.5 151t149.5 105q-83 43 -123.5 96t-40.5 140q0 102 95.5 176t271.5 74q181 0 273.5 -73t92.5 -177q0 -75 -44 -135.5t-120 -94.5q102 -47 154.5 -105t52.5 -157q0 -129 -105.5 -200.5t-303.5 -71.5zM481 1112
q53 29 78 59.5t25 73.5q0 41 -30.5 72t-90.5 31q-61 0 -93 -28t-32 -71q0 -49 31.5 -77.5t111.5 -59.5zM453 678q159 0 159 115q0 53 -44 92.5t-138 75.5q-135 -64 -135 -168q0 -54 39.5 -84.5t118.5 -30.5z" />
    <glyph glyph-name="nine.numr" horiz-adv-x="935" 
d="M434 1053q57 0 95.5 16.5t74.5 50.5q-6 97 -49.5 151t-118.5 54q-71 0 -108 -37t-37 -98q0 -137 143 -137zM408 510q-105 0 -187 25t-131 63l107 176q88 -61 213 -61q100 0 144 52.5t50 184.5q-58 -44 -111 -64t-137 -20q-139 0 -226 80t-87 238q0 156 102.5 248
t292.5 92q210 0 318 -124.5t108 -367.5q0 -115 -26.5 -206t-69.5 -149t-103 -96.5t-123.5 -54.5t-133.5 -16z" />
    <glyph glyph-name="zero.salt_slash" horiz-adv-x="1425" 
d="M713 -29q-196 0 -339 98t-217.5 275.5t-74.5 413.5t74.5 413t217.5 275t339 98q295 0 461.5 -213t166.5 -573t-166.5 -573.5t-461.5 -213.5zM414 758q0 -116 14 -199l500 598q-77 121 -215 121q-299 0 -299 -520zM713 231q148 0 223.5 133.5t75.5 393.5q0 106 -15 192
l-499 -596q76 -123 215 -123z" />
    <glyph glyph-name="zero.sc_salt_slash" horiz-adv-x="1202" 
d="M602 -25q-252 0 -394 171.5t-142 459.5t142 458.5t394 170.5t394.5 -170.5t142.5 -458.5t-142.5 -459.5t-394.5 -171.5zM373 606q0 -90 12 -160l365 490q-56 68 -148 68q-115 0 -172 -97t-57 -301zM602 205q113 0 169 98.5t56 302.5q0 90 -12 160l-362 -492
q57 -69 149 -69z" />
    <glyph glyph-name="zero.tab_salt_slash" 
d="M666 -29q-196 0 -339 98t-217.5 275.5t-74.5 413.5t74.5 413t217.5 275t339 98q295 0 461.5 -213t166.5 -573t-166.5 -573.5t-461.5 -213.5zM367 758q0 -116 14 -199l500 598q-77 121 -215 121q-299 0 -299 -520zM666 231q146 0 222.5 134t76.5 393q0 106 -15 192
l-499 -596q76 -123 215 -123z" />
    <glyph glyph-name="i.trk" horiz-adv-x="602" 
d="M299 1198q-87 0 -135.5 47.5t-48.5 118.5q0 72 48.5 119t135.5 47q89 0 138.5 -47t49.5 -119q0 -71 -49.5 -118.5t-138.5 -47.5zM465 0h-328v1092h328v-1092z" />
    <glyph glyph-name="A.sc" horiz-adv-x="1284" 
d="M35 0l457 1217h301l450 -1197l-315 -40l-90 260h-420l-88 -240h-295zM492 444h276l-66 185l-67 200h-6l-70 -200z" />
    <glyph glyph-name="Agrave.sc" horiz-adv-x="1284" 
d="M541 1315l-303 354h329l191 -354h-217zM35 0l457 1217h301l450 -1197l-315 -40l-90 260h-420l-88 -240h-295zM492 444h276l-66 185l-67 200h-6l-70 -200z" />
    <glyph glyph-name="Aacute.sc" horiz-adv-x="1284" 
d="M522 1315l191 354h331l-305 -354h-217zM35 0l457 1217h301l450 -1197l-315 -40l-90 260h-420l-88 -240h-295zM492 444h276l-66 185l-67 200h-6l-70 -200z" />
    <glyph glyph-name="Acircumflex.sc" horiz-adv-x="1284" 
d="M268 1319l264 350h220l264 -350h-187l-190 151l-184 -151h-187zM35 0l457 1217h301l450 -1197l-315 -40l-90 260h-420l-88 -240h-295zM492 444h276l-66 185l-67 200h-6l-70 -200z" />
    <glyph glyph-name="Atilde.sc" horiz-adv-x="1284" 
d="M799 1294q-51 0 -97.5 18t-75 39.5t-63 39.5t-63.5 18q-86 0 -80 -125l-178 29q0 151 65 231t178 80q51 0 97.5 -18t75 -39.5t63 -39.5t63.5 -18q86 0 80 125l176 -28q0 -150 -64.5 -231t-176.5 -81zM35 0l457 1217h301l450 -1197l-315 -40l-90 260h-420l-88 -240h-295z
M492 444h276l-66 185l-67 200h-6l-70 -200z" />
    <glyph glyph-name="Adieresis.sc" horiz-adv-x="1284" 
d="M858 1288q-74 0 -116 47.5t-42 118.5q0 70 42 117t116 47q77 0 119.5 -46.5t42.5 -117.5t-43 -118.5t-119 -47.5zM420 1288q-74 0 -116 47.5t-42 118.5q0 70 42 117t116 47q77 0 119.5 -46.5t42.5 -117.5t-43 -118.5t-119 -47.5zM35 0l457 1217h301l450 -1197l-315 -40
l-90 260h-420l-88 -240h-295zM492 444h276l-66 185l-67 200h-6l-70 -200z" />
    <glyph glyph-name="Aring.sc" horiz-adv-x="1284" 
d="M928 -20l-90 260h-420l-88 -240h-295l438 1167q-55 61 -55 152q0 94 63.5 157.5t159.5 63.5t160.5 -63.5t64.5 -157.5q0 -91 -55 -152l432 -1147zM641 1219q41 0 67.5 28t26.5 72q0 41 -26.5 68.5t-67.5 27.5t-67.5 -27.5t-26.5 -68.5q0 -44 26.5 -72t67.5 -28zM492 444
h276l-66 185l-67 200h-6l-70 -200z" />
    <glyph glyph-name="Amacron.sc" horiz-adv-x="1284" 
d="M301 1303v233h680v-233h-680zM35 0l457 1217h301l450 -1197l-315 -40l-90 260h-420l-88 -240h-295zM492 444h276l-66 185l-67 200h-6l-70 -200z" />
    <glyph glyph-name="Abreve.sc" horiz-adv-x="1284" 
d="M641 1292q-166 0 -260 106.5t-102 272.5h176q21 -172 186 -172q34 0 61 6.5t54.5 24t46 53t24.5 88.5h177q-8 -167 -101.5 -273t-261.5 -106zM35 0l457 1217h301l450 -1197l-315 -40l-90 260h-420l-88 -240h-295zM492 444h276l-66 185l-67 200h-6l-70 -200z" />
    <glyph glyph-name="Aogonek.sc" horiz-adv-x="1284" 
d="M973 -383q-111 0 -170.5 42t-59.5 116q0 61 48.5 122t126.5 109l-80 234h-420l-88 -240h-295l457 1217h301l450 -1197l-162 -20q-118 -84 -118 -172q0 -80 94 -80q37 0 72.5 9.5t49.5 16.5t48 25l63 -100q-141 -82 -317 -82zM492 444h276l-66 185l-67 200h-6l-70 -200z
" />
    <glyph glyph-name="B.sc" horiz-adv-x="1257" 
d="M137 0v1212h539q73 0 131 -5.5t122 -24.5t106 -50.5t70 -87t28 -131.5q0 -119 -67.5 -188t-170.5 -88v-4q61 -11 106.5 -30.5t83.5 -53t58 -87.5t20 -126q0 -75 -27.5 -134.5t-72.5 -96.5t-106.5 -61.5t-124.5 -34t-132 -9.5h-563zM444 989v-278h199q94 0 138 38t44 103
q0 64 -42.5 100.5t-133.5 36.5h-205zM444 524v-305h211q98 0 146.5 41.5t48.5 112.5q0 72 -51 111.5t-150 39.5h-205z" />
    <glyph glyph-name="C.sc" horiz-adv-x="1290" 
d="M672 -23q-127 0 -233.5 37.5t-188.5 112t-128 197t-46 282.5q0 159 47.5 282t130.5 197.5t188.5 112t229.5 37.5q386 0 506 -299l-269 -127q-65 178 -239 178q-132 0 -201.5 -101t-69.5 -278q0 -181 70.5 -285t204.5 -104q99 0 158.5 50t89.5 149l280 -96
q-129 -345 -530 -345z" />
    <glyph glyph-name="Ccedilla.sc" horiz-adv-x="1290" 
d="M670 -414q-187 0 -303 76l59 98q91 -61 217 -61q102 0 102 70q0 55 -65 55q-44 0 -88 -35l-82 41l49 156q-106 15 -192.5 59.5t-152 119.5t-102 187.5t-36.5 253.5q0 159 47.5 282t130.5 197.5t188.5 112t229.5 37.5q386 0 506 -299l-269 -127q-65 178 -239 178
q-132 0 -201.5 -101t-69.5 -278q0 -181 70.5 -285t204.5 -104q99 0 158.5 50t89.5 149l280 -96q-125 -337 -510 -345l-16 -71q50 31 131 31q62 0 105.5 -38.5t43.5 -105.5q0 -94 -81.5 -150.5t-204.5 -56.5z" />
    <glyph glyph-name="Cacute.sc" horiz-adv-x="1290" 
d="M496 1315l190 354h332l-305 -354h-217zM672 -23q-127 0 -233.5 37.5t-188.5 112t-128 197t-46 282.5q0 159 47.5 282t130.5 197.5t188.5 112t229.5 37.5q386 0 506 -299l-269 -127q-65 178 -239 178q-132 0 -201.5 -101t-69.5 -278q0 -181 70.5 -285t204.5 -104
q99 0 158.5 50t89.5 149l280 -96q-129 -345 -530 -345z" />
    <glyph glyph-name="Ccircumflex.sc" horiz-adv-x="1290" 
d="M279 1319l264 350h219l264 -350h-186l-191 151l-184 -151h-186zM672 -23q-127 0 -233.5 37.5t-188.5 112t-128 197t-46 282.5q0 159 47.5 282t130.5 197.5t188.5 112t229.5 37.5q386 0 506 -299l-269 -127q-65 178 -239 178q-132 0 -201.5 -101t-69.5 -278
q0 -181 70.5 -285t204.5 -104q99 0 158.5 50t89.5 149l280 -96q-129 -345 -530 -345z" />
    <glyph glyph-name="Cdotaccent.sc" horiz-adv-x="1290" 
d="M655 1321q-89 0 -137.5 44t-48.5 110t48.5 109.5t137.5 43.5q90 0 141.5 -43.5t51.5 -109.5t-51.5 -110t-141.5 -44zM672 -23q-127 0 -233.5 37.5t-188.5 112t-128 197t-46 282.5q0 159 47.5 282t130.5 197.5t188.5 112t229.5 37.5q386 0 506 -299l-269 -127
q-65 178 -239 178q-132 0 -201.5 -101t-69.5 -278q0 -181 70.5 -285t204.5 -104q99 0 158.5 50t89.5 149l280 -96q-129 -345 -530 -345z" />
    <glyph glyph-name="Ccaron.sc" horiz-adv-x="1290" 
d="M535 1321l-265 350h187l186 -151l188 151h187l-264 -350h-219zM672 -23q-127 0 -233.5 37.5t-188.5 112t-128 197t-46 282.5q0 159 47.5 282t130.5 197.5t188.5 112t229.5 37.5q386 0 506 -299l-269 -127q-65 178 -239 178q-132 0 -201.5 -101t-69.5 -278
q0 -181 70.5 -285t204.5 -104q99 0 158.5 50t89.5 149l280 -96q-129 -345 -530 -345z" />
    <glyph glyph-name="D.sc" horiz-adv-x="1323" 
d="M137 0v1212h422q118 0 217.5 -18t188 -61.5t150 -110.5t97 -170.5t35.5 -237.5q0 -137 -36 -244t-98 -176t-151 -113t-187.5 -62.5t-215.5 -18.5h-422zM457 967v-727h118q194 0 272.5 86t78.5 284q0 184 -80 270.5t-273 86.5h-116z" />
    <glyph glyph-name="Dcaron.sc" horiz-adv-x="1323" 
d="M551 1321l-264 350h186l186 -151l189 151h186l-264 -350h-219zM137 0v1212h422q118 0 217.5 -18t188 -61.5t150 -110.5t97 -170.5t35.5 -237.5q0 -137 -36 -244t-98 -176t-151 -113t-187.5 -62.5t-215.5 -18.5h-422zM457 967v-727h118q194 0 272.5 86t78.5 284
q0 184 -80 270.5t-273 86.5h-116z" />
    <glyph glyph-name="E.sc" horiz-adv-x="1140" 
d="M1071 0h-934v1212h905v-249h-583v-224h399l41 -241h-440v-254h612v-244z" />
    <glyph glyph-name="Egrave.sc" horiz-adv-x="1140" 
d="M535 1315l-304 354h330l191 -354h-217zM1071 0h-934v1212h905v-249h-583v-224h399l41 -241h-440v-254h612v-244z" />
    <glyph glyph-name="Eacute.sc" horiz-adv-x="1140" 
d="M412 1315l190 354h332l-305 -354h-217zM1071 0h-934v1212h905v-249h-583v-224h399l41 -241h-440v-254h612v-244z" />
    <glyph glyph-name="Ecircumflex.sc" horiz-adv-x="1140" 
d="M215 1319l264 350h219l265 -350h-187l-190 151l-185 -151h-186zM1071 0h-934v1212h905v-249h-583v-224h399l41 -241h-440v-254h612v-244z" />
    <glyph glyph-name="Edieresis.sc" horiz-adv-x="1140" 
d="M807 1288q-74 0 -116 47.5t-42 118.5q0 70 42 117t116 47q77 0 119.5 -46.5t42.5 -117.5t-43 -118.5t-119 -47.5zM369 1288q-74 0 -116 47.5t-42 118.5q0 70 42 117t116 47q76 0 118.5 -46.5t42.5 -117.5t-42.5 -118.5t-118.5 -47.5zM1071 0h-934v1212h905v-249h-583
v-224h399l41 -241h-440v-254h612v-244z" />
    <glyph glyph-name="Emacron.sc" horiz-adv-x="1140" 
d="M244 1303v233h680v-233h-680zM1071 0h-934v1212h905v-249h-583v-224h399l41 -241h-440v-254h612v-244z" />
    <glyph glyph-name="Ebreve.sc" horiz-adv-x="1140" 
d="M573 1292q-166 0 -260 106.5t-102 272.5h176q21 -172 186 -172q34 0 61 6.5t55 24t46.5 53t24.5 88.5h176q-8 -167 -101.5 -273t-261.5 -106zM1071 0h-934v1212h905v-249h-583v-224h399l41 -241h-440v-254h612v-244z" />
    <glyph glyph-name="Edotaccent.sc" horiz-adv-x="1140" 
d="M588 1321q-89 0 -138 44t-49 110t49 109.5t138 43.5q90 0 141 -43.5t51 -109.5t-51 -110t-141 -44zM1071 0h-934v1212h905v-249h-583v-224h399l41 -241h-440v-254h612v-244z" />
    <glyph glyph-name="Eogonek.sc" horiz-adv-x="1140" 
d="M1149 -301q-141 -82 -318 -82q-111 0 -170 41.5t-59 116.5q0 60 44.5 118.5t119.5 106.5h-629v1212h905v-249h-583v-224h399l41 -241h-440v-254h612v-244h-129q-121 -84 -121 -172q0 -80 94 -80q37 0 72.5 9.5t49.5 16.5t48 25z" />
    <glyph glyph-name="Ecaron.sc" horiz-adv-x="1140" 
d="M479 1321l-264 350h186l187 -151l188 151h187l-265 -350h-219zM1071 0h-934v1212h905v-249h-583v-224h399l41 -241h-440v-254h612v-244z" />
    <glyph glyph-name="F.sc" horiz-adv-x="1056" 
d="M459 0h-322v1212h877v-247h-555v-267h375l40 -239h-415v-459z" />
    <glyph glyph-name="G.sc" horiz-adv-x="1363" 
d="M629 -20q-112 0 -203 31t-155.5 86.5t-108.5 134.5t-65 173.5t-21 204.5q0 287 161 456t437 169q87 0 159.5 -15t140.5 -50t121.5 -99t88.5 -156l-279 -106q-71 178 -227 178q-279 0 -279 -371q0 -206 76 -305.5t209 -99.5q103 0 171.5 56t90.5 141h-194l-41 213h522
v-621h-246v162h-2q-41 -77 -132 -129.5t-224 -52.5z" />
    <glyph glyph-name="Gcircumflex.sc" horiz-adv-x="1363" 
d="M297 1319l264 350h219l264 -350h-186l-190 151l-185 -151h-186zM629 -20q-112 0 -203 31t-155.5 86.5t-108.5 134.5t-65 173.5t-21 204.5q0 287 161 456t437 169q87 0 159.5 -15t140.5 -50t121.5 -99t88.5 -156l-279 -106q-71 178 -227 178q-279 0 -279 -371
q0 -206 76 -305.5t209 -99.5q103 0 171.5 56t90.5 141h-194l-41 213h522v-621h-246v162h-2q-41 -77 -132 -129.5t-224 -52.5z" />
    <glyph glyph-name="Gbreve.sc" horiz-adv-x="1363" 
d="M680 1292q-167 0 -261 106.5t-102 272.5h177q21 -172 186 -172q34 0 61 6.5t54.5 24t46 53t24.5 88.5h176q-8 -167 -101 -273t-261 -106zM629 -20q-112 0 -203 31t-155.5 86.5t-108.5 134.5t-65 173.5t-21 204.5q0 287 161 456t437 169q87 0 159.5 -15t140.5 -50
t121.5 -99t88.5 -156l-279 -106q-71 178 -227 178q-279 0 -279 -371q0 -206 76 -305.5t209 -99.5q103 0 171.5 56t90.5 141h-194l-41 213h522v-621h-246v162h-2q-41 -77 -132 -129.5t-224 -52.5z" />
    <glyph glyph-name="Gdotaccent.sc" horiz-adv-x="1363" 
d="M678 1321q-89 0 -137.5 44t-48.5 110t48.5 109.5t137.5 43.5q90 0 141 -43.5t51 -109.5t-51 -110t-141 -44zM629 -20q-112 0 -203 31t-155.5 86.5t-108.5 134.5t-65 173.5t-21 204.5q0 287 161 456t437 169q87 0 159.5 -15t140.5 -50t121.5 -99t88.5 -156l-279 -106
q-71 178 -227 178q-279 0 -279 -371q0 -206 76 -305.5t209 -99.5q103 0 171.5 56t90.5 141h-194l-41 213h522v-621h-246v162h-2q-41 -77 -132 -129.5t-224 -52.5z" />
    <glyph glyph-name="Gcommaaccent.sc" horiz-adv-x="1363" 
d="M629 -20q-112 0 -203 31t-155.5 86.5t-108.5 134.5t-65 173.5t-21 204.5q0 287 161 456t437 169q87 0 159.5 -15t140.5 -50t121.5 -99t88.5 -156l-279 -106q-71 178 -227 178q-279 0 -279 -371q0 -206 76 -305.5t209 -99.5q103 0 171.5 56t90.5 141h-194l-41 213h522
v-621h-246v162h-2q-41 -77 -132 -129.5t-224 -52.5zM676 -602h-176l49 514h321z" />
    <glyph glyph-name="H.sc" horiz-adv-x="1376" 
d="M457 0h-320v1212h320v-456h461v456h321v-1212h-321v500h-461v-500z" />
    <glyph glyph-name="Hcircumflex.sc" horiz-adv-x="1376" 
d="M313 1319l265 350h219l264 -350h-187l-190 151l-184 -151h-187zM457 0h-320v1212h320v-456h461v456h321v-1212h-321v500h-461v-500z" />
    <glyph glyph-name="I.sc" horiz-adv-x="616" 
d="M471 0h-324v1212h324v-1212z" />
    <glyph glyph-name="Igrave.sc" horiz-adv-x="616" 
d="M225 1315l-303 354h330l190 -354h-217zM471 0h-324v1212h324v-1212z" />
    <glyph glyph-name="Iacute.sc" horiz-adv-x="616" 
d="M174 1315l191 354h331l-305 -354h-217zM471 0h-324v1212h324v-1212z" />
    <glyph glyph-name="Icircumflex.sc" horiz-adv-x="616" 
d="M-63 1319l264 350h219l264 -350h-186l-191 151l-184 -151h-186zM471 0h-324v1212h324v-1212z" />
    <glyph glyph-name="Idieresis.sc" horiz-adv-x="616" 
d="M526 1288q-74 0 -115.5 47.5t-41.5 118.5t41.5 117.5t115.5 46.5q77 0 119.5 -46.5t42.5 -117.5t-43 -118.5t-119 -47.5zM88 1288q-74 0 -116 47.5t-42 118.5q0 70 42 117t116 47q77 0 119.5 -46.5t42.5 -117.5t-43 -118.5t-119 -47.5zM471 0h-324v1212h324v-1212z" />
    <glyph glyph-name="Itilde.sc" horiz-adv-x="616" 
d="M467 1300q-51 0 -97.5 18t-75 39.5t-63 39.5t-63.5 18q-86 0 -80 -125l-178 29q0 151 65.5 231t178.5 80q51 0 97.5 -18t75 -39t63 -39t63.5 -18q85 0 79 124l177 -28q0 -150 -65 -231t-177 -81zM471 0h-324v1212h324v-1212z" />
    <glyph glyph-name="Imacron.sc" horiz-adv-x="616" 
d="M-31 1303v233h680v-233h-680zM471 0h-324v1212h324v-1212z" />
    <glyph glyph-name="Ibreve.sc" horiz-adv-x="616" 
d="M309 1292q-166 0 -260 106.5t-102 272.5h176q21 -172 186 -172q34 0 61 6.5t55 24t46.5 53t24.5 88.5h176q-8 -167 -101.5 -273t-261.5 -106zM471 0h-324v1212h324v-1212z" />
    <glyph glyph-name="Iogonek.sc" horiz-adv-x="616" 
d="M549 -301q-141 -82 -320 -82q-111 0 -169 41.5t-58 116.5q0 61 40 122t105 109v1206h324v-1212h-156q-94 -84 -94 -172q0 -80 92 -80q38 0 73 9.5t51 17t46 24.5z" />
    <glyph glyph-name="Idotaccent.sc" horiz-adv-x="616" 
d="M307 1321q-89 0 -137.5 44t-48.5 110t48.5 109.5t137.5 43.5q90 0 141.5 -43.5t51.5 -109.5t-51.5 -110t-141.5 -44zM471 0h-324v1212h324v-1212z" />
    <glyph glyph-name="J.sc" horiz-adv-x="962" 
d="M410 -23q-224 0 -383 119l133 207q47 -34 110 -59t113 -25q73 0 110 36t37 124v833h322v-847q0 -388 -442 -388z" />
    <glyph glyph-name="Jcircumflex.sc" horiz-adv-x="962" 
d="M315 1319l265 350h219l264 -350h-186l-191 151l-184 -151h-187zM410 -23q-224 0 -383 119l133 207q47 -34 110 -59t113 -25q73 0 110 36t37 124v833h322v-847q0 -388 -442 -388z" />
    <glyph glyph-name="K.sc" horiz-adv-x="1294" 
d="M455 0h-318v1212h318v-481l202 238l209 243h338l-428 -477l455 -715l-326 -40l-332 524l-118 -125v-379z" />
    <glyph glyph-name="Kcommaaccent.sc" horiz-adv-x="1294" 
d="M455 0h-318v1212h318v-481l202 238l209 243h338l-428 -477l455 -715l-326 -40l-332 524l-118 -125v-379zM637 -602h-176l49 514h321z" />
    <glyph glyph-name="L.sc" horiz-adv-x="1056" 
d="M1034 0h-897v1212h322v-968h534z" />
    <glyph glyph-name="Lacute.sc" horiz-adv-x="1056" 
d="M186 1315l191 354h332l-306 -354h-217zM1034 0h-897v1212h322v-968h534z" />
    <glyph glyph-name="Lcommaaccent.sc" horiz-adv-x="1056" 
d="M1034 0h-897v1212h322v-968h534zM518 -602h-176l49 514h322z" />
    <glyph glyph-name="Lcaron.sc" horiz-adv-x="1056" 
d="M1034 0h-897v1212h322v-968h534zM735 719h-168l47 493h310z" />
    <glyph glyph-name="M.sc" horiz-adv-x="1605" 
d="M412 0h-275v1212h422l246 -854h4l225 854h434v-1212h-299v864h-2q-17 -97 -57 -252q-9 -46 -83.5 -276.5t-96.5 -335.5h-281q-22 111 -95 348.5t-79 267.5q-57 233 -61 254h-2v-870z" />
    <glyph glyph-name="N.sc" horiz-adv-x="1370" 
d="M428 0h-291v1212h320l274 -397l230 -328h2v725h290v-1212h-299l-270 381l-254 348h-2v-729z" />
    <glyph glyph-name="Ntilde.sc" horiz-adv-x="1370" 
d="M840 1294q-51 0 -97.5 18t-75 39.5t-63 39.5t-63.5 18q-86 0 -80 -125l-178 29q0 151 65 231t178 80q51 0 97.5 -18t75 -39.5t63 -39.5t63.5 -18q86 0 80 125l176 -28q0 -150 -64.5 -231t-176.5 -81zM428 0h-291v1212h320l274 -397l230 -328h2v725h290v-1212h-299
l-270 381l-254 348h-2v-729z" />
    <glyph glyph-name="Nacute.sc" horiz-adv-x="1370" 
d="M520 1315l191 354h331l-305 -354h-217zM428 0h-291v1212h320l274 -397l230 -328h2v725h290v-1212h-299l-270 381l-254 348h-2v-729z" />
    <glyph glyph-name="Ncommaaccent.sc" horiz-adv-x="1370" 
d="M428 0h-291v1212h320l274 -397l230 -328h2v725h290v-1212h-299l-270 381l-254 348h-2v-729zM674 -602h-176l49 514h321z" />
    <glyph glyph-name="Ncaron.sc" horiz-adv-x="1370" 
d="M573 1321l-264 350h187l186 -151l188 151h187l-264 -350h-220zM428 0h-291v1212h320l274 -397l230 -328h2v725h290v-1212h-299l-270 381l-254 348h-2v-729z" />
    <glyph glyph-name="O.sc" horiz-adv-x="1396" 
d="M700 -23q-94 0 -182.5 23t-169 73t-140 122t-95 178t-35.5 233t35.5 233t95 178t140 122t169 73t182.5 23q93 0 181 -23t168 -73t139.5 -122t95 -178t35.5 -233t-35.5 -233t-95 -178t-139.5 -122t-168 -73t-181 -23zM700 225q136 0 216.5 103.5t80.5 277.5t-80 274.5
t-217 100.5q-140 0 -220.5 -100t-80.5 -275q0 -174 81 -277.5t220 -103.5z" />
    <glyph glyph-name="Ograve.sc" horiz-adv-x="1396" 
d="M643 1315l-303 354h330l190 -354h-217zM700 -23q-94 0 -182.5 23t-169 73t-140 122t-95 178t-35.5 233t35.5 233t95 178t140 122t169 73t182.5 23q93 0 181 -23t168 -73t139.5 -122t95 -178t35.5 -233t-35.5 -233t-95 -178t-139.5 -122t-168 -73t-181 -23zM700 225
q136 0 216.5 103.5t80.5 277.5t-80 274.5t-217 100.5q-140 0 -220.5 -100t-80.5 -275q0 -174 81 -277.5t220 -103.5z" />
    <glyph glyph-name="Oacute.sc" horiz-adv-x="1396" 
d="M535 1315l190 354h332l-305 -354h-217zM700 -23q-94 0 -182.5 23t-169 73t-140 122t-95 178t-35.5 233t35.5 233t95 178t140 122t169 73t182.5 23q93 0 181 -23t168 -73t139.5 -122t95 -178t35.5 -233t-35.5 -233t-95 -178t-139.5 -122t-168 -73t-181 -23zM700 225
q136 0 216.5 103.5t80.5 277.5t-80 274.5t-217 100.5q-140 0 -220.5 -100t-80.5 -275q0 -174 81 -277.5t220 -103.5z" />
    <glyph glyph-name="Ocircumflex.sc" horiz-adv-x="1396" 
d="M324 1319l264 350h219l264 -350h-186l-191 151l-184 -151h-186zM700 -23q-94 0 -182.5 23t-169 73t-140 122t-95 178t-35.5 233t35.5 233t95 178t140 122t169 73t182.5 23q93 0 181 -23t168 -73t139.5 -122t95 -178t35.5 -233t-35.5 -233t-95 -178t-139.5 -122t-168 -73
t-181 -23zM700 225q136 0 216.5 103.5t80.5 277.5t-80 274.5t-217 100.5q-140 0 -220.5 -100t-80.5 -275q0 -174 81 -277.5t220 -103.5z" />
    <glyph glyph-name="Otilde.sc" horiz-adv-x="1396" 
d="M854 1294q-51 0 -97.5 18t-75 39.5t-63 39.5t-63.5 18q-86 0 -80 -125l-178 29q0 151 65.5 231t178.5 80q51 0 97.5 -18t75 -39.5t63 -39.5t63.5 -18q86 0 80 125l176 -28q0 -150 -65 -231t-177 -81zM700 -23q-94 0 -182.5 23t-169 73t-140 122t-95 178t-35.5 233
t35.5 233t95 178t140 122t169 73t182.5 23q93 0 181 -23t168 -73t139.5 -122t95 -178t35.5 -233t-35.5 -233t-95 -178t-139.5 -122t-168 -73t-181 -23zM700 225q136 0 216.5 103.5t80.5 277.5t-80 274.5t-217 100.5q-140 0 -220.5 -100t-80.5 -275q0 -174 81 -277.5
t220 -103.5z" />
    <glyph glyph-name="Odieresis.sc" horiz-adv-x="1396" 
d="M913 1288q-74 0 -115.5 47.5t-41.5 118.5t41.5 117.5t115.5 46.5q77 0 119.5 -46.5t42.5 -117.5t-43 -118.5t-119 -47.5zM475 1288q-74 0 -116 47.5t-42 118.5q0 70 42 117t116 47q77 0 119.5 -46.5t42.5 -117.5t-43 -118.5t-119 -47.5zM700 -23q-94 0 -182.5 23t-169 73
t-140 122t-95 178t-35.5 233t35.5 233t95 178t140 122t169 73t182.5 23q93 0 181 -23t168 -73t139.5 -122t95 -178t35.5 -233t-35.5 -233t-95 -178t-139.5 -122t-168 -73t-181 -23zM700 225q136 0 216.5 103.5t80.5 277.5t-80 274.5t-217 100.5q-140 0 -220.5 -100
t-80.5 -275q0 -174 81 -277.5t220 -103.5z" />
    <glyph glyph-name="Omacron.sc" horiz-adv-x="1396" 
d="M356 1303v233h680v-233h-680zM700 -23q-94 0 -182.5 23t-169 73t-140 122t-95 178t-35.5 233t35.5 233t95 178t140 122t169 73t182.5 23q93 0 181 -23t168 -73t139.5 -122t95 -178t35.5 -233t-35.5 -233t-95 -178t-139.5 -122t-168 -73t-181 -23zM700 225
q136 0 216.5 103.5t80.5 277.5t-80 274.5t-217 100.5q-140 0 -220.5 -100t-80.5 -275q0 -174 81 -277.5t220 -103.5z" />
    <glyph glyph-name="Obreve.sc" horiz-adv-x="1396" 
d="M696 1298q-166 0 -260 106.5t-102 272.5h176q21 -172 186 -172q34 0 61 6.5t55 24t46.5 53t24.5 88.5h176q-8 -167 -101.5 -273t-261.5 -106zM700 -23q-94 0 -182.5 23t-169 73t-140 122t-95 178t-35.5 233t35.5 233t95 178t140 122t169 73t182.5 23q93 0 181 -23
t168 -73t139.5 -122t95 -178t35.5 -233t-35.5 -233t-95 -178t-139.5 -122t-168 -73t-181 -23zM700 225q136 0 216.5 103.5t80.5 277.5t-80 274.5t-217 100.5q-140 0 -220.5 -100t-80.5 -275q0 -174 81 -277.5t220 -103.5z" />
    <glyph glyph-name="Ohungarumlaut.sc" horiz-adv-x="1396" 
d="M731 1315l230 354h331l-342 -354h-219zM340 1315l213 354h332l-328 -354h-217zM700 -23q-94 0 -182.5 23t-169 73t-140 122t-95 178t-35.5 233t35.5 233t95 178t140 122t169 73t182.5 23q93 0 181 -23t168 -73t139.5 -122t95 -178t35.5 -233t-35.5 -233t-95 -178
t-139.5 -122t-168 -73t-181 -23zM700 225q136 0 216.5 103.5t80.5 277.5t-80 274.5t-217 100.5q-140 0 -220.5 -100t-80.5 -275q0 -174 81 -277.5t220 -103.5z" />
    <glyph glyph-name="P.sc" horiz-adv-x="1216" 
d="M453 0h-316v1212h484q90 0 160.5 -8.5t144 -34.5t121.5 -69t79 -117.5t31 -175.5q0 -73 -17 -132t-45.5 -100.5t-70.5 -73t-87.5 -50.5t-101 -30.5t-106 -15.5t-108.5 -4h-168v-401zM453 975v-357h178q219 0 219 179q0 88 -50.5 133t-168.5 45h-178z" />
    <glyph glyph-name="Q.sc" horiz-adv-x="1396" 
d="M1217 -113l-41 -231h-191q-122 0 -212.5 27.5t-143.5 77t-79.5 110.5t-29.5 137q-91 23 -168 70t-139.5 119t-98.5 177t-36 232t35.5 233t95 178t140 122t169 73t182.5 23q92 0 180 -23t168 -73t140 -122t95.5 -178t35.5 -233q0 -107 -26.5 -199.5t-71.5 -159.5
t-107 -118.5t-131.5 -82.5t-146.5 -46q9 -70 60.5 -91.5t203.5 -21.5h117zM700 217q136 0 216.5 105t80.5 284q0 178 -80.5 279.5t-216.5 101.5q-140 0 -220.5 -101t-80.5 -280q0 -180 81 -284.5t220 -104.5z" />
    <glyph glyph-name="R.sc" horiz-adv-x="1265" 
d="M451 0h-314v1212h502q253 0 384.5 -91t131.5 -298q0 -142 -63 -226.5t-191 -125.5l268 -461l-327 -20l-254 444h-137v-434zM451 975v-330h176q110 0 161.5 40t51.5 126t-51.5 125t-159.5 39h-178z" />
    <glyph glyph-name="Racute.sc" horiz-adv-x="1265" 
d="M469 1315l190 354h332l-305 -354h-217zM451 0h-314v1212h502q253 0 384.5 -91t131.5 -298q0 -142 -63 -226.5t-191 -125.5l268 -461l-327 -20l-254 444h-137v-434zM451 975v-330h176q110 0 161.5 40t51.5 126t-51.5 125t-159.5 39h-178z" />
    <glyph glyph-name="Rcommaaccent.sc" horiz-adv-x="1265" 
d="M451 0h-314v1212h502q253 0 384.5 -91t131.5 -298q0 -142 -63 -226.5t-191 -125.5l268 -461l-327 -20l-254 444h-137v-434zM451 975v-330h176q110 0 161.5 40t51.5 126t-51.5 125t-159.5 39h-178zM623 -602h-177l50 514h321z" />
    <glyph glyph-name="Rcaron.sc" horiz-adv-x="1265" 
d="M522 1321l-264 350h186l187 -151l188 151h187l-265 -350h-219zM451 0h-314v1212h502q253 0 384.5 -91t131.5 -298q0 -142 -63 -226.5t-191 -125.5l268 -461l-327 -20l-254 444h-137v-434zM451 975v-330h176q110 0 161.5 40t51.5 126t-51.5 125t-159.5 39h-178z" />
    <glyph glyph-name="S.sc" horiz-adv-x="1247" 
d="M647 -27q-172 0 -320.5 62.5t-250.5 185.5l207 182q58 -80 161.5 -135t200.5 -55q203 0 203 121q0 64 -50 91t-190 56q-93 19 -156.5 36.5t-130.5 49t-107 71.5t-65.5 101.5t-25.5 141.5q0 159 128.5 256.5t338.5 97.5q329 0 522 -213l-184 -180q-55 64 -147 108.5
t-181 44.5q-168 0 -168 -108q0 -69 56 -96.5t215 -60.5q7 -2 11 -2.5t10 -2t11 -2.5q50 -11 87.5 -20.5t85 -26t81 -35t68.5 -47t57 -62.5t35.5 -80.5t13.5 -101.5q0 -120 -68.5 -206.5t-183.5 -128.5t-264 -42z" />
    <glyph glyph-name="Sacute.sc" horiz-adv-x="1247" 
d="M459 1315l190 354h332l-305 -354h-217zM647 -27q-172 0 -320.5 62.5t-250.5 185.5l207 182q58 -80 161.5 -135t200.5 -55q203 0 203 121q0 64 -50 91t-190 56q-93 19 -156.5 36.5t-130.5 49t-107 71.5t-65.5 101.5t-25.5 141.5q0 159 128.5 256.5t338.5 97.5
q329 0 522 -213l-184 -180q-55 64 -147 108.5t-181 44.5q-168 0 -168 -108q0 -69 56 -96.5t215 -60.5q7 -2 11 -2.5t10 -2t11 -2.5q50 -11 87.5 -20.5t85 -26t81 -35t68.5 -47t57 -62.5t35.5 -80.5t13.5 -101.5q0 -120 -68.5 -206.5t-183.5 -128.5t-264 -42z" />
    <glyph glyph-name="Scircumflex.sc" horiz-adv-x="1247" 
d="M242 1319l264 350h219l264 -350h-186l-191 151l-184 -151h-186zM647 -27q-172 0 -320.5 62.5t-250.5 185.5l207 182q58 -80 161.5 -135t200.5 -55q203 0 203 121q0 64 -50 91t-190 56q-93 19 -156.5 36.5t-130.5 49t-107 71.5t-65.5 101.5t-25.5 141.5q0 159 128.5 256.5
t338.5 97.5q329 0 522 -213l-184 -180q-55 64 -147 108.5t-181 44.5q-168 0 -168 -108q0 -69 56 -96.5t215 -60.5q7 -2 11 -2.5t10 -2t11 -2.5q50 -11 87.5 -20.5t85 -26t81 -35t68.5 -47t57 -62.5t35.5 -80.5t13.5 -101.5q0 -120 -68.5 -206.5t-183.5 -128.5t-264 -42z" />
    <glyph glyph-name="Scedilla.sc" horiz-adv-x="1247" 
d="M649 -414q-187 0 -303 76l60 98q91 -61 217 -61q102 0 102 70q0 55 -66 55q-44 0 -88 -35l-82 41l48 150q-289 37 -461 241l207 182q58 -80 161.5 -135t200.5 -55q203 0 203 121q0 64 -50 91t-190 56q-93 19 -156.5 36.5t-130.5 49t-107 71.5t-65.5 101.5t-25.5 141.5
q0 159 128.5 256.5t338.5 97.5q329 0 522 -213l-184 -180q-55 64 -147 108.5t-181 44.5q-168 0 -168 -108q0 -69 56 -96.5t215 -60.5q7 -2 11 -2.5t10 -2t11 -2.5q50 -11 87.5 -20.5t85 -26t81 -35t68.5 -47t57 -62.5t35.5 -80.5t13.5 -101.5q0 -174 -136 -272.5
t-355 -104.5l-17 -67q50 31 131 31q62 0 106 -38.5t44 -105.5q0 -94 -82 -150.5t-205 -56.5z" />
    <glyph glyph-name="Scaron.sc" horiz-adv-x="1247" 
d="M514 1321l-264 350h186l187 -151l188 151h186l-264 -350h-219zM647 -27q-172 0 -320.5 62.5t-250.5 185.5l207 182q58 -80 161.5 -135t200.5 -55q203 0 203 121q0 64 -50 91t-190 56q-93 19 -156.5 36.5t-130.5 49t-107 71.5t-65.5 101.5t-25.5 141.5q0 159 128.5 256.5
t338.5 97.5q329 0 522 -213l-184 -180q-55 64 -147 108.5t-181 44.5q-168 0 -168 -108q0 -69 56 -96.5t215 -60.5q7 -2 11 -2.5t10 -2t11 -2.5q50 -11 87.5 -20.5t85 -26t81 -35t68.5 -47t57 -62.5t35.5 -80.5t13.5 -101.5q0 -120 -68.5 -206.5t-183.5 -128.5t-264 -42z" />
    <glyph glyph-name="Scommaaccent.sc" horiz-adv-x="1247" 
d="M647 -27q-172 0 -320.5 62.5t-250.5 185.5l207 182q58 -80 161.5 -135t200.5 -55q203 0 203 121q0 64 -50 91t-190 56q-93 19 -156.5 36.5t-130.5 49t-107 71.5t-65.5 101.5t-25.5 141.5q0 159 128.5 256.5t338.5 97.5q329 0 522 -213l-184 -180q-55 64 -147 108.5
t-181 44.5q-168 0 -168 -108q0 -69 56 -96.5t215 -60.5q7 -2 11 -2.5t10 -2t11 -2.5q50 -11 87.5 -20.5t85 -26t81 -35t68.5 -47t57 -62.5t35.5 -80.5t13.5 -101.5q0 -120 -68.5 -206.5t-183.5 -128.5t-264 -42zM614 -602h-176l49 514h322z" />
    <glyph glyph-name="T.sc" horiz-adv-x="1165" 
d="M745 0h-323v963h-373v249h1055l33 -249h-392v-963z" />
    <glyph glyph-name="Tcaron.sc" horiz-adv-x="1165" 
d="M473 1321l-264 350h186l187 -151l188 151h186l-264 -350h-219zM745 0h-323v963h-373v249h1055l33 -249h-392v-963z" />
    <glyph glyph-name="Tcommaaccent.sc" horiz-adv-x="1165" 
d="M745 0h-323v963h-373v249h1055l33 -249h-392v-963zM573 -602h-176l49 514h322z" />
    <glyph glyph-name="U.sc" horiz-adv-x="1288" 
d="M645 -20q-266 0 -399 130.5t-133 370.5v731h321v-731q0 -130 49.5 -193t165.5 -63q115 0 163 62.5t48 193.5v731h316v-731q0 -242 -131.5 -371.5t-399.5 -129.5z" />
    <glyph glyph-name="Ugrave.sc" horiz-adv-x="1288" 
d="M588 1315l-303 354h329l191 -354h-217zM645 -20q-266 0 -399 130.5t-133 370.5v731h321v-731q0 -130 49.5 -193t165.5 -63q115 0 163 62.5t48 193.5v731h316v-731q0 -242 -131.5 -371.5t-399.5 -129.5z" />
    <glyph glyph-name="Uacute.sc" horiz-adv-x="1288" 
d="M465 1315l190 354h332l-305 -354h-217zM645 -20q-266 0 -399 130.5t-133 370.5v731h321v-731q0 -130 49.5 -193t165.5 -63q115 0 163 62.5t48 193.5v731h316v-731q0 -242 -131.5 -371.5t-399.5 -129.5z" />
    <glyph glyph-name="Ucircumflex.sc" horiz-adv-x="1288" 
d="M268 1319l264 350h220l264 -350h-187l-190 151l-184 -151h-187zM645 -20q-266 0 -399 130.5t-133 370.5v731h321v-731q0 -130 49.5 -193t165.5 -63q115 0 163 62.5t48 193.5v731h316v-731q0 -242 -131.5 -371.5t-399.5 -129.5z" />
    <glyph glyph-name="Udieresis.sc" horiz-adv-x="1288" 
d="M860 1288q-74 0 -116 47.5t-42 118.5q0 70 42 117t116 47q77 0 119.5 -46.5t42.5 -117.5t-43 -118.5t-119 -47.5zM422 1288q-74 0 -116 47.5t-42 118.5q0 70 42 117t116 47q77 0 119.5 -46.5t42.5 -117.5t-43 -118.5t-119 -47.5zM645 -20q-266 0 -399 130.5t-133 370.5
v731h321v-731q0 -130 49.5 -193t165.5 -63q115 0 163 62.5t48 193.5v731h316v-731q0 -242 -131.5 -371.5t-399.5 -129.5z" />
    <glyph glyph-name="Utilde.sc" horiz-adv-x="1288" 
d="M803 1294q-51 0 -97.5 18t-75 39.5t-63 39.5t-63.5 18q-86 0 -80 -125l-178 29q0 151 65 231t178 80q51 0 97.5 -18t75 -39.5t63 -39.5t63.5 -18q86 0 80 125l176 -28q0 -150 -64.5 -231t-176.5 -81zM645 -20q-266 0 -399 130.5t-133 370.5v731h321v-731
q0 -130 49.5 -193t165.5 -63q115 0 163 62.5t48 193.5v731h316v-731q0 -242 -131.5 -371.5t-399.5 -129.5z" />
    <glyph glyph-name="Umacron.sc" horiz-adv-x="1288" 
d="M303 1303v233h680v-233h-680zM645 -20q-266 0 -399 130.5t-133 370.5v731h321v-731q0 -130 49.5 -193t165.5 -63q115 0 163 62.5t48 193.5v731h316v-731q0 -242 -131.5 -371.5t-399.5 -129.5z" />
    <glyph glyph-name="Ubreve.sc" horiz-adv-x="1288" 
d="M643 1292q-166 0 -260 106.5t-102 272.5h176q21 -172 186 -172q34 0 61 6.5t54.5 24t46 53t24.5 88.5h177q-8 -167 -101.5 -273t-261.5 -106zM645 -20q-266 0 -399 130.5t-133 370.5v731h321v-731q0 -130 49.5 -193t165.5 -63q115 0 163 62.5t48 193.5v731h316v-731
q0 -242 -131.5 -371.5t-399.5 -129.5z" />
    <glyph glyph-name="Uring.sc" horiz-adv-x="1288" 
d="M643 1296q-96 0 -159.5 64.5t-63.5 161.5q0 94 63.5 157.5t159.5 63.5t160.5 -63.5t64.5 -157.5q0 -97 -64 -161.5t-161 -64.5zM643 1421q41 0 67.5 28.5t26.5 72.5q0 41 -26.5 68.5t-67.5 27.5t-67.5 -27.5t-26.5 -68.5q0 -44 26.5 -72.5t67.5 -28.5zM645 -20
q-266 0 -399 130.5t-133 370.5v731h321v-731q0 -130 49.5 -193t165.5 -63q115 0 163 62.5t48 193.5v731h316v-731q0 -242 -131.5 -371.5t-399.5 -129.5z" />
    <glyph glyph-name="Uhungarumlaut.sc" horiz-adv-x="1288" 
d="M678 1315l229 354h332l-342 -354h-219zM287 1315l213 354h331l-327 -354h-217zM645 -20q-266 0 -399 130.5t-133 370.5v731h321v-731q0 -130 49.5 -193t165.5 -63q115 0 163 62.5t48 193.5v731h316v-731q0 -242 -131.5 -371.5t-399.5 -129.5z" />
    <glyph glyph-name="Uogonek.sc" horiz-adv-x="1288" 
d="M657 -383q-111 0 -170 41.5t-59 116.5q0 54 37.5 108.5t101.5 100.5q-228 18 -341 146.5t-113 350.5v731h321v-731q0 -130 49.5 -193t165.5 -63q115 0 163 62.5t48 193.5v731h316v-731q0 -218 -106 -345t-322 -150q-101 -78 -101 -158t94 -80q37 0 72.5 9.5t49.5 16.5
t48 25l64 -100q-141 -82 -318 -82z" />
    <glyph glyph-name="V.sc" horiz-adv-x="1255" 
d="M780 -4h-307l-432 1194l317 41l197 -596l78 -244h4l80 244l203 577h301z" />
    <glyph glyph-name="W.sc" horiz-adv-x="1693" 
d="M662 0h-273l-344 1196l317 33l127 -518q22 -87 58 -254h4q15 82 53 252l111 503h293l120 -503q41 -168 56 -252h4q19 117 51 248l117 507h295l-338 -1212h-269l-180 784h-4z" />
    <glyph glyph-name="Wcircumflex.sc" horiz-adv-x="1693" 
d="M473 1319l264 350h219l265 -350h-187l-190 151l-185 -151h-186zM662 0h-273l-344 1196l317 33l127 -518q22 -87 58 -254h4q15 82 53 252l111 503h293l120 -503q41 -168 56 -252h4q19 117 51 248l117 507h295l-338 -1212h-269l-180 784h-4z" />
    <glyph glyph-name="Wgrave.sc" horiz-adv-x="1693" 
d="M745 1315l-303 354h330l191 -354h-218zM662 0h-273l-344 1196l317 33l127 -518q22 -87 58 -254h4q15 82 53 252l111 503h293l120 -503q41 -168 56 -252h4q19 117 51 248l117 507h295l-338 -1212h-269l-180 784h-4z" />
    <glyph glyph-name="Wacute.sc" horiz-adv-x="1693" 
d="M756 1315l190 354h332l-305 -354h-217zM662 0h-273l-344 1196l317 33l127 -518q22 -87 58 -254h4q15 82 53 252l111 503h293l120 -503q41 -168 56 -252h4q19 117 51 248l117 507h295l-338 -1212h-269l-180 784h-4z" />
    <glyph glyph-name="Wdieresis.sc" horiz-adv-x="1693" 
d="M1063 1288q-74 0 -116 47.5t-42 118.5q0 70 42 117t116 47q77 0 119.5 -46.5t42.5 -117.5t-43 -118.5t-119 -47.5zM625 1288q-74 0 -116 47.5t-42 118.5q0 70 42 117t116 47q76 0 118.5 -46.5t42.5 -117.5t-42.5 -118.5t-118.5 -47.5zM662 0h-273l-344 1196l317 33
l127 -518q22 -87 58 -254h4q15 82 53 252l111 503h293l120 -503q41 -168 56 -252h4q19 117 51 248l117 507h295l-338 -1212h-269l-180 784h-4z" />
    <glyph glyph-name="X.sc" horiz-adv-x="1255" 
d="M373 0h-334l405 639l-364 557l338 33l227 -367l203 350h323l-360 -577l395 -619l-332 -32l-258 417z" />
    <glyph glyph-name="Y.sc" horiz-adv-x="1261" 
d="M467 0v510l-434 686l319 33l291 -471l277 454h319l-448 -702v-510h-324z" />
    <glyph glyph-name="Yacute.sc" horiz-adv-x="1261" 
d="M467 1315l190 354h332l-305 -354h-217zM467 0v510l-434 686l319 33l291 -471l277 454h319l-448 -702v-510h-324z" />
    <glyph glyph-name="Ycircumflex.sc" horiz-adv-x="1261" 
d="M256 1319l264 350h219l265 -350h-187l-190 151l-185 -151h-186zM467 0v510l-434 686l319 33l291 -471l277 454h319l-448 -702v-510h-324z" />
    <glyph glyph-name="Ydieresis.sc" horiz-adv-x="1261" 
d="M848 1288q-74 0 -116 47.5t-42 118.5q0 70 42 117t116 47q77 0 119.5 -46.5t42.5 -117.5t-43 -118.5t-119 -47.5zM410 1288q-74 0 -116 47.5t-42 118.5q0 70 42 117t116 47q76 0 118.5 -46.5t42.5 -117.5t-42.5 -118.5t-118.5 -47.5zM467 0v510l-434 686l319 33l291 -471
l277 454h319l-448 -702v-510h-324z" />
    <glyph glyph-name="Ygrave.sc" horiz-adv-x="1261" 
d="M567 1315l-303 354h330l190 -354h-217zM467 0v510l-434 686l319 33l291 -471l277 454h319l-448 -702v-510h-324z" />
    <glyph glyph-name="Z.sc" horiz-adv-x="1191" 
d="M1133 0h-1072v205l646 758h-588l-33 249h1030v-213l-633 -757h617z" />
    <glyph glyph-name="Zacute.sc" horiz-adv-x="1191" 
d="M432 1315l191 354h331l-305 -354h-217zM1133 0h-1072v205l646 758h-588l-33 249h1030v-213l-633 -757h617z" />
    <glyph glyph-name="Zdotaccent.sc" horiz-adv-x="1191" 
d="M592 1321q-89 0 -137.5 44t-48.5 110t48.5 109.5t137.5 43.5q90 0 141 -43.5t51 -109.5t-51 -110t-141 -44zM1133 0h-1072v205l646 758h-588l-33 249h1030v-213l-633 -757h617z" />
    <glyph glyph-name="Zcaron.sc" horiz-adv-x="1191" 
d="M485 1321l-264 350h187l186 -151l188 151h187l-264 -350h-220zM1133 0h-1072v205l646 758h-588l-33 249h1030v-213l-633 -757h617z" />
    <glyph glyph-name="AE.sc" horiz-adv-x="1931" 
d="M934 987l-260 -444h262v444h-2zM545 324l-191 -324h-325l727 1212h1077v-249h-584v-224h422v-241h-422v-254h613v-244h-926v324h-391z" />
    <glyph glyph-name="Eth.sc" horiz-adv-x="1323" 
d="M137 0v518h-117v189h117v505h422q118 0 217.5 -18t188 -61.5t150 -110.5t97 -170.5t35.5 -237.5q0 -137 -36 -244t-98 -176t-151 -113t-187.5 -62.5t-215.5 -18.5h-422zM457 514v-274h118q194 0 272.5 86t78.5 284q0 184 -80 270.5t-273 86.5h-116v-260h198v-193h-198z
" />
    <glyph glyph-name="Oslash.sc" horiz-adv-x="1396" 
d="M434 383l418 567q-68 43 -152 43q-145 0 -229 -103.5t-84 -283.5q0 -134 47 -223zM700 213q141 0 226.5 107t85.5 286q0 134 -51 228l-422 -576q70 -45 161 -45zM283 -98l-140 106l105 142q-170 170 -170 456q0 127 35.5 233t95 178t140 122t169 73t182.5 23
q160 0 301 -72l109 146l139 -105l-104 -139q174 -167 174 -459q0 -127 -35.5 -233t-95 -178t-139.5 -122t-168 -73t-181 -23q-165 0 -309 72z" />
    <glyph glyph-name="Thorn.sc" horiz-adv-x="1224" 
d="M451 0h-314v1212h316v-178h172q89 0 160.5 -9t144 -35t121.5 -69.5t79.5 -117.5t30.5 -174q0 -99 -33 -173.5t-83.5 -117.5t-125 -69.5t-144 -35t-152.5 -8.5h-172v-225zM451 799v-359h182q115 0 168 50t53 128q0 81 -52 131t-169 50h-182z" />
    <glyph glyph-name="Dcroat.sc" horiz-adv-x="1323" 
d="M137 0v518h-117v189h117v505h422q118 0 217.5 -18t188 -61.5t150 -110.5t97 -170.5t35.5 -237.5q0 -137 -36 -244t-98 -176t-151 -113t-187.5 -62.5t-215.5 -18.5h-422zM457 514v-274h118q194 0 272.5 86t78.5 284q0 184 -80 270.5t-273 86.5h-116v-260h198v-193h-198z
" />
    <glyph glyph-name="Hbar.sc" horiz-adv-x="1376" 
d="M457 709h461v137h-461v-137zM457 455v-455h-320v846h-117v209h117v157h320v-157h461v157h321v-157h117v-209h-117v-846h-321v455h-461z" />
    <glyph glyph-name="IJ.sc" horiz-adv-x="1517" 
d="M471 0h-324v1212h324v-1212zM965 -14q-226 0 -383 118l133 207q47 -34 110 -59t113 -25q73 0 110 36t37 124v834h322v-848q0 -387 -442 -387z" />
    <glyph glyph-name="Ldot.sc" horiz-adv-x="1128" 
d="M1034 0h-897v1212h322v-968h534zM860 524q-89 0 -137.5 44t-48.5 110t48.5 109.5t137.5 43.5q90 0 141.5 -43.5t51.5 -109.5t-51.5 -110t-141.5 -44z" />
    <glyph glyph-name="Lslash.sc" horiz-adv-x="1056" 
d="M993 244l41 -244h-897v504l-117 -31v186l117 31v522h322v-434l196 53v-186l-196 -53v-348h534z" />
    <glyph glyph-name="Eng.sc" horiz-adv-x="1370" 
d="M137 0v1212h320l274 -397l230 -328h2v725h290v-1241q0 -181 -98 -284t-315 -103q-216 0 -383 117l135 209q46 -35 109 -60.5t112 -25.5q69 0 106.5 32t41.5 107v27l-277 391l-254 348h-2v-729h-291z" />
    <glyph glyph-name="OE.sc" horiz-adv-x="1974" 
d="M698 225q138 0 218.5 103.5t80.5 277.5t-80.5 274.5t-218.5 100.5t-218.5 -100.5t-80.5 -274.5t80.5 -277.5t218.5 -103.5zM684 -23q-92 0 -178 23t-164.5 73t-136.5 122t-92.5 178t-34.5 233t36 233t95.5 178t139 122t164 73t171.5 23q109 0 199 -36t149 -103v116h842
v-249h-582v-224h400l41 -241h-441v-254h613v-244h-873v111q-122 -134 -348 -134z" />
    <glyph glyph-name="Tbar.sc" horiz-adv-x="1165" 
d="M1120 418h-375v-418h-323v418h-373v209h373v336h-373v249h1071v-249h-375v-336h375v-209z" />
    <glyph glyph-name="ordfeminine.sc" horiz-adv-x="1011" 
d="M475 905l-57 -160h160l-56 160l-20 66h-4zM315 453h-217l287 764h238l288 -764h-237l-47 141h-258z" />
    <glyph glyph-name="ordmasculine.sc" horiz-adv-x="954" 
d="M477 440q-58 0 -112.5 12.5t-106 42.5t-90 74.5t-61.5 113.5t-23 155q0 108 34.5 188t93 124t125 64.5t140.5 20.5t140.5 -20.5t125 -64.5t93 -124t34.5 -188q0 -86 -23 -155t-61.5 -113.5t-90 -74.5t-106 -42.5t-112.5 -12.5zM477 606q80 0 119 62t39 170
q0 102 -38.5 164.5t-119.5 62.5q-79 0 -118.5 -61t-39.5 -166q0 -103 38 -167.5t120 -64.5z" />
    <glyph glyph-name="germandbls.sc" horiz-adv-x="2494" 
d="M1894 -27q-172 0 -320.5 62.5t-250.5 185.5l207 182q58 -80 161.5 -135t200.5 -55q203 0 203 121q0 64 -50 91t-190 56q-93 19 -156.5 36.5t-130.5 49t-107 71.5t-65.5 101.5t-25.5 141.5q0 159 128.5 256.5t338.5 97.5q329 0 522 -213l-184 -180q-55 64 -147 108.5
t-181 44.5q-168 0 -168 -108q0 -69 56 -96.5t215 -60.5q21 -5 32 -7q50 -11 87.5 -20.5t85 -26t81 -35t68.5 -47t57 -62.5t35.5 -80.5t13.5 -101.5q0 -120 -68.5 -206.5t-183.5 -128.5t-264 -42zM647 -27q-172 0 -320.5 62.5t-250.5 185.5l207 182q58 -80 161.5 -135
t200.5 -55q203 0 203 121q0 64 -50 91t-190 56q-93 19 -156.5 36.5t-130.5 49t-107 71.5t-65.5 101.5t-25.5 141.5q0 159 128.5 256.5t338.5 97.5q329 0 522 -213l-184 -180q-55 64 -147 108.5t-181 44.5q-168 0 -168 -108q0 -69 56 -96.5t215 -60.5q7 -2 11 -2.5t10 -2
t11 -2.5q50 -11 87.5 -20.5t85 -26t81 -35t68.5 -47t57 -62.5t35.5 -80.5t13.5 -101.5q0 -120 -68.5 -206.5t-183.5 -128.5t-264 -42z" />
    <glyph glyph-name="zero.sc" horiz-adv-x="1202" 
d="M602 -25q-252 0 -394 171.5t-142 459.5t142 458.5t394 170.5t394.5 -170.5t142.5 -458.5t-142.5 -459.5t-394.5 -171.5zM602 205q113 0 169 98.5t56 302.5q0 398 -225 398q-115 0 -172 -97t-57 -301q0 -202 59 -301.5t170 -99.5z" />
    <glyph glyph-name="one.sc" horiz-adv-x="821" 
d="M592 0h-268v936l-218 -55l-40 254l325 77h201v-1212z" />
    <glyph glyph-name="two.sc" horiz-adv-x="1060" 
d="M999 0h-948v29q0 76 14 137.5t53 133t117 144t197 148.5q138 89 192 145.5t54 122.5q0 64 -37 98.5t-109 34.5q-68 0 -134.5 -43.5t-116.5 -132.5l-218 137q78 131 205.5 207t280.5 76q198 0 310 -96.5t112 -259.5q0 -124 -64 -210.5t-205 -181.5q-160 -107 -205 -144
q-70 -58 -83 -101h544z" />
    <glyph glyph-name="three.sc" horiz-adv-x="1107" 
d="M522 -29q-309 0 -487 209l186 170q120 -143 291 -143q102 0 155.5 38t53.5 111q0 93 -70 130.5t-221 37.5h-63v211h65q83 0 137.5 10.5t81 31t36 42.5t9.5 53q0 125 -178 125q-150 0 -270 -112l-164 180q86 79 211 125.5t256 46.5q205 0 324.5 -85t119.5 -232
q0 -108 -64.5 -184t-189.5 -97q139 -13 217 -95.5t78 -205.5q0 -168 -144.5 -267.5t-369.5 -99.5z" />
    <glyph glyph-name="four.sc" horiz-adv-x="1150" 
d="M924 0h-293v221h-600v219l561 772h332v-755h188l41 -236h-229v-221zM629 856l-283 -399h285v399h-2z" />
    <glyph glyph-name="five.sc" horiz-adv-x="1054" 
d="M510 -29q-288 0 -485 168l157 201q145 -131 318 -131q106 0 161.5 53.5t55.5 143.5q0 94 -50.5 145t-150.5 51q-63 0 -123 -32t-102 -91l-195 60l47 673h760l29 -243h-555q-1 -19 -9.5 -116t-9.5 -116q81 74 240 74q200 0 311 -107t111 -296q0 -204 -138.5 -320.5
t-371.5 -116.5z" />
    <glyph glyph-name="six.sc" horiz-adv-x="1142" 
d="M598 -25q-236 0 -377 159.5t-141 451.5q0 135 32 245.5t86 184.5t127 124t151.5 72.5t162.5 22.5q135 0 220.5 -27t152.5 -73l-127 -201q-100 74 -236 74q-111 0 -184 -84.5t-88 -241.5q58 49 136.5 80t160.5 31q86 0 159 -24.5t129.5 -72t88.5 -124.5t32 -175
q0 -192 -130.5 -307t-354.5 -115zM610 195q87 0 137 53.5t50 138.5q0 84 -43 137.5t-142 53.5q-131 0 -235 -97q9 -145 69.5 -215.5t163.5 -70.5z" />
    <glyph glyph-name="seven.sc" horiz-adv-x="950" 
d="M457 0h-305l460 969h-561l-41 243h914v-227z" />
    <glyph glyph-name="eight.sc" horiz-adv-x="1118" 
d="M559 -27q-246 0 -378 89.5t-132 244.5q0 211 268 320q-106 55 -158.5 123.5t-52.5 175.5q0 133 125 221t328 88q215 0 334 -87t119 -222q0 -95 -55 -167.5t-156 -117.5q64 -28 108.5 -55.5t83 -66.5t57.5 -91t19 -117q0 -157 -133.5 -247.5t-376.5 -90.5zM580 735
q141 66 141 164q0 52 -39.5 90.5t-120.5 38.5q-80 0 -122 -36t-42 -89q0 -57 43.5 -94.5t139.5 -73.5zM559 178q96 0 151.5 41.5t55.5 110.5q0 61 -52 105t-173 91q-189 -82 -189 -196q0 -68 57 -110t150 -42z" />
    <glyph glyph-name="nine.sc" horiz-adv-x="1144" 
d="M530 637q136 0 238 92q-14 287 -233 287q-87 0 -137 -53t-50 -138q0 -188 182 -188zM506 -25q-230 0 -381 109l127 199q115 -80 244 -80q111 0 185 86.5t87 247.5q-43 -45 -126 -80t-167 -35q-88 0 -162 24t-131.5 71t-90 123.5t-32.5 174.5q0 191 133 305.5t355 114.5
q237 0 377.5 -158t140.5 -450q0 -135 -32 -246t-86 -185t-127 -125t-151.5 -73.5t-162.5 -22.5z" />
    <glyph glyph-name="exclam.sc" horiz-adv-x="632" 
d="M127 1212h379l-70 -827h-237zM315 -12q-83 0 -129.5 42t-46.5 105q0 64 46.5 106t129.5 42q85 0 132 -42t47 -106q0 -63 -47.5 -105t-131.5 -42z" />
    <glyph glyph-name="exclamdown.sc" horiz-adv-x="632" 
d="M317 1231q83 0 130 -42.5t47 -105.5q0 -64 -47 -105.5t-130 -41.5q-85 0 -131.5 41.5t-46.5 105.5q0 63 47 105.5t131 42.5zM434 827l74 -827h-381l70 827h237z" />
    <glyph glyph-name="question.sc" horiz-adv-x="1052" 
d="M627 381h-265q-10 44 -10 102q0 95 46.5 150.5t131.5 101.5q43 25 60 36t41.5 31.5t33.5 41t9 47.5q0 102 -160 102q-74 0 -163.5 -36t-153.5 -93l-152 211q200 170 498 170q214 0 324 -86t110 -237q0 -62 -18 -111.5t-54.5 -86.5t-67.5 -59t-81 -51
q-79 -46 -110.5 -94.5t-18.5 -138.5zM489 -12q-83 0 -129.5 42t-46.5 105q0 64 46.5 106t129.5 42q85 0 132 -42t47 -106q0 -63 -47.5 -105t-131.5 -42z" />
    <glyph glyph-name="questiondown.sc" horiz-adv-x="1024" 
d="M539 1231q83 0 129.5 -42.5t46.5 -105.5q0 -64 -46.5 -105.5t-129.5 -41.5q-85 0 -132 41.5t-47 105.5q0 63 47.5 105.5t131.5 42.5zM406 831h262q10 -46 10 -102q0 -51 -13.5 -91.5t-41 -70.5t-54.5 -50t-67 -42q-41 -22 -60 -34t-42.5 -31.5t-32.5 -40t-9 -47.5
q0 -103 158 -103q74 0 165 36.5t153 92.5l151 -213q-202 -168 -498 -168q-213 0 -323.5 86t-110.5 238q0 50 14 93t32 71.5t52.5 58t57.5 44.5t65 40q53 31 81 56.5t43.5 69.5t7.5 107z" />
    <glyph glyph-name="numbersign.sc" horiz-adv-x="1363" 
d="M600 696l-39 -178h170l39 178h-170zM449 0h-279l63 289h-182v229h232l41 178h-199v230h248l63 286h277l-62 -286h168l64 286h278l-65 -286h219v-230h-268l-37 -178h229v-229h-281l-59 -289h-281l62 289h-166z" />
    <glyph glyph-name="percent.sc" horiz-adv-x="1964" 
d="M412 428q-156 0 -249 111.5t-93 296.5q0 183 96 295t248 112q150 0 244 -111.5t94 -293.5q0 -185 -93 -297.5t-247 -112.5zM483 0l725 1212h265l-725 -1212h-265zM414 625q104 0 104 211q0 206 -106 206q-109 0 -109 -204q0 -112 27 -162.5t84 -50.5zM1556 -18
q-155 0 -249.5 111t-94.5 294q0 184 96.5 296t247.5 112q150 0 244 -111.5t94 -294.5q0 -184 -93 -295.5t-245 -111.5zM1556 176q55 0 81 51t26 162q0 207 -107 207q-108 0 -108 -207q0 -112 26.5 -162.5t81.5 -50.5z" />
    <glyph glyph-name="perthousand.sc" horiz-adv-x="2713" 
d="M397 428q-156 0 -249 111.5t-93 296.5q0 183 95 295t247 112q151 0 244.5 -111.5t93.5 -293.5q0 -185 -92.5 -297.5t-245.5 -112.5zM469 0l725 1212h264l-725 -1212h-264zM397 625q107 0 107 211q0 206 -107 206q-110 0 -110 -204q0 -112 27.5 -162.5t82.5 -50.5z
M2320 -18q-156 0 -249 110.5t-93 294.5t96 296t248 112q150 0 244 -111.5t94 -294.5q0 -184 -93 -295.5t-247 -111.5zM1540 -18q-155 0 -248.5 111t-93.5 294q0 184 96 296t248 112q150 0 244 -111.5t94 -294.5q0 -184 -93 -295.5t-247 -111.5zM2320 176q55 0 81 51t26 162
q0 207 -107 207q-110 0 -110 -207q0 -112 27.5 -162.5t82.5 -50.5zM1542 176q53 0 79 51t26 162q0 207 -107 207q-108 0 -108 -207q0 -112 27.5 -162.5t82.5 -50.5z" />
    <glyph glyph-name="ampersand.sc" horiz-adv-x="1308" 
d="M526 928q0 -81 37 -154q73 35 113.5 75t40.5 95q0 43 -20.5 73t-65.5 30q-48 0 -76.5 -30t-28.5 -89zM524 193q69 0 138 32q-53 50 -99 103q-81 87 -145 178q-52 -35 -79.5 -71t-27.5 -83q0 -79 59 -119t154 -40zM965 645l252 -37q-31 -185 -134 -344q67 -45 168 -45
l41 -235q-215 -21 -411 86q-158 -93 -359 -93q-248 0 -370.5 91.5t-122.5 246.5q0 72 23 130t67 101t91 73t112 61q-68 136 -68 250q0 62 21 116.5t64 100.5t117 73t171 27q163 0 246 -78t83 -202q0 -68 -24 -124t-70 -98.5t-93.5 -71.5t-113.5 -59q36 -51 105 -120
q58 -63 117 -113q73 107 88 264z" />
    <glyph glyph-name="slash.sc" horiz-adv-x="1120" 
d="M369 0h-322l705 1212h321z" />
    <glyph glyph-name="backslash.sc" horiz-adv-x="1120" 
d="M369 1212l704 -1212h-321l-705 1212h322z" />
    <glyph glyph-name="plus.sc" horiz-adv-x="1323" 
d="M793 78h-263v409h-393v261h393v409h263v-409h393v-261h-393v-409z" />
    <glyph glyph-name="minus.sc" horiz-adv-x="1323" 
d="M1186 487h-1049v261h1049v-261z" />
    <glyph glyph-name="divide.sc" horiz-adv-x="1323" 
d="M657 868q-73 0 -115 42t-42 104t41.5 102.5t115.5 40.5t117 -40.5t43 -102.5q0 -61 -43 -103.5t-117 -42.5zM1186 489h-1049v261h1049v-261zM657 76q-73 0 -115 42t-42 103q0 63 41.5 103.5t115.5 40.5t117 -41t43 -103q0 -61 -43 -103t-117 -42z" />
    <glyph glyph-name="multiply.sc" horiz-adv-x="1323" 
d="M662 428l-326 -326l-191 193l322 323l-322 320l191 192l323 -321l320 321l192 -192l-319 -320l324 -319l-191 -193z" />
    <glyph glyph-name="equal.sc" horiz-adv-x="1323" 
d="M1178 733h-1035v234h1035v-234zM1178 266h-1035v234h1035v-234z" />
    <glyph glyph-name="less.sc" horiz-adv-x="1323" 
d="M1206 322v-271l-1083 475v181l1083 475v-271l-731 -295z" />
    <glyph glyph-name="greater.sc" horiz-adv-x="1323" 
d="M1210 526l-1083 -475v271l731 294l-731 295v271l1083 -475v-181z" />
    <glyph glyph-name="dollar.sc" horiz-adv-x="1193" 
d="M506 762v258q-59 -7 -93 -42t-34 -83q0 -53 33.5 -83t93.5 -50zM684 469v-272q63 8 103 40t40 89q0 58 -37 89.5t-106 53.5zM690 -150h-190v138q-276 31 -426 270q34 20 112.5 68t100.5 61q46 -72 103.5 -121t115.5 -61v309q-66 16 -118 34.5t-105 48.5t-87.5 67.5
t-56.5 92t-22 120.5q0 150 103.5 243.5t279.5 108.5v117h188v-121q230 -30 363 -226l-201 -141q-40 58 -76 93t-90 55v-285q75 -18 131.5 -37.5t109.5 -50t87 -68.5t54.5 -92.5t20.5 -122.5q0 -143 -98.5 -242.5t-298.5 -121.5v-136z" />
    <glyph glyph-name="sterling.sc" horiz-adv-x="1212" 
d="M281 -27q-104 0 -175 51t-71 156q0 107 72 165t174 58q84 0 182 -59v35q-8 71 -60 160h-237v145h137q-74 114 -74 211q0 144 114.5 242t289.5 98q87 0 156.5 -19t115.5 -50.5t80 -77.5t52.5 -93.5t29.5 -105.5l-264 -53q-15 80 -48.5 129t-103.5 49q-56 0 -90.5 -31
t-34.5 -86q0 -23 6 -47.5t11 -39.5t22.5 -45t22 -37t28.5 -44h285v-145h-209q33 -90 33 -172q0 -75 -31 -152q56 -35 94 -35q67 0 100 35t36 133h237q-3 -65 -12 -115t-31 -101t-56 -84t-91 -54t-133 -21q-148 0 -283 88q-115 -88 -274 -88zM287 123q83 0 125 57
q-74 70 -127 70q-33 0 -52.5 -17.5t-19.5 -44.5q0 -65 74 -65z" />
    <glyph glyph-name="yen.sc" horiz-adv-x="1191" 
d="M444 0v154h-299v145h299v100h-299v146h297l-413 667h315l254 -436l256 436h309l-413 -667h303v-146h-303v-100h303v-143h-303v-156h-306z" />
    <glyph glyph-name="Euro.sc" horiz-adv-x="1304" 
d="M752 -23q-418 0 -508 422h-191v146h174q-2 23 -2 63v37h-172v146h187q34 218 174 332t336 114q192 0 301 -90.5t163 -255.5l-237 -82q-34 100 -85 148.5t-138 48.5q-88 0 -146 -54.5t-73 -160.5h247v-146h-262v-37q0 -45 2 -63h260v-146h-243q47 -194 217 -194
q167 0 229 215l240 -72q-121 -371 -473 -371z" />
    <glyph glyph-name="florin.sc" horiz-adv-x="786" 
d="M-127 -330l25 205q36 -8 79 -8q64 0 99.5 30.5t44.5 96.5q46 316 82 618h-154l23 201h157q10 91 15 113q7 60 27 107t59.5 89t110 65t167.5 23q33 0 100 -4t78 -6l-26 -203q-40 9 -78 9q-60 0 -96.5 -20.5t-44.5 -82.5l-13 -90h195l-25 -201h-192q-5 -31 -47 -345
t-47 -349q-32 -258 -361 -258q-39 0 -103.5 3.5t-74.5 6.5z" />
    <glyph glyph-name="fi.sc" horiz-adv-x="1673" 
d="M1528 0h-324v1212h324v-1212zM459 0h-322v1212h877v-247h-555v-267h375l40 -239h-415v-459z" />
    <glyph glyph-name="fl.sc" horiz-adv-x="2113" 
d="M2091 0h-897v1212h322v-968h534zM459 0h-322v1212h877v-247h-555v-267h375l40 -239h-415v-459z" />
    <glyph glyph-name="space.tab" horiz-adv-x="665" 
 />
    <glyph glyph-name="zero.tab" 
d="M666 -29q-189 0 -328.5 98t-213 275.5t-73.5 413.5t73.5 413t213 275t328.5 98t328 -98t211.5 -275t72.5 -413t-72.5 -413.5t-211.5 -275.5t-328 -98zM666 231q142 0 219.5 135t77.5 392q0 255 -78 387.5t-219 132.5q-144 0 -221.5 -131.5t-77.5 -388.5
q0 -256 79.5 -391.5t219.5 -135.5z" />
    <glyph glyph-name="one.tab" 
d="M221 0v260h314v954q-54 -28 -148 -48.5t-162 -20.5v272q94 3 182 28.5t136 70.5h315v-1256h281v-260h-918z" />
    <glyph glyph-name="two.tab" 
d="M102 0v33q0 55 2.5 93.5t12 90t27.5 93t50.5 93.5t78.5 100t113.5 104t154.5 114q68 45 103.5 69.5t79 57.5t63.5 55.5t39.5 52.5t26.5 59.5t7 65.5q0 88 -51 137.5t-143 49.5q-91 0 -174 -57t-150 -162l-233 163q100 159 237 245.5t330 86.5q241 0 374.5 -117
t133.5 -323q0 -69 -12 -124t-46 -117.5t-101 -126t-169 -130.5q-209 -136 -288.5 -208t-100.5 -138h700l41 -260h-1106z" />
    <glyph glyph-name="three.tab" 
d="M623 -29q-361 0 -568 260l197 185q69 -88 164.5 -134t191.5 -46q123 0 187.5 54t64.5 156q0 122 -85 173t-265 51h-74v243h78q78 0 136 11t92 28t54.5 43t27.5 51.5t7 57.5q0 168 -213 168q-184 0 -329 -142l-174 207q98 96 241 150.5t297 54.5q239 0 372.5 -101.5
t133.5 -285.5q0 -134 -74 -227.5t-211 -122.5q161 -29 246.5 -130t85.5 -249q0 -210 -161.5 -332.5t-421.5 -122.5z" />
    <glyph glyph-name="four.tab" 
d="M756 0v297h-690v242l639 977h370v-957h185l40 -262h-225v-297h-319zM385 559h371v559h-4z" />
    <glyph glyph-name="five.tab" 
d="M635 -29q-335 0 -553 201l168 219q75 -70 170.5 -112.5t193.5 -42.5q141 0 212 74t71 198q0 129 -65.5 199.5t-188.5 70.5q-158 0 -270 -145l-205 67l57 816h873l35 -252h-656l-28 -336q44 40 118.5 67t169.5 27q229 0 359.5 -139t130.5 -365q0 -243 -162.5 -395
t-429.5 -152z" />
    <glyph glyph-name="six.tab" 
d="M694 -29q-131 0 -240.5 49.5t-190 144t-125 239.5t-44.5 327q0 169 38 307.5t101 230.5t147.5 155.5t175 91.5t185.5 28q274 0 439 -127l-144 -225q-65 46 -130 67t-150 21q-142 0 -231.5 -116t-104.5 -324q170 137 358 137q99 0 183.5 -28.5t151 -85t104.5 -150.5
t38 -217q0 -235 -155.5 -380t-405.5 -145zM709 223q113 0 173 74t60 184q0 250 -229 250q-169 0 -293 -127q21 -381 289 -381z" />
    <glyph glyph-name="seven.tab" 
d="M279 0l579 1249h-700l-41 267h1081v-246l-584 -1270h-335z" />
    <glyph glyph-name="eight.tab" 
d="M666 -29q-274 0 -433 112.5t-159 307.5q0 134 89 236.5t234 165.5q-64 34 -108 66.5t-79 76t-52 99t-17 126.5q0 74 34.5 141.5t98.5 122t165.5 87t226.5 32.5q128 0 230.5 -32.5t166 -87t96.5 -122t33 -141.5q0 -116 -73 -209t-197 -151q63 -29 108.5 -54.5t91 -61.5
t73 -76.5t45 -96t17.5 -121.5q0 -195 -158 -307.5t-433 -112.5zM688 909q100 51 141 101t41 123q0 70 -48.5 124t-153.5 54t-155 -51t-50 -123q0 -80 53.5 -130.5t171.5 -97.5zM666 199q122 0 191 60t69 151q0 86 -64 143.5t-219 120.5q-120 -59 -177.5 -121t-57.5 -143
q0 -90 68.5 -150.5t189.5 -60.5z" />
    <glyph glyph-name="nine.tab" 
d="M616 784q169 0 293 127q-21 375 -288 375q-113 0 -172.5 -71.5t-59.5 -180.5q0 -250 227 -250zM588 -29q-155 0 -259 34.5t-188 98.5l142 218q70 -49 136.5 -72t153.5 -23q141 0 232 120t106 329q-171 -135 -358 -135q-100 0 -185 28t-151.5 84t-104.5 150t-38 217
q0 235 155.5 379.5t405.5 144.5q131 0 241 -49.5t190.5 -143.5t125.5 -239.5t45 -327.5q0 -169 -38 -307.5t-101.5 -230.5t-148.5 -155.5t-175.5 -91.5t-185.5 -28z" />
    <glyph glyph-name="parenleft.tab" horiz-adv-x="665" 
d="M532 -420q-260 218 -391 461t-131 543t131 542t391 461l154 -160q-334 -367 -334 -843q0 -248 90.5 -465t251.5 -389z" />
    <glyph glyph-name="parenright.tab" horiz-adv-x="665" 
d="M131 -420l-162 150q161 172 251.5 389t90.5 465q0 476 -334 843l154 160q260 -219 391 -461t131 -542t-131 -543t-391 -461z" />
    <glyph glyph-name="numbersign.tab" 
d="M530 625h197l47 268h-194zM174 0l64 383h-150v242h191l45 268h-164v242h202l66 381h256l-70 -381h199l68 381h252l-68 -381h176v-242h-213l-47 -268h188v-242h-225l-65 -383h-254l63 383h-194l-68 -383h-252z" />
    <glyph glyph-name="percent.tab" horiz-adv-x="2007" 
d="M451 547q-175 0 -277 128t-102 365q0 238 103 366t278 128t276.5 -127.5t101.5 -364.5q0 -238 -102 -366.5t-278 -128.5zM500 0l800 1516h207l-802 -1516h-205zM453 762q129 0 129 278q0 273 -131 273q-129 0 -129 -271q0 -280 131 -280zM1556 -18q-176 0 -278 128
t-102 365q0 238 103 366t277 128q176 0 278.5 -127t102.5 -365t-102.5 -366.5t-278.5 -128.5zM1556 199q130 0 130 278q0 273 -130 273q-131 0 -131 -273q0 -278 131 -278z" />
    <glyph glyph-name="asterisk.tab" 
d="M520 621l-172 100l191 278l-336 -24v192l338 -22l-193 278l172 101l146 -305l145 305l174 -101l-192 -278l337 22v-192l-337 24l192 -278l-172 -100l-147 305z" />
    <glyph glyph-name="period.tab" horiz-adv-x="665" 
d="M330 -16q-92 0 -143.5 50t-51.5 124q0 75 51.5 124.5t143.5 49.5q93 0 145.5 -49.5t52.5 -124.5q0 -74 -52.5 -124t-145.5 -50z" />
    <glyph glyph-name="comma.tab" horiz-adv-x="665" 
d="M334 -246h-195l56 563h352z" />
    <glyph glyph-name="colon.tab" horiz-adv-x="665" 
d="M330 758q-92 0 -143.5 50t-51.5 124q0 75 51.5 124.5t143.5 49.5q93 0 145.5 -49.5t52.5 -124.5q0 -74 -52.5 -124t-145.5 -50zM330 -16q-92 0 -143.5 50t-51.5 124q0 75 51.5 124.5t143.5 49.5q93 0 145.5 -49.5t52.5 -124.5q0 -74 -52.5 -124t-145.5 -50z" />
    <glyph glyph-name="semicolon.tab" horiz-adv-x="665" 
d="M340 758q-92 0 -143.5 50t-51.5 124q0 75 51.5 124.5t143.5 49.5q93 0 146 -49.5t53 -124.5q0 -74 -53 -124t-146 -50zM334 -246h-195l56 563h352z" />
    <glyph glyph-name="slash.tab" 
d="M57 0l881 1516h336l-881 -1516h-336z" />
    <glyph glyph-name="periodcentered.tab" horiz-adv-x="665" 
d="M332 516q-92 0 -143.5 50t-51.5 124q0 75 51.5 124.5t143.5 49.5q93 0 145.5 -49.5t52.5 -124.5q0 -74 -52.5 -124t-145.5 -50z" />
    <glyph glyph-name="minute.tab" horiz-adv-x="665" 
d="M178 965l37 401l25 150h280l-133 -551h-209z" />
    <glyph glyph-name="second.tab" 
d="M711 965l37 401l24 150h281l-133 -551h-209zM309 965l37 401l25 150h280l-133 -551h-209z" />
    <glyph glyph-name="plus.tab" 
d="M535 178v410h-394v260h394v409h262v-409h393v-260h-393v-410h-262z" />
    <glyph glyph-name="minus.tab" 
d="M141 588v260h1049v-260h-1049z" />
    <glyph glyph-name="divide.tab" 
d="M664 967q-74 0 -116 42t-42 103q0 62 42 102.5t116 40.5t116.5 -40.5t42.5 -102.5q0 -61 -42.5 -103t-116.5 -42zM141 588v260h1049v-260h-1049zM664 174q-74 0 -116 42t-42 103q0 62 42 103t116 41t116.5 -41t42.5 -103q0 -61 -42.5 -103t-116.5 -42z" />
    <glyph glyph-name="multiply.tab" 
d="M340 145l-190 193l323 324l-323 319l190 193l324 -322l321 322l191 -193l-320 -319l324 -320l-191 -190l-323 319z" />
    <glyph glyph-name="equal.tab" 
d="M147 788v234h1035v-234h-1035zM147 322v233h1035v-233h-1035z" />
    <glyph glyph-name="less.tab" 
d="M1210 98l-1083 477v179l1083 475v-268l-731 -297l731 -295v-271z" />
    <glyph glyph-name="greater.tab" 
d="M131 98v271l733 295l-733 297v268l1083 -475v-179z" />
    <glyph glyph-name="dollar.tab" 
d="M606 926v372q-20 -3 -40 -8.5t-46.5 -18.5t-46 -31.5t-33.5 -49.5t-14 -70q0 -79 48 -123t132 -71zM764 213q197 27 197 188q0 84 -52.5 131t-144.5 76v-395zM596 -190v174q-330 28 -514 323l223 144q72 -104 140 -161t161 -73v430q-59 15 -105 29t-98 35.5t-90.5 45.5
t-75.5 57.5t-60.5 72.5t-37.5 91t-14 112q0 191 130.5 311t340.5 135v141h174v-149q288 -37 438 -268l-219 -160q-53 76 -106 119t-119 61v-387q82 -18 149 -40.5t134.5 -60.5t112.5 -86t73.5 -118t28.5 -156q0 -192 -127 -310t-365 -138v-174h-174z" />
    <glyph glyph-name="cent.tab" 
d="M461 543q0 -161 61 -250l172 590q-105 -5 -169 -89.5t-64 -250.5zM692 -23q-52 0 -102 9l-74 -250h-168l88 297q-139 68 -208.5 205t-69.5 307q0 121 34 220t89 162.5t128 106.5t147.5 61.5t150.5 18.5q31 0 47 -2l57 195h168l-68 -226q202 -71 279 -301l-254 -90
q-30 100 -109 154l-182 -635q24 -6 53 -6q75 0 142.5 48.5t103.5 151.5l250 -94q-141 -332 -502 -332z" />
    <glyph glyph-name="sterling.tab" 
d="M938 -29q-175 0 -334 119q-128 -119 -303 -119q-75 0 -137 24t-104 80.5t-42 137.5q0 124 83 195t198 71q109 0 195 -69q3 52 -9 108q-17 84 -63 168h-266v176h168q-76 141 -76 262q0 179 129 299.5t328 120.5q418 0 479 -405l-275 -62q-30 213 -192 213
q-69 0 -110.5 -44t-41.5 -120q0 -42 15.5 -91.5t30 -79.5t48.5 -93h353v-176h-271q41 -108 41 -225q0 -103 -43 -203q85 -55 144 -55q68 0 96.5 44t32.5 175h268q-1 -64 -5.5 -114t-17 -105t-36.5 -94t-60.5 -72t-93 -49.5t-129.5 -16.5zM305 137q95 0 150 84
q-86 86 -152 86q-39 0 -62.5 -23.5t-23.5 -62.5q0 -37 23.5 -60.5t64.5 -23.5z" />
    <glyph glyph-name="yen.tab" 
d="M498 0v188h-353v179h353v139h-353v176h347l-484 834h346l312 -564l313 564h342l-487 -834h352v-176h-357v-139h357v-179h-357v-188h-331z" />
    <glyph glyph-name="Euro.tab" 
d="M778 -29q-223 0 -370 127.5t-195 397.5h-197v178h177q-3 52 -3 139h-174v176h191q21 141 72.5 248.5t126 174t166 99.5t198.5 33q218 0 340.5 -111t177.5 -315l-287 -86q-35 132 -84.5 192t-148.5 60q-206 0 -246 -295h295v-176h-311v-139h311v-178h-291
q18 -136 75.5 -203.5t170.5 -67.5q99 0 153.5 67.5t86.5 209.5l284 -74q-138 -457 -518 -457z" />
    <glyph glyph-name="florin.tab" 
d="M106 -401l29 221q45 -10 94 -10q79 0 122 37.5t55 123.5l104 817h-188l28 228h189l18 153q7 60 20.5 108t44 96t76 79.5t118 51.5t167.5 20q41 0 113 -6t84 -9l-29 -229q-45 10 -94 10q-35 0 -60.5 -4.5t-51 -17t-41 -40t-19.5 -69.5l-19 -143h238l-27 -228h-237
l-115 -882q-7 -54 -20 -96.5t-43 -86.5t-74 -73t-116.5 -47.5t-166.5 -18.5q-45 0 -116 5.5t-83 9.5z" />
    </font>
</defs>
</svg>
