<svg xmlns="http://www.w3.org/2000/svg" viewBox="0 0 21.3 27.96"><defs><style>.cls-1{fill:#f8cd51;}</style></defs><g id="Layer_2" data-name="Layer 2"><g id="Layer_1-2" data-name="Layer 1"><path class="cls-1" d="M2.13,28c-.21-.07-.44-.12-.64-.21A2.36,2.36,0,0,1,0,25.49C0,23.72,0,22,0,20.17V2.65A2.47,2.47,0,0,1,2.64,0H13.72a1.24,1.24,0,0,1,.94.39l6.27,6.28a1.15,1.15,0,0,1,.37.89V25.25a2.47,2.47,0,0,1-2.08,2.68.09.09,0,0,0,0,0Zm11-26.32H2.62c-.67,0-1,.31-1,1V25.34c0,.67.31,1,1,1H18.68a.85.85,0,0,0,1-1V8.19h-4.1a2.43,2.43,0,0,1-2.41-2,4.17,4.17,0,0,1,0-.71V1.64m1.64,1.23c0,1,0,1.92,0,2.87a.8.8,0,0,0,.84.81h2.73l.1,0L14.75,2.87"/><path class="cls-1" d="M10.65,11.58h4.86a.81.81,0,0,1,.78,1.18.82.82,0,0,1-.8.46H5.81a.82.82,0,1,1,0-1.64h4.82"/><path class="cls-1" d="M10.68,14.86h4.83a.82.82,0,1,1,0,1.63H11.07c-1.75,0-3.51,0-5.26,0A.82.82,0,0,1,5,15.35a.84.84,0,0,1,.84-.5h4.85"/><path class="cls-1" d="M10.62,19.77H5.8a.82.82,0,1,1,0-1.64h9.71a.81.81,0,0,1,.78,1.17.83.83,0,0,1-.82.47H10.62"/><path class="cls-1" d="M9,23c-1.06,0-2.12,0-3.18,0a.82.82,0,1,1,0-1.63c2.14,0,4.29,0,6.43,0a.81.81,0,0,1,.8,1.14.83.83,0,0,1-.81.5H9"/></g></g></svg>