<svg xmlns="http://www.w3.org/2000/svg" viewBox="0 0 28.21 24.65"><defs><style>.cls-1{fill:#deb351;}</style></defs><g id="Layer_2" data-name="Layer 2"><g id="Layer_1-2" data-name="Layer 1"><path class="cls-1" d="M0,7.5C.09,7,.15,6.57.27,6.12A8.14,8.14,0,0,1,13.9,2.37l.17.16c.53-.41,1-.85,1.58-1.22A8.17,8.17,0,0,1,28.12,6.89,9.35,9.35,0,0,1,27,12.73a22.11,22.11,0,0,1-4.18,5.43,46.87,46.87,0,0,1-7.93,6.24,1.19,1.19,0,0,1-1.44,0,44.58,44.58,0,0,1-9.15-7.5,18.28,18.28,0,0,1-3.5-5.24A9.43,9.43,0,0,1,.05,9a1.6,1.6,0,0,0,0-.21ZM26.46,8c0-.21-.06-.6-.12-1A6.39,6.39,0,0,0,14.87,4.43a.93.93,0,0,1-.79.43,1,1,0,0,1-.8-.51,6.4,6.4,0,0,0-11.1,6.13,14.41,14.41,0,0,0,2.93,4.75A42.58,42.58,0,0,0,14,22.67a.27.27,0,0,0,.34,0,48.06,48.06,0,0,0,6.5-5,22.83,22.83,0,0,0,4.35-5.2A8.91,8.91,0,0,0,26.46,8"/></g></g></svg>