<svg xmlns="http://www.w3.org/2000/svg" viewBox="0 0 167.06 22.84"><defs><style>.cls-1{fill:#00336b;}</style></defs><g id="Layer_2" data-name="Layer 2"><g id="Layer_1-2" data-name="Layer 1"><path class="cls-1" d="M22.37,22.84c12.35,0,22.37-5.11,22.37-11.42S34.72,0,22.37,0,0,5.11,0,11.42,10,22.84,22.37,22.84m4.21-5.59c-.37.85-1,2.7-2.49,3.43a4,4,0,0,1-1.5.34h-.21a39.36,39.36,0,0,1-11-1.49c-.23-.07-.75-.2-.75-.51a.47.47,0,0,1,.18-.36l.21-.18a25.46,25.46,0,0,1,7.19-3.84A34.76,34.76,0,0,1,23.46,13c1.14-.24,5.35-.88,3.12,4.28M37.88,5.73a.43.43,0,0,1,.38-.27.77.77,0,0,1,.46.15c2.62,1.62,4.18,3.62,4.18,5.81,0,3.94-5.07,7.32-12.33,8.8-.47.09-.78.09-.89,0a.28.28,0,0,1,0-.35,2.33,2.33,0,0,1,.19-.27c4-4.65,7-11.5,7.82-13.49l.19-.35M18.23,5.58c.37-.86,1-2.7,2.48-3.44a3.91,3.91,0,0,1,1.5-.34h.23a38.73,38.73,0,0,1,11,1.51c.23.07.74.16.74.49a.52.52,0,0,1-.19.36,1.28,1.28,0,0,1-.2.18,25.8,25.8,0,0,1-7.19,3.84,35.46,35.46,0,0,1-5.26,1.68c-1.15.24-5.36.87-3.13-4.28m-4-3c.47-.1.82-.1.93,0a.27.27,0,0,1,0,.35l-.19.27c-4,4.65-7,11.5-7.82,13.48-.07.14-.13.28-.18.37a.48.48,0,0,1-.38.26,1,1,0,0,1-.46-.15c-2.62-1.62-4.25-3.63-4.25-5.81,0-3.94,5.09-7.33,12.35-8.8"/><polygon class="cls-1" points="64.7 3.13 64.7 9.38 57.62 9.38 57.62 3.13 53.71 3.13 53.71 19.54 57.62 19.54 57.62 12.94 64.7 12.94 64.7 19.54 68.61 19.54 68.61 3.13 68.41 3.13 64.7 3.13"/><polygon class="cls-1" points="82.93 3.13 78.84 9.63 74.76 3.13 70.15 3.13 76.89 13.86 76.89 19.54 80.8 19.54 80.8 13.86 87.53 3.13 87.18 3.13 82.93 3.13"/><path class="cls-1" d="M100.09,3.13v12a.81.81,0,0,1-.82.83H93V3.13h-3.9V19.54h11.53A3.14,3.14,0,0,0,104,16.18v-13h-3.91Z"/><path class="cls-1" d="M119.16,3.13H107.61V19.54h3.91V6.68h6.26a.81.81,0,0,1,.83.82v12h3.9V6.48a3.33,3.33,0,0,0-.9-2.45,3.35,3.35,0,0,0-2.45-.9"/><path class="cls-1" d="M137.12,7.53v7.6a.83.83,0,0,1-.84.85H130V6.68h6.23a.82.82,0,0,1,.86.85m.54-4.4H126.13V19.54h11.53a3.32,3.32,0,0,0,2.45-.91,3.28,3.28,0,0,0,.91-2.45V6.48A3.26,3.26,0,0,0,140.11,4a3.28,3.28,0,0,0-2.45-.91"/><path class="cls-1" d="M155.45,6.68v4.23h-7.08V7.52a.83.83,0,0,1,.83-.84h6.25m-7.63-3.55a3.28,3.28,0,0,0-2.45.91,3.31,3.31,0,0,0-.9,2.44V19.54h3.9V14.46h7.09v5.08h3.9V3.13H147.82Z"/><polygon class="cls-1" points="166.86 3.13 163.16 3.13 163.16 19.54 167.06 19.54 167.06 3.13 166.86 3.13"/></g></g></svg>