<svg xmlns="http://www.w3.org/2000/svg" viewBox="0 0 26.93 26.93"><defs><style>.cls-1{fill:#c03851;}</style></defs><g id="Layer_2" data-name="Layer 2"><g id="Layer_1-2" data-name="Layer 1"><path class="cls-1" d="M15.46,0h1.11a1.57,1.57,0,0,0,.23,0,9.81,9.81,0,0,1,3.47.83,10.67,10.67,0,0,1,6.51,8.4,10.41,10.41,0,0,1-.72,5.91A10.76,10.76,0,0,1,20,21.11a10.08,10.08,0,0,1-5.18.64,10.9,10.9,0,0,1-4.06-1.36c-.41-.24-.53-.22-.87.12C8.08,22.27,6.33,24,4.56,25.78a4.62,4.62,0,0,1-.95.75,2.26,2.26,0,0,1-3-.4A2.69,2.69,0,0,1,0,25v-.63a4.84,4.84,0,0,1,1.6-2.46c1.53-1.51,3-3,4.56-4.55.63-.63.69-.56.21-1.46a10.19,10.19,0,0,1-.84-8A10.64,10.64,0,0,1,14.32.15c.38-.07.76-.1,1.14-.15m8.62,10.92A8.07,8.07,0,1,0,16,19a8.06,8.06,0,0,0,8.09-8.07"/><path class="cls-1" d="M16.44,4.38a7.09,7.09,0,0,1,2.77.54A1.12,1.12,0,1,1,18.42,7a5.1,5.1,0,0,0-2.18-.38,4.76,4.76,0,0,0-4.09,2.71,1.63,1.63,0,0,1-.6.77A1.13,1.13,0,0,1,10,8.69a7.12,7.12,0,0,1,6.48-4.31"/></g></g></svg>