<svg xmlns="http://www.w3.org/2000/svg" viewBox="0 0 31.07 31.06"><defs><style>.cls-1{fill:#f8cd51;}</style></defs><g id="Layer_2" data-name="Layer 2"><g id="Layer_1-2" data-name="Layer 1"><path class="cls-1" d="M17.84,0h1.27l.27.05a11.33,11.33,0,0,1,4,1,12.31,12.31,0,0,1,7.51,9.68,12,12,0,0,1-.84,6.83,12.43,12.43,0,0,1-7,6.84,11.85,11.85,0,0,1-6,.74,12.61,12.61,0,0,1-4.68-1.58c-.48-.28-.61-.25-1,.14-2,2-4.06,4.07-6.1,6.09a5.25,5.25,0,0,1-1.09.85,2.62,2.62,0,0,1-3.49-.45A3.13,3.13,0,0,1,0,28.82v-.73a5.57,5.57,0,0,1,1.85-2.84C3.61,23.52,5.36,21.76,7.11,20c.73-.73.79-.65.24-1.69a11.66,11.66,0,0,1-1-9.27A12.26,12.26,0,0,1,16.52.17C17,.09,17.4.06,17.84,0m9.94,12.6a9.31,9.31,0,1,0-9.33,9.31,9.31,9.31,0,0,0,9.33-9.31"/></g></g></svg>