<?xml version="1.0" encoding="UTF-8"?>
<svg width="166px" height="140px" viewBox="0 0 166 140" version="1.1" xmlns="http://www.w3.org/2000/svg" xmlns:xlink="http://www.w3.org/1999/xlink">
    <!-- Generator: Sketch 47.1 (45422) - http://www.bohemiancoding.com/sketch -->
    <title>Microillustration</title>
    <desc>Created with Sketch.</desc>
    <defs>
        <path d="M0.254,8.503 C0.254,12.971 3.888,16.594 8.371,16.594 C12.853,16.594 16.487,12.971 16.487,8.503 C16.487,4.034 12.853,0.41 8.371,0.41 C3.888,0.41 0.254,4.034 0.254,8.503 Z" id="path-1"></path>
        <path d="M0.82,11.025 C0.82,16.622 5.37,21.158 10.983,21.158 C16.596,21.158 21.147,16.622 21.147,11.025 C21.147,5.43 16.596,0.892 10.983,0.892 C5.37,0.892 0.82,5.43 0.82,11.025 Z" id="path-3"></path>
        <polygon id="path-5" points="9.308 9.9368 9.308 0.8298 0.2004 0.8298 0.2004 9.9368 9.308 9.9368"></polygon>
        <path d="M11.8870327,0.0245 C27.4446157,2.17936582 34.6999332,9.273655 37.430174,13.6045 L0.6083,13.6045 L0.6083,0.0245 L11.8870327,0.0245 L11.8870327,0.0245 Z" id="path-7"></path>
        <path d="M28.269,0.388 C22.212,0.447 15.941,2.49 13,4.174 C7.259,7.46 2.947,13.1 2.551,13.585 C-4.917,22.743 16.865,17.442 16.865,17.442 L64.588,14.86 C61.501,9.757 51.9,0.384 29.095,0.384 C28.822,0.384 28.546,0.385 28.269,0.388 Z" id="path-9"></path>
        <path d="M28.269,0.388 C22.212,0.447 15.941,2.49 13,4.174 L13,4.174 C7.259,7.46 2.947,13.1 2.551,13.585 L2.551,13.585 C-4.917,22.743 16.865,17.442 16.865,17.442 L16.865,17.442 L64.588,14.86 C61.501,9.757 51.9,0.384 29.095,0.384 L29.095,0.384 C28.822,0.384 28.546,0.385 28.269,0.388 L28.269,0.388 Z" id="path-11"></path>
        <polygon id="path-13" points="16.5682 9.786 0.0662 9.786 0.0662 0.2372 16.5682 0.2372"></polygon>
        <path d="M0.402910561,1.1088 C1.20576856,0.800326473 1.672,0.633 1.672,0.633 L29.9271,0.382327034 L29.9271,1.1088 L0.402910561,1.1088 L0.402910561,1.1088 Z" id="path-15"></path>
        <path d="M38.9304741,0.0752 C39.1299989,0.404428162 39.243,0.596 39.243,0.596 L40.871,0.552 C42.21,7.335 37.648,11.786 37.648,11.786 L0.9154,11.786 L0.9154,0.0752 L38.9304741,0.0752 L38.9304741,0.0752 Z" id="path-17"></path>
        <polygon id="path-19" points="16.8192 9.786 0.3182 9.786 0.3182 0.2372 16.8192 0.2372 16.8192 9.786"></polygon>
        <path d="M0.7279,19.786 L36.648,19.786 C36.648,19.786 41.21,15.335 39.871,8.552 L38.243,8.596 C38.243,8.596 34.938,2.993 32.516,0.315 L0.7279,0.597016957 L0.7279,19.786 L0.7279,19.786 Z" id="path-21"></path>
        <path d="M0.625,5.02516378 C1.59494228,2.4710284 4.0655582,0.656 6.96,0.656 C10.701,0.656 13.733,3.688 13.733,7.429 C13.733,11.17 10.701,14.203 6.96,14.203 C4.0655582,14.203 1.59494228,12.387373 0.625,9.83296667 L0.625,5.02516378 L0.625,5.02516378 Z" id="path-23"></path>
        <path d="M0.4808,1.78130393 C0.793103492,1.12357518 1.28660012,0.568548622 1.89686533,0.1806 L6.02255179,0.1806 C7.09560163,0.863118423 7.807,2.06276649 7.807,3.429 C7.807,5.555 6.086,7.278 3.96,7.278 C2.42393356,7.278 1.09824425,6.37854641 0.4808,5.07750716 L0.4808,1.78130393 L0.4808,1.78130393 Z" id="path-25"></path>
        <path d="M0.7637,5.0233213 C1.73413055,2.47015557 4.20425424,0.656 7.098,0.656 C10.839,0.656 13.872,3.688 13.872,7.429 C13.872,11.17 10.839,14.203 7.098,14.203 C4.20425424,14.203 1.73413055,12.3882461 0.7637,9.83480935 L0.7637,5.0233213 L0.7637,5.0233213 Z" id="path-27"></path>
        <path d="M0.6185,1.78399976 C0.93070621,1.12509176 1.42465204,0.569078536 2.03559956,0.1806 L6.16040044,0.1806 C7.2337749,0.863118423 7.946,2.06276649 7.946,3.429 C7.946,5.555 6.223,7.278 4.098,7.278 C2.56159531,7.278 1.23533581,6.37730313 0.6185,5.07480995 L0.6185,1.78399976 L0.6185,1.78399976 Z" id="path-29"></path>
        <path d="M21.499,0.892579023 C20.9496325,0.844473631 20.651,0.84 20.651,0.84 L0.701,0.84 C1.06525483,0.686406543 1.46569554,0.54491011 1.89782795,0.415 L21.499,0.415 L21.499,0.892579023 L21.499,0.892579023 Z" id="path-31"></path>
        <path d="M39.8739,3.64475658 C39.859255,1.65056732 38.2379059,0.068 36.239,0.068 L3.723,0.068 C3.221,0.068 2.743,0.095 2.309,0.279 C1.005,0.831 0.089,2.049 0.089,3.554 C0.089,4.47929387 0.435034205,5.34231009 1.00461083,6.0038 L39.0163475,6.0038 C39.5460121,5.38411199 39.8674163,4.5821137 39.8739,3.69924336 L39.8739,3.64475658 L39.8739,3.64475658 Z" id="path-33"></path>
    </defs>
    <g id="Herramienta" stroke="none" stroke-width="1" fill="none" fill-rule="evenodd">
        <g id="Simulador-Auto-06" transform="translate(-658.000000, -344.000000)">
            <g id="resultados" transform="translate(512.000000, 296.000000)">
                <g id="Microillustration" transform="translate(146.000000, 48.000000)">
                    <g id="Group-9" transform="translate(9.000000, 0.540000)">
                        <path d="M123.9833,69.2299 C123.9833,99.5329 99.4173,124.0989 69.1143,124.0989 C38.8113,124.0989 14.2453,99.5329 14.2453,69.2299 C14.2453,38.9269 38.8113,14.3609 69.1143,14.3609 C99.4173,14.3609 123.9833,38.9269 123.9833,69.2299" id="Fill-1" fill="#072146"></path>
                        <path d="M0.3456,69.2289 C0.3456,31.2499 31.1336,0.4599 69.1146,0.4599 C107.0946,0.4599 137.8836,31.2499 137.8836,69.2289 C137.8836,107.2099 107.0946,137.9999 69.1146,137.9999 C31.1336,137.9999 0.3456,107.2099 0.3456,69.2289 Z" id="Stroke-3" stroke="#FFFFFF" stroke-width="2" stroke-linecap="round" stroke-dasharray="0,6"></path>
                        <path d="M26.4867,114.7162 C26.4867,119.1852 22.8527,122.8072 18.3707,122.8072 C13.8877,122.8072 10.2537,119.1852 10.2537,114.7162 C10.2537,110.2472 13.8877,106.6232 18.3707,106.6232 C22.8527,106.6232 26.4867,110.2472 26.4867,114.7162" id="Fill-5" fill="#BA9A3D"></path>
                        <path d="M26.4867,113.5029 C26.4867,117.9709 22.8527,121.5939 18.3707,121.5939 C13.8877,121.5939 10.2537,117.9709 10.2537,113.5029 C10.2537,109.0339 13.8877,105.4099 18.3707,105.4099 C22.8527,105.4099 26.4867,109.0339 26.4867,113.5029" id="Fill-7" fill="#F8CD51"></path>
                    </g>
                    <g id="Group-12" transform="translate(19.000000, 105.540000)">
                        <mask id="mask-2" fill="white">
                            <use xlink:href="#path-1"></use>
                        </mask>
                        <g id="Clip-11"></g>
                        <polygon id="Fill-10" fill="#EAB642" mask="url(#mask-2)" points="0.1317 19.1406 19.3957 -0.0654 24.0657 23.7966"></polygon>
                    </g>
                    <g id="Group-19" transform="translate(24.000000, 18.540000)">
                        <path d="M4.4506,97.7153 C4.4506,97.1163 4.2096,96.8753 3.0746,96.3643 C1.4336,95.6213 0.9326,95.0593 0.9326,93.9133 C0.9326,92.7883 1.6496,91.9783 2.7726,91.7353 L2.7726,90.2473 L2.8516,90.2473 L4.1636,90.9433 L4.1636,91.7073 C4.6106,91.7743 5.0136,91.9133 5.3866,92.1263 L5.4576,92.1683 L5.5066,92.1953 L5.4976,92.2513 L5.4846,92.3333 L5.3146,93.3933 L5.2836,93.5923 L5.2626,93.7253 L5.1546,93.6433 L4.9936,93.5213 C4.5486,93.1823 3.9996,92.9873 3.4756,92.9873 C2.7706,92.9873 2.3866,93.3023 2.3866,93.8353 C2.3866,94.3323 2.6356,94.5643 3.7506,95.0723 C5.3976,95.8203 5.9056,96.4153 5.9056,97.6363 C5.9056,98.7713 5.2316,99.6053 4.1636,99.9043 L4.1636,101.4853 L4.0846,101.4853 L2.7726,100.7883 L2.7726,100.0053 C2.1146,99.9493 1.4876,99.7723 0.9596,99.4943 L0.8846,99.4543 L0.8346,99.4273 L0.8426,99.3723 L0.8536,99.2883 L1.0126,98.2043 L1.0406,98.0173 L1.0586,97.8923 L1.1646,97.9613 L1.3236,98.0653 C1.9386,98.4703 2.6226,98.6983 3.2606,98.6983 C4.0016,98.6983 4.4506,98.3243 4.4506,97.7153" id="Fill-13" fill="#FFFFFF"></path>
                        <path d="M121.1464,12.5458 C121.1464,18.1418 116.5964,22.6778 110.9834,22.6778 C105.3704,22.6778 100.8194,18.1418 100.8194,12.5458 C100.8194,6.9498 105.3704,2.4128 110.9834,2.4128 C116.5964,2.4128 121.1464,6.9498 121.1464,12.5458" id="Fill-15" fill="#BA9A3D"></path>
                        <path d="M121.1464,11.0258 C121.1464,16.6218 116.5964,21.1578 110.9834,21.1578 C105.3704,21.1578 100.8194,16.6218 100.8194,11.0258 C100.8194,5.4298 105.3704,0.8928 110.9834,0.8928 C116.5964,0.8928 121.1464,5.4298 121.1464,11.0258" id="Fill-17" fill="#F8CD51"></path>
                    </g>
                    <g id="Group-22" transform="translate(124.000000, 18.540000)">
                        <mask id="mask-4" fill="white">
                            <use xlink:href="#path-3"></use>
                        </mask>
                        <g id="Clip-21"></g>
                        <polygon id="Fill-20" fill="#EAB642" mask="url(#mask-4)" points="0.6669 24.3466 24.7879 0.2976 30.6359 30.1766"></polygon>
                    </g>
                    <g id="Group-36" transform="translate(0.000000, 17.540000)">
                        <path d="M136.3353,14.7968 C136.3353,14.0468 136.0333,13.7448 134.6123,13.1048 C132.5583,12.1748 131.9303,11.4708 131.9303,10.0368 C131.9303,8.6278 132.8283,7.6128 134.2353,7.3088 L134.2353,5.4458 L134.3343,5.4458 L135.9763,6.3178 L135.9763,7.2748 C136.5363,7.3578 137.0413,7.5318 137.5073,7.7978 L137.5973,7.8508 L137.6573,7.8848 L137.6463,7.9548 L137.6293,8.0568 L137.4173,9.3848 L137.3773,9.6338 L137.3513,9.8008 L137.2163,9.6978 L137.0153,9.5458 C136.4593,9.1218 135.7713,8.8768 135.1143,8.8768 C134.2323,8.8768 133.7513,9.2718 133.7513,9.9388 C133.7513,10.5608 134.0623,10.8508 135.4593,11.4878 C137.5213,12.4238 138.1573,13.1698 138.1573,14.6988 C138.1573,16.1188 137.3143,17.1628 135.9763,17.5378 L135.9763,19.5168 L135.8773,19.5168 L134.2353,18.6448 L134.2353,17.6648 C133.4103,17.5938 132.6263,17.3738 131.9643,17.0248 L131.8703,16.9738 L131.8073,16.9408 L131.8183,16.8718 L131.8323,16.7658 L132.0313,15.4098 L132.0663,15.1738 L132.0893,15.0178 L132.2213,15.1048 L132.4193,15.2348 C133.1903,15.7418 134.0473,16.0278 134.8453,16.0278 C135.7733,16.0278 136.3353,15.5598 136.3353,14.7968" id="Fill-23" fill="#FFFFFF"></path>
                        <g id="Group-27" transform="translate(156.000000, 42.000000)">
                            <mask id="mask-6" fill="white">
                                <use xlink:href="#path-5"></use>
                            </mask>
                            <g id="Clip-26"></g>
                            <polygon id="Fill-25" fill="#FADE8E" mask="url(#mask-6)" points="3.6464 4.2758 0.2004 5.3818 3.6464 6.4898 4.7544 9.9368 5.8624 6.4898 9.3084 5.3818 5.8624 4.2758 4.7544 0.8298"></polygon>
                        </g>
                        <polygon id="Fill-28" fill="#FADE8E" points="3.4462 14.8559 0.0002 15.9619 3.4462 17.0709 4.5542 20.5169 5.6622 17.0709 9.1082 15.9619 5.6622 14.8559 4.5542 11.4109"></polygon>
                        <polygon id="Fill-30" fill="#FADE8E" points="153.7997 69.1562 148.9207 70.7222 153.7997 72.2912 155.3687 77.1702 156.9367 72.2912 161.8157 70.7222 156.9367 69.1562 155.3687 64.2782"></polygon>
                        <polygon id="Fill-32" fill="#FADE8E" points="12.5394 2.7875 9.8544 3.6495 12.5394 4.5135 13.4024 7.1975 14.2664 4.5135 16.9504 3.6495 14.2664 2.7875 13.4024 0.1035"></polygon>
                        <path d="M71.8651,49.4418 C71.8651,49.4418 50.0831,54.7428 57.5521,45.5848 C57.9471,45.0998 62.2601,39.4598 68.0011,36.1738 C70.9411,34.4898 77.2121,32.4478 83.2691,32.3878 C106.6681,32.1578 116.4631,41.6948 119.5881,46.8598 L71.8651,49.4418 Z" id="Fill-34" fill="#D0EFF0"></path>
                    </g>
                    <g id="Group-46" transform="translate(55.000000, 49.540000)">
                        <g id="Group-39" transform="translate(27.000000, 1.000000)">
                            <mask id="mask-8" fill="white">
                                <use xlink:href="#path-7"></use>
                            </mask>
                            <g id="Clip-38"></g>
                            <path d="M0.6083,13.3495 C0.6083,13.3495 3.1583,3.0205 13.9963,0.0245 C13.9963,0.0245 32.1003,0.2795 37.8723,12.2655 L0.8633,13.6045" id="Fill-37" fill="#2A86CA" mask="url(#mask-8)"></path>
                        </g>
                        <g id="Group-42">
                            <mask id="mask-10" fill="white">
                                <use xlink:href="#path-9"></use>
                            </mask>
                            <g id="Clip-41"></g>
                            <path d="M-9.6769,39.287 L13.8511,13.709 C13.8511,13.709 18.9221,5.329 27.0831,1.59 C32.5271,-0.904 37.2391,-7.628 37.2391,-7.628 C37.2391,-7.628 53.1471,-4.943 56.2861,-1.835 C59.4251,1.274 72.0011,8.709 72.0011,8.709 L18.0201,39.428 L-9.6769,39.287 Z" id="Fill-40" fill="#6B5BAC" mask="url(#mask-10)"></path>
                        </g>
                        <mask id="mask-12" fill="white">
                            <use xlink:href="#path-11"></use>
                        </mask>
                        <g id="Clip-44"></g>
                        <polygon id="Fill-43" fill="#D0EFF0" mask="url(#mask-12)" points="39.499 14.133 41.195 14.133 41.195 1.415 39.499 1.415"></polygon>
                        <polygon id="Fill-45" fill="#D0EFF0" mask="url(#mask-12)" points="53.49 13.709 54.338 13.709 54.338 6.078 53.49 6.078"></polygon>
                    </g>
                    <path d="M59.9105,82.3261 L122.6475,82.3261 C122.6475,82.3261 127.2095,77.8751 125.8705,71.0921 L124.2435,71.1371 C124.2435,71.1371 120.9385,65.5331 118.5155,62.8551 L82.6725,63.1731 C82.6725,63.1731 51.7495,74.2711 59.9105,82.3261" id="Fill-47" fill="#44E0DC"></path>
                    <g id="Group-64" transform="translate(75.000000, 62.540000)">
                        <g id="Group-51" transform="translate(0.000000, 10.000000)">
                            <mask id="mask-14" fill="white">
                                <use xlink:href="#path-13"></use>
                            </mask>
                            <g id="Clip-50"></g>
                            <path d="M16.5682,8.4872 C16.5682,13.0442 12.8742,16.7382 8.3172,16.7382 C3.7602,16.7382 0.0662,13.0442 0.0662,8.4872 C0.0662,3.9302 3.7602,0.2372 8.3172,0.2372 C12.8742,0.2372 16.5682,3.9302 16.5682,8.4872" id="Fill-49" fill="#004481" mask="url(#mask-14)"></path>
                        </g>
                        <g id="Group-54" transform="translate(6.000000, 0.000000)">
                            <mask id="mask-16" fill="white">
                                <use xlink:href="#path-15"></use>
                            </mask>
                            <g id="Clip-53"></g>
                            <path d="M-7.8029,1.1088 L-6.9549,-11.1612 C-6.9549,-11.1612 12.4401,-16.1422 29.9271,-5.8612 C29.9271,-5.8612 24.5221,-11.1612 -4.3049,-9.4652 L-5.6269,0.9218 L-7.8029,1.1088 Z" id="Fill-52" fill="#6B5BAC" mask="url(#mask-16)"></path>
                        </g>
                        <g id="Group-57" transform="translate(10.000000, 8.000000)">
                            <mask id="mask-18" fill="white">
                                <use xlink:href="#path-17"></use>
                            </mask>
                            <g id="Clip-56"></g>
                            <path d="M0.9154,4.6562 L44.1214,0.0752 L45.3934,11.2212 C45.3934,11.2212 29.1724,14.8952 26.8264,15.1772 C24.4784,15.4602 6.5324,12.5812 6.5324,12.5812" id="Fill-55" fill="#2A86CA" mask="url(#mask-18)"></path>
                        </g>
                        <g id="Group-60" transform="translate(29.000000, 10.000000)">
                            <mask id="mask-20" fill="white">
                                <use xlink:href="#path-19"></use>
                            </mask>
                            <g id="Clip-59"></g>
                            <path d="M16.8192,8.4872 C16.8192,13.0442 13.1262,16.7382 8.5692,16.7382 C4.0112,16.7382 0.3182,13.0442 0.3182,8.4872 C0.3182,3.9302 4.0112,0.2372 8.5692,0.2372 C13.1262,0.2372 16.8192,3.9302 16.8192,8.4872" id="Fill-58" fill="#004481" mask="url(#mask-20)"></path>
                        </g>
                        <g id="Group-63" transform="translate(11.000000, 0.000000)">
                            <mask id="mask-22" fill="white">
                                <use xlink:href="#path-21"></use>
                            </mask>
                            <g id="Clip-62"></g>
                            <polygon id="Fill-61" fill="#6B5BAC" mask="url(#mask-22)" points="0.7279 24.874 40.0829 -14.481 65.5899 13.43 48.9149 32.716 7.2279 27.559"></polygon>
                        </g>
                    </g>
                    <g id="Group-69" transform="translate(75.000000, 74.540000)">
                        <path d="M13.9208,7.4291 C13.9208,11.1701 10.8878,14.2031 7.1478,14.2031 C3.4058,14.2031 0.3738,11.1701 0.3738,7.4291 C0.3738,3.6881 3.4058,0.6561 7.1478,0.6561 C10.8878,0.6561 13.9208,3.6881 13.9208,7.4291" id="Fill-65" fill="#004481"></path>
                        <path d="M15.7328,7.4291 C15.7328,11.1701 12.7008,14.2031 8.9598,14.2031 C5.2188,14.2031 2.1858,11.1701 2.1858,7.4291 C2.1858,3.6881 5.2188,0.6561 8.9598,0.6561 C12.7008,0.6561 15.7328,3.6881 15.7328,7.4291" id="Fill-67" fill="#2A86CA"></path>
                    </g>
                    <g id="Group-72" transform="translate(77.000000, 74.540000)">
                        <mask id="mask-24" fill="white">
                            <use xlink:href="#path-23"></use>
                        </mask>
                        <g id="Clip-71"></g>
                        <polyline id="Fill-70" fill="#6B5BAC" mask="url(#mask-24)" points="0.828 12.9579 13.626 0.1599 18.27 9.2199 11.969 16.9879 6.838 17.9409 4.419 16.6229 0.625 12.8109"></polyline>
                    </g>
                    <path d="M87.807,81.9691 C87.807,84.0951 86.086,85.8181 83.96,85.8181 C81.834,85.8181 80.111,84.0951 80.111,81.9691 C80.111,79.8441 81.834,78.1221 83.96,78.1221 C86.086,78.1221 87.807,79.8441 87.807,81.9691" id="Fill-73" fill="#FFFFFF"></path>
                    <g id="Group-77" transform="translate(80.000000, 78.540000)">
                        <mask id="mask-26" fill="white">
                            <use xlink:href="#path-25"></use>
                        </mask>
                        <g id="Clip-76"></g>
                        <path d="M0.4808,7.7236 L8.0228,0.1806 C8.0228,0.1806 10.1348,4.2236 9.6518,4.7066 C9.1688,5.1896 7.1178,8.3266 6.0318,8.4476 C4.9458,8.5676 3.2558,9.1726 2.7728,9.1726 C2.2908,9.1726 0.4808,7.7236 0.4808,7.7236" id="Fill-75" fill="#E9E9E9" mask="url(#mask-26)"></path>
                    </g>
                    <g id="Group-84" transform="translate(44.000000, 74.540000)">
                        <path d="M13.7738,7.1557 C13.7738,10.8957 10.7418,13.9297 7.0008,13.9297 C3.2588,13.9297 0.2268,10.8957 0.2268,7.1557 C0.2268,3.4147 3.2588,0.3827 7.0008,0.3827 C10.7418,0.3827 13.7738,3.4147 13.7738,7.1557" id="Fill-78" fill="#004481"></path>
                        <path d="M74.0594,7.4291 C74.0594,11.1701 71.0264,14.2031 67.2864,14.2031 C63.5444,14.2031 60.5114,11.1701 60.5114,7.4291 C60.5114,3.6881 63.5444,0.6561 67.2864,0.6561 C71.0264,0.6561 74.0594,3.6881 74.0594,7.4291" id="Fill-80" fill="#004481"></path>
                        <path d="M75.8719,7.4291 C75.8719,11.1701 72.8389,14.2031 69.0989,14.2031 C65.3569,14.2031 62.3249,11.1701 62.3249,7.4291 C62.3249,3.6881 65.3569,0.6561 69.0989,0.6561 C72.8389,0.6561 75.8719,3.6881 75.8719,7.4291" id="Fill-82" fill="#2A86CA"></path>
                    </g>
                    <g id="Group-87" transform="translate(106.000000, 74.540000)">
                        <mask id="mask-28" fill="white">
                            <use xlink:href="#path-27"></use>
                        </mask>
                        <g id="Clip-86"></g>
                        <polyline id="Fill-85" fill="#6B5BAC" mask="url(#mask-28)" points="0.9667 12.9579 13.7647 0.1599 18.4087 9.2199 12.1067 16.9879 6.9767 17.9409 4.5577 16.6229 0.7637 12.8109"></polyline>
                    </g>
                    <path d="M116.9457,81.9691 C116.9457,84.0951 115.2237,85.8181 113.0987,85.8181 C110.9727,85.8181 109.2497,84.0951 109.2497,81.9691 C109.2497,79.8441 110.9727,78.1221 113.0987,78.1221 C115.2237,78.1221 116.9457,79.8441 116.9457,81.9691" id="Fill-88" fill="#FFFFFF"></path>
                    <g id="Group-92" transform="translate(109.000000, 78.540000)">
                        <mask id="mask-30" fill="white">
                            <use xlink:href="#path-29"></use>
                        </mask>
                        <g id="Clip-91"></g>
                        <path d="M0.6185,7.7236 L8.1615,0.1806 C8.1615,0.1806 10.2735,4.2236 9.7905,4.7066 C9.3075,5.1896 7.2565,8.3266 6.1705,8.4476 C5.0845,8.5676 3.3955,9.1726 2.9115,9.1726 C2.4295,9.1726 0.6185,7.7236 0.6185,7.7236" id="Fill-90" fill="#E9E9E9" mask="url(#mask-30)"></path>
                    </g>
                    <g id="Group-109" transform="translate(35.000000, 49.540000)">
                        <path d="M1.7035,20.4052 C1.7035,20.4052 6.2955,16.1472 22.2995,13.7092 L48.0575,13.7092 C48.0575,13.7092 41.5045,16.7392 37.2405,20.6232 L1.9585,20.5322" id="Fill-93" fill="#44E0DC"></path>
                        <path d="M0.7845,26.0034 C0.7455,26.4274 0.7015,26.2074 0.7015,26.4814 C0.7015,26.4814 0.2195,25.3704 0.1485,27.9824 C0.0785,30.5964 1.9305,32.7864 4.2565,32.7864 L33.3865,32.7864 C35.7115,32.7864 37.4545,30.6414 37.4545,27.9824 L37.4545,27.1804 L37.4545,26.0034 L0.7845,26.0034 Z" id="Fill-95" fill="#44E0DC"></path>
                        <path d="M59.9232,1.6669 L59.9232,15.8289 L62.4672,15.8289 L62.4672,1.6669 C62.4672,1.6669 60.7712,1.4929 59.9232,1.6669" id="Fill-97" fill="#44E0DC"></path>
                        <polygon id="Fill-99" fill="#44E0DC" points="73.9135 5.8696 73.9135 14.9806 75.1855 14.1086 75.1855 6.2516"></polygon>
                        <polygon id="Fill-101" fill="#2A86CA" points="11.595 31.515 24.737 31.515 24.737 28.547 11.595 28.547"></polygon>
                        <polygon id="Fill-103" fill="#2A86CA" points="33.5868 31.5146 25.5848 31.5146 25.5848 28.5466 36.1838 28.5466"></polygon>
                        <polygon id="Fill-105" fill="#2A86CA" points="10.7474 31.5146 3.5934 31.5146 1.8444 28.5466 10.7474 28.5466"></polygon>
                        <path d="M38.701,1.8393 L58.652,1.8393 C58.652,1.8393 71.4,2.0313 83.539,13.3373 C83.539,13.3373 79.38,6.1373 66.141,1.8393 C60.701,0.0723 44.733,-0.7037 38.701,1.8393" id="Fill-107" fill="#44E0DC"></path>
                    </g>
                    <g id="Group-112" transform="translate(73.000000, 50.540000)">
                        <mask id="mask-32" fill="white">
                            <use xlink:href="#path-31"></use>
                        </mask>
                        <g id="Clip-111"></g>
                        <polygon id="Fill-110" fill="#02A5A5" mask="url(#mask-32)" points="-1.393 2.535 21.499 2.535 21.499 0.415 -1.393 0.415"></polygon>
                    </g>
                    <g id="Group-119" transform="translate(34.000000, 63.540000)">
                        <path d="M52.0214,6.0683 C52.0214,6.0683 80.6364,2.7823 84.8754,2.9943 C84.8754,2.9943 68.7664,1.1933 52.0214,6.0683" id="Fill-113" fill="#FFFFFF"></path>
                        <path d="M37.3246,5.9272 C37.3246,5.9272 47.2826,0.7252 48.0266,0.8532 C48.7706,0.9812 37.3246,5.9272 37.3246,5.9272" id="Fill-115" fill="#D0EFF0"></path>
                        <path d="M39.8739,9.6718 C39.8739,11.6788 38.2469,13.2758 36.2389,13.2758 L3.7229,13.2758 C1.7159,13.2758 0.0889,11.5608 0.0889,9.5538 C0.0889,8.0488 1.0039,6.8318 2.3089,6.2788 C2.7429,6.0958 3.2219,6.0678 3.7229,6.0678 L36.2389,6.0678 C38.2469,6.0678 39.8739,7.6648 39.8739,9.6718" id="Fill-117" fill="#008C88"></path>
                    </g>
                    <g id="Group-122" transform="translate(34.000000, 69.540000)">
                        <mask id="mask-34" fill="white">
                            <use xlink:href="#path-33"></use>
                        </mask>
                        <g id="Clip-121"></g>
                        <path d="M39.8739,2.3998 C39.8739,4.4068 38.2469,6.0038 36.2389,6.0038 L3.7229,6.0038 C1.7159,6.0038 0.0889,4.2888 0.0889,2.2818 C0.0889,0.7768 1.0039,-0.4402 2.3089,-0.9932 C2.7429,-1.1762 3.2219,-1.2042 3.7229,-1.2042 L36.2389,-1.2042 C38.2469,-1.2042 39.8739,0.3928 39.8739,2.3998" id="Fill-120" fill="#02A5A5" mask="url(#mask-34)"></path>
                    </g>
                    <g id="Group-135" transform="translate(35.000000, 69.540000)">
                        <path d="M20.1766,3.3471 C20.1766,4.4171 19.3096,5.2841 18.2396,5.2841 C17.1706,5.2841 16.3036,4.4171 16.3036,3.3471 C16.3036,2.2781 17.1706,1.4101 18.2396,1.4101 C19.3096,1.4101 20.1766,2.2781 20.1766,3.3471" id="Fill-123" fill="#FFFFFF"></path>
                        <path d="M35.3353,12.873 C35.3353,13.06 35.1843,13.21 34.9983,13.21 L3.8773,13.21 C3.6913,13.21 3.5403,13.06 3.5403,12.873 L3.5403,12.699 C3.5403,12.513 3.6913,12.362 3.8773,12.362 L34.9983,12.362 C35.1843,12.362 35.3353,12.513 35.3353,12.699 L35.3353,12.873 Z" id="Fill-125" fill="#FFFFFF"></path>
                        <path d="M37.1327,2.9853 C37.1327,4.2293 36.1237,5.2383 34.8797,5.2383 C33.6347,5.2383 32.6267,4.2293 32.6267,2.9853 C32.6267,1.7413 33.6347,0.7313 34.8797,0.7313 C36.1237,0.7313 37.1327,1.7413 37.1327,2.9853" id="Fill-127" fill="#FDF0CA"></path>
                        <path d="M5.4467,2.9853 C5.4467,4.2293 4.4377,5.2383 3.1937,5.2383 C1.9487,5.2383 0.9407,4.2293 0.9407,2.9853 C0.9407,1.7413 1.9487,0.7313 3.1937,0.7313 C4.4377,0.7313 5.4467,1.7413 5.4467,2.9853" id="Fill-129" fill="#FDF0CA"></path>
                        <path d="M34.8856,5.7182 L31.0736,5.7182 C29.6536,5.7182 28.4906,4.5552 28.4906,3.1352 L28.4906,3.0202 C28.4906,1.5992 29.6536,0.4372 31.0736,0.4372 L34.8856,0.4372 C36.3066,0.4372 37.4686,1.5992 37.4686,3.0202 L37.4686,3.1352 C37.4686,4.5552 36.3066,5.7182 34.8856,5.7182" id="Fill-131" fill="#FDF0CA"></path>
                        <path d="M7.0404,5.7182 L3.2284,5.7182 C1.8084,5.7182 0.6454,4.5552 0.6454,3.1352 L0.6454,3.0202 C0.6454,1.5992 1.8084,0.4372 3.2284,0.4372 L7.0404,0.4372 C8.4604,0.4372 9.6234,1.5992 9.6234,3.0202 L9.6234,3.1352 C9.6234,4.5552 8.4604,5.7182 7.0404,5.7182" id="Fill-133" fill="#FDF0CA"></path>
                    </g>
                </g>
            </g>
        </g>
    </g>
</svg>